<?xml version="1.0" encoding="UTF-8" standalone="no"?><svg xmlns="http://www.w3.org/2000/svg" xmlns:xlink="http://www.w3.org/1999/xlink" clip-rule="evenodd" stroke-miterlimit="10" viewBox="0 0 1024 768"><desc>SVG generated by Keynote</desc><defs></defs><g transform="matrix(1.00, 0.00, -0.00, -1.00, 0.0, 768.0)"><g><clipPath id="clip0x7fde3dbe7b10"><path d="M 0.0 768.0 L 1024.0 768.0 L 1024.0 0.0 L 0.0 0.0 Z M 0.0 768.0 "></path></clipPath><g clip-path="url(#clip0x7fde3dbe7b10)"><image xlink:href="../../9A547B16-7CB2-4235-A9D6-7078228DA1F4/assets/574DCE55A4CF432400CBDDDE1DFDFC9B.jpeg" width="2048.00" height="1536.00" transform="matrix(0.50, 0.00, -0.00, -0.50, 0.0, 768.0)"></image></g></g><text xml:space="preserve" font-family="GillSans-Light,Gill Sans" font-size="72.0" fill="#525252" transform="matrix(1.00, 0.00, -0.00, -1.00, 461.3, 628.2)">S</text><text xml:space="preserve" font-family="GillSans-Light,Gill Sans" font-size="72.0" fill="#525252" transform="matrix(1.00, 0.00, -0.00, -1.00, 495.1, 628.2)">S</text><text xml:space="preserve" font-family="GillSans-Light,Gill Sans" font-size="72.0" fill="#525252" transform="matrix(1.00, 0.00, -0.00, -1.00, 528.9, 628.2)">L</text><text xml:space="preserve" font-family="GillSans-Light,Gill Sans" font-size="31.2" fill="#525252" transform="matrix(1.00, 0.00, -0.00, -1.00, 32.0, 480.4)">•</text><text xml:space="preserve" font-family="GillSans-Light,Gill Sans" font-size="38.0" fill="#525252" transform="matrix(1.00, 0.00, -0.00, -1.00, 66.0, 478.1)">N</text><text xml:space="preserve" font-family="GillSans-Light,Gill Sans" font-size="38.0" fill="#525252" transform="matrix(1.00, 0.00, -0.00, -1.00, 95.3, 478.1)">e</text><text xml:space="preserve" font-family="GillSans-Light,Gill Sans" font-size="38.0" fill="#525252" transform="matrix(1.00, 0.00, -0.00, -1.00, 113.5, 478.1)">t</text><text xml:space="preserve" font-family="GillSans-Light,Gill Sans" font-size="38.0" fill="#525252" transform="matrix(1.00, 0.00, -0.00, -1.00, 125.0, 478.1)">w</text><text xml:space="preserve" font-family="GillSans-Light,Gill Sans" font-size="38.0" fill="#525252" transform="matrix(1.00, 0.00, -0.00, -1.00, 151.3, 478.1)">o</text><text xml:space="preserve" font-family="GillSans-Light,Gill Sans" font-size="38.0" fill="#525252" transform="matrix(1.00, 0.00, -0.00, -1.00, 171.9, 478.1)">r</text><text xml:space="preserve" font-family="GillSans-Light,Gill Sans" font-size="38.0" fill="#525252" transform="matrix(1.00, 0.00, -0.00, -1.00, 186.1, 478.1)">k</text><text xml:space="preserve" font-family="GillSans-Light,Gill Sans" font-size="38.0" fill="#525252" transform="matrix(1.00, 0.00, -0.00, -1.00, 202.3, 478.1)"> </text><text xml:space="preserve" font-family="GillSans-Light,Gill Sans" font-size="38.0" fill="#525252" transform="matrix(1.00, 0.00, -0.00, -1.00, 212.8, 478.1)">d</text><text xml:space="preserve" font-family="GillSans-Light,Gill Sans" font-size="38.0" fill="#525252" transform="matrix(1.00, 0.00, -0.00, -1.00, 232.2, 478.1)">a</text><text xml:space="preserve" font-family="GillSans-Light,Gill Sans" font-size="38.0" fill="#525252" transform="matrix(1.00, 0.00, -0.00, -1.00, 248.4, 478.1)">t</text><text xml:space="preserve" font-family="GillSans-Light,Gill Sans" font-size="38.0" fill="#525252" transform="matrix(1.00, 0.00, -0.00, -1.00, 259.9, 478.1)">a</text><text xml:space="preserve" font-family="GillSans-Light,Gill Sans" font-size="38.0" fill="#525252" transform="matrix(1.00, 0.00, -0.00, -1.00, 276.1, 478.1)"> </text><text xml:space="preserve" font-family="GillSans-Light,Gill Sans" font-size="38.0" fill="#525252" transform="matrix(1.00, 0.00, -0.00, -1.00, 286.6, 478.1)">e</text><text xml:space="preserve" font-family="GillSans-Light,Gill Sans" font-size="38.0" fill="#525252" transform="matrix(1.00, 0.00, -0.00, -1.00, 304.8, 478.1)">n</text><text xml:space="preserve" font-family="GillSans-Light,Gill Sans" font-size="38.0" fill="#525252" transform="matrix(1.00, 0.00, -0.00, -1.00, 323.4, 478.1)">c</text><text xml:space="preserve" font-family="GillSans-Light,Gill Sans" font-size="38.0" fill="#525252" transform="matrix(1.00, 0.00, -0.00, -1.00, 339.3, 478.1)">r</text><text xml:space="preserve" font-family="GillSans-Light,Gill Sans" font-size="38.0" fill="#525252" transform="matrix(1.00, 0.00, -0.00, -1.00, 354.6, 478.1)">y</text><text xml:space="preserve" font-family="GillSans-Light,Gill Sans" font-size="38.0" fill="#525252" transform="matrix(1.00, 0.00, -0.00, -1.00, 370.4, 478.1)">p</text><text xml:space="preserve" font-family="GillSans-Light,Gill Sans" font-size="38.0" fill="#525252" transform="matrix(1.00, 0.00, -0.00, -1.00, 389.8, 478.1)">t</text><text xml:space="preserve" font-family="GillSans-Light,Gill Sans" font-size="38.0" fill="#525252" transform="matrix(1.00, 0.00, -0.00, -1.00, 401.3, 478.1)">i</text><text xml:space="preserve" font-family="GillSans-Light,Gill Sans" font-size="38.0" fill="#525252" transform="matrix(1.00, 0.00, -0.00, -1.00, 408.4, 478.1)">o</text><text xml:space="preserve" font-family="GillSans-Light,Gill Sans" font-size="38.0" fill="#525252" transform="matrix(1.00, 0.00, -0.00, -1.00, 429.0, 478.1)">n</text><text xml:space="preserve" font-family="GillSans-Light,Gill Sans" font-size="31.2" fill="#525252" transform="matrix(1.00, 0.00, -0.00, -1.00, 32.0, 399.4)">•</text><text xml:space="preserve" font-family="GillSans-Light,Gill Sans" font-size="38.0" fill="#525252" transform="matrix(1.00, 0.00, -0.00, -1.00, 66.0, 397.1)">T</text><text xml:space="preserve" font-family="GillSans-Light,Gill Sans" font-size="38.0" fill="#525252" transform="matrix(1.00, 0.00, -0.00, -1.00, 87.8, 397.1)">h</text><text xml:space="preserve" font-family="GillSans-Light,Gill Sans" font-size="38.0" fill="#525252" transform="matrix(1.00, 0.00, -0.00, -1.00, 106.4, 397.1)">r</text><text xml:space="preserve" font-family="GillSans-Light,Gill Sans" font-size="38.0" fill="#525252" transform="matrix(1.00, 0.00, -0.00, -1.00, 119.1, 397.1)">e</text><text xml:space="preserve" font-family="GillSans-Light,Gill Sans" font-size="38.0" fill="#525252" transform="matrix(1.00, 0.00, -0.00, -1.00, 137.3, 397.1)">e</text><text xml:space="preserve" font-family="GillSans-Light,Gill Sans" font-size="38.0" fill="#525252" transform="matrix(1.00, 0.00, -0.00, -1.00, 155.5, 397.1)"> </text><text xml:space="preserve" font-family="GillSans-Light,Gill Sans" font-size="38.0" fill="#525252" transform="matrix(1.00, 0.00, -0.00, -1.00, 166.0, 397.1)">k</text><text xml:space="preserve" font-family="GillSans-Light,Gill Sans" font-size="38.0" fill="#525252" transform="matrix(1.00, 0.00, -0.00, -1.00, 181.9, 397.1)">e</text><text xml:space="preserve" font-family="GillSans-Light,Gill Sans" font-size="38.0" fill="#525252" transform="matrix(1.00, 0.00, -0.00, -1.00, 200.1, 397.1)">y</text><text xml:space="preserve" font-family="GillSans-Light,Gill Sans" font-size="38.0" fill="#525252" transform="matrix(1.00, 0.00, -0.00, -1.00, 215.9, 397.1)">s</text><text xml:space="preserve" font-family="GillSans-Light,Gill Sans" font-size="38.0" fill="#525252" transform="matrix(1.00, 0.00, -0.00, -1.00, 229.4, 397.1)"> </text><text xml:space="preserve" font-family="GillSans-Light,Gill Sans" font-size="38.0" fill="#525252" transform="matrix(1.00, 0.00, -0.00, -1.00, 239.9, 397.1)">r</text><text xml:space="preserve" font-family="GillSans-Light,Gill Sans" font-size="38.0" fill="#525252" transform="matrix(1.00, 0.00, -0.00, -1.00, 252.6, 397.1)">e</text><text xml:space="preserve" font-family="GillSans-Light,Gill Sans" font-size="38.0" fill="#525252" transform="matrix(1.00, 0.00, -0.00, -1.00, 270.8, 397.1)">q</text><text xml:space="preserve" font-family="GillSans-Light,Gill Sans" font-size="38.0" fill="#525252" transform="matrix(1.00, 0.00, -0.00, -1.00, 290.1, 397.1)">u</text><text xml:space="preserve" font-family="GillSans-Light,Gill Sans" font-size="38.0" fill="#525252" transform="matrix(1.00, 0.00, -0.00, -1.00, 308.8, 397.1)">i</text><text xml:space="preserve" font-family="GillSans-Light,Gill Sans" font-size="38.0" fill="#525252" transform="matrix(1.00, 0.00, -0.00, -1.00, 315.9, 397.1)">r</text><text xml:space="preserve" font-family="GillSans-Light,Gill Sans" font-size="38.0" fill="#525252" transform="matrix(1.00, 0.00, -0.00, -1.00, 328.6, 397.1)">e</text><text xml:space="preserve" font-family="GillSans-Light,Gill Sans" font-size="38.0" fill="#525252" transform="matrix(1.00, 0.00, -0.00, -1.00, 346.8, 397.1)">d</text><text xml:space="preserve" font-family="GillSans-Light,Gill Sans" font-size="38.0" fill="#525252" transform="matrix(1.00, 0.00, -0.00, -1.00, 366.1, 397.1)">:</text><text xml:space="preserve" font-family="GillSans-Light,Gill Sans" font-size="38.0" fill="#525252" transform="matrix(1.00, 0.00, -0.00, -1.00, 369.8, 397.1)"> </text><text xml:space="preserve" font-family="GillSans-Light,Gill Sans" font-size="38.0" fill="#525252" transform="matrix(1.00, 0.00, -0.00, -1.00, 380.4, 397.1)">P</text><text xml:space="preserve" font-family="GillSans-Light,Gill Sans" font-size="38.0" fill="#525252" transform="matrix(1.00, 0.00, -0.00, -1.00, 399.7, 397.1)">r</text><text xml:space="preserve" font-family="GillSans-Light,Gill Sans" font-size="38.0" fill="#525252" transform="matrix(1.00, 0.00, -0.00, -1.00, 413.3, 397.1)">i</text><text xml:space="preserve" font-family="GillSans-Light,Gill Sans" font-size="38.0" fill="#525252" transform="matrix(1.00, 0.00, -0.00, -1.00, 420.5, 397.1)">v</text><text xml:space="preserve" font-family="GillSans-Light,Gill Sans" font-size="38.0" fill="#525252" transform="matrix(1.00, 0.00, -0.00, -1.00, 436.7, 397.1)">a</text><text xml:space="preserve" font-family="GillSans-Light,Gill Sans" font-size="38.0" fill="#525252" transform="matrix(1.00, 0.00, -0.00, -1.00, 452.9, 397.1)">t</text><text xml:space="preserve" font-family="GillSans-Light,Gill Sans" font-size="38.0" fill="#525252" transform="matrix(1.00, 0.00, -0.00, -1.00, 464.3, 397.1)">e</text><text xml:space="preserve" font-family="GillSans-Light,Gill Sans" font-size="38.0" fill="#525252" transform="matrix(1.00, 0.00, -0.00, -1.00, 483.7, 397.1)">,</text><text xml:space="preserve" font-family="GillSans-Light,Gill Sans" font-size="38.0" fill="#525252" transform="matrix(1.00, 0.00, -0.00, -1.00, 487.3, 397.1)"> </text><text xml:space="preserve" font-family="GillSans-Light,Gill Sans" font-size="38.0" fill="#525252" transform="matrix(1.00, 0.00, -0.00, -1.00, 66.0, 354.1)">p</text><text xml:space="preserve" font-family="GillSans-Light,Gill Sans" font-size="38.0" fill="#525252" transform="matrix(1.00, 0.00, -0.00, -1.00, 85.4, 354.1)">u</text><text xml:space="preserve" font-family="GillSans-Light,Gill Sans" font-size="38.0" fill="#525252" transform="matrix(1.00, 0.00, -0.00, -1.00, 104.0, 354.1)">b</text><text xml:space="preserve" font-family="GillSans-Light,Gill Sans" font-size="38.0" fill="#525252" transform="matrix(1.00, 0.00, -0.00, -1.00, 122.8, 354.1)">l</text><text xml:space="preserve" font-family="GillSans-Light,Gill Sans" font-size="38.0" fill="#525252" transform="matrix(1.00, 0.00, -0.00, -1.00, 129.9, 354.1)">i</text><text xml:space="preserve" font-family="GillSans-Light,Gill Sans" font-size="38.0" fill="#525252" transform="matrix(1.00, 0.00, -0.00, -1.00, 137.1, 354.1)">c</text><text xml:space="preserve" font-family="GillSans-Light,Gill Sans" font-size="38.0" fill="#525252" transform="matrix(1.00, 0.00, -0.00, -1.00, 153.9, 354.1)">,</text><text xml:space="preserve" font-family="GillSans-Light,Gill Sans" font-size="38.0" fill="#525252" transform="matrix(1.00, 0.00, -0.00, -1.00, 157.5, 354.1)"> </text><text xml:space="preserve" font-family="GillSans-Light,Gill Sans" font-size="38.0" fill="#525252" transform="matrix(1.00, 0.00, -0.00, -1.00, 168.1, 354.1)">i</text><text xml:space="preserve" font-family="GillSans-Light,Gill Sans" font-size="38.0" fill="#525252" transform="matrix(1.00, 0.00, -0.00, -1.00, 175.2, 354.1)">n</text><text xml:space="preserve" font-family="GillSans-Light,Gill Sans" font-size="38.0" fill="#525252" transform="matrix(1.00, 0.00, -0.00, -1.00, 193.9, 354.1)">t</text><text xml:space="preserve" font-family="GillSans-Light,Gill Sans" font-size="38.0" fill="#525252" transform="matrix(1.00, 0.00, -0.00, -1.00, 205.3, 354.1)">e</text><text xml:space="preserve" font-family="GillSans-Light,Gill Sans" font-size="38.0" fill="#525252" transform="matrix(1.00, 0.00, -0.00, -1.00, 223.5, 354.1)">r</text><text xml:space="preserve" font-family="GillSans-Light,Gill Sans" font-size="38.0" fill="#525252" transform="matrix(1.00, 0.00, -0.00, -1.00, 237.1, 354.1)">m</text><text xml:space="preserve" font-family="GillSans-Light,Gill Sans" font-size="38.0" fill="#525252" transform="matrix(1.00, 0.00, -0.00, -1.00, 266.4, 354.1)">e</text><text xml:space="preserve" font-family="GillSans-Light,Gill Sans" font-size="38.0" fill="#525252" transform="matrix(1.00, 0.00, -0.00, -1.00, 284.6, 354.1)">d</text><text xml:space="preserve" font-family="GillSans-Light,Gill Sans" font-size="38.0" fill="#525252" transform="matrix(1.00, 0.00, -0.00, -1.00, 304.0, 354.1)">i</text><text xml:space="preserve" font-family="GillSans-Light,Gill Sans" font-size="38.0" fill="#525252" transform="matrix(1.00, 0.00, -0.00, -1.00, 311.1, 354.1)">a</text><text xml:space="preserve" font-family="GillSans-Light,Gill Sans" font-size="38.0" fill="#525252" transform="matrix(1.00, 0.00, -0.00, -1.00, 327.3, 354.1)">t</text><text xml:space="preserve" font-family="GillSans-Light,Gill Sans" font-size="38.0" fill="#525252" transform="matrix(1.00, 0.00, -0.00, -1.00, 338.8, 354.1)">e</text><text xml:space="preserve" font-family="GillSans-Light,Gill Sans" font-size="38.0" fill="#525252" transform="matrix(1.00, 0.00, -0.00, -1.00, 357.0, 354.1)"> </text><text xml:space="preserve" font-family="GillSans-Light,Gill Sans" font-size="38.0" fill="#525252" transform="matrix(1.00, 0.00, -0.00, -1.00, 367.5, 354.1)">C</text><text xml:space="preserve" font-family="GillSans-Light,Gill Sans" font-size="38.0" fill="#525252" transform="matrix(1.00, 0.00, -0.00, -1.00, 395.0, 354.1)">A</text><text xml:space="preserve" font-family="GillSans-Light,Gill Sans" font-size="38.0" fill="#525252" transform="matrix(1.00, 0.00, -0.00, -1.00, 420.3, 354.1)">.</text><image xlink:href="../../35CB90C3-29CC-4939-A6C8-864C38C91AC1/assets/ACE92ED16FBFD4A3A6317868DDE2C089.png" width="703.00" height="767.00" transform="matrix(0.80, 0.00, -0.00, -0.80, 468.0, 593.0)"></image><image xlink:href="../../35CB90C3-29CC-4939-A6C8-864C38C91AC1/assets/171C0CEF9CD5561822253199B8EAE002.png" width="448.00" height="430.00" transform="matrix(0.67, 0.00, -0.00, -0.67, 82.0, 327.0)"></image><image xlink:href="../../35CB90C3-29CC-4939-A6C8-864C38C91AC1/assets/A94B6759218E7AE700E2C8725007E110.png" width="316.00" height="308.00" transform="matrix(1.00, 0.00, -0.00, 1.00, 75.0, 23.0)"></image><path d="M 198.9 290.6 C 199.3 290.6 200.6 290.4 200.6 290.3 C 200.1 290.4 199.0 290.6 198.9 290.6 C 198.9 290.6 198.9 290.6 198.9 290.6 Z M 196.1 291.0 C 196.7 291.0 197.8 290.8 198.1 290.8 C 197.5 290.9 196.3 290.9 196.1 291.0 C 196.1 291.0 196.1 291.0 196.1 291.0 Z M 200.4 290.2 C 201.1 290.1 202.4 289.9 202.7 289.8 C 202.0 289.9 200.7 290.1 200.4 290.2 C 200.4 290.2 200.4 290.2 200.4 290.2 Z M 160.9 286.6 C 161.3 286.8 163.0 287.7 163.0 287.6 C 162.4 287.3 161.1 286.6 160.9 286.6 C 160.9 286.6 160.9 286.6 160.9 286.6 Z M 168.7 289.6 C 169.2 289.8 170.2 290.1 170.5 290.1 C 170.0 290.0 168.9 289.6 168.7 289.6 C 168.7 289.6 168.7 289.6 168.7 289.6 Z M 172.9 290.7 C 173.9 291.0 175.0 291.1 174.9 291.0 C 174.5 291.0 173.0 290.7 172.9 290.7 C 172.9 290.7 172.9 290.7 172.9 290.7 Z M 199.1 287.7 C 198.0 287.9 197.2 288.0 196.5 288.0 C 192.8 288.5 198.4 287.9 199.1 287.7 C 199.1 287.7 199.1 287.7 199.1 287.7 Z M 180.9 291.7 C 180.1 291.6 179.5 291.6 179.1 291.6 C 179.8 291.7 180.8 291.8 180.9 291.7 C 180.9 291.7 180.9 291.7 180.9 291.7 Z M 187.7 292.0 C 187.8 292.0 191.9 291.9 194.1 291.7 C 192.2 291.8 187.5 291.9 187.7 292.0 C 187.7 292.0 187.7 292.0 187.7 292.0 Z M 190.2 288.5 C 187.7 288.6 183.7 288.5 181.9 288.3 C 180.1 288.2 185.1 288.7 189.7 288.6 C 194.4 288.5 190.5 288.5 192.4 288.3 C 194.3 288.2 190.6 288.4 188.7 288.4 C 186.9 288.5 190.0 288.4 190.2 288.5 C 190.2 288.5 190.2 288.5 190.2 288.5 Z M 190.3 288.2 C 191.2 288.2 192.0 288.2 192.5 288.1 C 191.6 288.1 190.7 288.1 190.3 288.2 C 190.3 288.2 190.3 288.2 190.3 288.2 Z M 211.5 285.7 C 212.1 286.2 215.1 285.4 217.4 284.1 C 218.0 283.8 218.5 283.4 219.0 283.0 C 222.4 280.0 223.3 275.3 220.8 271.6 C 220.3 270.9 219.7 270.2 219.0 269.5 C 216.8 267.4 212.9 265.4 210.5 264.5 C 209.8 264.2 209.0 263.9 208.1 263.7 C 205.2 262.7 202.1 262.1 198.9 261.6 C 197.3 261.4 195.6 261.1 193.8 260.9 C 193.0 260.8 189.2 260.7 187.8 260.7 C 189.1 260.6 182.9 260.8 183.2 260.8 C 182.5 260.9 181.8 261.0 181.1 261.0 C 180.4 261.1 181.3 261.1 182.2 261.0 C 181.4 261.1 180.6 261.2 179.8 261.3 C 178.9 261.4 178.1 261.5 177.2 261.6 C 174.4 261.9 171.5 262.6 169.2 263.3 C 167.6 263.8 165.9 264.2 162.5 265.8 C 159.1 267.5 156.5 269.6 155.0 271.9 C 152.1 276.3 154.2 280.4 153.8 278.8 C 152.9 275.1 153.6 277.0 153.7 277.9 C 153.8 278.5 154.0 279.3 154.4 280.1 C 154.4 280.1 154.3 280.0 154.3 279.9 C 154.9 281.5 156.4 283.5 158.8 285.2 C 158.3 284.8 157.8 284.4 157.7 284.2 C 158.7 285.1 157.9 284.4 158.7 284.9 C 160.8 286.5 162.0 287.1 159.4 285.4 C 161.8 287.0 164.1 287.8 166.2 288.5 C 166.9 288.7 166.5 288.6 166.3 288.5 C 167.6 289.1 170.9 290.0 171.2 290.1 C 171.3 290.1 169.1 289.6 167.1 288.9 C 165.1 288.2 162.9 287.2 164.0 287.8 C 165.0 288.2 166.0 288.6 166.5 288.8 C 165.4 288.4 164.0 287.8 162.9 287.4 C 164.0 287.9 165.2 288.4 165.8 288.6 C 165.1 288.3 164.6 288.1 164.4 288.1 C 165.4 288.5 166.2 288.8 167.5 289.2 C 168.1 289.4 167.0 289.0 168.2 289.4 C 168.5 289.5 167.4 289.1 167.5 289.1 C 168.5 289.5 170.6 290.0 171.1 290.1 C 171.6 290.3 169.8 289.8 169.8 289.8 C 173.9 290.9 178.9 291.5 180.5 291.6 C 182.1 291.8 180.6 291.6 179.9 291.6 C 181.8 291.7 183.2 291.8 185.4 291.9 C 186.9 291.9 186.3 291.9 185.8 291.9 C 186.1 291.9 186.5 291.9 186.7 291.9 C 186.9 291.9 187.3 291.9 187.5 291.9 C 186.7 291.8 185.0 291.8 184.3 291.7 C 185.6 291.8 188.8 291.8 189.9 291.8 C 188.1 291.8 186.1 291.8 184.1 291.6 C 188.1 291.8 192.1 291.8 195.3 291.4 C 194.7 291.4 194.5 291.4 194.0 291.4 C 195.2 291.4 196.9 291.2 198.0 291.0 C 198.6 290.9 199.7 290.7 200.8 290.5 C 198.8 290.8 197.5 291.0 196.1 291.2 C 196.1 291.2 196.2 291.1 196.5 291.1 C 193.3 291.3 191.5 291.6 189.2 291.7 C 189.0 291.7 188.8 291.7 188.6 291.7 C 187.9 291.6 190.5 291.6 190.8 291.5 C 187.4 291.6 183.7 291.5 182.0 291.3 C 186.0 291.6 189.6 291.6 192.6 291.3 C 191.8 291.3 188.8 291.5 187.3 291.4 C 194.0 291.4 194.6 291.1 195.1 291.0 C 194.6 291.0 194.1 291.1 193.6 291.1 C 193.7 291.1 193.8 291.1 194.0 291.0 C 196.8 290.8 200.1 290.3 199.9 290.3 C 199.8 290.3 197.3 290.7 194.5 290.9 C 194.8 290.9 195.1 290.8 195.4 290.8 C 198.6 290.4 202.1 289.7 205.0 289.0 C 204.5 289.1 204.7 289.0 205.3 288.8 C 204.4 289.0 203.1 289.4 202.1 289.5 C 202.4 289.4 203.0 289.3 203.2 289.2 C 202.7 289.3 201.9 289.5 201.7 289.5 C 203.1 289.2 204.6 288.9 206.0 288.4 C 206.3 288.3 205.4 288.6 205.5 288.5 C 206.8 288.2 208.6 287.6 209.5 287.2 C 208.4 287.5 206.3 288.2 205.6 288.4 C 206.0 288.3 206.5 288.1 206.9 288.0 C 207.8 287.7 208.2 287.5 207.2 287.8 C 206.7 288.0 206.7 288.0 206.8 287.9 C 207.4 287.7 209.5 287.0 209.4 286.9 C 208.9 287.1 206.8 287.8 206.3 287.9 C 206.6 287.7 207.7 287.4 207.8 287.3 C 205.5 288.1 205.6 288.0 205.0 288.2 C 205.2 288.1 205.9 287.9 205.9 288.0 C 204.4 288.4 202.9 288.7 201.3 289.1 C 201.3 289.1 201.3 289.1 201.3 289.1 C 201.3 289.1 201.3 289.1 201.3 289.1 C 201.3 289.1 201.3 289.1 201.3 289.1 C 201.4 289.0 201.3 288.9 201.2 288.9 C 201.9 288.8 202.6 288.6 203.8 288.4 C 203.5 288.3 202.3 288.6 201.2 288.8 C 201.3 288.8 201.3 288.8 201.3 288.8 C 203.0 288.5 205.6 287.8 207.2 287.3 C 206.5 287.5 203.6 288.2 201.6 288.7 C 201.6 288.6 201.7 288.6 201.8 288.6 C 199.2 289.1 196.0 289.5 192.9 289.7 C 194.4 289.5 196.2 289.4 198.0 289.1 C 198.9 289.0 199.7 288.8 200.5 288.7 C 202.8 288.3 209.0 286.5 209.7 286.2 C 210.4 285.8 204.2 287.8 204.2 287.8 C 204.1 287.8 207.1 286.9 205.7 287.3 C 205.0 287.6 203.4 288.0 202.1 288.2 C 202.1 288.2 202.0 288.2 202.0 288.1 C 203.0 287.9 204.3 287.6 204.3 287.6 C 204.8 287.5 205.9 287.3 206.1 287.2 C 205.9 287.2 205.6 287.3 205.6 287.3 C 205.9 287.2 206.2 287.1 206.2 287.1 C 205.0 287.4 203.3 287.8 201.9 288.1 C 201.8 288.1 201.6 288.1 201.5 288.1 C 201.5 288.1 202.6 287.8 203.6 287.6 C 204.5 287.4 202.5 287.8 200.8 288.1 C 200.6 288.2 200.3 288.2 200.0 288.2 C 200.6 288.1 201.3 288.0 202.0 287.8 C 202.9 287.6 202.9 287.6 203.8 287.3 C 202.2 287.7 200.1 288.1 198.4 288.3 C 197.8 288.4 197.2 288.4 196.6 288.4 C 198.0 288.2 199.2 288.0 200.0 287.8 C 200.6 287.7 201.2 287.6 201.4 287.5 C 200.9 287.6 202.3 287.3 202.1 287.3 C 201.3 287.5 199.7 287.8 199.1 288.0 C 197.9 288.2 196.4 288.3 195.2 288.5 C 195.0 288.5 194.8 288.5 194.7 288.5 C 195.8 288.4 196.8 288.3 197.9 288.1 C 197.4 288.1 194.2 288.4 191.9 288.6 C 187.1 288.8 182.2 288.9 177.6 288.3 C 177.4 288.2 177.1 288.2 176.8 288.1 C 176.5 288.1 176.2 288.0 175.8 287.9 C 176.9 288.1 177.9 288.2 178.7 288.3 C 175.5 287.8 183.5 288.7 184.0 288.6 C 181.3 288.4 177.4 288.0 173.7 287.3 C 170.0 286.5 167.1 285.6 163.7 283.8 C 165.3 284.7 165.9 284.9 164.1 284.0 C 163.7 283.8 163.2 283.5 162.8 283.3 C 169.0 286.8 174.4 287.6 179.3 288.0 C 176.4 287.7 172.2 286.8 171.1 286.4 C 171.9 286.6 173.0 286.9 173.2 286.9 C 171.8 286.5 167.4 285.3 166.3 284.8 C 172.0 287.0 182.1 288.4 187.6 288.3 C 183.4 288.3 178.5 287.9 174.2 287.0 C 169.8 286.1 166.1 284.9 162.7 283.0 C 163.8 283.6 163.9 283.7 163.2 283.3 C 161.0 282.1 159.4 280.9 158.5 279.6 C 158.3 279.3 158.3 279.4 158.9 280.0 C 159.3 280.5 159.6 280.8 159.8 281.0 C 159.5 280.6 156.3 276.7 158.8 279.8 C 159.4 280.5 160.4 281.5 161.8 282.4 C 163.2 283.3 165.3 284.2 166.2 284.6 C 168.0 285.3 168.8 285.6 166.6 284.7 C 165.6 284.3 164.0 283.6 163.1 283.1 C 162.2 282.5 161.6 282.1 161.3 281.9 C 160.6 281.4 160.7 281.5 162.0 282.3 C 163.3 283.2 166.6 284.6 168.6 285.3 C 170.5 285.9 172.0 286.2 170.6 285.8 C 169.2 285.4 167.7 285.1 164.8 283.7 C 161.9 282.3 160.1 280.8 159.2 279.7 C 158.3 278.7 158.6 279.1 158.8 279.4 C 158.9 279.6 158.6 279.7 158.0 278.3 C 156.8 275.4 157.9 277.8 157.8 277.3 C 157.7 276.5 157.7 275.1 159.1 273.5 C 160.1 272.3 162.3 270.8 163.8 270.1 C 163.7 270.1 162.1 271.0 161.1 271.7 C 160.1 272.5 159.6 273.0 160.4 272.3 C 161.4 271.4 162.9 270.5 164.5 269.7 C 166.1 269.0 167.2 268.6 168.0 268.3 C 169.7 267.7 170.6 267.4 169.4 267.7 C 172.7 266.8 175.4 266.3 177.7 265.9 C 181.3 265.5 185.7 265.3 186.2 265.3 C 186.8 265.3 197.1 265.6 200.6 266.5 C 200.9 266.5 207.0 268.0 207.5 268.1 C 210.1 269.0 211.7 269.8 213.0 270.6 C 214.3 271.4 215.7 272.2 217.0 273.9 C 219.2 276.7 218.2 277.2 218.1 277.6 C 217.7 278.9 217.0 279.7 216.4 280.3 C 215.9 280.9 215.5 281.3 214.4 282.3 C 213.8 282.8 212.5 283.6 212.1 284.0 C 211.3 284.7 210.9 285.4 211.5 285.7 C 211.5 285.7 211.5 285.7 211.5 285.7 Z M 200.6 289.3 C 201.5 289.1 203.3 288.8 204.3 288.6 C 203.2 288.9 201.7 289.2 200.2 289.4 C 200.3 289.4 200.4 289.3 200.6 289.3 C 200.6 289.3 200.6 289.3 200.6 289.3 Z M 192.7 289.2 C 193.3 289.1 194.2 289.1 194.9 289.0 C 195.7 289.0 196.4 288.9 197.5 288.7 C 197.4 288.7 195.6 288.9 194.2 289.0 C 194.2 289.0 194.2 289.0 194.2 288.9 C 194.9 288.9 195.7 288.8 196.6 288.7 C 196.9 288.6 197.3 288.6 197.6 288.5 C 197.6 288.6 197.1 288.7 196.9 288.7 C 197.2 288.7 198.0 288.6 199.1 288.5 C 199.2 288.5 199.3 288.5 199.5 288.5 C 199.6 288.5 198.8 288.6 199.7 288.5 C 199.1 288.6 197.4 288.8 196.4 289.0 C 197.6 288.7 193.1 289.2 192.0 289.2 C 192.2 289.2 192.4 289.2 192.7 289.2 Z M 183.9 291.6 C 183.2 291.6 182.6 291.5 182.0 291.5 C 182.9 291.5 183.6 291.6 184.3 291.6 C 184.1 291.6 184.0 291.6 183.9 291.6 Z M 164.6 265.1 C 163.8 265.5 162.0 266.3 160.6 267.2 C 159.3 268.0 158.0 268.9 157.1 269.8 C 155.1 271.6 154.4 273.5 154.3 273.7 C 154.1 274.4 153.9 275.1 153.8 275.8 C 154.0 273.5 155.4 271.2 157.5 269.4 C 158.5 268.5 159.7 267.7 160.9 266.9 C 162.1 266.2 163.8 265.5 164.6 265.1 C 164.6 265.1 164.6 265.1 164.6 265.1 Z M 157.6 275.6 C 157.6 275.8 157.6 275.7 157.7 275.3 C 158.3 273.3 159.9 271.9 158.8 273.3 C 157.8 274.5 157.3 276.8 157.4 276.1 C 157.5 275.2 157.9 274.2 158.8 273.2 C 159.5 272.4 160.4 271.6 161.7 270.9 C 159.1 272.6 158.0 274.3 157.6 275.6 C 157.6 275.6 157.6 275.6 157.6 275.6 Z M 163.3 270.0 C 162.2 270.6 161.1 271.4 160.2 272.1 C 160.9 271.4 161.9 270.8 163.0 270.2 C 163.1 270.1 163.2 270.1 163.3 270.0 Z M 164.8 269.4 C 162.3 270.5 160.5 271.8 162.5 270.5 C 163.0 270.3 163.5 270.0 164.0 269.7 C 164.3 269.6 164.5 269.5 164.8 269.4 Z M 166.2 268.8 C 166.2 268.8 165.9 268.9 165.0 269.2 C 166.8 268.5 168.8 267.8 168.7 267.8 C 167.9 268.1 167.1 268.4 166.2 268.8 C 166.2 268.8 166.2 268.8 166.2 268.8 Z M 166.6 264.3 C 165.7 264.6 165.0 264.8 166.3 264.3 C 166.8 264.1 167.4 263.9 167.9 263.8 C 167.5 263.9 167.0 264.1 166.6 264.3 Z M 182.6 288.3 C 182.2 288.2 180.6 288.1 179.7 288.0 C 179.6 288.2 183.2 288.4 182.6 288.3 C 182.6 288.3 182.6 288.3 182.6 288.3 Z M 188.5 288.4 C 188.1 288.4 186.5 288.4 185.6 288.4 C 185.5 288.5 189.1 288.5 188.5 288.4 C 188.5 288.4 188.5 288.4 188.5 288.4 Z M 200.6 266.5 C 200.6 266.5 200.6 266.5 200.6 266.5 C 200.6 266.5 200.6 266.5 200.6 266.5 C 200.6 266.5 200.6 266.5 200.6 266.5 Z M 200.6 266.5 " fill="#EA3C43"></path><path d="M 300.1 196.4 C 301.1 196.4 305.4 195.9 305.5 195.8 C 303.9 196.0 300.4 196.4 300.1 196.4 C 300.1 196.4 300.1 196.4 300.1 196.4 Z M 291.2 197.3 C 292.8 197.2 296.4 196.8 297.5 196.7 C 295.6 196.9 291.8 197.2 291.2 197.3 C 291.2 197.3 291.2 197.3 291.2 197.3 Z M 304.7 195.8 C 307.0 195.5 311.2 195.0 312.2 194.8 C 310.0 195.1 305.8 195.6 304.7 195.8 C 304.7 195.8 304.7 195.8 304.7 195.8 Z M 181.4 190.9 C 182.3 191.2 185.9 192.1 186.0 192.0 C 184.6 191.7 181.7 190.9 181.4 190.9 C 181.4 190.9 181.4 190.9 181.4 190.9 Z M 203.1 195.1 C 204.6 195.4 207.9 195.8 209.0 196.0 C 207.2 195.7 203.7 195.1 203.1 195.1 C 203.1 195.1 203.1 195.1 203.1 195.1 Z M 216.8 197.0 C 220.1 197.3 223.7 197.6 223.0 197.5 C 222.0 197.5 217.2 196.9 216.8 197.0 C 216.8 197.0 216.8 197.0 216.8 197.0 Z M 301.6 193.4 C 298.1 193.8 295.6 194.0 293.2 194.2 C 281.1 195.2 299.3 193.8 301.6 193.4 C 301.6 193.4 301.6 193.4 301.6 193.4 Z M 242.5 198.7 C 240.0 198.6 238.0 198.5 236.8 198.4 C 239.1 198.6 242.3 198.7 242.5 198.7 C 242.5 198.7 242.5 198.7 242.5 198.7 Z M 264.1 198.9 C 264.7 199.0 277.5 198.7 284.5 198.2 C 278.6 198.5 263.5 198.9 264.1 198.9 C 264.1 198.9 264.1 198.9 264.1 198.9 Z M 272.5 195.3 C 264.2 195.6 251.0 195.5 245.0 195.3 C 239.1 195.1 255.6 195.9 270.9 195.5 C 286.1 195.1 273.6 195.3 279.7 195.0 C 285.9 194.7 273.8 195.2 267.6 195.4 C 261.5 195.5 271.7 195.3 272.5 195.3 C 272.5 195.3 272.5 195.3 272.5 195.3 Z M 272.8 195.1 C 275.8 195.0 278.4 194.8 280.1 194.7 C 277.0 194.9 274.1 194.9 272.8 195.1 C 272.8 195.1 272.8 195.1 272.8 195.1 Z M 341.7 187.6 C 343.4 187.8 353.8 185.4 361.1 181.9 C 362.9 181.0 364.6 180.1 366.1 179.1 C 371.3 175.5 374.2 171.2 373.8 166.6 C 373.4 161.9 369.7 157.7 363.7 154.0 C 361.2 152.5 358.4 151.1 355.1 149.7 C 352.6 148.7 349.9 147.7 346.9 146.7 C 343.9 145.8 340.2 144.7 338.4 144.3 C 334.9 143.4 331.2 142.5 327.3 141.8 C 324.8 141.2 322.2 140.8 319.4 140.3 C 309.8 138.6 299.9 137.6 289.5 136.9 C 284.2 136.5 278.8 136.2 273.3 135.9 C 270.5 135.8 258.5 135.7 254.2 135.8 C 258.3 135.6 238.7 136.2 239.6 136.1 C 237.4 136.3 235.1 136.5 232.9 136.6 C 230.7 136.8 233.5 136.6 236.3 136.5 C 233.8 136.6 231.3 136.8 228.8 137.0 C 226.1 137.2 223.5 137.4 220.8 137.7 C 212.0 138.5 203.0 139.8 195.7 141.2 C 193.1 141.7 190.1 142.3 186.9 143.0 C 185.3 143.4 183.7 143.8 182.0 144.2 C 181.1 144.4 180.3 144.6 178.7 145.1 C 177.0 145.5 175.5 146.0 173.9 146.5 C 161.6 150.3 152.9 155.1 148.9 160.1 C 144.8 165.1 145.9 170.4 147.5 173.2 C 149.2 176.1 150.4 177.0 149.1 175.4 C 146.0 171.6 146.4 170.5 146.5 170.8 C 146.6 171.1 147.3 172.6 147.9 173.7 C 148.7 174.9 150.0 176.4 151.9 178.0 C 151.8 178.0 151.7 177.9 151.4 177.7 C 154.9 180.8 162.0 184.9 172.6 188.3 C 170.6 187.7 168.3 186.8 167.4 186.5 C 172.2 188.3 168.4 186.8 171.8 187.9 C 176.6 189.5 180.6 190.5 181.2 190.6 C 181.5 190.7 181.4 190.7 180.8 190.5 C 180.2 190.4 177.9 189.8 175.0 188.9 C 176.4 189.3 177.7 189.7 179.1 190.0 C 180.4 190.4 181.1 190.5 181.7 190.7 C 183.1 191.0 184.4 191.3 185.7 191.6 C 188.3 192.2 191.0 192.7 194.4 193.3 C 196.9 193.8 195.5 193.5 194.8 193.4 C 199.2 194.3 210.0 195.9 211.0 196.0 C 211.6 196.1 204.1 195.2 197.5 194.0 C 191.0 192.9 185.5 191.6 187.9 192.1 C 189.9 192.6 194.1 193.4 195.8 193.8 C 192.1 193.1 187.8 192.2 185.6 191.7 C 188.0 192.2 191.4 193.0 193.4 193.4 C 191.0 192.9 189.3 192.6 188.6 192.4 C 192.1 193.2 194.7 193.7 199.0 194.4 C 200.9 194.7 197.4 194.1 201.5 194.8 C 202.2 194.9 198.8 194.3 199.0 194.3 C 202.3 194.9 209.1 195.9 210.9 196.1 C 212.5 196.3 206.7 195.5 206.6 195.5 C 219.8 197.3 236.2 198.4 241.3 198.6 C 246.4 198.8 241.6 198.6 239.4 198.4 C 245.4 198.7 249.9 198.9 257.0 198.9 C 261.6 198.9 259.8 198.9 258.0 198.9 C 259.3 198.9 260.3 198.9 261.0 198.9 C 261.5 198.8 262.8 198.8 263.7 198.8 C 260.9 198.8 255.7 198.8 253.4 198.8 C 257.6 198.8 267.6 198.8 271.2 198.6 C 265.5 198.7 259.2 198.8 252.8 198.6 C 265.4 198.8 278.4 198.5 288.3 197.7 C 286.5 197.9 285.8 197.9 284.3 197.9 C 288.1 197.7 293.7 197.4 297.0 197.0 C 298.8 196.8 302.4 196.4 305.9 196.0 C 299.7 196.7 295.4 197.0 291.0 197.4 C 291.1 197.4 291.5 197.4 292.2 197.3 C 282.2 198.0 276.3 198.4 269.0 198.6 C 268.4 198.6 267.8 198.6 267.2 198.6 C 264.9 198.5 273.2 198.4 274.1 198.3 C 263.2 198.7 251.3 198.5 245.9 198.3 C 258.8 198.7 270.3 198.5 280.0 198.0 C 277.5 198.0 267.7 198.4 263.1 198.4 C 284.3 198.1 286.2 197.5 287.9 197.4 C 286.3 197.5 284.7 197.6 283.1 197.6 C 283.5 197.6 283.9 197.6 284.3 197.5 C 293.5 197.0 303.8 195.9 303.3 195.9 C 302.9 195.9 294.8 196.8 286.0 197.4 C 287.0 197.3 287.9 197.2 288.8 197.1 C 299.1 196.4 310.3 195.0 319.5 193.5 C 318.0 193.7 318.8 193.6 320.7 193.2 C 317.8 193.6 313.6 194.3 310.3 194.7 C 311.5 194.5 313.4 194.3 314.1 194.1 C 312.5 194.3 309.9 194.7 309.1 194.8 C 313.7 194.1 318.5 193.4 323.0 192.6 C 323.9 192.3 321.0 192.9 321.2 192.8 C 325.6 192.1 331.4 190.9 334.2 190.1 C 330.9 190.9 324.0 192.3 321.8 192.6 C 323.2 192.4 324.6 192.1 326.1 191.8 C 329.0 191.2 330.3 190.9 327.1 191.5 C 325.4 191.9 325.4 191.8 325.8 191.8 C 327.8 191.3 334.4 189.9 334.2 189.9 C 332.6 190.2 325.9 191.6 324.1 191.9 C 325.4 191.6 328.9 190.9 329.2 190.8 C 321.8 192.4 321.9 192.2 320.0 192.6 C 320.8 192.4 323.0 192.0 322.9 192.1 C 318.2 193.0 313.3 193.7 308.0 194.4 C 308.0 194.4 308.0 194.4 308.0 194.4 C 308.0 194.4 308.0 194.4 308.0 194.4 C 308.0 194.4 308.0 194.4 308.0 194.4 C 308.5 194.3 308.3 194.2 307.8 194.2 C 310.0 194.0 312.4 193.7 316.4 193.0 C 315.3 193.1 311.6 193.7 308.1 194.1 C 308.1 194.1 308.1 194.1 308.1 194.1 C 313.8 193.4 322.2 192.0 327.5 190.9 C 325.0 191.4 315.9 193.0 309.2 193.9 C 309.4 193.8 309.6 193.8 309.8 193.7 C 301.5 194.9 291.2 195.7 281.2 196.3 C 286.0 195.9 291.7 195.6 297.7 195.0 C 300.5 194.8 303.0 194.5 305.7 194.1 C 309.4 193.7 316.7 192.7 323.1 191.6 C 329.4 190.4 334.7 189.1 335.7 188.9 C 336.9 188.5 332.8 189.6 328.0 190.5 C 323.2 191.5 317.8 192.4 317.8 192.4 C 317.7 192.4 327.5 190.6 322.9 191.4 C 320.5 191.9 315.1 192.8 311.1 193.3 C 311.0 193.3 310.8 193.3 310.7 193.2 C 314.2 192.7 318.2 192.1 318.4 192.2 C 320.0 191.9 323.5 191.3 324.0 191.1 C 323.4 191.2 322.6 191.4 322.6 191.4 C 323.4 191.2 324.6 191.0 324.7 191.0 C 320.7 191.7 315.1 192.6 310.5 193.2 C 310.1 193.2 309.7 193.3 309.3 193.3 C 309.3 193.3 312.9 192.8 316.0 192.3 C 319.1 191.8 312.6 192.8 307.1 193.5 C 306.2 193.6 305.4 193.6 304.5 193.7 C 306.4 193.5 308.6 193.2 311.1 192.9 C 314.0 192.5 314.0 192.4 316.8 191.9 C 311.5 192.7 304.9 193.6 299.4 194.1 C 297.4 194.3 295.3 194.4 293.2 194.5 C 297.9 194.1 302.1 193.7 304.5 193.3 C 306.5 193.1 308.6 192.9 309.3 192.7 C 307.4 192.9 312.2 192.3 311.5 192.3 C 308.9 192.8 303.7 193.4 301.7 193.6 C 297.6 194.1 292.9 194.5 288.7 194.8 C 288.2 194.8 287.6 194.8 287.1 194.9 C 290.6 194.6 294.0 194.4 297.7 194.0 C 296.0 194.0 285.7 194.9 278.0 195.3 C 262.3 195.9 246.0 196.0 230.6 194.9 C 229.9 194.9 229.0 194.8 228.1 194.7 C 227.0 194.6 225.9 194.5 224.7 194.4 C 228.4 194.7 231.7 194.9 234.4 195.1 C 223.4 194.3 250.2 195.7 252.0 195.6 C 242.9 195.4 229.9 194.8 217.4 193.4 C 204.8 192.0 192.9 189.9 184.7 187.9 C 188.7 188.8 190.0 189.1 185.7 188.1 C 184.5 187.8 183.4 187.5 182.2 187.2 C 198.7 191.3 219.7 194.0 236.3 194.8 C 226.4 194.3 212.0 192.7 208.2 192.1 C 210.9 192.5 214.9 193.0 215.5 193.0 C 210.7 192.4 195.3 190.0 191.1 189.1 C 201.4 191.2 214.8 193.1 228.2 194.1 C 241.5 195.2 254.7 195.4 263.8 195.3 C 250.0 195.4 233.6 194.8 218.7 193.2 C 203.9 191.6 190.8 189.1 181.7 186.8 C 184.9 187.7 184.9 187.7 183.2 187.3 C 180.4 186.6 174.4 184.9 170.0 183.3 C 165.6 181.7 161.9 180.0 158.9 178.3 C 157.7 177.6 157.9 177.8 161.1 179.5 C 163.8 180.8 165.7 181.6 166.8 182.0 C 165.7 181.5 159.5 178.7 156.9 176.9 C 155.6 176.0 154.9 175.5 155.1 175.6 C 155.4 175.8 156.3 176.8 160.2 178.9 C 164.1 181.0 170.0 183.5 177.4 185.6 C 179.3 186.1 181.2 186.7 182.2 186.9 C 183.2 187.2 184.2 187.4 185.2 187.7 C 187.1 188.1 189.0 188.5 190.6 188.9 C 197.2 190.3 200.1 190.8 192.3 189.2 C 188.4 188.4 185.2 187.6 182.8 187.0 C 180.3 186.3 176.1 185.1 174.2 184.5 C 170.4 183.3 171.0 183.6 178.1 185.6 C 181.7 186.7 184.6 187.4 188.1 188.2 C 191.6 188.9 195.5 189.7 199.0 190.3 C 206.0 191.5 211.0 192.1 206.1 191.4 C 201.2 190.6 193.8 189.4 186.9 187.8 C 185.2 187.3 183.5 186.9 181.8 186.5 C 181.0 186.3 179.1 185.8 177.6 185.3 C 176.1 184.9 174.7 184.5 173.4 184.0 C 168.2 182.3 164.2 180.6 161.4 179.1 C 155.7 176.2 157.8 177.2 158.9 177.9 C 159.5 178.3 159.9 178.5 159.2 178.2 C 158.5 177.8 156.5 176.8 154.1 174.6 C 151.6 172.4 151.2 171.3 150.9 170.8 C 150.7 170.3 150.7 170.3 150.8 170.5 C 151.1 171.0 151.9 172.3 151.4 171.5 C 149.8 169.1 149.0 165.3 154.2 160.7 C 157.8 157.5 166.8 153.3 172.6 151.5 C 172.4 151.5 165.8 153.9 161.8 155.9 C 157.9 157.8 155.7 159.3 159.0 157.4 C 163.1 155.0 168.9 152.6 175.5 150.6 C 177.1 150.1 178.9 149.6 180.6 149.1 C 182.3 148.6 182.7 148.5 183.6 148.3 C 185.3 147.9 186.9 147.5 188.4 147.2 C 194.3 145.8 197.3 145.3 193.2 146.1 C 204.1 143.9 213.0 142.9 220.6 142.1 C 232.6 141.0 247.2 140.4 248.8 140.4 C 249.7 140.4 258.8 140.1 269.2 140.3 C 279.6 140.6 291.1 141.4 297.3 142.1 C 298.2 142.1 319.4 144.8 321.1 145.1 C 330.6 146.7 334.2 147.8 337.7 148.7 C 339.5 149.2 343.8 150.3 347.6 151.7 C 351.5 153.0 355.9 154.7 360.3 157.1 C 367.6 161.2 368.6 163.9 369.3 165.4 C 369.9 167.0 369.8 167.8 369.7 168.3 C 369.3 171.9 366.3 174.2 364.2 175.9 C 362.0 177.5 360.4 178.6 355.8 180.9 C 353.1 182.2 347.9 184.1 346.0 184.9 C 342.3 186.4 340.3 187.4 341.7 187.6 C 341.7 187.6 341.7 187.6 341.7 187.6 Z M 305.7 194.8 C 308.9 194.4 314.4 193.6 317.6 193.2 C 314.0 193.8 309.4 194.4 304.6 194.9 C 304.9 194.9 305.3 194.8 305.7 194.8 C 305.7 194.8 305.7 194.8 305.7 194.8 Z M 280.4 195.8 C 282.7 195.7 285.3 195.6 287.8 195.4 C 290.2 195.2 292.6 195.1 296.1 194.7 C 295.8 194.7 290.0 195.2 285.4 195.5 C 285.4 195.4 285.4 195.4 285.4 195.4 C 287.6 195.2 290.3 195.0 293.3 194.8 C 294.4 194.7 295.4 194.6 296.5 194.5 C 296.6 194.5 295.0 194.7 294.3 194.8 C 295.1 194.7 297.9 194.5 301.3 194.2 C 301.7 194.2 302.2 194.1 302.6 194.1 C 303.1 194.1 300.5 194.4 303.4 194.1 C 301.3 194.4 296.0 194.8 292.6 195.1 C 296.4 194.7 281.9 195.8 278.3 195.9 C 279.0 195.9 279.7 195.8 280.4 195.8 Z M 252.0 198.6 C 250.0 198.6 248.0 198.5 245.9 198.5 C 248.9 198.5 251.1 198.6 253.2 198.6 C 252.8 198.6 252.4 198.6 252.0 198.6 Z M 181.0 144.6 C 179.8 145.0 176.8 145.8 174.3 146.6 C 171.7 147.4 169.2 148.3 166.8 149.2 C 162.0 151.1 157.8 153.2 154.7 155.3 C 148.5 159.4 147.0 163.6 146.8 164.1 C 146.2 165.7 146.0 167.4 146.3 169.1 C 145.5 163.7 149.4 158.5 156.1 154.4 C 159.4 152.3 163.4 150.4 167.8 148.8 C 170.0 147.9 172.3 147.2 174.6 146.5 C 177.0 145.7 179.8 145.0 181.0 144.6 C 181.0 144.6 181.0 144.6 181.0 144.6 Z M 150.0 166.8 C 149.9 167.2 149.8 167.1 150.1 166.1 C 150.7 163.5 153.3 161.0 154.7 159.8 C 156.2 158.6 155.9 158.7 153.8 160.6 C 152.0 162.2 150.3 164.7 149.9 166.4 C 149.5 168.0 149.9 169.1 149.8 168.2 C 149.5 165.8 150.6 163.3 153.9 160.4 C 156.4 158.2 159.9 156.1 164.7 154.1 C 154.5 158.6 150.4 163.3 150.0 166.8 C 150.0 166.8 150.0 166.8 150.0 166.8 Z M 171.0 151.7 C 166.6 153.3 162.2 155.2 158.8 157.2 C 161.7 155.4 165.4 153.7 170.0 152.1 C 170.3 152.0 170.7 151.8 171.0 151.7 Z M 177.0 149.9 C 172.0 151.4 167.8 153.0 165.9 153.8 C 164.0 154.6 163.8 154.6 167.9 152.9 C 169.8 152.2 171.8 151.5 174.0 150.8 C 174.9 150.5 175.9 150.2 177.0 149.9 Z M 182.5 148.4 C 182.4 148.4 181.4 148.6 178.0 149.6 C 179.8 149.1 181.7 148.6 183.0 148.2 C 184.2 147.9 185.5 147.6 186.8 147.3 C 189.2 146.7 191.2 146.3 191.0 146.4 C 188.3 147.0 185.3 147.7 182.5 148.4 C 182.5 148.4 182.5 148.4 182.5 148.4 Z M 187.4 143.0 C 184.8 143.6 182.5 144.1 186.7 143.1 C 188.3 142.8 189.9 142.4 191.6 142.1 C 190.2 142.4 188.8 142.7 187.4 143.0 Z M 247.2 195.2 C 245.8 195.2 240.6 195.0 237.6 194.9 C 237.3 195.0 249.1 195.4 247.2 195.2 C 247.2 195.2 247.2 195.2 247.2 195.2 Z M 266.9 195.3 C 265.6 195.3 260.3 195.4 257.2 195.4 C 256.9 195.5 268.9 195.3 266.9 195.3 C 266.9 195.3 266.9 195.3 266.9 195.3 Z M 297.3 142.1 C 297.3 142.1 297.3 142.1 297.3 142.1 C 297.3 142.1 297.3 142.1 297.3 142.1 C 297.3 142.1 297.3 142.1 297.3 142.1 Z M 297.3 142.1 " fill="#EA3C43"></path></g></svg>