<?xml version="1.0" encoding="UTF-8" standalone="no"?><svg xmlns="http://www.w3.org/2000/svg" xmlns:xlink="http://www.w3.org/1999/xlink" clip-rule="evenodd" stroke-miterlimit="10" viewBox="0 0 1024 768"><desc>SVG generated by Keynote</desc><defs></defs><g transform="matrix(1.00, 0.00, -0.00, -1.00, 0.0, 768.0)"><g><clipPath id="clip0x7fde3da64160"><path d="M 0.0 768.0 L 1024.0 768.0 L 1024.0 0.0 L 0.0 0.0 Z M 0.0 768.0 "></path></clipPath><g clip-path="url(#clip0x7fde3da64160)"><image xlink:href="../../9A547B16-7CB2-4235-A9D6-7078228DA1F4/assets/574DCE55A4CF432400CBDDDE1DFDFC9B.jpeg" width="2048.00" height="1536.00" transform="matrix(0.50, 0.00, -0.00, -0.50, 0.0, 768.0)"></image></g></g><text xml:space="preserve" font-family="GillSans-Light,Gill Sans" font-size="72.0" fill="#525252" transform="matrix(1.00, 0.00, -0.00, -1.00, 137.3, 403.2)">C</text><text xml:space="preserve" font-family="GillSans-Light,Gill Sans" font-size="72.0" fill="#525252" transform="matrix(1.00, 0.00, -0.00, -1.00, 186.0, 403.2)">L</text><text xml:space="preserve" font-family="GillSans-Light,Gill Sans" font-size="72.0" fill="#525252" transform="matrix(1.00, 0.00, -0.00, -1.00, 219.8, 403.2)">O</text><text xml:space="preserve" font-family="GillSans-Light,Gill Sans" font-size="72.0" fill="#525252" transform="matrix(1.00, 0.00, -0.00, -1.00, 279.1, 403.2)">U</text><text xml:space="preserve" font-family="GillSans-Light,Gill Sans" font-size="72.0" fill="#525252" transform="matrix(1.00, 0.00, -0.00, -1.00, 329.3, 403.2)">D</text><text xml:space="preserve" font-family="GillSans-Light,Gill Sans" font-size="38.0" fill="#525252" transform="matrix(1.00, 0.00, -0.00, -1.00, 221.2, 345.1)">L</text><text xml:space="preserve" font-family="GillSans-Light,Gill Sans" font-size="38.0" fill="#525252" transform="matrix(1.00, 0.00, -0.00, -1.00, 239.0, 345.1)">o</text><text xml:space="preserve" font-family="GillSans-Light,Gill Sans" font-size="38.0" fill="#525252" transform="matrix(1.00, 0.00, -0.00, -1.00, 259.6, 345.1)">g</text><text xml:space="preserve" font-family="GillSans-Light,Gill Sans" font-size="38.0" fill="#525252" transform="matrix(1.00, 0.00, -0.00, -1.00, 275.8, 345.1)">i</text><text xml:space="preserve" font-family="GillSans-Light,Gill Sans" font-size="38.0" fill="#525252" transform="matrix(1.00, 0.00, -0.00, -1.00, 283.0, 345.1)">c</text><g><clipPath id="clip0x7fde3db19740"><path d="M 874.1 443.5 C 868.1 505.4 816.3 554.0 752.6 554.0 C 703.3 554.0 661.1 524.8 641.6 483.0 C 635.8 484.9 629.6 486.2 623.2 486.2 C 589.3 486.2 561.9 458.8 561.9 425.1 C 561.9 418.4 563.2 412.1 565.2 406.1 C 538.9 390.8 521.0 362.7 521.0 330.2 C 521.0 281.5 560.6 242.0 609.6 242.0 L 609.6 242.0 L 854.8 242.0 L 854.8 242.0 C 911.2 242.0 957.0 287.6 957.0 343.8 C 957.0 393.4 921.3 434.6 874.1 443.5 Z M 816.1 427.0 C 810.2 433.4 800.7 433.4 794.8 427.0 L 720.8 346.3 L 696.6 372.6 C 690.7 379.1 681.1 379.1 675.2 372.6 C 669.3 366.2 669.3 355.8 675.2 349.3 L 707.4 314.2 C 711.4 309.9 716.9 308.8 721.9 310.2 C 726.4 309.6 730.9 310.9 734.4 314.6 L 816.1 403.8 C 822.0 410.2 822.0 420.6 816.1 427.0 Z M 816.1 427.0 "></path></clipPath><g clip-path="url(#clip0x7fde3db19740)"><g><clipPath id="clip0x7fde3db1a280"><path d="M 521.0 242.0 L 957.0 242.0 L 957.0 554.0 L 521.0 554.0 Z M 521.0 242.0 "></path></clipPath><g clip-path="url(#clip0x7fde3db1a280)"><path d="M 502.8 572.1 L 975.1 572.1 L 975.1 223.9 L 502.8 223.9 Z M 502.8 572.1 " fill="#51BAA7"></path></g></g></g></g></g></svg>