<?xml version="1.0" encoding="UTF-8" standalone="no"?><svg xmlns="http://www.w3.org/2000/svg" xmlns:xlink="http://www.w3.org/1999/xlink" clip-rule="evenodd" stroke-miterlimit="10" viewBox="0 0 1024 768"><desc>SVG generated by Keynote</desc><defs></defs><g transform="matrix(1.00, 0.00, -0.00, -1.00, 0.0, 768.0)"><g><clipPath id="clip0x7fde3bea24f0"><path d="M 0.0 768.0 L 1024.0 768.0 L 1024.0 0.0 L 0.0 0.0 Z M 0.0 768.0 "></path></clipPath><g clip-path="url(#clip0x7fde3bea24f0)"><image xlink:href="../../9A547B16-7CB2-4235-A9D6-7078228DA1F4/assets/574DCE55A4CF432400CBDDDE1DFDFC9B.jpeg" width="2048.00" height="1536.00" transform="matrix(0.50, 0.00, -0.00, -0.50, 0.0, 768.0)"></image></g></g><text xml:space="preserve" font-family="GillSans-Light,Gill Sans" font-size="72.0" fill="#525252" transform="matrix(1.00, 0.00, -0.00, -1.00, 245.4, 628.2)">S</text><text xml:space="preserve" font-family="GillSans-Light,Gill Sans" font-size="72.0" fill="#525252" transform="matrix(1.00, 0.00, -0.00, -1.00, 279.2, 628.2)">T</text><text xml:space="preserve" font-family="GillSans-Light,Gill Sans" font-size="72.0" fill="#525252" transform="matrix(1.00, 0.00, -0.00, -1.00, 315.0, 628.2)">O</text><text xml:space="preserve" font-family="GillSans-Light,Gill Sans" font-size="72.0" fill="#525252" transform="matrix(1.00, 0.00, -0.00, -1.00, 374.3, 628.2)">R</text><text xml:space="preserve" font-family="GillSans-Light,Gill Sans" font-size="72.0" fill="#525252" transform="matrix(1.00, 0.00, -0.00, -1.00, 415.6, 628.2)">E</text><text xml:space="preserve" font-family="GillSans-Light,Gill Sans" font-size="72.0" fill="#525252" transform="matrix(1.00, 0.00, -0.00, -1.00, 450.9, 628.2)">:</text><text xml:space="preserve" font-family="GillSans-Light,Gill Sans" font-size="72.0" fill="#525252" transform="matrix(1.00, 0.00, -0.00, -1.00, 457.9, 628.2)"> </text><text xml:space="preserve" font-family="GillSans-Light,Gill Sans" font-size="72.0" fill="#525252" transform="matrix(1.00, 0.00, -0.00, -1.00, 477.9, 628.2)">O</text><text xml:space="preserve" font-family="GillSans-Light,Gill Sans" font-size="72.0" fill="#525252" transform="matrix(1.00, 0.00, -0.00, -1.00, 537.2, 628.2)">P</text><text xml:space="preserve" font-family="GillSans-Light,Gill Sans" font-size="72.0" fill="#525252" transform="matrix(1.00, 0.00, -0.00, -1.00, 573.8, 628.2)">T</text><text xml:space="preserve" font-family="GillSans-Light,Gill Sans" font-size="72.0" fill="#525252" transform="matrix(1.00, 0.00, -0.00, -1.00, 615.1, 628.2)">I</text><text xml:space="preserve" font-family="GillSans-Light,Gill Sans" font-size="72.0" fill="#525252" transform="matrix(1.00, 0.00, -0.00, -1.00, 630.1, 628.2)">O</text><text xml:space="preserve" font-family="GillSans-Light,Gill Sans" font-size="72.0" fill="#525252" transform="matrix(1.00, 0.00, -0.00, -1.00, 689.4, 628.2)">N</text><text xml:space="preserve" font-family="GillSans-Light,Gill Sans" font-size="72.0" fill="#525252" transform="matrix(1.00, 0.00, -0.00, -1.00, 744.9, 628.2)">S</text><text xml:space="preserve" font-family="GillSans-Light,Gill Sans" font-size="28.7" fill="#525252" transform="matrix(1.00, 0.00, -0.00, -1.00, 50.4, 517.8)">•</text><text xml:space="preserve" font-family="GillSans-Light,Gill Sans" font-size="35.0" fill="#525252" transform="matrix(1.00, 0.00, -0.00, -1.00, 81.7, 516.3)">L</text><text xml:space="preserve" font-family="GillSans-Light,Gill Sans" font-size="35.0" fill="#525252" transform="matrix(1.00, 0.00, -0.00, -1.00, 98.1, 516.3)">o</text><text xml:space="preserve" font-family="GillSans-Light,Gill Sans" font-size="35.0" fill="#525252" transform="matrix(1.00, 0.00, -0.00, -1.00, 117.0, 516.3)">g</text><text xml:space="preserve" font-family="GillSans-Light,Gill Sans" font-size="35.0" fill="#525252" transform="matrix(1.00, 0.00, -0.00, -1.00, 132.0, 516.3)">i</text><text xml:space="preserve" font-family="GillSans-Light,Gill Sans" font-size="35.0" fill="#525252" transform="matrix(1.00, 0.00, -0.00, -1.00, 138.5, 516.3)">c</text><text xml:space="preserve" font-family="GillSans-Light,Gill Sans" font-size="35.0" fill="#525252" transform="matrix(1.00, 0.00, -0.00, -1.00, 153.1, 516.3)">:</text><text xml:space="preserve" font-family="GillSans-Light,Gill Sans" font-size="35.0" fill="#525252" transform="matrix(1.00, 0.00, -0.00, -1.00, 156.5, 516.3)"> </text><text xml:space="preserve" font-family="GillSans-Light,Gill Sans" font-size="35.0" fill="#525252" transform="matrix(1.00, 0.00, -0.00, -1.00, 166.2, 516.3)">C</text><text xml:space="preserve" font-family="GillSans-Light,Gill Sans" font-size="35.0" fill="#525252" transform="matrix(1.00, 0.00, -0.00, -1.00, 189.8, 516.3)">a</text><text xml:space="preserve" font-family="GillSans-Light,Gill Sans" font-size="35.0" fill="#525252" transform="matrix(1.00, 0.00, -0.00, -1.00, 204.8, 516.3)">l</text><text xml:space="preserve" font-family="GillSans-Light,Gill Sans" font-size="35.0" fill="#525252" transform="matrix(1.00, 0.00, -0.00, -1.00, 211.3, 516.3)">l</text><text xml:space="preserve" font-family="GillSans-Light,Gill Sans" font-size="35.0" fill="#525252" transform="matrix(1.00, 0.00, -0.00, -1.00, 217.9, 516.3)"> </text><text xml:space="preserve" font-family="GillSans-Light,Gill Sans" font-size="35.0" fill="#525252" transform="matrix(1.00, 0.00, -0.00, -1.00, 227.6, 516.3)">c</text><text xml:space="preserve" font-family="GillSans-Light,Gill Sans" font-size="35.0" fill="#525252" transform="matrix(1.00, 0.00, -0.00, -1.00, 242.2, 516.3)">-</text><text xml:space="preserve" font-family="GillSans-Light,Gill Sans" font-size="35.0" fill="#525252" transform="matrix(1.00, 0.00, -0.00, -1.00, 253.1, 516.3)">p</text><text xml:space="preserve" font-family="GillSans-Light,Gill Sans" font-size="35.0" fill="#525252" transform="matrix(1.00, 0.00, -0.00, -1.00, 270.9, 516.3)">r</text><text xml:space="preserve" font-family="GillSans-Light,Gill Sans" font-size="35.0" fill="#525252" transform="matrix(1.00, 0.00, -0.00, -1.00, 282.6, 516.3)">o</text><text xml:space="preserve" font-family="GillSans-Light,Gill Sans" font-size="35.0" fill="#525252" transform="matrix(1.00, 0.00, -0.00, -1.00, 301.5, 516.3)">d</text><text xml:space="preserve" font-family="GillSans-Light,Gill Sans" font-size="35.0" fill="#525252" transform="matrix(1.00, 0.00, -0.00, -1.00, 319.3, 516.3)"> </text><text xml:space="preserve" font-family="GillSans-Light,Gill Sans" font-size="35.0" fill="#525252" transform="matrix(1.00, 0.00, -0.00, -1.00, 326.9, 516.3)">A</text><text xml:space="preserve" font-family="GillSans-Light,Gill Sans" font-size="35.0" fill="#525252" transform="matrix(1.00, 0.00, -0.00, -1.00, 350.3, 516.3)">P</text><text xml:space="preserve" font-family="GillSans-Light,Gill Sans" font-size="35.0" fill="#525252" transform="matrix(1.00, 0.00, -0.00, -1.00, 368.1, 516.3)">I</text><text xml:space="preserve" font-family="GillSans-Light,Gill Sans" font-size="35.0" fill="#525252" transform="matrix(1.00, 0.00, -0.00, -1.00, 375.4, 516.3)"> </text><text xml:space="preserve" font-family="GillSans-Light,Gill Sans" font-size="35.0" fill="#525252" transform="matrix(1.00, 0.00, -0.00, -1.00, 385.1, 516.3)">u</text><text xml:space="preserve" font-family="GillSans-Light,Gill Sans" font-size="35.0" fill="#525252" transform="matrix(1.00, 0.00, -0.00, -1.00, 402.2, 516.3)">s</text><text xml:space="preserve" font-family="GillSans-Light,Gill Sans" font-size="35.0" fill="#525252" transform="matrix(1.00, 0.00, -0.00, -1.00, 414.6, 516.3)">i</text><text xml:space="preserve" font-family="GillSans-Light,Gill Sans" font-size="35.0" fill="#525252" transform="matrix(1.00, 0.00, -0.00, -1.00, 421.2, 516.3)">n</text><text xml:space="preserve" font-family="GillSans-Light,Gill Sans" font-size="35.0" fill="#525252" transform="matrix(1.00, 0.00, -0.00, -1.00, 438.3, 516.3)">g</text><text xml:space="preserve" font-family="GillSans-Light,Gill Sans" font-size="35.0" fill="#525252" transform="matrix(1.00, 0.00, -0.00, -1.00, 453.2, 516.3)"> </text><text xml:space="preserve" font-family="GillSans-Light,Gill Sans" font-size="35.0" fill="#525252" transform="matrix(1.00, 0.00, -0.00, -1.00, 81.7, 477.3)">p</text><text xml:space="preserve" font-family="GillSans-Light,Gill Sans" font-size="35.0" fill="#525252" transform="matrix(1.00, 0.00, -0.00, -1.00, 99.5, 477.3)">r</text><text xml:space="preserve" font-family="GillSans-Light,Gill Sans" font-size="35.0" fill="#525252" transform="matrix(1.00, 0.00, -0.00, -1.00, 111.1, 477.3)">o</text><text xml:space="preserve" font-family="GillSans-Light,Gill Sans" font-size="35.0" fill="#525252" transform="matrix(1.00, 0.00, -0.00, -1.00, 130.1, 477.3)">d</text><text xml:space="preserve" font-family="GillSans-Light,Gill Sans" font-size="35.0" fill="#525252" transform="matrix(1.00, 0.00, -0.00, -1.00, 147.9, 477.3)">u</text><text xml:space="preserve" font-family="GillSans-Light,Gill Sans" font-size="35.0" fill="#525252" transform="matrix(1.00, 0.00, -0.00, -1.00, 165.0, 477.3)">c</text><text xml:space="preserve" font-family="GillSans-Light,Gill Sans" font-size="35.0" fill="#525252" transform="matrix(1.00, 0.00, -0.00, -1.00, 179.6, 477.3)">t</text><text xml:space="preserve" font-family="GillSans-Light,Gill Sans" font-size="35.0" fill="#525252" transform="matrix(1.00, 0.00, -0.00, -1.00, 190.2, 477.3)"> </text><text xml:space="preserve" font-family="GillSans-Light,Gill Sans" font-size="35.0" fill="#525252" transform="matrix(1.00, 0.00, -0.00, -1.00, 199.9, 477.3)">I</text><text xml:space="preserve" font-family="GillSans-Light,Gill Sans" font-size="35.0" fill="#525252" transform="matrix(1.00, 0.00, -0.00, -1.00, 207.1, 477.3)">D</text><text xml:space="preserve" font-family="GillSans-Light,Gill Sans" font-size="35.0" fill="#525252" transform="matrix(1.00, 0.00, -0.00, -1.00, 233.0, 477.3)"> </text><text xml:space="preserve" font-family="GillSans-Light,Gill Sans" font-size="35.0" fill="#525252" transform="matrix(1.00, 0.00, -0.00, -1.00, 242.7, 477.3)">f</text><text xml:space="preserve" font-family="GillSans-Light,Gill Sans" font-size="35.0" fill="#525252" transform="matrix(1.00, 0.00, -0.00, -1.00, 251.1, 477.3)">r</text><text xml:space="preserve" font-family="GillSans-Light,Gill Sans" font-size="35.0" fill="#525252" transform="matrix(1.00, 0.00, -0.00, -1.00, 262.8, 477.3)">o</text><text xml:space="preserve" font-family="GillSans-Light,Gill Sans" font-size="35.0" fill="#525252" transform="matrix(1.00, 0.00, -0.00, -1.00, 281.7, 477.3)">m</text><text xml:space="preserve" font-family="GillSans-Light,Gill Sans" font-size="35.0" fill="#525252" transform="matrix(1.00, 0.00, -0.00, -1.00, 308.7, 477.3)"> </text><text xml:space="preserve" font-family="GillSans-Light,Gill Sans" font-size="35.0" fill="#525252" transform="matrix(1.00, 0.00, -0.00, -1.00, 318.4, 477.3)">m</text><text xml:space="preserve" font-family="GillSans-Light,Gill Sans" font-size="35.0" fill="#525252" transform="matrix(1.00, 0.00, -0.00, -1.00, 345.3, 477.3)">e</text><text xml:space="preserve" font-family="GillSans-Light,Gill Sans" font-size="35.0" fill="#525252" transform="matrix(1.00, 0.00, -0.00, -1.00, 362.1, 477.3)">n</text><text xml:space="preserve" font-family="GillSans-Light,Gill Sans" font-size="35.0" fill="#525252" transform="matrix(1.00, 0.00, -0.00, -1.00, 378.9, 477.3)">u</text><text xml:space="preserve" font-family="GillSans-Light,Gill Sans" font-size="35.0" fill="#525252" transform="matrix(1.00, 0.00, -0.00, -1.00, 396.0, 477.3)">.</text><text xml:space="preserve" font-family="GillSans-Light,Gill Sans" font-size="35.0" fill="#525252" transform="matrix(1.00, 0.00, -0.00, -1.00, 399.4, 477.3)"> </text><text xml:space="preserve" font-family="GillSans-Light,Gill Sans" font-size="35.0" fill="#525252" transform="matrix(1.00, 0.00, -0.00, -1.00, 81.7, 438.3)">D</text><text xml:space="preserve" font-family="GillSans-Light,Gill Sans" font-size="35.0" fill="#525252" transform="matrix(1.00, 0.00, -0.00, -1.00, 107.6, 438.3)">i</text><text xml:space="preserve" font-family="GillSans-Light,Gill Sans" font-size="35.0" fill="#525252" transform="matrix(1.00, 0.00, -0.00, -1.00, 114.1, 438.3)">s</text><text xml:space="preserve" font-family="GillSans-Light,Gill Sans" font-size="35.0" fill="#525252" transform="matrix(1.00, 0.00, -0.00, -1.00, 126.5, 438.3)">p</text><text xml:space="preserve" font-family="GillSans-Light,Gill Sans" font-size="35.0" fill="#525252" transform="matrix(1.00, 0.00, -0.00, -1.00, 144.3, 438.3)">l</text><text xml:space="preserve" font-family="GillSans-Light,Gill Sans" font-size="35.0" fill="#525252" transform="matrix(1.00, 0.00, -0.00, -1.00, 150.9, 438.3)">a</text><text xml:space="preserve" font-family="GillSans-Light,Gill Sans" font-size="35.0" fill="#525252" transform="matrix(1.00, 0.00, -0.00, -1.00, 165.3, 438.3)">y</text><text xml:space="preserve" font-family="GillSans-Light,Gill Sans" font-size="35.0" fill="#525252" transform="matrix(1.00, 0.00, -0.00, -1.00, 179.9, 438.3)"> </text><text xml:space="preserve" font-family="GillSans-Light,Gill Sans" font-size="35.0" fill="#525252" transform="matrix(1.00, 0.00, -0.00, -1.00, 189.6, 438.3)">o</text><text xml:space="preserve" font-family="GillSans-Light,Gill Sans" font-size="35.0" fill="#525252" transform="matrix(1.00, 0.00, -0.00, -1.00, 208.5, 438.3)">p</text><text xml:space="preserve" font-family="GillSans-Light,Gill Sans" font-size="35.0" fill="#525252" transform="matrix(1.00, 0.00, -0.00, -1.00, 226.3, 438.3)">t</text><text xml:space="preserve" font-family="GillSans-Light,Gill Sans" font-size="35.0" fill="#525252" transform="matrix(1.00, 0.00, -0.00, -1.00, 236.9, 438.3)">i</text><text xml:space="preserve" font-family="GillSans-Light,Gill Sans" font-size="35.0" fill="#525252" transform="matrix(1.00, 0.00, -0.00, -1.00, 243.4, 438.3)">o</text><text xml:space="preserve" font-family="GillSans-Light,Gill Sans" font-size="35.0" fill="#525252" transform="matrix(1.00, 0.00, -0.00, -1.00, 262.4, 438.3)">n</text><text xml:space="preserve" font-family="GillSans-Light,Gill Sans" font-size="35.0" fill="#525252" transform="matrix(1.00, 0.00, -0.00, -1.00, 279.5, 438.3)">s</text><text xml:space="preserve" font-family="GillSans-Light,Gill Sans" font-size="35.0" fill="#525252" transform="matrix(1.00, 0.00, -0.00, -1.00, 291.9, 438.3)"> </text><text xml:space="preserve" font-family="GillSans-Light,Gill Sans" font-size="35.0" fill="#525252" transform="matrix(1.00, 0.00, -0.00, -1.00, 301.6, 438.3)">w</text><text xml:space="preserve" font-family="GillSans-Light,Gill Sans" font-size="35.0" fill="#525252" transform="matrix(1.00, 0.00, -0.00, -1.00, 326.4, 438.3)">i</text><text xml:space="preserve" font-family="GillSans-Light,Gill Sans" font-size="35.0" fill="#525252" transform="matrix(1.00, 0.00, -0.00, -1.00, 332.9, 438.3)">t</text><text xml:space="preserve" font-family="GillSans-Light,Gill Sans" font-size="35.0" fill="#525252" transform="matrix(1.00, 0.00, -0.00, -1.00, 343.5, 438.3)">h</text><text xml:space="preserve" font-family="GillSans-Light,Gill Sans" font-size="35.0" fill="#525252" transform="matrix(1.00, 0.00, -0.00, -1.00, 360.6, 438.3)"> </text><text xml:space="preserve" font-family="GillSans-Light,Gill Sans" font-size="35.0" fill="#525252" transform="matrix(1.00, 0.00, -0.00, -1.00, 81.7, 399.3)">r</text><text xml:space="preserve" font-family="GillSans-Light,Gill Sans" font-size="35.0" fill="#525252" transform="matrix(1.00, 0.00, -0.00, -1.00, 93.3, 399.3)">e</text><text xml:space="preserve" font-family="GillSans-Light,Gill Sans" font-size="35.0" fill="#525252" transform="matrix(1.00, 0.00, -0.00, -1.00, 110.1, 399.3)">s</text><text xml:space="preserve" font-family="GillSans-Light,Gill Sans" font-size="35.0" fill="#525252" transform="matrix(1.00, 0.00, -0.00, -1.00, 122.4, 399.3)">p</text><text xml:space="preserve" font-family="GillSans-Light,Gill Sans" font-size="35.0" fill="#525252" transform="matrix(1.00, 0.00, -0.00, -1.00, 140.3, 399.3)">o</text><text xml:space="preserve" font-family="GillSans-Light,Gill Sans" font-size="35.0" fill="#525252" transform="matrix(1.00, 0.00, -0.00, -1.00, 159.2, 399.3)">n</text><text xml:space="preserve" font-family="GillSans-Light,Gill Sans" font-size="35.0" fill="#525252" transform="matrix(1.00, 0.00, -0.00, -1.00, 176.4, 399.3)">s</text><text xml:space="preserve" font-family="GillSans-Light,Gill Sans" font-size="35.0" fill="#525252" transform="matrix(1.00, 0.00, -0.00, -1.00, 188.7, 399.3)">e</text><text xml:space="preserve" font-family="GillSans-Light,Gill Sans" font-size="35.0" fill="#525252" transform="matrix(1.00, 0.00, -0.00, -1.00, 205.5, 399.3)"> </text><text xml:space="preserve" font-family="GillSans-Light,Gill Sans" font-size="35.0" fill="#525252" transform="matrix(1.00, 0.00, -0.00, -1.00, 215.2, 399.3)">J</text><text xml:space="preserve" font-family="GillSans-Light,Gill Sans" font-size="35.0" fill="#525252" transform="matrix(1.00, 0.00, -0.00, -1.00, 222.5, 399.3)">S</text><text xml:space="preserve" font-family="GillSans-Light,Gill Sans" font-size="35.0" fill="#525252" transform="matrix(1.00, 0.00, -0.00, -1.00, 238.9, 399.3)">O</text><text xml:space="preserve" font-family="GillSans-Light,Gill Sans" font-size="35.0" fill="#525252" transform="matrix(1.00, 0.00, -0.00, -1.00, 267.7, 399.3)">N</text><text xml:space="preserve" font-family="GillSans-Light,Gill Sans" font-size="35.0" fill="#525252" transform="matrix(1.00, 0.00, -0.00, -1.00, 294.6, 399.3)"> </text><text xml:space="preserve" font-family="GillSans-Light,Gill Sans" font-size="35.0" fill="#525252" transform="matrix(1.00, 0.00, -0.00, -1.00, 304.3, 399.3)">d</text><text xml:space="preserve" font-family="GillSans-Light,Gill Sans" font-size="35.0" fill="#525252" transform="matrix(1.00, 0.00, -0.00, -1.00, 322.1, 399.3)">a</text><text xml:space="preserve" font-family="GillSans-Light,Gill Sans" font-size="35.0" fill="#525252" transform="matrix(1.00, 0.00, -0.00, -1.00, 337.0, 399.3)">t</text><text xml:space="preserve" font-family="GillSans-Light,Gill Sans" font-size="35.0" fill="#525252" transform="matrix(1.00, 0.00, -0.00, -1.00, 347.6, 399.3)">a</text><text xml:space="preserve" font-family="GillSans-Light,Gill Sans" font-size="35.0" fill="#525252" transform="matrix(1.00, 0.00, -0.00, -1.00, 362.5, 399.3)">.</text><image xlink:href="EF161910D368EFE75B7E144754E89341.png" width="332.00" height="573.00" transform="matrix(1.00, 0.00, -0.00, -1.00, 608.5, 585.6)" opacity="0.60"></image><image xlink:href="EF39A2E92D2A79E803F72C15E973423A.png" width="640.00" height="1136.00" transform="matrix(0.49, 0.00, -0.00, -0.49, 619.0, 582.0)"></image><image xlink:href="313CB60FFD43E8C5A97EB201CAF44A63.png" width="526.00" height="358.00" transform="matrix(1.00, 0.00, -0.00, -1.00, 43.1, 372.5)" opacity="0.60"></image><image xlink:href="93B5DC6530AF19D845D2D6299247B43D.png" width="572.00" height="382.00" transform="matrix(0.88, 0.00, -0.00, -0.88, 53.0, 369.0)"></image></g></svg>