<?xml version="1.0" encoding="UTF-8" standalone="no"?><svg xmlns="http://www.w3.org/2000/svg" xmlns:xlink="http://www.w3.org/1999/xlink" clip-rule="evenodd" stroke-miterlimit="10" viewBox="0 0 1024 768"><desc>SVG generated by Keynote</desc><defs></defs><g transform="matrix(1.00, 0.00, -0.00, -1.00, 0.0, 768.0)"><g><clipPath id="clip0x7fde3e7a5420"><path d="M 0.0 768.0 L 1024.0 768.0 L 1024.0 0.0 L 0.0 0.0 Z M 0.0 768.0 "></path></clipPath><g clip-path="url(#clip0x7fde3e7a5420)"><image xlink:href="../../9A547B16-7CB2-4235-A9D6-7078228DA1F4/assets/574DCE55A4CF432400CBDDDE1DFDFC9B.jpeg" width="2048.00" height="1536.00" transform="matrix(0.50, 0.00, -0.00, -0.50, 0.0, 768.0)"></image></g></g><text xml:space="preserve" font-family="GillSans-Light,Gill Sans" font-size="72.0" fill="#525252" transform="matrix(1.00, 0.00, -0.00, -1.00, 233.2, 628.2)">P</text><text xml:space="preserve" font-family="GillSans-Light,Gill Sans" font-size="72.0" fill="#525252" transform="matrix(1.00, 0.00, -0.00, -1.00, 269.9, 628.2)">C</text><text xml:space="preserve" font-family="GillSans-Light,Gill Sans" font-size="72.0" fill="#525252" transform="matrix(1.00, 0.00, -0.00, -1.00, 318.6, 628.2)">I</text><text xml:space="preserve" font-family="GillSans-Light,Gill Sans" font-size="72.0" fill="#525252" transform="matrix(1.00, 0.00, -0.00, -1.00, 333.6, 628.2)"> </text><text xml:space="preserve" font-family="GillSans-Light,Gill Sans" font-size="72.0" fill="#525252" transform="matrix(1.00, 0.00, -0.00, -1.00, 353.5, 628.2)">C</text><text xml:space="preserve" font-family="GillSans-Light,Gill Sans" font-size="72.0" fill="#525252" transform="matrix(1.00, 0.00, -0.00, -1.00, 402.3, 628.2)">O</text><text xml:space="preserve" font-family="GillSans-Light,Gill Sans" font-size="72.0" fill="#525252" transform="matrix(1.00, 0.00, -0.00, -1.00, 461.5, 628.2)">M</text><text xml:space="preserve" font-family="GillSans-Light,Gill Sans" font-size="72.0" fill="#525252" transform="matrix(1.00, 0.00, -0.00, -1.00, 517.7, 628.2)">P</text><text xml:space="preserve" font-family="GillSans-Light,Gill Sans" font-size="72.0" fill="#525252" transform="matrix(1.00, 0.00, -0.00, -1.00, 554.4, 628.2)">L</text><text xml:space="preserve" font-family="GillSans-Light,Gill Sans" font-size="72.0" fill="#525252" transform="matrix(1.00, 0.00, -0.00, -1.00, 588.2, 628.2)">I</text><text xml:space="preserve" font-family="GillSans-Light,Gill Sans" font-size="72.0" fill="#525252" transform="matrix(1.00, 0.00, -0.00, -1.00, 603.2, 628.2)">A</text><text xml:space="preserve" font-family="GillSans-Light,Gill Sans" font-size="72.0" fill="#525252" transform="matrix(1.00, 0.00, -0.00, -1.00, 651.2, 628.2)">N</text><text xml:space="preserve" font-family="GillSans-Light,Gill Sans" font-size="72.0" fill="#525252" transform="matrix(1.00, 0.00, -0.00, -1.00, 706.7, 628.2)">C</text><text xml:space="preserve" font-family="GillSans-Light,Gill Sans" font-size="72.0" fill="#525252" transform="matrix(1.00, 0.00, -0.00, -1.00, 755.5, 628.2)">E</text><g><clipPath id="clip0x7fde3f19f450"><path d="M 384.5 283.1 L 424.8 283.1 C 427.7 283.1 430.2 280.7 430.2 277.8 L 430.2 203.4 C 430.2 200.5 427.7 198.1 424.8 198.1 L 384.5 198.1 C 381.6 198.1 379.2 200.5 379.2 203.4 L 379.2 277.8 C 379.2 280.7 381.6 283.1 384.5 283.1 "></path></clipPath><g clip-path="url(#clip0x7fde3f19f450)"><g><clipPath id="clip0x7fde3f19fb60"><path d="M 340.0 46.0 L 656.0 46.0 L 656.0 592.0 L 340.0 592.0 Z M 340.0 46.0 "></path></clipPath><g clip-path="url(#clip0x7fde3f19fb60)"><path d="M 374.2 288.1 L 435.2 288.1 L 435.2 193.1 L 374.2 193.1 Z M 374.2 288.1 " fill="#314D5A"></path></g></g></g></g><g><clipPath id="clip0x7fde3f1a0b70"><path d="M 404.7 208.8 C 406.9 208.8 408.7 207.0 408.7 204.8 C 408.7 202.6 406.9 200.8 404.7 200.8 C 402.4 200.8 400.6 202.6 400.6 204.8 C 400.6 207.0 402.4 208.8 404.7 208.8 "></path></clipPath><g clip-path="url(#clip0x7fde3f1a0b70)"><g><clipPath id="clip0x7fde3f1a1450"><path d="M 340.0 46.0 L 656.0 46.0 L 656.0 592.0 L 340.0 592.0 Z M 340.0 46.0 "></path></clipPath><g clip-path="url(#clip0x7fde3f1a1450)"><path d="M 395.6 213.8 L 413.7 213.8 L 413.7 195.8 L 395.6 195.8 Z M 395.6 213.8 " fill="#576E77"></path></g></g></g></g><g><clipPath id="clip0x7fde3f1a2210"><path d="M 384.5 272.5 L 424.8 272.5 L 424.8 211.4 L 384.5 211.4 L 384.5 272.5 Z M 384.5 272.5 "></path></clipPath><g clip-path="url(#clip0x7fde3f1a2210)"><g><clipPath id="clip0x7fde3f1a2910"><path d="M 340.0 46.0 L 656.0 46.0 L 656.0 592.0 L 340.0 592.0 Z M 340.0 46.0 "></path></clipPath><g clip-path="url(#clip0x7fde3f1a2910)"><path d="M 379.5 277.5 L 429.8 277.5 L 429.8 206.4 L 379.5 206.4 Z M 379.5 277.5 " fill="#FFFFFF"></path></g></g></g></g><g><clipPath id="clip0x7fde3f1a3690"><path d="M 340.0 46.0 L 656.0 46.0 L 656.0 592.0 L 340.0 592.0 Z M 340.0 46.0 "></path></clipPath><g clip-path="url(#clip0x7fde3f1a3690)"><image xlink:href="../../4447D558-3221-4E98-8B70-DB3EE62B9D44/assets/1625B6CBE4A1481085AAAD5AF9535161.png" width="192.00" height="192.00" transform="matrix(0.27, 0.00, -0.00, -0.27, 379.2, 266.1)"></image></g></g><g><clipPath id="clip0x7fde3f0f52f0"><path d="M 610.5 283.1 L 650.8 283.1 C 653.7 283.1 656.2 280.7 656.2 277.8 L 656.2 203.4 C 656.2 200.5 653.7 198.1 650.8 198.1 L 610.5 198.1 C 607.6 198.1 605.2 200.5 605.2 203.4 L 605.2 277.8 C 605.2 280.7 607.6 283.1 610.5 283.1 "></path></clipPath><g clip-path="url(#clip0x7fde3f0f52f0)"><g><clipPath id="clip0x7fde3f0f8090"><path d="M 340.0 46.0 L 656.0 46.0 L 656.0 592.0 L 340.0 592.0 Z M 340.0 46.0 "></path></clipPath><g clip-path="url(#clip0x7fde3f0f8090)"><path d="M 600.2 288.1 L 661.2 288.1 L 661.2 193.1 L 600.2 193.1 Z M 600.2 288.1 " fill="#314D5A"></path></g></g></g></g><g><clipPath id="clip0x7fde3f201e90"><path d="M 630.7 208.8 C 632.9 208.8 634.7 207.0 634.7 204.8 C 634.7 202.6 632.9 200.8 630.7 200.8 C 628.4 200.8 626.6 202.6 626.6 204.8 C 626.6 207.0 628.4 208.8 630.7 208.8 "></path></clipPath><g clip-path="url(#clip0x7fde3f201e90)"><g><clipPath id="clip0x7fde3f20ec30"><path d="M 340.0 46.0 L 656.0 46.0 L 656.0 592.0 L 340.0 592.0 Z M 340.0 46.0 "></path></clipPath><g clip-path="url(#clip0x7fde3f20ec30)"><path d="M 621.6 213.8 L 639.7 213.8 L 639.7 195.8 L 621.6 195.8 Z M 621.6 213.8 " fill="#576E77"></path></g></g></g></g><g><clipPath id="clip0x7fde3e148670"><path d="M 610.5 272.5 L 650.8 272.5 L 650.8 211.4 L 610.5 211.4 L 610.5 272.5 Z M 610.5 272.5 "></path></clipPath><g clip-path="url(#clip0x7fde3e148670)"><g><clipPath id="clip0x7fde3f20f1e0"><path d="M 340.0 46.0 L 656.0 46.0 L 656.0 592.0 L 340.0 592.0 Z M 340.0 46.0 "></path></clipPath><g clip-path="url(#clip0x7fde3f20f1e0)"><path d="M 605.5 277.5 L 655.8 277.5 L 655.8 206.4 L 605.5 206.4 Z M 605.5 277.5 " fill="#FFFFFF"></path></g></g></g></g><g><clipPath id="clip0x7fde3f0eac30"><path d="M 340.0 46.0 L 656.0 46.0 L 656.0 592.0 L 340.0 592.0 Z M 340.0 46.0 "></path></clipPath><g clip-path="url(#clip0x7fde3f0eac30)"><image xlink:href="../../4447D558-3221-4E98-8B70-DB3EE62B9D44/assets/1625B6CBE4A1481085AAAD5AF9535161.png" width="192.00" height="192.00" transform="matrix(0.27, 0.00, -0.00, -0.27, 605.2, 265.1)"></image></g></g><g><clipPath id="clip0x7fde3e6c1290"><path d="M 497.5 283.1 L 537.8 283.1 C 540.7 283.1 543.2 280.7 543.2 277.8 L 543.2 203.4 C 543.2 200.5 540.7 198.1 537.8 198.1 L 497.5 198.1 C 494.6 198.1 492.2 200.5 492.2 203.4 L 492.2 277.8 C 492.2 280.7 494.6 283.1 497.5 283.1 "></path></clipPath><g clip-path="url(#clip0x7fde3e6c1290)"><g><clipPath id="clip0x7fde3e6c2780"><path d="M 340.0 46.0 L 656.0 46.0 L 656.0 592.0 L 340.0 592.0 Z M 340.0 46.0 "></path></clipPath><g clip-path="url(#clip0x7fde3e6c2780)"><path d="M 487.2 288.1 L 548.2 288.1 L 548.2 193.1 L 487.2 193.1 Z M 487.2 288.1 " fill="#314D5A"></path></g></g></g></g><g><clipPath id="clip0x7fde3e678910"><path d="M 517.7 208.8 C 519.9 208.8 521.7 207.0 521.7 204.8 C 521.7 202.6 519.9 200.8 517.7 200.8 C 515.4 200.8 513.6 202.6 513.6 204.8 C 513.6 207.0 515.4 208.8 517.7 208.8 "></path></clipPath><g clip-path="url(#clip0x7fde3e678910)"><g><clipPath id="clip0x7fde3e6c31f0"><path d="M 340.0 46.0 L 656.0 46.0 L 656.0 592.0 L 340.0 592.0 Z M 340.0 46.0 "></path></clipPath><g clip-path="url(#clip0x7fde3e6c31f0)"><path d="M 508.6 213.8 L 526.7 213.8 L 526.7 195.8 L 508.6 195.8 Z M 508.6 213.8 " fill="#576E77"></path></g></g></g></g><g><clipPath id="clip0x7fde3e6c4070"><path d="M 497.5 272.5 L 537.8 272.5 L 537.8 211.4 L 497.5 211.4 L 497.5 272.5 Z M 497.5 272.5 "></path></clipPath><g clip-path="url(#clip0x7fde3e6c4070)"><g><clipPath id="clip0x7fde3e6c47c0"><path d="M 340.0 46.0 L 656.0 46.0 L 656.0 592.0 L 340.0 592.0 Z M 340.0 46.0 "></path></clipPath><g clip-path="url(#clip0x7fde3e6c47c0)"><path d="M 492.5 277.5 L 542.8 277.5 L 542.8 206.4 L 492.5 206.4 Z M 492.5 277.5 " fill="#FFFFFF"></path></g></g></g></g><g><clipPath id="clip0x7fde3e6c5180"><path d="M 533.4 246.4 C 532.9 247.3 532.1 248.1 531.2 248.7 C 531.1 248.8 531.0 248.8 530.9 248.9 C 531.4 247.9 531.6 246.8 531.6 245.4 C 531.6 242.2 530.2 239.6 527.5 237.6 C 524.8 235.7 521.1 234.7 516.2 234.7 L 515.0 234.7 C 514.2 234.7 513.3 234.0 513.2 233.2 L 511.8 227.8 C 511.6 227.0 510.7 226.3 509.9 226.3 L 507.6 226.3 L 507.2 224.9 C 507.0 224.1 507.6 223.4 508.4 223.4 L 512.4 223.4 C 513.3 223.4 514.1 224.0 514.3 224.9 L 515.7 230.7 C 515.9 231.5 516.7 232.2 517.6 232.2 L 518.7 232.2 C 523.6 232.2 527.4 233.2 530.1 235.1 C 532.8 237.1 534.1 239.7 534.1 242.9 C 534.1 244.3 533.9 245.5 533.4 246.4 "></path></clipPath><g clip-path="url(#clip0x7fde3e6c5180)"><g><clipPath id="clip0x7fde3e6c6520"><path d="M 340.0 46.0 L 656.0 46.0 L 656.0 592.0 L 340.0 592.0 Z M 340.0 46.0 "></path></clipPath><g clip-path="url(#clip0x7fde3e6c6520)"><path d="M 502.2 253.9 L 539.1 253.9 L 539.1 218.4 L 502.2 218.4 Z M 502.2 253.9 " fill="#25A6D1"></path></g></g></g></g><g><clipPath id="clip0x7fde3e6c6ee0"><path d="M 528.3 251.2 C 527.8 252.2 527.1 252.9 526.2 253.5 C 525.2 254.1 524.0 254.5 522.7 254.8 C 521.4 255.0 519.8 255.1 518.0 255.1 L 509.7 255.1 C 508.8 255.1 508.0 254.4 507.8 253.6 L 502.2 229.7 C 502.0 228.9 502.5 228.2 503.4 228.2 L 507.4 228.2 C 508.2 228.2 509.1 228.8 509.3 229.7 L 510.7 235.5 C 510.8 236.3 511.7 237.0 512.6 237.0 L 513.7 237.0 C 518.6 237.0 522.3 238.0 525.0 239.9 C 527.8 241.9 529.1 244.5 529.1 247.7 C 529.1 249.1 528.9 250.3 528.3 251.2 M 519.8 243.4 C 518.6 242.5 516.9 242.1 514.7 242.1 L 513.8 242.1 C 512.9 242.1 512.4 242.8 512.5 243.6 L 513.7 248.7 C 513.9 249.5 514.8 250.1 515.6 250.1 L 516.9 250.1 C 518.5 250.1 519.6 249.9 520.4 249.4 C 521.2 248.9 521.6 248.1 521.5 247.1 C 521.6 245.5 521.0 244.2 519.8 243.4 "></path></clipPath><g clip-path="url(#clip0x7fde3e6c6ee0)"><g><clipPath id="clip0x7fde3e6c7eb0"><path d="M 340.0 46.0 L 656.0 46.0 L 656.0 592.0 L 340.0 592.0 Z M 340.0 46.0 "></path></clipPath><g clip-path="url(#clip0x7fde3e6c7eb0)"><path d="M 497.2 260.1 L 534.1 260.1 L 534.1 223.2 L 497.2 223.2 Z M 497.2 260.1 " fill="#314D5A"></path></g></g></g></g><g><clipPath id="clip0x7fde3e6c9520"><path d="M 554.3 421.7 C 552.7 438.7 538.4 452.1 520.9 452.1 C 507.3 452.1 495.7 444.1 490.3 432.6 C 488.7 433.1 487.1 433.4 485.3 433.4 C 476.0 433.4 468.4 425.9 468.4 416.6 C 468.4 414.8 468.8 413.0 469.3 411.4 C 462.1 407.1 457.2 399.4 457.2 390.4 C 457.2 377.0 468.1 366.1 481.5 366.1 L 481.5 366.1 L 549.0 366.1 L 549.0 366.1 C 564.6 366.1 577.1 378.7 577.1 394.2 C 577.1 407.8 567.3 419.2 554.3 421.7 Z M 538.4 417.1 C 536.8 418.9 534.1 418.9 532.5 417.1 L 512.1 394.9 L 505.5 402.1 C 503.9 403.9 501.2 403.9 499.6 402.1 C 498.0 400.4 498.0 397.5 499.6 395.7 L 508.5 386.0 C 509.5 384.9 511.1 384.5 512.5 384.9 C 513.7 384.8 514.9 385.1 515.9 386.1 L 538.4 410.7 C 540.0 412.5 540.0 415.4 538.4 417.1 Z M 538.4 417.1 "></path></clipPath><g clip-path="url(#clip0x7fde3e6c9520)"><g><clipPath id="clip0x7fde3e6c9c20"><path d="M 340.0 46.0 L 656.0 46.0 L 656.0 592.0 L 340.0 592.0 Z M 340.0 46.0 "></path></clipPath><g clip-path="url(#clip0x7fde3e6c9c20)"><path d="M 452.2 457.1 L 582.1 457.1 L 582.1 361.1 L 452.2 361.1 Z M 452.2 457.1 " fill="#51BAA7"></path></g></g></g></g><g><clipPath id="clip0x7fde3e6ca980"><path d="M 551.5 573.2 C 550.4 575.2 548.8 576.9 546.8 578.2 C 546.5 578.3 546.3 578.4 546.1 578.5 C 547.1 576.5 547.7 574.0 547.6 571.0 C 547.7 564.1 544.7 558.5 538.9 554.3 C 533.0 550.1 524.9 548.0 514.4 548.0 L 512.0 548.0 C 510.1 548.0 508.3 546.5 507.9 544.7 L 504.9 533.2 C 504.5 531.4 502.7 529.9 500.8 529.9 L 495.8 529.9 L 495.1 526.8 C 494.7 525.0 495.8 523.5 497.7 523.5 L 506.3 523.5 C 508.1 523.5 509.9 525.0 510.4 526.8 L 513.3 539.3 C 513.7 541.1 515.6 542.5 517.4 542.5 L 519.9 542.5 C 530.4 542.5 538.5 544.6 544.3 548.9 C 550.2 553.1 553.1 558.7 553.1 565.6 C 553.1 568.6 552.6 571.2 551.5 573.2 "></path></clipPath><g clip-path="url(#clip0x7fde3e6ca980)"><g><clipPath id="clip0x7fde3e6cbc50"><path d="M 340.0 46.0 L 656.0 46.0 L 656.0 592.0 L 340.0 592.0 Z M 340.0 46.0 "></path></clipPath><g clip-path="url(#clip0x7fde3e6cbc50)"><path d="M 490.0 583.5 L 558.1 583.5 L 558.1 518.5 L 490.0 518.5 Z M 490.0 583.5 " fill="#25A6D1"></path></g></g></g></g><g><clipPath id="clip0x7fde3e6cc640"><path d="M 540.6 583.5 C 539.6 585.6 538.0 587.2 535.9 588.5 C 533.8 589.8 531.3 590.7 528.5 591.2 C 525.6 591.7 522.2 592.0 518.4 592.0 L 500.4 592.0 C 498.6 592.0 496.8 590.5 496.3 588.8 L 484.2 537.1 C 483.8 535.4 485.0 533.9 486.8 533.9 L 495.4 533.9 C 497.3 533.9 499.1 535.3 499.5 537.1 L 502.5 549.7 C 502.9 551.4 504.7 552.9 506.6 552.9 L 509.0 552.9 C 519.5 552.9 527.7 555.0 533.5 559.2 C 539.4 563.4 542.3 569.0 542.3 575.9 C 542.3 579.0 541.7 581.5 540.6 583.5 M 522.1 566.7 C 519.5 564.8 515.9 563.9 511.3 563.9 L 509.2 563.9 C 507.3 563.9 506.2 565.3 506.6 567.1 L 509.1 578.0 C 509.5 579.8 511.4 581.3 513.2 581.3 L 516.0 581.3 C 519.3 581.3 521.8 580.7 523.5 579.6 C 525.2 578.6 526.0 576.9 526.0 574.6 C 526.0 571.2 524.7 568.5 522.1 566.7 "></path></clipPath><g clip-path="url(#clip0x7fde3e6cc640)"><g><clipPath id="clip0x7fde3e6cdb00"><path d="M 340.0 46.0 L 656.0 46.0 L 656.0 592.0 L 340.0 592.0 Z M 340.0 46.0 "></path></clipPath><g clip-path="url(#clip0x7fde3e6cdb00)"><path d="M 479.2 597.0 L 547.3 597.0 L 547.3 528.9 L 479.2 528.9 Z M 479.2 597.0 " fill="#314D5A"></path></g></g></g></g><g><clipPath id="clip0x7fde3e6ce4f0"><path d="M 553.5 95.2 C 552.4 97.3 550.8 98.9 548.8 100.2 C 548.5 100.3 548.3 100.4 548.1 100.5 C 549.1 98.5 549.7 96.0 549.6 93.0 C 549.7 86.1 546.7 80.5 540.9 76.3 C 535.0 72.1 526.9 70.0 516.4 70.0 L 514.0 70.0 C 512.1 70.0 510.3 68.5 509.9 66.8 L 506.9 55.2 C 506.5 53.4 504.7 51.9 502.8 51.9 L 497.8 51.9 L 497.1 48.8 C 496.7 47.0 497.8 45.6 499.7 45.6 L 508.3 45.6 C 510.1 45.6 511.9 47.0 512.4 48.8 L 515.3 61.3 C 515.7 63.1 517.6 64.5 519.4 64.5 L 521.9 64.5 C 532.4 64.5 540.5 66.6 546.3 70.9 C 552.2 75.1 555.1 80.7 555.1 87.6 C 555.1 90.6 554.6 93.2 553.5 95.2 "></path></clipPath><g clip-path="url(#clip0x7fde3e6ce4f0)"><g><clipPath id="clip0x7fde3e6cf780"><path d="M 340.0 46.0 L 656.0 46.0 L 656.0 592.0 L 340.0 592.0 Z M 340.0 46.0 "></path></clipPath><g clip-path="url(#clip0x7fde3e6cf780)"><path d="M 492.0 105.5 L 560.1 105.5 L 560.1 40.6 L 492.0 40.6 Z M 492.0 105.5 " fill="#25A6D1"></path></g></g></g></g><g><clipPath id="clip0x7fde3e6d0170"><path d="M 542.6 105.6 C 541.6 107.6 540.0 109.3 537.9 110.5 C 535.8 111.8 533.3 112.7 530.5 113.2 C 527.6 113.7 524.2 114.0 520.4 114.0 L 502.4 114.0 C 500.6 114.0 498.8 112.5 498.3 110.8 L 486.2 59.1 C 485.8 57.4 487.0 55.9 488.8 55.9 L 497.4 55.9 C 499.3 55.9 501.1 57.3 501.5 59.1 L 504.5 71.7 C 504.9 73.4 506.7 74.9 508.6 74.9 L 511.0 74.9 C 521.5 74.9 529.7 77.0 535.5 81.2 C 541.4 85.4 544.3 91.0 544.3 97.9 C 544.3 101.0 543.7 103.5 542.6 105.6 M 524.1 88.7 C 521.5 86.8 517.9 85.9 513.3 85.9 L 511.2 85.9 C 509.3 85.9 508.2 87.3 508.6 89.1 L 511.1 100.1 C 511.5 101.8 513.4 103.3 515.2 103.3 L 518.0 103.3 C 521.3 103.3 523.8 102.7 525.5 101.6 C 527.2 100.6 528.0 98.9 528.0 96.6 C 528.0 93.2 526.7 90.5 524.1 88.7 "></path></clipPath><g clip-path="url(#clip0x7fde3e6d0170)"><g><clipPath id="clip0x7fde3e6d1580"><path d="M 340.0 46.0 L 656.0 46.0 L 656.0 592.0 L 340.0 592.0 Z M 340.0 46.0 "></path></clipPath><g clip-path="url(#clip0x7fde3e6d1580)"><path d="M 481.2 119.0 L 549.3 119.0 L 549.3 50.9 L 481.2 50.9 Z M 481.2 119.0 " fill="#314D5A"></path></g></g></g></g><g><clipPath id="clip0x7fde3e6d1f30"><path d="M 471.1 350.1 C 471.2 352.5 469.9 353.1 468.1 353.1 L 453.2 353.0 C 450.9 352.5 450.5 350.7 452.2 349.0 L 456.8 344.5 L 425.7 313.3 L 420.7 318.1 C 419.2 319.8 417.7 319.4 417.2 317.1 L 417.2 302.1 C 417.1 299.7 418.4 299.2 420.2 299.1 L 435.2 299.2 C 437.4 299.7 437.9 301.6 436.2 303.3 L 431.6 307.7 L 462.7 338.9 L 467.6 334.1 C 469.1 332.4 470.6 332.8 471.1 335.1 L 471.1 350.1 "></path></clipPath><g clip-path="url(#clip0x7fde3e6d1f30)"><g><clipPath id="clip0x7fde3e6d2e80"><path d="M 340.0 46.0 L 656.0 46.0 L 656.0 592.0 L 340.0 592.0 Z M 340.0 46.0 "></path></clipPath><g clip-path="url(#clip0x7fde3e6d2e80)"><path d="M 412.2 358.1 L 476.1 358.1 L 476.1 294.1 L 412.2 294.1 Z M 412.2 358.1 " fill="#51BAA7"></path></g></g></g></g><g><clipPath id="clip0x7fde3e6d3870"><path d="M 565.2 353.1 C 562.8 353.1 562.2 351.9 562.2 350.1 L 562.2 335.2 C 562.8 332.9 564.6 332.5 566.3 334.2 L 570.7 338.8 L 602.0 307.6 L 597.2 302.7 C 595.5 301.2 595.9 299.6 598.2 299.2 L 613.1 299.2 C 615.5 299.1 616.1 300.3 616.2 302.2 L 616.1 317.1 C 615.5 319.4 613.7 319.9 612.0 318.1 L 607.6 313.5 L 576.4 344.7 L 581.2 349.6 C 582.9 351.0 582.4 352.6 580.2 353.1 L 565.2 353.1 "></path></clipPath><g clip-path="url(#clip0x7fde3e6d3870)"><g><clipPath id="clip0x7fde3e6d47c0"><path d="M 340.0 46.0 L 656.0 46.0 L 656.0 592.0 L 340.0 592.0 Z M 340.0 46.0 "></path></clipPath><g clip-path="url(#clip0x7fde3e6d47c0)"><path d="M 557.2 294.2 L 557.2 358.1 L 621.2 358.1 L 621.2 294.2 Z M 557.2 294.2 " fill="#51BAA7"></path></g></g></g></g><g><clipPath id="clip0x7fde3e6d51b0"><path d="M 341.2 466.0 C 340.2 465.0 340.5 464.3 341.2 463.6 L 347.2 457.6 C 348.4 456.9 349.3 457.5 349.3 458.9 L 349.2 462.5 L 374.4 462.7 L 374.4 458.8 C 374.3 457.5 375.1 457.1 376.2 457.8 L 382.3 463.9 C 383.3 464.8 383.0 465.5 382.3 466.3 L 376.3 472.3 C 375.2 473.0 374.2 472.4 374.2 471.0 L 374.3 467.4 L 349.2 467.2 L 349.1 471.1 C 349.3 472.4 348.4 472.8 347.3 472.1 L 341.2 466.0 "></path></clipPath><g clip-path="url(#clip0x7fde3e6d51b0)"><g><clipPath id="clip0x7fde3e6d6100"><path d="M 340.0 46.0 L 656.0 46.0 L 656.0 592.0 L 340.0 592.0 Z M 340.0 46.0 "></path></clipPath><g clip-path="url(#clip0x7fde3e6d6100)"><path d="M 361.6 436.1 L 332.9 464.8 L 361.9 493.8 L 390.6 465.1 Z M 361.6 436.1 " fill="#51BAA7"></path></g></g></g></g><g><clipPath id="clip0x7fde3e6d6af0"><path d="M 520.4 187.0 C 519.0 188.5 518.0 188.1 516.8 187.0 L 507.9 178.0 C 506.8 176.3 507.6 174.9 509.7 174.9 L 515.2 175.0 L 515.2 137.3 L 509.4 137.2 C 507.4 137.4 506.7 136.1 507.8 134.5 L 516.9 125.5 C 518.3 124.0 519.3 124.4 520.5 125.5 L 529.5 134.6 C 530.5 136.3 529.7 137.6 527.6 137.6 L 522.2 137.5 L 522.2 175.1 L 528.0 175.2 C 529.9 175.1 530.6 176.3 529.5 178.0 L 520.4 187.0 "></path></clipPath><g clip-path="url(#clip0x7fde3e6d6af0)"><g><clipPath id="clip0x7fde3e6d7a40"><path d="M 340.0 46.0 L 656.0 46.0 L 656.0 592.0 L 340.0 592.0 Z M 340.0 46.0 "></path></clipPath><g clip-path="url(#clip0x7fde3e6d7a40)"><path d="M 479.0 156.3 L 518.6 195.9 L 558.3 156.2 L 518.7 116.6 Z M 479.0 156.3 " fill="#D0011B" fill-opacity="0.77"></path></g></g></g></g><g><clipPath id="clip0x7fde3e6d85e0"><path d="M 380.7 487.0 C 381.7 487.9 381.4 488.6 380.8 489.3 L 374.9 495.1 C 373.8 495.7 373.0 495.2 373.0 493.9 L 373.0 490.4 L 348.8 490.3 L 348.7 494.1 C 348.8 495.3 348.0 495.8 347.0 495.1 L 341.2 489.3 C 340.2 488.4 340.5 487.7 341.2 486.9 L 347.0 481.2 C 348.1 480.5 349.0 481.0 349.0 482.4 L 348.9 485.8 L 373.1 485.9 L 373.2 482.1 C 373.1 480.9 373.9 480.4 374.9 481.1 L 380.7 487.0 "></path></clipPath><g clip-path="url(#clip0x7fde3e6d85e0)"><g><clipPath id="clip0x7fde3e6d94e0"><path d="M 340.0 46.0 L 656.0 46.0 L 656.0 592.0 L 340.0 592.0 Z M 340.0 46.0 "></path></clipPath><g clip-path="url(#clip0x7fde3e6d94e0)"><path d="M 361.0 516.2 L 389.0 488.1 L 360.9 460.1 L 332.9 488.1 Z M 361.0 516.2 " fill="#D0011B" fill-opacity="0.77"></path></g></g></g></g><g><clipPath id="clip0x7fde3e6da010"><path d="M 519.5 521.0 C 518.1 522.4 517.1 522.0 516.0 521.0 L 507.5 512.3 C 506.5 510.7 507.3 509.4 509.2 509.4 L 514.4 509.5 L 514.5 473.5 L 508.9 473.4 C 507.0 473.5 506.4 472.3 507.4 470.8 L 516.1 462.1 C 517.4 460.7 518.4 461.1 519.5 462.1 L 528.1 470.8 C 529.1 472.5 528.3 473.8 526.4 473.7 L 521.2 473.6 L 521.1 509.6 L 526.7 509.7 C 528.6 509.6 529.2 510.7 528.2 512.3 L 519.5 521.0 "></path></clipPath><g clip-path="url(#clip0x7fde3e6da010)"><g><clipPath id="clip0x7fde3e6daeb0"><path d="M 340.0 46.0 L 656.0 46.0 L 656.0 592.0 L 340.0 592.0 Z M 340.0 46.0 "></path></clipPath><g clip-path="url(#clip0x7fde3e6daeb0)"><path d="M 479.5 491.6 L 517.8 529.8 L 556.0 491.5 L 517.8 453.3 Z M 479.5 491.6 " fill="#D0011B" fill-opacity="0.77"></path></g></g></g></g><g><clipPath id="clip0x7fde3e6dbee0"><path d="M 340.0 46.0 L 656.0 46.0 L 656.0 592.0 L 340.0 592.0 Z M 340.0 46.0 "></path></clipPath><g clip-path="url(#clip0x7fde3e6dbee0)"><text xml:space="preserve" font-family="LucidaGrande,Lucida Grande" font-size="14.0" fill="#DB2022" transform="matrix(1.00, 0.00, -0.00, -1.00, 387.2, 484.7)">S</text><text xml:space="preserve" font-family="LucidaGrande,Lucida Grande" font-size="14.0" fill="#DB2022" transform="matrix(1.00, 0.00, -0.00, -1.00, 394.7, 484.7)">e</text><text xml:space="preserve" font-family="LucidaGrande,Lucida Grande" font-size="14.0" fill="#DB2022" transform="matrix(1.00, 0.00, -0.00, -1.00, 402.5, 484.7)">n</text><text xml:space="preserve" font-family="LucidaGrande,Lucida Grande" font-size="14.0" fill="#DB2022" transform="matrix(1.00, 0.00, -0.00, -1.00, 411.2, 484.7)">s</text><text xml:space="preserve" font-family="LucidaGrande,Lucida Grande" font-size="14.0" fill="#DB2022" transform="matrix(1.00, 0.00, -0.00, -1.00, 418.3, 484.7)">i</text><text xml:space="preserve" font-family="LucidaGrande,Lucida Grande" font-size="14.0" fill="#DB2022" transform="matrix(1.00, 0.00, -0.00, -1.00, 422.4, 484.7)">t</text><text xml:space="preserve" font-family="LucidaGrande,Lucida Grande" font-size="14.0" fill="#DB2022" transform="matrix(1.00, 0.00, -0.00, -1.00, 427.6, 484.7)">i</text><text xml:space="preserve" font-family="LucidaGrande,Lucida Grande" font-size="14.0" fill="#DB2022" transform="matrix(1.00, 0.00, -0.00, -1.00, 431.6, 484.7)">v</text><text xml:space="preserve" font-family="LucidaGrande,Lucida Grande" font-size="14.0" fill="#DB2022" transform="matrix(1.00, 0.00, -0.00, -1.00, 438.9, 484.7)">e</text><text xml:space="preserve" font-family="LucidaGrande,Lucida Grande" font-size="14.0" fill="#DB2022" transform="matrix(1.00, 0.00, -0.00, -1.00, 446.7, 484.7)"> </text><text xml:space="preserve" font-family="LucidaGrande,Lucida Grande" font-size="14.0" fill="#DB2022" transform="matrix(1.00, 0.00, -0.00, -1.00, 451.1, 484.7)">D</text><text xml:space="preserve" font-family="LucidaGrande,Lucida Grande" font-size="14.0" fill="#DB2022" transform="matrix(1.00, 0.00, -0.00, -1.00, 461.6, 484.7)">a</text><text xml:space="preserve" font-family="LucidaGrande,Lucida Grande" font-size="14.0" fill="#DB2022" transform="matrix(1.00, 0.00, -0.00, -1.00, 469.3, 484.7)">t</text><text xml:space="preserve" font-family="LucidaGrande,Lucida Grande" font-size="14.0" fill="#DB2022" transform="matrix(1.00, 0.00, -0.00, -1.00, 474.6, 484.7)">a</text><text xml:space="preserve" font-family="LucidaGrande,Lucida Grande" font-size="14.0" fill="#5FC5B6" transform="matrix(1.00, 0.00, -0.00, -1.00, 387.2, 460.7)">N</text><text xml:space="preserve" font-family="LucidaGrande,Lucida Grande" font-size="14.0" fill="#5FC5B6" transform="matrix(1.00, 0.00, -0.00, -1.00, 397.5, 460.7)">o</text><text xml:space="preserve" font-family="LucidaGrande,Lucida Grande" font-size="14.0" fill="#5FC5B6" transform="matrix(1.00, 0.00, -0.00, -1.00, 406.1, 460.7)">r</text><text xml:space="preserve" font-family="LucidaGrande,Lucida Grande" font-size="14.0" fill="#5FC5B6" transform="matrix(1.00, 0.00, -0.00, -1.00, 411.8, 460.7)">m</text><text xml:space="preserve" font-family="LucidaGrande,Lucida Grande" font-size="14.0" fill="#5FC5B6" transform="matrix(1.00, 0.00, -0.00, -1.00, 424.9, 460.7)">a</text><text xml:space="preserve" font-family="LucidaGrande,Lucida Grande" font-size="14.0" fill="#5FC5B6" transform="matrix(1.00, 0.00, -0.00, -1.00, 432.6, 460.7)">l</text><text xml:space="preserve" font-family="LucidaGrande,Lucida Grande" font-size="14.0" fill="#5FC5B6" transform="matrix(1.00, 0.00, -0.00, -1.00, 436.7, 460.7)"> </text><text xml:space="preserve" font-family="LucidaGrande,Lucida Grande" font-size="14.0" fill="#5FC5B6" transform="matrix(1.00, 0.00, -0.00, -1.00, 441.1, 460.7)">D</text><text xml:space="preserve" font-family="LucidaGrande,Lucida Grande" font-size="14.0" fill="#5FC5B6" transform="matrix(1.00, 0.00, -0.00, -1.00, 451.6, 460.7)">a</text><text xml:space="preserve" font-family="LucidaGrande,Lucida Grande" font-size="14.0" fill="#5FC5B6" transform="matrix(1.00, 0.00, -0.00, -1.00, 459.3, 460.7)">t</text><text xml:space="preserve" font-family="LucidaGrande,Lucida Grande" font-size="14.0" fill="#5FC5B6" transform="matrix(1.00, 0.00, -0.00, -1.00, 464.6, 460.7)">a</text><text xml:space="preserve" font-family="LucidaGrande,Lucida Grande" font-size="18.0" fill="#37525F" transform="matrix(1.00, 0.00, -0.00, -1.00, 341.0, 506.0)">A</text><text xml:space="preserve" font-family="LucidaGrande,Lucida Grande" font-size="18.0" fill="#37525F" transform="matrix(1.00, 0.00, -0.00, -1.00, 353.4, 506.0)">P</text><text xml:space="preserve" font-family="LucidaGrande,Lucida Grande" font-size="18.0" fill="#37525F" transform="matrix(1.00, 0.00, -0.00, -1.00, 363.4, 506.0)">I</text><text xml:space="preserve" font-family="LucidaGrande,Lucida Grande" font-size="18.0" fill="#37525F" transform="matrix(1.00, 0.00, -0.00, -1.00, 368.5, 506.0)"> </text><text xml:space="preserve" font-family="LucidaGrande,Lucida Grande" font-size="18.0" fill="#37525F" transform="matrix(1.00, 0.00, -0.00, -1.00, 374.3, 506.0)">C</text><text xml:space="preserve" font-family="LucidaGrande,Lucida Grande" font-size="18.0" fill="#37525F" transform="matrix(1.00, 0.00, -0.00, -1.00, 386.7, 506.0)">a</text><text xml:space="preserve" font-family="LucidaGrande,Lucida Grande" font-size="18.0" fill="#37525F" transform="matrix(1.00, 0.00, -0.00, -1.00, 396.7, 506.0)">l</text><text xml:space="preserve" font-family="LucidaGrande,Lucida Grande" font-size="18.0" fill="#37525F" transform="matrix(1.00, 0.00, -0.00, -1.00, 401.9, 506.0)">l</text><text xml:space="preserve" font-family="LucidaGrande,Lucida Grande" font-size="18.0" fill="#37525F" transform="matrix(1.00, 0.00, -0.00, -1.00, 407.1, 506.0)">s</text></g></g><g><clipPath id="clip0x7fde3e6eb4b0"><path d="M 460.2 256.1 C 451.3 256.1 444.2 249.0 444.2 240.1 C 444.2 231.3 451.3 224.1 460.2 224.1 C 469.0 224.1 476.2 231.3 476.2 240.1 C 476.2 249.0 469.0 256.1 460.2 256.1 L 460.2 256.1 Z M 460.2 227.1 C 453.0 227.1 447.2 232.9 447.2 240.1 C 447.2 247.3 453.0 253.1 460.2 253.1 C 467.3 253.1 473.2 247.3 473.2 240.1 C 473.2 232.9 467.3 227.1 460.2 227.1 L 460.2 227.1 Z M 466.5 241.1 L 460.8 246.9 C 459.9 247.4 459.2 247.0 459.2 245.9 L 459.2 243.1 L 454.2 243.1 C 453.6 243.1 453.2 242.7 453.2 242.1 L 453.2 238.1 C 453.2 237.6 453.6 237.1 454.2 237.1 L 459.2 237.1 L 459.2 234.3 C 459.2 233.3 459.9 232.8 460.8 233.4 L 466.5 239.1 C 467.4 239.7 467.4 240.6 466.5 241.1 L 466.5 241.1 Z M 466.5 241.1 "></path></clipPath><g clip-path="url(#clip0x7fde3e6eb4b0)"><g><clipPath id="clip0x7fde3e6ec4e0"><path d="M 340.0 46.0 L 656.0 46.0 L 656.0 592.0 L 340.0 592.0 Z M 340.0 46.0 "></path></clipPath><g clip-path="url(#clip0x7fde3e6ec4e0)"><path d="M 439.2 261.1 L 481.2 261.1 L 481.2 219.1 L 439.2 219.1 Z M 439.2 261.1 " fill="#51BAA7"></path></g></g></g></g><g><clipPath id="clip0x7fde3e6ed490"><path d="M 573.2 256.1 C 564.3 256.1 557.2 249.0 557.2 240.1 C 557.2 231.3 564.3 224.1 573.2 224.1 C 582.0 224.1 589.2 231.3 589.2 240.1 C 589.2 249.0 582.0 256.1 573.2 256.1 L 573.2 256.1 Z M 573.2 227.1 C 566.0 227.1 560.2 232.9 560.2 240.1 C 560.2 247.3 566.0 253.1 573.2 253.1 C 580.3 253.1 586.2 247.3 586.2 240.1 C 586.2 232.9 580.3 227.1 573.2 227.1 L 573.2 227.1 Z M 579.5 241.1 L 573.8 246.9 C 572.9 247.4 572.2 247.0 572.2 245.9 L 572.2 243.1 L 567.2 243.1 C 566.6 243.1 566.2 242.7 566.2 242.1 L 566.2 238.1 C 566.2 237.6 566.6 237.1 567.2 237.1 L 572.2 237.1 L 572.2 234.3 C 572.2 233.3 572.9 232.8 573.8 233.4 L 579.5 239.1 C 580.4 239.7 580.4 240.6 579.5 241.1 L 579.5 241.1 Z M 579.5 241.1 "></path></clipPath><g clip-path="url(#clip0x7fde3e6ed490)"><g><clipPath id="clip0x7fde3e6ee2a0"><path d="M 340.0 46.0 L 656.0 46.0 L 656.0 592.0 L 340.0 592.0 Z M 340.0 46.0 "></path></clipPath><g clip-path="url(#clip0x7fde3e6ee2a0)"><path d="M 552.2 261.1 L 594.2 261.1 L 594.2 219.1 L 552.2 219.1 Z M 552.2 261.1 " fill="#51BAA7"></path></g></g></g></g><image xlink:href="../../F8F8C3CB-4BD9-4931-883C-D4A02C0BD267/assets/9460EA0F7A6DDE5FA19F2118B4EF96B7.png" width="90.00" height="50.00" transform="matrix(0.74, 0.00, -0.00, -0.74, 339.0, 448.0)"></image></g></svg>