<?xml version="1.0" encoding="UTF-8" standalone="no"?>
<svg width="207px" height="200px" viewBox="0 0 207 200" version="1.1" xmlns="http://www.w3.org/2000/svg" xmlns:xlink="http://www.w3.org/1999/xlink" xmlns:sketch="http://www.bohemiancoding.com/sketch/ns">
    <!-- Generator: Sketch 3.2.2 (9983) - http://www.bohemiancoding.com/sketch -->
    <title>chai_logo2</title>
    <desc>Created with Sketch.</desc>
    <defs></defs>
    <g id="Page-1" stroke="none" stroke-width="1" fill="none" fill-rule="evenodd" sketch:type="MSPage">
        <rect id="Rectangle-37" stroke="#979797" fill="#FFFFFF" sketch:type="MSShapeGroup" x="-55" y="-164" width="327" height="582"></rect>
        <g id="Cup" sketch:type="MSLayerGroup" transform="translate(57.000000, 4.000000)" fill="#FF8F00">
            <g id="InnerQR" transform="translate(13.000000, 52.000000)" sketch:type="MSShapeGroup">
                <path d="M16.7837838,53.3333333 L16.7837838,46.4197531 L6.91891892,46.4197531 L6.91891892,54.3209877 L7.90540541,54.3209877 L7.90540541,58.2716049 L21.7162162,58.2716049 L21.7162162,77.037037 L26.6486486,77.037037 L26.6486486,56.2962963 L26.6486486,53.3333333 L16.7837838,53.3333333 Z M13.8243243,30.617284 L16.7837838,30.617284 L16.7837838,24.691358 L1.98648649,24.691358 L1.98648649,29.6296296 L1.98648649,33.5802469 L10.8648649,33.5802469 L10.8648649,36.5432099 L16.7837838,36.5432099 L16.7837838,30.617284 L13.8243243,30.617284 L13.8243243,30.617284 L13.8243243,30.617284 Z M69.0675676,5.92592593 L69.0675676,0.987654321 L64.1351351,0.987654321 L64.1351351,20.7407407 L69.0675676,20.7407407 L69.0675676,12.8395062 L74,12.8395062 L74,5.92592593 L69.0675676,5.92592593 L69.0675676,5.92592593 Z M21.7162162,15.8024691 L1,15.8024691 L1,20.7407407 L26.6486486,20.7407407 L26.6486486,17.2839506 L26.6486486,0.987654321 L21.7162162,0.987654321 L21.7162162,15.8024691 L21.7162162,15.8024691 Z M26.6486486,57.2839506 L32.5675676,57.2839506 L32.5675676,63.2098765 L26.6486486,63.2098765 L26.6486486,57.2839506 Z M32.5675676,63.2098765 L38.4864865,63.2098765 L38.4864865,76.0493827 L32.5675676,76.0493827 L32.5675676,63.2098765 Z M38.4864865,55.308642 L64.1351351,55.308642 L64.1351351,60.2469136 L38.4864865,60.2469136 L38.4864865,55.308642 Z M38.4864865,60.2469136 L45.3918919,60.2469136 L45.3918919,70.1234568 L38.4864865,70.1234568 L38.4864865,60.2469136 Z M50.3243243,70.1234568 L58.2162162,70.1234568 L58.2162162,80 L50.3243243,80 L50.3243243,70.1234568 Z M50.3243243,60.2469136 L65.1216216,60.2469136 L65.1216216,65.1851852 L50.3243243,65.1851852 L50.3243243,60.2469136 Z M26.6486486,5.92592593 L32.5675676,5.92592593 L32.5675676,18.7654321 L26.6486486,18.7654321 L26.6486486,5.92592593 Z M32.5675676,0 L38.4864865,0 L38.4864865,5.92592593 L32.5675676,5.92592593 L32.5675676,0 Z M5.93243243,0.987654321 L16.7837838,0.987654321 L16.7837838,11.8518519 L5.93243243,11.8518519 L5.93243243,0.987654321 Z M47.3648649,44.4444444 L58.2162162,44.4444444 L58.2162162,55.308642 L47.3648649,55.308642 L47.3648649,44.4444444 Z M48.3513514,0.987654321 L59.2027027,0.987654321 L59.2027027,11.8518519 L48.3513514,11.8518519 L48.3513514,0.987654321 Z M43.4189189,15.8024691 L64.1351351,15.8024691 L64.1351351,20.7407407 L43.4189189,20.7407407 L43.4189189,15.8024691 Z M26.6486486,24.691358 L32.5675676,24.691358 L32.5675676,30.617284 L26.6486486,30.617284 L26.6486486,24.691358 Z M32.5675676,30.617284 L38.4864865,30.617284 L38.4864865,36.5432099 L32.5675676,36.5432099 L32.5675676,30.617284 Z M32.5675676,18.7654321 L38.4864865,18.7654321 L38.4864865,24.691358 L32.5675676,24.691358 L32.5675676,18.7654321 Z M16.7837838,20.7407407 L26.6486486,20.7407407 L26.6486486,24.691358 L16.7837838,24.691358 L16.7837838,20.7407407 Z M16.7837838,36.5432099 L32.5675676,36.5432099 L32.5675676,46.4197531 L16.7837838,46.4197531 L16.7837838,36.5432099 Z M32.5675676,46.4197531 L38.4864865,46.4197531 L38.4864865,52.345679 L32.5675676,52.345679 L32.5675676,46.4197531 Z M61.1756757,34.5679012 L68.0810811,34.5679012 L68.0810811,45.4320988 L61.1756757,45.4320988 L61.1756757,34.5679012 Z M38.4864865,36.5432099 L45.3918919,36.5432099 L45.3918919,55.308642 L38.4864865,55.308642 L38.4864865,36.5432099 Z M38.4864865,24.691358 L56.2432432,24.691358 L56.2432432,31.6049383 L38.4864865,31.6049383 L38.4864865,24.691358 Z M56.2432432,26.6666667 L63.1486486,26.6666667 L63.1486486,33.5802469 L56.2432432,33.5802469 L56.2432432,26.6666667 Z M61.1756757,20.7407407 L69.0675676,20.7407407 L69.0675676,26.6666667 L61.1756757,26.6666667 L61.1756757,20.7407407 Z M48.3513514,31.6049383 L56.2432432,31.6049383 L56.2432432,39.5061728 L48.3513514,39.5061728 L48.3513514,31.6049383 Z M38.4864865,0.987654321 L43.4189189,0.987654321 L43.4189189,20.7407407 L38.4864865,20.7407407 L38.4864865,0.987654321 Z M5.93243243,62.2222222 L16.7837838,62.2222222 L16.7837838,73.0864198 L5.93243243,73.0864198 L5.93243243,62.2222222 Z" id="Rectangle-3"></path>
            </g>
            <g stroke-width="4" stroke="#FFFFFF" sketch:type="MSShapeGroup">
                <path d="M96.1456,92.4796854 C94.7244,101.03518 88.0128,107.439034 79.693,108.681674 L77.0138,124.798551 C75.9224,131.393056 70.2852,136.179775 63.6178,136.179775 L26.568,136.179775 C19.8972,136.179775 14.2634,131.393056 13.1686,124.795146 L1.0136,51.6257528 C0.847,50.6384494 1.1258,49.6307191 1.7752,48.8647079 C2.4178,48.1021011 3.3698,47.6629213 4.3694,47.6629213 L99.5796,47.6629213 C100.5758,47.6629213 101.5278,48.1021011 102.1704,48.8647079 C102.8198,49.6307191 103.0952,50.6384494 102.932,51.6257528 L96.1456,92.4796854 Z M8.378,54.4719101 L19.8768,123.681876 C20.4242,126.977427 23.236,129.370787 26.568,129.370787 L63.6178,129.370787 C66.9464,129.370787 69.7582,126.977427 70.3056,123.681876 L81.8078,54.4719101 L8.378,54.4719101 Z M88.6996,54.4719101 L80.8966,101.426697 C85.2792,99.9423371 88.6384,96.1735618 89.4374,91.3630112 L95.5676,54.4719101 L88.6996,54.4719101 L88.6996,54.4719101 Z M58.7796,23.8314607 C56.8994,23.8314607 55.3796,22.3062472 55.3796,20.4269663 L55.3796,3.40449438 C55.3796,1.52521348 56.8994,0 58.7796,0 C60.6564,0 62.1796,1.52521348 62.1796,3.40449438 L62.1796,20.4269663 C62.1796,22.3062472 60.6564,23.8314607 58.7796,23.8314607 L58.7796,23.8314607 Z M45.1796,34.0449438 C43.2994,34.0449438 41.7796,32.5197303 41.7796,30.6404494 L41.7796,3.40449438 C41.7796,1.52521348 43.2994,0 45.1796,0 C47.0564,0 48.5796,1.52521348 48.5796,3.40449438 L48.5796,30.6404494 C48.5796,32.5197303 47.0564,34.0449438 45.1796,34.0449438 L45.1796,34.0449438 Z M31.5796,34.0449438 C29.6994,34.0449438 28.1796,32.5197303 28.1796,30.6404494 L28.1796,13.6179775 C28.1796,11.7386966 29.6994,10.2134831 31.5796,10.2134831 C33.4564,10.2134831 34.9796,11.7386966 34.9796,13.6179775 L34.9796,30.6404494 C34.9796,32.5197303 33.4564,34.0449438 31.5796,34.0449438 L31.5796,34.0449438 Z M6.1952,136.666618 C27.7512,149.647955 62.8256,149.647955 84.3816,136.666618 C85.9864,135.692933 88.0808,136.217225 89.0464,137.827551 C90.0154,139.441281 89.4952,141.53164 87.887,142.501921 C76.1434,149.573056 60.7142,153.110326 45.2884,153.110326 C29.8626,153.110326 14.4334,149.573056 2.6864,142.501921 C1.0816,141.53164 0.5614,139.441281 1.5304,137.827551 C2.496,136.21382 4.5904,135.696337 6.1952,136.666618 L6.1952,136.666618 Z"></path>
            </g>
        </g>
        <path d="M41.0240011,192.24 L41.0240011,198 L11.4560003,198 C10.1439937,198 8.91200596,197.752002 7.76000017,197.256 C6.60799437,196.759998 5.60800434,196.088004 4.76000008,195.24 C3.91199582,194.391996 3.24000252,193.392006 2.74400002,192.24 C2.24799753,191.087994 2,189.856007 2,188.544 L2,181.152 C2,179.839993 2.24799753,178.608006 2.74400002,177.456 C3.24000252,176.303994 3.91199582,175.296004 4.76000008,174.432 C5.60800434,173.567996 6.60799437,172.888002 7.76000017,172.392 C8.91200596,171.895998 10.1439937,171.648 11.4560003,171.648 L41.0240011,171.696 L41.0240011,177.456 L11.4560003,177.456 C10.4319951,177.456 9.56000382,177.815996 8.8400002,178.536 C8.11999658,179.256004 7.76000017,180.127995 7.76000017,181.152 L7.76000017,188.544 C7.76000017,189.568005 8.11999658,190.439996 8.8400002,191.16 C9.56000382,191.880004 10.4319951,192.24 11.4560003,192.24 L41.0240011,192.24 Z M72.752002,182.112 L99.6320028,182.112 L99.6320028,171.696 L105.440003,171.696 L105.440003,198 L99.6320028,198 L99.6320028,187.872 L72.752002,187.872 L72.752002,198 L66.9920019,198 L66.9920019,171.696 L72.752002,171.696 L72.752002,182.112 Z M141.296004,171.552 L159.632005,171.552 C160.944011,171.552 162.175999,171.799998 163.328005,172.296 C164.48001,172.792002 165.48,173.471996 166.328005,174.336 C167.176009,175.200004 167.848002,176.207994 168.344005,177.36 C168.840007,178.512006 169.088005,179.743993 169.088005,181.056 L169.088005,198 L163.328005,198 L163.328005,191.664 L137.600004,191.664 L137.600004,198 L131.840004,198 L131.840004,181.056 C131.840004,179.743993 132.088001,178.512006 132.584004,177.36 C133.080006,176.207994 133.752,175.200004 134.600004,174.336 C135.448008,173.471996 136.447998,172.792002 137.600004,172.296 C138.75201,171.799998 139.983997,171.552 141.296004,171.552 L141.296004,171.552 Z M137.600004,185.856 L163.328005,185.856 L163.328005,181.056 C163.328005,180.031995 162.968008,179.160004 162.248005,178.44 C161.528001,177.719996 160.65601,177.36 159.632005,177.36 L141.296004,177.36 C140.271999,177.36 139.400008,177.719996 138.680004,178.44 C137.96,179.160004 137.600004,180.031995 137.600004,181.056 L137.600004,185.856 Z M201.680006,198 L195.920006,198 L195.920006,171.696 L201.680006,171.696 L201.680006,198 Z" id="C-H-A-I" stroke="#FF8F00" stroke-width="3" fill="#FFFFFF" sketch:type="MSShapeGroup"></path>
    </g>
</svg>