<?xml version="1.0" encoding="UTF-8" standalone="no"?><svg xmlns="http://www.w3.org/2000/svg" xmlns:xlink="http://www.w3.org/1999/xlink" clip-rule="evenodd" stroke-miterlimit="10" viewBox="0 0 1024 768"><desc>SVG generated by Keynote</desc><defs><linearGradient id="gradSh1.0" x1="512.0" y1="0.0" x2="512.0" y2="1024.0" gradientUnits="userSpaceOnUse" gradientTransform="matrix(2.21, 0.00, 0.00, -2.20, 648.8, 233.7)"><stop offset="0.00000" stop-color="#D7D9D9"></stop><stop offset="0.02786" stop-color="#D8DADA"></stop><stop offset="1.00000" stop-color="#E9EBEB"></stop></linearGradient><linearGradient id="gradSh2.1" x1="5.0" y1="0.0" x2="5.0" y2="4.0" gradientUnits="userSpaceOnUse" gradientTransform="matrix(2.21, 0.00, 0.00, -2.20, 648.8, 233.7)"><stop offset="0.00000" stop-color="#D7D9D9"></stop><stop offset="0.02786" stop-color="#D8DADA"></stop><stop offset="1.00000" stop-color="#E9EBEB"></stop></linearGradient></defs><g transform="matrix(1.00, 0.00, -0.00, -1.00, 0.0, 768.0)"><g><clipPath id="clip0x7fde5a081c40"><path d="M 0.0 768.0 L 1024.0 768.0 L 1024.0 0.0 L 0.0 0.0 Z M 0.0 768.0 "></path></clipPath><g clip-path="url(#clip0x7fde5a081c40)"><image xlink:href="../../9A547B16-7CB2-4235-A9D6-7078228DA1F4/assets/574DCE55A4CF432400CBDDDE1DFDFC9B.jpeg" width="2048.00" height="1536.00" transform="matrix(0.50, 0.00, -0.00, -0.50, 0.0, 768.0)"></image></g></g><text xml:space="preserve" font-family="GillSans-Light,Gill Sans" font-size="72.0" fill="#525252" transform="matrix(1.00, 0.00, -0.00, -1.00, 157.5, 628.2)">S</text><text xml:space="preserve" font-family="GillSans-Light,Gill Sans" font-size="72.0" fill="#525252" transform="matrix(1.00, 0.00, -0.00, -1.00, 191.3, 628.2)">O</text><text xml:space="preserve" font-family="GillSans-Light,Gill Sans" font-size="72.0" fill="#525252" transform="matrix(1.00, 0.00, -0.00, -1.00, 250.6, 628.2)">L</text><text xml:space="preserve" font-family="GillSans-Light,Gill Sans" font-size="72.0" fill="#525252" transform="matrix(1.00, 0.00, -0.00, -1.00, 284.4, 628.2)">U</text><text xml:space="preserve" font-family="GillSans-Light,Gill Sans" font-size="72.0" fill="#525252" transform="matrix(1.00, 0.00, -0.00, -1.00, 334.7, 628.2)">T</text><text xml:space="preserve" font-family="GillSans-Light,Gill Sans" font-size="72.0" fill="#525252" transform="matrix(1.00, 0.00, -0.00, -1.00, 375.9, 628.2)">I</text><text xml:space="preserve" font-family="GillSans-Light,Gill Sans" font-size="72.0" fill="#525252" transform="matrix(1.00, 0.00, -0.00, -1.00, 390.9, 628.2)">O</text><text xml:space="preserve" font-family="GillSans-Light,Gill Sans" font-size="72.0" fill="#525252" transform="matrix(1.00, 0.00, -0.00, -1.00, 450.2, 628.2)">N</text><text xml:space="preserve" font-family="GillSans-Light,Gill Sans" font-size="72.0" fill="#525252" transform="matrix(1.00, 0.00, -0.00, -1.00, 505.7, 628.2)"> </text><text xml:space="preserve" font-family="GillSans-Light,Gill Sans" font-size="72.0" fill="#525252" transform="matrix(1.00, 0.00, -0.00, -1.00, 525.7, 628.2)">O</text><text xml:space="preserve" font-family="GillSans-Light,Gill Sans" font-size="72.0" fill="#525252" transform="matrix(1.00, 0.00, -0.00, -1.00, 582.1, 628.2)">V</text><text xml:space="preserve" font-family="GillSans-Light,Gill Sans" font-size="72.0" fill="#525252" transform="matrix(1.00, 0.00, -0.00, -1.00, 624.9, 628.2)">E</text><text xml:space="preserve" font-family="GillSans-Light,Gill Sans" font-size="72.0" fill="#525252" transform="matrix(1.00, 0.00, -0.00, -1.00, 660.2, 628.2)">R</text><text xml:space="preserve" font-family="GillSans-Light,Gill Sans" font-size="72.0" fill="#525252" transform="matrix(1.00, 0.00, -0.00, -1.00, 699.4, 628.2)">V</text><text xml:space="preserve" font-family="GillSans-Light,Gill Sans" font-size="72.0" fill="#525252" transform="matrix(1.00, 0.00, -0.00, -1.00, 742.2, 628.2)">I</text><text xml:space="preserve" font-family="GillSans-Light,Gill Sans" font-size="72.0" fill="#525252" transform="matrix(1.00, 0.00, -0.00, -1.00, 757.2, 628.2)">E</text><text xml:space="preserve" font-family="GillSans-Light,Gill Sans" font-size="72.0" fill="#525252" transform="matrix(1.00, 0.00, -0.00, -1.00, 792.5, 628.2)">W</text><g><clipPath id="clip0x7fde583d0880"><path d="M 298.0 562.0 L 726.0 562.0 L 726.0 75.0 L 298.0 75.0 Z M 298.2 562.3 "></path></clipPath><g clip-path="url(#clip0x7fde583d0880)"><g><clipPath id="clip0x7fde587fbb40"><path d="M 313.4 95.9 C 313.4 119.1 331.2 141.7 353.2 141.7 C 375.1 141.7 392.9 119.1 392.9 95.9 L 392.9 89.0 C 392.9 81.3 386.4 75.0 378.4 75.0 L 327.9 75.0 C 319.9 75.0 313.4 81.3 313.4 89.0 L 313.4 95.9 "></path></clipPath><g clip-path="url(#clip0x7fde587fbb40)"><g><clipPath id="clip0x7fde5a0f61e0"><path d="M 298.0 75.0 L 726.0 75.0 L 726.0 562.0 L 298.0 562.0 Z M 298.0 75.0 "></path></clipPath><g clip-path="url(#clip0x7fde5a0f61e0)"><g><g><clipPath id="clip0x7fde5a0ddb00"><path d="M 313.4 75.0 L 392.9 75.0 L 392.9 142.0 L 313.4 142.0 Z M 313.4 75.0 "></path></clipPath><g clip-path="url(#clip0x7fde5a0ddb00)"><path d="M 302.4 152.7 L 403.9 152.7 L 403.9 64.0 L 302.4 64.0 Z M 302.4 152.7 " fill="#FF8B00"></path></g></g><g><clipPath id="clip0x7fde5b016c90"><path d="M 384.9 122.1 L 392.9 122.1 L 392.9 75.0 L 384.9 75.0 L 384.9 122.1 Z M 384.9 122.1 "></path></clipPath><g clip-path="url(#clip0x7fde5b016c90)"><g><clipPath id="clip0x7fde5b0ac3d0"><path d="M 313.4 75.0 L 392.9 75.0 L 392.9 142.0 L 313.4 142.0 Z M 313.4 75.0 "></path></clipPath><g clip-path="url(#clip0x7fde5b0ac3d0)"><path d="M 373.9 133.1 L 403.9 133.1 L 403.9 64.0 L 373.9 64.0 Z M 373.9 133.1 " fill="#314D5A"></path></g></g></g></g><g><clipPath id="clip0x7fde5b0abc70"><path d="M 369.0 137.8 L 377.0 137.8 L 377.0 75.0 L 369.0 75.0 L 369.0 137.8 Z M 369.0 137.8 "></path></clipPath><g clip-path="url(#clip0x7fde5b0abc70)"><g><clipPath id="clip0x7fde5b0aca50"><path d="M 313.4 75.0 L 392.9 75.0 L 392.9 142.0 L 313.4 142.0 Z M 313.4 75.0 "></path></clipPath><g clip-path="url(#clip0x7fde5b0aca50)"><path d="M 358.0 148.8 L 388.0 148.8 L 388.0 64.0 L 358.0 64.0 Z M 358.0 148.8 " fill="#314D5A"></path></g></g></g></g><g><clipPath id="clip0x7fde5b0ad7f0"><path d="M 353.2 137.8 L 361.1 137.8 L 361.1 75.0 L 353.2 75.0 L 353.2 137.8 Z M 353.2 137.8 "></path></clipPath><g clip-path="url(#clip0x7fde5b0ad7f0)"><g><clipPath id="clip0x7fde5b0adf40"><path d="M 313.4 75.0 L 392.9 75.0 L 392.9 142.0 L 313.4 142.0 Z M 313.4 75.0 "></path></clipPath><g clip-path="url(#clip0x7fde5b0adf40)"><path d="M 342.1 148.8 L 372.1 148.8 L 372.1 64.0 L 342.1 64.0 Z M 342.1 148.8 " fill="#314D5A"></path></g></g></g></g><g><clipPath id="clip0x7fde5b0aecc0"><path d="M 337.3 137.8 L 345.2 137.8 L 345.2 75.0 L 337.3 75.0 L 337.3 137.8 Z M 337.3 137.8 "></path></clipPath><g clip-path="url(#clip0x7fde5b0aecc0)"><g><clipPath id="clip0x7fde5b0af410"><path d="M 313.4 75.0 L 392.9 75.0 L 392.9 142.0 L 313.4 142.0 Z M 313.4 75.0 "></path></clipPath><g clip-path="url(#clip0x7fde5b0af410)"><path d="M 326.2 148.8 L 356.2 148.8 L 356.2 64.0 L 326.2 64.0 Z M 326.2 148.8 " fill="#314D5A"></path></g></g></g></g><g><clipPath id="clip0x7fde5b0b01b0"><path d="M 321.4 133.9 L 329.3 133.9 L 329.3 75.0 L 321.4 75.0 L 321.4 133.9 Z M 321.4 133.9 "></path></clipPath><g clip-path="url(#clip0x7fde5b0b01b0)"><g><clipPath id="clip0x7fde5b0b0900"><path d="M 313.4 75.0 L 392.9 75.0 L 392.9 142.0 L 313.4 142.0 Z M 313.4 75.0 "></path></clipPath><g clip-path="url(#clip0x7fde5b0b0900)"><path d="M 310.4 144.9 L 340.4 144.9 L 340.4 64.0 L 310.4 64.0 Z M 310.4 144.9 " fill="#314D5A"></path></g></g></g></g></g></g></g></g></g></g></g><g><clipPath id="clip0x7fde5a048280"><path d="M 298.0 562.0 L 726.0 562.0 L 726.0 75.0 L 298.0 75.0 Z M 298.2 562.3 "></path></clipPath><g clip-path="url(#clip0x7fde5a048280)"><g><clipPath id="clip0x7fde5b0b1500"><path d="M 353.2 196.7 C 370.7 196.7 384.9 182.6 384.9 165.3 C 384.9 147.9 370.7 133.9 353.2 133.9 C 335.6 133.9 321.4 147.9 321.4 165.3 C 321.4 182.6 335.6 196.7 353.2 196.7 "></path></clipPath><g clip-path="url(#clip0x7fde5b0b1500)"><g><clipPath id="clip0x7fde5b0b1d20"><path d="M 298.0 75.0 L 726.0 75.0 L 726.0 562.0 L 298.0 562.0 Z M 298.0 75.0 "></path></clipPath><g clip-path="url(#clip0x7fde5b0b1d20)"><path d="M 310.4 207.7 L 396.0 207.7 L 396.0 122.9 L 310.4 122.9 Z M 310.4 207.7 " fill="#E09177"></path></g></g></g></g></g></g><g><clipPath id="clip0x7fde5b0b2aa0"><path d="M 298.0 562.0 L 726.0 562.0 L 726.0 75.0 L 298.0 75.0 Z M 298.2 562.3 "></path></clipPath><g clip-path="url(#clip0x7fde5b0b2aa0)"><g><clipPath id="clip0x7fde5b0b3220"><path d="M 353.2 200.6 C 368.5 200.6 384.9 192.6 384.9 166.6 C 384.9 166.5 379.2 171.2 373.1 177.1 C 364.1 186.1 360.9 177.0 353.2 177.0 C 345.4 177.0 343.5 185.7 333.1 177.2 C 326.5 171.7 321.3 166.6 321.4 166.6 C 321.4 192.3 337.5 200.6 353.2 200.6 "></path></clipPath><g clip-path="url(#clip0x7fde5b0b3220)"><g><clipPath id="clip0x7fde5b0b3b70"><path d="M 298.0 75.0 L 726.0 75.0 L 726.0 562.0 L 298.0 562.0 Z M 298.0 75.0 "></path></clipPath><g clip-path="url(#clip0x7fde5b0b3b70)"><path d="M 310.4 211.6 L 396.0 211.6 L 396.0 155.6 L 310.4 155.6 Z M 310.4 211.6 " fill="#533016"></path></g></g></g></g></g></g><g><clipPath id="clip0x7fde5b0b48f0"><path d="M 298.0 562.0 L 726.0 562.0 L 726.0 75.0 L 298.0 75.0 Z M 298.2 562.3 "></path></clipPath><g clip-path="url(#clip0x7fde5b0b48f0)"><g><clipPath id="clip0x7fde5b0b5300"><path d="M 353.2 145.6 C 345.2 145.6 341.0 148.2 341.0 151.5 C 341.0 152.6 341.7 153.5 342.7 153.5 C 343.5 153.5 344.2 152.7 344.3 151.7 C 344.5 151.5 344.9 150.9 345.7 150.4 C 346.7 149.9 352.2 149.7 353.2 149.7 C 354.1 149.7 359.4 149.9 360.4 150.4 C 361.2 150.9 361.7 151.4 361.8 151.6 C 361.9 152.6 362.7 153.4 363.5 153.4 C 364.4 153.4 365.2 152.5 365.2 151.4 C 365.2 148.1 361.1 145.9 353.2 145.6 "></path></clipPath><g clip-path="url(#clip0x7fde5b0b5300)"><g><clipPath id="clip0x7fde5b0b5bd0"><path d="M 298.0 75.0 L 726.0 75.0 L 726.0 562.0 L 298.0 562.0 Z M 298.0 75.0 "></path></clipPath><g clip-path="url(#clip0x7fde5b0b5bd0)"><path d="M 330.0 164.5 L 376.2 164.5 L 376.2 134.6 L 330.0 134.6 Z M 330.0 164.5 " fill="#9A613D"></path></g></g></g></g></g></g><g><clipPath id="clip0x7fde5b0b6940"><path d="M 298.0 562.0 L 726.0 562.0 L 726.0 75.0 L 298.0 75.0 Z M 298.2 562.3 "></path></clipPath><g clip-path="url(#clip0x7fde5b0b6940)"><g><clipPath id="clip0x7fde5b0b7080"><path d="M 341.2 169.2 C 343.4 169.2 345.2 167.4 345.2 165.3 C 345.2 163.1 343.4 161.4 341.2 161.4 C 339.0 161.4 337.3 163.1 337.3 165.3 C 337.3 167.4 339.0 169.2 341.2 169.2 "></path></clipPath><g clip-path="url(#clip0x7fde5b0b7080)"><g><clipPath id="clip0x7fde5b0b7950"><path d="M 298.0 75.0 L 726.0 75.0 L 726.0 562.0 L 298.0 562.0 Z M 298.0 75.0 "></path></clipPath><g clip-path="url(#clip0x7fde5b0b7950)"><path d="M 326.2 180.2 L 356.2 180.2 L 356.2 150.3 L 326.2 150.3 Z M 326.2 180.2 " fill="#9A613D"></path></g></g></g></g></g></g><g><clipPath id="clip0x7fde5b0b86b0"><path d="M 298.0 562.0 L 726.0 562.0 L 726.0 75.0 L 298.0 75.0 Z M 298.2 562.3 "></path></clipPath><g clip-path="url(#clip0x7fde5b0b86b0)"><g><clipPath id="clip0x7fde5b0b8df0"><path d="M 365.1 169.2 C 367.3 169.2 369.0 167.4 369.0 165.3 C 369.0 163.1 367.3 161.4 365.1 161.4 C 362.9 161.4 361.1 163.1 361.1 165.3 C 361.1 167.4 362.9 169.2 365.1 169.2 "></path></clipPath><g clip-path="url(#clip0x7fde5b0b8df0)"><g><clipPath id="clip0x7fde5b0b96c0"><path d="M 298.0 75.0 L 726.0 75.0 L 726.0 562.0 L 298.0 562.0 Z M 298.0 75.0 "></path></clipPath><g clip-path="url(#clip0x7fde5b0b96c0)"><path d="M 350.1 180.2 L 380.1 180.2 L 380.1 150.3 L 350.1 150.3 Z M 350.1 180.2 " fill="#9A613D"></path></g></g></g></g></g></g><g><clipPath id="clip0x7fde5b0ba420"><path d="M 298.0 562.0 L 726.0 562.0 L 726.0 75.0 L 298.0 75.0 Z M 298.2 562.3 "></path></clipPath><g clip-path="url(#clip0x7fde5b0ba420)"><g><clipPath id="clip0x7fde5b0bac70"><path d="M 302.4 299.8 L 335.5 299.8 C 337.9 299.8 339.9 297.8 339.9 295.4 L 339.9 233.7 C 339.9 231.2 337.9 229.3 335.5 229.3 L 302.4 229.3 C 300.0 229.3 298.0 231.2 298.0 233.7 L 298.0 295.4 C 298.0 297.8 300.0 299.8 302.4 299.8 "></path></clipPath><g clip-path="url(#clip0x7fde5b0bac70)"><g><clipPath id="clip0x7fde5b0bb550"><path d="M 298.0 75.0 L 726.0 75.0 L 726.0 562.0 L 298.0 562.0 Z M 298.0 75.0 "></path></clipPath><g clip-path="url(#clip0x7fde5b0bb550)"><path d="M 287.0 310.8 L 350.9 310.8 L 350.9 218.2 L 287.0 218.2 Z M 287.0 310.8 " fill="#314D5A"></path></g></g></g></g></g></g><g><clipPath id="clip0x7fde5b0bc2d0"><path d="M 298.0 562.0 L 726.0 562.0 L 726.0 75.0 L 298.0 75.0 Z M 298.2 562.3 "></path></clipPath><g clip-path="url(#clip0x7fde5b0bc2d0)"><g><clipPath id="clip0x7fde5b0bca10"><path d="M 319.0 238.1 C 320.8 238.1 322.3 236.6 322.3 234.8 C 322.3 232.9 320.8 231.5 319.0 231.5 C 317.1 231.5 315.6 232.9 315.6 234.8 C 315.6 236.6 317.1 238.1 319.0 238.1 "></path></clipPath><g clip-path="url(#clip0x7fde5b0bca10)"><g><clipPath id="clip0x7fde5b0bd2e0"><path d="M 298.0 75.0 L 726.0 75.0 L 726.0 562.0 L 298.0 562.0 Z M 298.0 75.0 "></path></clipPath><g clip-path="url(#clip0x7fde5b0bd2e0)"><path d="M 304.6 249.1 L 333.3 249.1 L 333.3 220.4 L 304.6 220.4 Z M 304.6 249.1 " fill="#576E77"></path></g></g></g></g></g></g><g><clipPath id="clip0x7fde5b0be040"><path d="M 298.0 562.0 L 726.0 562.0 L 726.0 75.0 L 298.0 75.0 Z M 298.2 562.3 "></path></clipPath><g clip-path="url(#clip0x7fde5b0be040)"><g><clipPath id="clip0x7fde5b0be830"><path d="M 302.4 291.0 L 335.5 291.0 L 335.5 240.3 L 302.4 240.3 L 302.4 291.0 Z M 302.4 291.0 "></path></clipPath><g clip-path="url(#clip0x7fde5b0be830)"><g><clipPath id="clip0x7fde5b0bef30"><path d="M 298.0 75.0 L 726.0 75.0 L 726.0 562.0 L 298.0 562.0 Z M 298.0 75.0 "></path></clipPath><g clip-path="url(#clip0x7fde5b0bef30)"><path d="M 291.4 302.0 L 346.5 302.0 L 346.5 229.3 L 291.4 229.3 Z M 291.4 302.0 " fill="#576E77"></path></g></g></g></g></g></g><g><clipPath id="clip0x7fde5b0bfcb0"><path d="M 298.0 562.0 L 726.0 562.0 L 726.0 75.0 L 298.0 75.0 Z M 298.2 562.3 "></path></clipPath><g clip-path="url(#clip0x7fde5b0bfcb0)"><g><clipPath id="clip0x7fde5b0c0500"><path d="M 350.9 299.8 L 397.3 299.8 C 399.7 299.8 401.7 297.8 401.7 295.4 L 401.7 233.7 C 401.7 231.2 399.7 229.3 397.3 229.3 L 350.9 229.3 C 348.5 229.3 346.5 231.2 346.5 233.7 L 346.5 295.4 C 346.5 297.8 348.5 299.8 350.9 299.8 "></path></clipPath><g clip-path="url(#clip0x7fde5b0c0500)"><g><clipPath id="clip0x7fde5b0c0d10"><path d="M 298.0 75.0 L 726.0 75.0 L 726.0 562.0 L 298.0 562.0 Z M 298.0 75.0 "></path></clipPath><g clip-path="url(#clip0x7fde5b0c0d10)"><path d="M 335.5 310.8 L 412.7 310.8 L 412.7 218.2 L 335.5 218.2 Z M 335.5 310.8 " fill="#314D5A"></path></g></g></g></g></g></g><g><clipPath id="clip0x7fde5b0c1a90"><path d="M 298.0 562.0 L 726.0 562.0 L 726.0 75.0 L 298.0 75.0 Z M 298.2 562.3 "></path></clipPath><g clip-path="url(#clip0x7fde5b0c1a90)"><g><clipPath id="clip0x7fde5b0c21d0"><path d="M 374.1 238.1 C 375.9 238.1 377.4 236.6 377.4 234.8 C 377.4 232.9 375.9 231.5 374.1 231.5 C 372.3 231.5 370.8 232.9 370.8 234.8 C 370.8 236.6 372.3 238.1 374.1 238.1 "></path></clipPath><g clip-path="url(#clip0x7fde5b0c21d0)"><g><clipPath id="clip0x7fde5b0c2aa0"><path d="M 298.0 75.0 L 726.0 75.0 L 726.0 562.0 L 298.0 562.0 Z M 298.0 75.0 "></path></clipPath><g clip-path="url(#clip0x7fde5b0c2aa0)"><path d="M 359.8 249.1 L 388.5 249.1 L 388.5 220.4 L 359.8 220.4 Z M 359.8 249.1 " fill="#576D77"></path></g></g></g></g></g></g><g><clipPath id="clip0x7fde5b0c3800"><path d="M 298.0 562.0 L 726.0 562.0 L 726.0 75.0 L 298.0 75.0 Z M 298.2 562.3 "></path></clipPath><g clip-path="url(#clip0x7fde5b0c3800)"><g><clipPath id="clip0x7fde5b0c3f50"><path d="M 350.9 291.0 L 397.3 291.0 L 397.3 240.3 L 350.9 240.3 L 350.9 291.0 Z M 350.9 291.0 "></path></clipPath><g clip-path="url(#clip0x7fde5b0c3f50)"><g><clipPath id="clip0x7fde5b0c4670"><path d="M 298.0 75.0 L 726.0 75.0 L 726.0 562.0 L 298.0 562.0 Z M 298.0 75.0 "></path></clipPath><g clip-path="url(#clip0x7fde5b0c4670)"><path d="M 339.9 302.0 L 408.3 302.0 L 408.3 229.3 L 339.9 229.3 Z M 339.9 302.0 " fill="#576D77"></path></g></g></g></g></g></g><g><clipPath id="clip0x7fde5b0c53f0"><path d="M 298.0 562.0 L 726.0 562.0 L 726.0 75.0 L 298.0 75.0 Z M 298.2 562.3 "></path></clipPath><g clip-path="url(#clip0x7fde5b0c53f0)"><g><clipPath id="clip0x7fde5b0c57e0"><path d="M 530.1 542.8 C 529.0 544.9 527.4 546.6 525.3 547.8 C 525.1 548.0 524.8 548.1 524.6 548.2 C 525.7 546.2 526.2 543.6 526.2 540.6 C 526.2 533.5 523.2 527.8 517.3 523.5 C 511.3 519.2 503.0 517.0 492.2 517.0 L 489.7 517.0 C 487.8 517.0 485.9 515.5 485.5 513.7 L 482.5 501.9 C 482.1 500.0 480.2 498.6 478.3 498.6 L 473.2 498.6 L 472.4 495.3 C 472.0 493.5 473.2 492.0 475.1 492.0 L 483.9 492.0 C 485.8 492.0 487.7 493.5 488.1 495.3 L 491.1 508.1 C 491.5 509.9 493.4 511.4 495.3 511.4 L 497.8 511.4 C 508.5 511.4 516.9 513.6 522.8 517.9 C 528.8 522.2 531.8 527.9 531.8 535.0 C 531.8 538.1 531.3 540.7 530.1 542.8 "></path></clipPath><g clip-path="url(#clip0x7fde5b0c57e0)"><g><clipPath id="clip0x7fde5b0c6a20"><path d="M 298.0 75.0 L 726.0 75.0 L 726.0 562.0 L 298.0 562.0 Z M 298.0 75.0 "></path></clipPath><g clip-path="url(#clip0x7fde5b0c6a20)"><path d="M 461.3 559.2 L 542.8 559.2 L 542.8 481.0 L 461.3 481.0 Z M 461.3 559.2 " fill="#25A6D1"></path></g></g></g></g></g></g><g><clipPath id="clip0x7fde5b0c78f0"><path d="M 298.0 562.0 L 726.0 562.0 L 726.0 75.0 L 298.0 75.0 Z M 298.2 562.3 "></path></clipPath><g clip-path="url(#clip0x7fde5b0c78f0)"><g><clipPath id="clip0x7fde5b0c7ce0"><path d="M 519.0 553.4 C 518.0 555.4 516.3 557.1 514.2 558.4 C 512.1 559.7 509.5 560.6 506.6 561.2 C 503.7 561.7 500.2 562.0 496.2 562.0 L 477.9 562.0 C 476.0 562.0 474.2 560.5 473.7 558.7 L 461.4 505.9 C 460.9 504.1 462.1 502.6 464.0 502.6 L 472.8 502.6 C 474.7 502.6 476.6 504.1 477.0 505.9 L 480.0 518.7 C 480.4 520.5 482.3 522.0 484.2 522.0 L 486.7 522.0 C 497.5 522.0 505.8 524.2 511.8 528.5 C 517.7 532.8 520.7 538.5 520.7 545.6 C 520.7 548.7 520.2 551.3 519.0 553.4 M 500.1 536.1 C 497.4 534.2 493.8 533.3 489.0 533.3 L 486.9 533.3 C 485.0 533.3 483.8 534.7 484.2 536.5 L 486.8 547.7 C 487.2 549.5 489.1 551.0 491.0 551.0 L 493.9 551.0 C 497.2 551.0 499.8 550.5 501.5 549.3 C 503.2 548.3 504.1 546.5 504.0 544.2 C 504.1 540.7 502.7 538.0 500.1 536.1 "></path></clipPath><g clip-path="url(#clip0x7fde5b0c7ce0)"><g><clipPath id="clip0x7fde5b0c8ca0"><path d="M 298.0 75.0 L 726.0 75.0 L 726.0 562.0 L 298.0 562.0 Z M 298.0 75.0 "></path></clipPath><g clip-path="url(#clip0x7fde5b0c8ca0)"><path d="M 450.2 573.0 L 531.8 573.0 L 531.8 491.6 L 450.2 491.6 Z M 450.2 573.0 " fill="#314D5A"></path></g></g></g></g></g></g><g><clipPath id="clip0x7fde5b0c9e00"><path d="M 298.0 562.0 L 726.0 562.0 L 726.0 75.0 L 298.0 75.0 Z M 298.2 562.3 "></path></clipPath><g clip-path="url(#clip0x7fde5b0c9e00)"><g><clipPath id="clip0x7fde5b0ca550"><path d="M 648.8 224.8 L 670.8 224.8 L 670.8 222.7 L 648.8 222.7 L 648.8 224.8 Z M 648.8 224.8 "></path></clipPath><g clip-path="url(#clip0x7fde5b0ca550)"><g><clipPath id="clip0x7fde5b0cac70"><path d="M 298.0 75.0 L 726.0 75.0 L 726.0 562.0 L 298.0 562.0 Z M 298.0 75.0 "></path></clipPath><g clip-path="url(#clip0x7fde5b0cac70)"><path d="M 637.8 235.8 L 681.9 235.8 L 681.9 211.6 L 637.8 211.6 Z M 637.8 235.8 " fill="#CED3D4"></path></g></g></g></g></g></g><g><clipPath id="clip0x7fde5b0cb9f0"><path d="M 298.0 562.0 L 726.0 562.0 L 726.0 75.0 L 298.0 75.0 Z M 298.2 562.3 "></path></clipPath><g clip-path="url(#clip0x7fde5b0cb9f0)"><g><clipPath id="clip0x7fde5b0cc680"><path d="M 666.4 233.7 C 666.3 229.2 668.3 227.4 668.3 227.4 C 668.3 227.4 668.8 226.6 669.0 226.4 C 669.3 226.2 670.2 225.1 670.8 225.1 C 670.8 225.1 670.8 224.8 670.8 224.8 L 659.8 224.8 L 659.8 233.7 L 666.4 233.7 Z M 653.4 233.7 C 653.3 229.2 651.5 227.4 651.5 227.4 C 651.5 227.4 651.0 226.6 650.7 226.4 C 650.4 226.2 649.4 225.1 648.8 225.1 C 648.8 225.1 648.8 224.8 648.8 224.8 L 659.8 224.8 L 659.8 233.7 L 653.4 233.7 Z M 653.4 233.7 "></path></clipPath><g clip-path="url(#clip0x7fde5b0cc680)"><g><clipPath id="clip0x7fde5b0ccda0"><path d="M 648.8 224.8 L 670.8 224.8 L 670.8 233.7 L 648.8 233.7 Z M 648.8 224.8 "></path></clipPath><g clip-path="url(#clip0x7fde5b0ccda0)"><path d="M 648.8 224.8 L 670.8 224.8 L 670.8 233.7 L 648.8 233.7 Z M 648.8 224.8 " fill="url(#gradSh1.0)"></path></g></g></g></g></g></g><g><clipPath id="clip0x7fde3bc1d980"><path d="M 298.0 562.0 L 726.0 562.0 L 726.0 75.0 L 298.0 75.0 Z M 298.2 562.3 "></path></clipPath><g clip-path="url(#clip0x7fde3bc1d980)"><g><clipPath id="clip0x7fde3bc1e610"><path d="M 666.4 233.7 C 666.3 229.2 668.3 227.4 668.3 227.4 C 668.3 227.4 668.8 226.6 669.0 226.4 C 669.3 226.2 670.2 225.1 670.8 225.1 C 670.8 225.1 670.8 224.8 670.8 224.8 L 659.8 224.8 L 659.8 233.7 L 666.4 233.7 Z M 653.4 233.7 C 653.3 229.2 651.5 227.4 651.5 227.4 C 651.5 227.4 651.0 226.6 650.7 226.4 C 650.4 226.2 649.4 225.1 648.8 225.1 C 648.8 225.1 648.8 224.8 648.8 224.8 L 659.8 224.8 L 659.8 233.7 L 653.4 233.7 Z M 653.4 233.7 "></path></clipPath><g clip-path="url(#clip0x7fde3bc1e610)"><g><clipPath id="clip0x7fde3bc1ed30"><path d="M 298.0 75.0 L 726.0 75.0 L 726.0 562.0 L 298.0 562.0 Z M 298.0 75.0 "></path></clipPath><g clip-path="url(#clip0x7fde3bc1ed30)"><path d="M 298.0 75.0 L 726.0 75.0 L 726.0 562.0 L 298.0 562.0 Z M 298.0 75.0 " fill="url(#gradSh2.1)"></path></g></g></g></g></g></g><g><clipPath id="clip0x7fde3bc6b620"><path d="M 298.0 562.0 L 726.0 562.0 L 726.0 75.0 L 298.0 75.0 Z M 298.2 562.3 "></path></clipPath><g clip-path="url(#clip0x7fde3bc6b620)"><g><clipPath id="clip0x7fde3bc6bf20"><path d="M 695.1 242.5 L 695.1 237.0 C 695.1 235.2 693.1 233.7 691.1 233.7 L 628.0 233.7 C 626.1 233.7 624.5 235.2 624.5 237.0 L 624.5 242.5 L 695.1 242.5 "></path></clipPath><g clip-path="url(#clip0x7fde3bc6bf20)"><g><clipPath id="clip0x7fde3bc6c610"><path d="M 298.0 75.0 L 726.0 75.0 L 726.0 562.0 L 298.0 562.0 Z M 298.0 75.0 "></path></clipPath><g clip-path="url(#clip0x7fde3bc6c610)"><path d="M 613.5 253.6 L 706.1 253.6 L 706.1 222.7 L 613.5 222.7 Z M 613.5 253.6 " fill="#E3E7E7"></path></g></g></g></g></g></g><g><clipPath id="clip0x7fde3bc6d390"><path d="M 298.0 562.0 L 726.0 562.0 L 726.0 75.0 L 298.0 75.0 Z M 298.2 562.3 "></path></clipPath><g clip-path="url(#clip0x7fde3bc6d390)"><g><clipPath id="clip0x7fde3bc6db10"><path d="M 628.0 286.5 L 691.6 286.5 C 693.5 286.5 695.1 285.0 695.1 283.2 L 695.1 242.5 C 695.1 242.5 624.5 242.5 624.5 242.5 C 624.5 242.5 624.5 283.2 624.5 283.2 C 624.5 285.0 626.1 286.5 628.0 286.5 "></path></clipPath><g clip-path="url(#clip0x7fde3bc6db10)"><g><clipPath id="clip0x7fde3bc6e3e0"><path d="M 298.0 75.0 L 726.0 75.0 L 726.0 562.0 L 298.0 562.0 Z M 298.0 75.0 "></path></clipPath><g clip-path="url(#clip0x7fde3bc6e3e0)"><path d="M 613.5 297.6 L 706.1 297.6 L 706.1 231.5 L 613.5 231.5 Z M 613.5 297.6 " fill="#314D5A"></path></g></g></g></g></g></g><g><clipPath id="clip0x7fde3bc6f160"><path d="M 298.0 562.0 L 726.0 562.0 L 726.0 75.0 L 298.0 75.0 Z M 298.2 562.3 "></path></clipPath><g clip-path="url(#clip0x7fde3bc6f160)"><g><clipPath id="clip0x7fde3bc6f950"><path d="M 690.7 282.1 L 690.7 246.9 C 690.6 246.9 629.0 246.8 628.9 246.9 L 628.9 282.1 C 628.9 282.1 690.7 282.1 690.7 282.1 "></path></clipPath><g clip-path="url(#clip0x7fde3bc6f950)"><g><clipPath id="clip0x7fde3bc70150"><path d="M 298.0 75.0 L 726.0 75.0 L 726.0 562.0 L 298.0 562.0 Z M 298.0 75.0 "></path></clipPath><g clip-path="url(#clip0x7fde3bc70150)"><path d="M 617.9 293.1 L 701.7 293.1 L 701.7 235.8 L 617.9 235.8 Z M 617.9 293.1 " fill="#576D77"></path></g></g></g></g></g></g><g><clipPath id="clip0x7fde3bc70ed0"><path d="M 298.0 562.0 L 726.0 562.0 L 726.0 75.0 L 298.0 75.0 Z M 298.2 562.3 "></path></clipPath><g clip-path="url(#clip0x7fde3bc70ed0)"><g><clipPath id="clip0x7fde3bc71620"><path d="M 608.0 192.6 L 713.8 192.6 L 713.8 88.2 L 608.0 88.2 L 608.0 192.6 Z M 608.0 192.6 "></path></clipPath><g clip-path="url(#clip0x7fde3bc71620)"><g><clipPath id="clip0x7fde3bc71d40"><path d="M 298.0 75.0 L 726.0 75.0 L 726.0 562.0 L 298.0 562.0 Z M 298.0 75.0 "></path></clipPath><g clip-path="url(#clip0x7fde3bc71d40)"><path d="M 597.0 203.6 L 724.8 203.6 L 724.8 77.2 L 597.0 77.2 Z M 597.0 203.6 " fill="#E3E7E7"></path></g></g></g></g></g></g><g><clipPath id="clip0x7fde3bc72ac0"><path d="M 298.0 562.0 L 726.0 562.0 L 726.0 75.0 L 298.0 75.0 Z M 298.2 562.3 "></path></clipPath><g clip-path="url(#clip0x7fde3bc72ac0)"><g><clipPath id="clip0x7fde3bc73210"><path d="M 616.3 200.6 L 705.5 200.6 L 713.8 192.6 L 608.0 192.6 L 616.3 200.6 "></path></clipPath><g clip-path="url(#clip0x7fde3bc73210)"><g><clipPath id="clip0x7fde3bc73930"><path d="M 298.0 75.0 L 726.0 75.0 L 726.0 562.0 L 298.0 562.0 Z M 298.0 75.0 "></path></clipPath><g clip-path="url(#clip0x7fde3bc73930)"><path d="M 597.0 211.6 L 724.8 211.6 L 724.8 181.6 L 597.0 181.6 Z M 597.0 211.6 " fill="#CCD0D1"></path></g></g></g></g></g></g><g><clipPath id="clip0x7fde3bc746b0"><path d="M 298.0 562.0 L 726.0 562.0 L 726.0 75.0 L 298.0 75.0 Z M 298.2 562.3 "></path></clipPath><g clip-path="url(#clip0x7fde3bc746b0)"><g><clipPath id="clip0x7fde3bc74f80"><path d="M 681.3 156.5 L 705.7 156.5 L 705.7 96.2 L 681.3 96.2 L 681.3 156.5 Z M 648.7 156.5 L 673.1 156.5 L 673.1 96.2 L 648.7 96.2 L 648.7 156.5 Z M 616.2 156.5 L 640.6 156.5 L 640.6 96.2 L 616.2 96.2 L 616.2 156.5 Z M 616.2 156.5 "></path></clipPath><g clip-path="url(#clip0x7fde3bc74f80)"><g><clipPath id="clip0x7fde3bc757c0"><path d="M 298.0 75.0 L 726.0 75.0 L 726.0 562.0 L 298.0 562.0 Z M 298.0 75.0 "></path></clipPath><g clip-path="url(#clip0x7fde3bc757c0)"><g><g><clipPath id="clip0x7fde3bc77120"><path d="M 616.0 96.0 L 706.0 96.0 L 706.0 156.5 L 616.0 156.5 Z M 616.0 96.0 "></path></clipPath><g clip-path="url(#clip0x7fde3bc77120)"><path d="M 605.1 167.5 L 716.7 167.5 L 716.7 85.2 L 605.1 85.2 Z M 605.1 167.5 " fill="#25A6D1"></path></g></g><g><clipPath id="clip0x7fde3bc78100"><path d="M 632.4 116.3 L 656.8 116.3 L 656.8 96.2 L 628.4 96.2 L 628.4 96.2 L 612.1 96.2 L 612.1 128.4 L 632.4 128.4 L 632.4 116.3 Z M 685.3 108.3 L 669.1 108.3 L 669.1 96.2 L 693.5 96.2 L 713.8 96.2 L 713.8 128.4 L 685.3 128.4 L 685.3 108.3 Z M 685.3 108.3 "></path></clipPath><g clip-path="url(#clip0x7fde3bc78100)"><g><clipPath id="clip0x7fde3bc788f0"><path d="M 616.0 96.0 L 706.0 96.0 L 706.0 156.5 L 616.0 156.5 Z M 616.0 96.0 "></path></clipPath><g clip-path="url(#clip0x7fde3bc788f0)"><path d="M 601.1 139.4 L 724.8 139.4 L 724.8 85.2 L 601.1 85.2 Z M 601.1 139.4 " fill="#2194BB"></path></g></g></g></g></g></g></g></g></g></g></g><g><clipPath id="clip0x7fde5b0c76c0"><path d="M 298.0 562.0 L 726.0 562.0 L 726.0 75.0 L 298.0 75.0 Z M 298.2 562.3 "></path></clipPath><g clip-path="url(#clip0x7fde5b0c76c0)"><g><clipPath id="clip0x7fde3bc76890"><path d="M 608.0 156.5 L 713.8 156.5 L 713.8 148.4 L 608.0 148.4 L 608.0 156.5 Z M 608.0 156.5 "></path></clipPath><g clip-path="url(#clip0x7fde3bc76890)"><g><clipPath id="clip0x7fde3bc79920"><path d="M 298.0 75.0 L 726.0 75.0 L 726.0 562.0 L 298.0 562.0 Z M 298.0 75.0 "></path></clipPath><g clip-path="url(#clip0x7fde3bc79920)"><path d="M 597.0 167.5 L 724.8 167.5 L 724.8 137.4 L 597.0 137.4 Z M 597.0 167.5 " fill="#000000" fill-opacity="0.08"></path></g></g></g></g></g></g><g><clipPath id="clip0x7fde3bc7a800"><path d="M 298.0 562.0 L 726.0 562.0 L 726.0 75.0 L 298.0 75.0 Z M 298.2 562.3 "></path></clipPath><g clip-path="url(#clip0x7fde3bc7a800)"><g><clipPath id="clip0x7fde3bc7ad70"><path d="M 712.9 180.5 L 608.9 180.5 L 595.9 168.5 L 595.8 160.5 C 595.8 158.3 597.7 156.5 599.9 156.5 L 721.9 156.5 C 724.2 156.5 726.0 158.3 726.0 160.5 L 726.0 168.5 L 712.9 180.5 Z M 712.9 180.5 "></path></clipPath><g clip-path="url(#clip0x7fde3bc7ad70)"><g><clipPath id="clip0x7fde3bc7bb20"><path d="M 298.0 75.0 L 726.0 75.0 L 726.0 562.0 L 298.0 562.0 Z M 298.0 75.0 "></path></clipPath><g clip-path="url(#clip0x7fde3bc7bb20)"><g><g><clipPath id="clip0x7fde3bc7d670"><path d="M 595.8 156.0 L 726.0 156.0 L 726.0 180.8 L 595.8 180.8 Z M 595.8 156.0 "></path></clipPath><g clip-path="url(#clip0x7fde3bc7d670)"><path d="M 584.8 191.6 L 737.0 191.6 L 737.0 145.5 L 584.8 145.5 Z M 584.8 191.6 " fill="#E3E7E7"></path></g></g><g><clipPath id="clip0x7fde3bc7e410"><path d="M 705.7 180.5 L 717.9 168.5 L 717.9 156.5 L 726.0 156.5 L 726.0 168.5 L 717.9 180.5 L 705.7 180.5 "></path></clipPath><g clip-path="url(#clip0x7fde3bc7e410)"><g><clipPath id="clip0x7fde3bc7ebb0"><path d="M 595.8 156.0 L 726.0 156.0 L 726.0 180.8 L 595.8 180.8 Z M 595.8 156.0 "></path></clipPath><g clip-path="url(#clip0x7fde3bc7ebb0)"><path d="M 694.6 191.6 L 737.0 191.6 L 737.0 145.4 L 694.6 145.4 Z M 694.6 191.6 " fill="#E1574B"></path></g></g></g></g><g><clipPath id="clip0x7fde3bc7f950"><path d="M 595.8 168.5 L 595.8 156.5 L 604.0 156.5 L 604.0 168.5 L 616.2 180.5 L 604.0 180.5 L 595.8 168.5 "></path></clipPath><g clip-path="url(#clip0x7fde3bc7f950)"><g><clipPath id="clip0x7fde3bc800a0"><path d="M 595.8 156.0 L 726.0 156.0 L 726.0 180.8 L 595.8 180.8 Z M 595.8 156.0 "></path></clipPath><g clip-path="url(#clip0x7fde3bc800a0)"><path d="M 584.8 191.6 L 627.2 191.6 L 627.2 145.4 L 584.8 145.4 Z M 584.8 191.6 " fill="#E1574B"></path></g></g></g></g><g><clipPath id="clip0x7fde3bc80e20"><path d="M 689.4 180.5 L 697.5 168.5 L 697.5 156.5 L 705.7 156.5 L 705.7 168.5 L 697.5 180.5 L 689.4 180.5 "></path></clipPath><g clip-path="url(#clip0x7fde3bc80e20)"><g><clipPath id="clip0x7fde3bc81570"><path d="M 595.8 156.0 L 726.0 156.0 L 726.0 180.8 L 595.8 180.8 Z M 595.8 156.0 "></path></clipPath><g clip-path="url(#clip0x7fde3bc81570)"><path d="M 678.4 191.6 L 716.7 191.6 L 716.7 145.4 L 678.4 145.4 Z M 678.4 191.6 " fill="#E1574B"></path></g></g></g></g><g><clipPath id="clip0x7fde3bc822f0"><path d="M 616.2 168.5 L 616.2 156.5 L 624.3 156.5 L 624.3 168.5 L 632.4 180.5 L 624.3 180.5 L 616.2 168.5 "></path></clipPath><g clip-path="url(#clip0x7fde3bc822f0)"><g><clipPath id="clip0x7fde3bc82a40"><path d="M 595.8 156.0 L 726.0 156.0 L 726.0 180.8 L 595.8 180.8 Z M 595.8 156.0 "></path></clipPath><g clip-path="url(#clip0x7fde3bc82a40)"><path d="M 605.1 191.6 L 643.5 191.6 L 643.5 145.4 L 605.1 145.4 Z M 605.1 191.6 " fill="#E1574B"></path></g></g></g></g><g><clipPath id="clip0x7fde3bc83960"><path d="M 636.5 168.5 L 636.5 156.5 L 644.6 156.5 L 644.6 168.5 L 648.7 180.5 L 640.6 180.5 L 636.5 168.5 L 636.5 168.5 Z M 656.8 156.5 L 665.0 156.5 L 665.0 180.5 L 656.8 180.5 L 656.8 156.5 Z M 673.1 180.5 L 677.2 168.5 L 677.2 156.5 L 685.3 156.5 L 685.3 168.5 L 681.3 180.5 L 673.1 180.5 L 673.1 180.5 Z M 673.1 180.5 "></path></clipPath><g clip-path="url(#clip0x7fde3bc83960)"><g><clipPath id="clip0x7fde3bc84240"><path d="M 595.8 156.0 L 726.0 156.0 L 726.0 180.8 L 595.8 180.8 Z M 595.8 156.0 "></path></clipPath><g clip-path="url(#clip0x7fde3bc84240)"><path d="M 625.5 191.6 L 696.4 191.6 L 696.4 145.4 L 625.5 145.4 Z M 625.5 191.6 " fill="#E1574B"></path></g></g></g></g><g><clipPath id="clip0x7fde3bc84fc0"><path d="M 595.8 180.5 L 726.0 180.5 L 726.0 168.5 L 595.8 168.5 L 595.8 180.5 Z M 595.8 180.5 "></path></clipPath><g clip-path="url(#clip0x7fde3bc84fc0)"><g><clipPath id="clip0x7fde3bc85760"><path d="M 595.8 156.0 L 726.0 156.0 L 726.0 180.8 L 595.8 180.8 Z M 595.8 156.0 "></path></clipPath><g clip-path="url(#clip0x7fde3bc85760)"><path d="M 584.8 191.6 L 737.0 191.6 L 737.0 157.5 L 584.8 157.5 Z M 584.8 191.6 " fill="#000000" fill-opacity="0.08"></path></g></g></g></g></g></g></g></g></g></g></g><g><clipPath id="clip0x7fde3bc7c970"><path d="M 298.0 562.0 L 726.0 562.0 L 726.0 75.0 L 298.0 75.0 Z M 298.2 562.3 "></path></clipPath><g clip-path="url(#clip0x7fde3bc7c970)"><g><clipPath id="clip0x7fde3bc863e0"><path d="M 697.5 112.3 L 713.8 112.3 C 718.3 112.3 721.9 108.7 721.9 104.3 L 721.9 96.2 C 721.9 91.8 718.3 88.2 713.8 88.2 L 697.5 88.2 C 693.0 88.2 689.4 91.8 689.4 96.2 L 689.4 104.3 C 689.4 108.7 693.0 112.3 697.5 112.3 "></path></clipPath><g clip-path="url(#clip0x7fde3bc863e0)"><g><clipPath id="clip0x7fde3bc86bf0"><path d="M 298.0 75.0 L 726.0 75.0 L 726.0 562.0 L 298.0 562.0 Z M 298.0 75.0 "></path></clipPath><g clip-path="url(#clip0x7fde3bc86bf0)"><path d="M 678.4 123.3 L 733.0 123.3 L 733.0 77.2 L 678.4 77.2 Z M 678.4 123.3 " fill="#51BAA7"></path></g></g></g></g></g></g><image xlink:href="9D60FA59D7BC47DF14754FA57CE8FC93.png" width="33.00" height="25.00" transform="matrix(1.00, 0.00, -0.00, -1.00, 689.0, 113.0)"></image><g><clipPath id="clip0x7fde5a48ee90"><path d="M 298.0 562.0 L 726.0 562.0 L 726.0 75.0 L 298.0 75.0 Z M 298.2 562.3 "></path></clipPath><g clip-path="url(#clip0x7fde5a48ee90)"><g><clipPath id="clip0x7fde5814c5a0"><path d="M 697.5 112.3 L 713.8 112.3 C 718.3 112.3 721.9 108.7 721.9 104.3 L 721.9 96.2 C 721.9 91.8 718.3 88.2 713.8 88.2 L 697.5 88.2 C 693.0 88.2 689.4 91.8 689.4 96.2 L 689.4 104.3 C 689.4 108.7 693.0 112.3 697.5 112.3 "></path></clipPath><g clip-path="url(#clip0x7fde5814c5a0)"><g><clipPath id="clip0x7fde5a41e460"><path d="M 298.0 75.0 L 726.0 75.0 L 726.0 562.0 L 298.0 562.0 Z M 298.0 75.0 "></path></clipPath><g clip-path="url(#clip0x7fde5a41e460)"><path d="M 544.9 129.9 L 608.3 129.9 L 608.3 75.0 L 544.9 75.0 Z M 570.7 112.3 L 586.9 112.3 C 591.4 112.3 595.1 108.7 595.1 104.3 L 595.1 96.2 C 595.1 91.8 591.4 88.2 586.9 88.2 L 570.7 88.2 C 566.2 88.2 562.5 91.8 562.5 96.2 L 562.5 104.3 C 562.5 108.7 566.2 112.3 570.7 112.3 " fill="#FF2600"></path></g></g></g></g></g></g><g><clipPath id="clip0x7fde567aed30"><path d="M 298.0 562.0 L 726.0 562.0 L 726.0 75.0 L 298.0 75.0 Z M 298.2 562.3 "></path></clipPath><g clip-path="url(#clip0x7fde567aed30)"><g><clipPath id="clip0x7fde58006b40"><path d="M 608.0 112.3 L 624.3 112.3 C 628.8 112.3 632.4 108.7 632.4 104.3 L 632.4 96.2 C 632.4 91.8 628.8 88.2 624.3 88.2 L 608.0 88.2 C 603.5 88.2 599.9 91.8 599.9 96.2 L 599.9 104.3 C 599.9 108.7 603.5 112.3 608.0 112.3 "></path></clipPath><g clip-path="url(#clip0x7fde58006b40)"><g><clipPath id="clip0x7fde5a4c8f40"><path d="M 298.0 75.0 L 726.0 75.0 L 726.0 562.0 L 298.0 562.0 Z M 298.0 75.0 "></path></clipPath><g clip-path="url(#clip0x7fde5a4c8f40)"><path d="M 588.9 123.3 L 643.5 123.3 L 643.5 77.2 L 588.9 77.2 Z M 588.9 123.3 " fill="#51BAA7"></path></g></g></g></g></g></g><image xlink:href="3FD1F2EC915FA9FB37FE2796CA5D2CA2.png" width="34.00" height="25.00" transform="matrix(1.00, 0.00, -0.00, -1.00, 599.0, 113.0)"></image><g><clipPath id="clip0x7fde5a4c8b00"><path d="M 298.0 562.0 L 726.0 562.0 L 726.0 75.0 L 298.0 75.0 Z M 298.2 562.3 "></path></clipPath><g clip-path="url(#clip0x7fde5a4c8b00)"><g><clipPath id="clip0x7fde580062e0"><path d="M 608.0 112.3 L 624.3 112.3 C 628.8 112.3 632.4 108.7 632.4 104.3 L 632.4 96.2 C 632.4 91.8 628.8 88.2 624.3 88.2 L 608.0 88.2 C 603.5 88.2 599.9 91.8 599.9 96.2 L 599.9 104.3 C 599.9 108.7 603.5 112.3 608.0 112.3 "></path></clipPath><g clip-path="url(#clip0x7fde580062e0)"><g><clipPath id="clip0x7fde5a4ca2d0"><path d="M 298.0 75.0 L 726.0 75.0 L 726.0 562.0 L 298.0 562.0 Z M 298.0 75.0 "></path></clipPath><g clip-path="url(#clip0x7fde5a4ca2d0)"><path d="M 455.4 129.9 L 518.8 129.9 L 518.8 75.0 L 455.4 75.0 Z M 481.2 112.3 L 497.5 112.3 C 501.9 112.3 505.6 108.7 505.6 104.3 L 505.6 96.2 C 505.6 91.8 501.9 88.2 497.5 88.2 L 481.2 88.2 C 476.7 88.2 473.0 91.8 473.0 96.2 L 473.0 104.3 C 473.0 108.7 476.7 112.3 481.2 112.3 " fill="#FF2600"></path></g></g></g></g></g></g><g><clipPath id="clip0x7fde58122c10"><path d="M 298.0 562.0 L 726.0 562.0 L 726.0 75.0 L 298.0 75.0 Z M 298.2 562.3 "></path></clipPath><g clip-path="url(#clip0x7fde58122c10)"><g><clipPath id="clip0x7fde5a496fd0"><path d="M 298.0 75.0 L 726.0 75.0 L 726.0 562.0 L 298.0 562.0 Z M 298.0 75.0 "></path></clipPath><g clip-path="url(#clip0x7fde5a496fd0)"><image xlink:href="1625B6CBE4A1481085AAAD5AF9535161.png" width="192.00" height="192.00" transform="matrix(0.63, 0.00, -0.00, -0.63, 434.8, 491.5)"></image><path d="M 0.8 83.8 L 0.8 0.7 " fill="none" stroke="#676767" stroke-width="1.00" stroke-linecap="square" transform="matrix(2.21, 0.00, 0.00, -2.20, 353.2, 525.4)"></path><path d="M 0.0 0.0 L 34.6 0.0 " fill="none" stroke="#676767" stroke-width="1.00" stroke-linecap="square" transform="matrix(2.21, 0.00, 0.00, -2.20, 354.9, 441.9)"></path></g></g></g></g><g><clipPath id="clip0x7fde3bc89f70"><path d="M 298.0 562.0 L 726.0 562.0 L 726.0 75.0 L 298.0 75.0 Z M 298.2 562.3 "></path></clipPath><g clip-path="url(#clip0x7fde3bc89f70)"><g><clipPath id="clip0x7fde3bc8a8a0"><path d="M 429.9 441.9 C 421.6 444.3 414.4 446.2 406.1 448.6 C 406.1 443.9 406.1 440.0 406.1 435.3 C 414.4 437.7 421.6 439.6 429.9 441.9 C 429.9 441.9 429.9 441.9 429.9 441.9 Z M 429.9 441.9 "></path></clipPath><g clip-path="url(#clip0x7fde3bc8a8a0)"><g><clipPath id="clip0x7fde3bc8afd0"><path d="M 298.0 75.0 L 726.0 75.0 L 726.0 562.0 L 298.0 562.0 Z M 298.0 75.0 "></path></clipPath><g clip-path="url(#clip0x7fde3bc8afd0)"><path d="M 395.0 459.6 L 440.9 459.6 L 440.9 424.3 L 395.0 424.3 Z M 395.0 459.6 " fill="#676767"></path></g></g></g></g></g></g><g><clipPath id="clip0x7fde3bc8bd50"><path d="M 298.0 562.0 L 726.0 562.0 L 726.0 75.0 L 298.0 75.0 Z M 298.2 562.3 "></path></clipPath><g clip-path="url(#clip0x7fde3bc8bd50)"><g><clipPath id="clip0x7fde3bc8c4a0"><path d="M 298.0 75.0 L 726.0 75.0 L 726.0 562.0 L 298.0 562.0 Z M 298.0 75.0 "></path></clipPath><g clip-path="url(#clip0x7fde3bc8c4a0)"><path d="M 34.0 0.0 C 30.2 -1.1 27.0 -1.9 23.2 -3.0 C 23.2 -0.9 23.2 0.9 23.2 3.0 C 27.0 1.9 30.2 1.1 34.0 0.0 C 34.0 0.0 34.0 0.0 34.0 0.0 Z M 34.0 0.0 " fill="none" stroke="#676767" stroke-width="1.00" transform="matrix(2.21, 0.00, 0.00, -2.20, 354.9, 441.9)"></path><path d="M 0.0 0.0 L 34.6 0.0 " fill="none" stroke="#676767" stroke-width="1.00" stroke-linecap="square" transform="matrix(2.21, 0.00, 0.00, -2.20, 355.6, 524.8)"></path></g></g></g></g><g><clipPath id="clip0x7fde3bc8de10"><path d="M 298.0 562.0 L 726.0 562.0 L 726.0 75.0 L 298.0 75.0 Z M 298.2 562.3 "></path></clipPath><g clip-path="url(#clip0x7fde3bc8de10)"><g><clipPath id="clip0x7fde3bc8e740"><path d="M 430.6 524.8 C 422.3 527.1 415.1 529.1 406.8 531.4 C 406.8 526.7 406.8 522.8 406.8 518.2 C 415.1 520.5 422.3 522.4 430.6 524.8 C 430.6 524.8 430.6 524.8 430.6 524.8 Z M 430.6 524.8 "></path></clipPath><g clip-path="url(#clip0x7fde3bc8e740)"><g><clipPath id="clip0x7fde3bc8ee50"><path d="M 298.0 75.0 L 726.0 75.0 L 726.0 562.0 L 298.0 562.0 Z M 298.0 75.0 "></path></clipPath><g clip-path="url(#clip0x7fde3bc8ee50)"><path d="M 395.7 542.4 L 441.6 542.4 L 441.6 507.1 L 395.7 507.1 Z M 395.7 542.4 " fill="#676767"></path></g></g></g></g></g></g><g><clipPath id="clip0x7fde3bc8fbd0"><path d="M 298.0 562.0 L 726.0 562.0 L 726.0 75.0 L 298.0 75.0 Z M 298.2 562.3 "></path></clipPath><g clip-path="url(#clip0x7fde3bc8fbd0)"><g><clipPath id="clip0x7fde3bc90320"><path d="M 298.0 75.0 L 726.0 75.0 L 726.0 562.0 L 298.0 562.0 Z M 298.0 75.0 "></path></clipPath><g clip-path="url(#clip0x7fde3bc90320)"><path d="M 34.0 0.0 C 30.2 -1.1 27.0 -1.9 23.2 -3.0 C 23.2 -0.9 23.2 0.9 23.2 3.0 C 27.0 1.9 30.2 1.1 34.0 0.0 C 34.0 0.0 34.0 0.0 34.0 0.0 Z M 34.0 0.0 " fill="none" stroke="#676767" stroke-width="1.00" transform="matrix(2.21, 0.00, 0.00, -2.20, 355.6, 524.8)"></path></g></g></g></g><g><clipPath id="clip0x7fde3bc914c0"><path d="M 298.0 562.0 L 726.0 562.0 L 726.0 75.0 L 298.0 75.0 Z M 298.2 562.3 "></path></clipPath><g clip-path="url(#clip0x7fde3bc914c0)"><g><clipPath id="clip0x7fde3bc91df0"><path d="M 355.4 321.8 C 360.2 321.8 364.2 325.8 364.2 330.6 C 364.2 335.5 360.2 339.4 355.4 339.4 C 350.5 339.4 346.5 335.5 346.5 330.6 C 346.5 325.8 350.5 321.8 355.4 321.8 Z M 355.4 321.8 "></path></clipPath><g clip-path="url(#clip0x7fde3bc91df0)"><g><clipPath id="clip0x7fde3bc92500"><path d="M 298.0 75.0 L 726.0 75.0 L 726.0 562.0 L 298.0 562.0 Z M 298.0 75.0 "></path></clipPath><g clip-path="url(#clip0x7fde3bc92500)"><path d="M 335.5 350.5 L 375.2 350.5 L 375.2 310.8 L 335.5 310.8 Z M 335.5 350.5 " fill="#686868"></path></g></g></g></g></g></g><g><clipPath id="clip0x7fde3bc93280"><path d="M 298.0 562.0 L 726.0 562.0 L 726.0 75.0 L 298.0 75.0 Z M 298.2 562.3 "></path></clipPath><g clip-path="url(#clip0x7fde3bc93280)"><g><clipPath id="clip0x7fde3bc939d0"><path d="M 298.0 75.0 L 726.0 75.0 L 726.0 562.0 L 298.0 562.0 Z M 298.0 75.0 "></path></clipPath><g clip-path="url(#clip0x7fde3bc939d0)"><path d="M 1.8 43.7 L 1.8 0.7 " fill="none" stroke="#676767" stroke-width="1.00" stroke-linecap="square" transform="matrix(0.00, -2.20, -2.21, 0.00, 662.4, 446.3)"></path><path d="M 0.0 1.0 L 51.5 1.0 " fill="none" stroke="#676767" stroke-width="1.00" stroke-linecap="square" transform="matrix(0.00, -2.20, -2.21, 0.00, 663.2, 440.8)"></path></g></g></g></g><g><clipPath id="clip0x7fde3bc951b0"><path d="M 298.0 562.0 L 726.0 562.0 L 726.0 75.0 L 298.0 75.0 Z M 298.2 562.3 "></path></clipPath><g clip-path="url(#clip0x7fde3bc951b0)"><g><clipPath id="clip0x7fde3bc95ae0"><path d="M 661.0 328.4 C 663.3 336.7 665.3 343.9 667.6 352.2 C 663.0 352.2 659.0 352.2 654.4 352.2 C 656.7 343.9 658.7 336.7 661.0 328.4 C 661.0 328.4 661.0 328.4 661.0 328.4 Z M 661.0 328.4 "></path></clipPath><g clip-path="url(#clip0x7fde3bc95ae0)"><g><clipPath id="clip0x7fde3bc961f0"><path d="M 298.0 75.0 L 726.0 75.0 L 726.0 562.0 L 298.0 562.0 Z M 298.0 75.0 "></path></clipPath><g clip-path="url(#clip0x7fde3bc961f0)"><path d="M 678.7 363.2 L 678.7 317.4 L 643.4 317.4 L 643.4 363.2 Z M 678.7 363.2 " fill="#676767"></path></g></g></g></g></g></g><g><clipPath id="clip0x7fde3bc96f70"><path d="M 298.0 562.0 L 726.0 562.0 L 726.0 75.0 L 298.0 75.0 Z M 298.2 562.3 "></path></clipPath><g clip-path="url(#clip0x7fde3bc96f70)"><g><clipPath id="clip0x7fde3bc976c0"><path d="M 298.0 75.0 L 726.0 75.0 L 726.0 562.0 L 298.0 562.0 Z M 298.0 75.0 "></path></clipPath><g clip-path="url(#clip0x7fde3bc976c0)"><path d="M 51.0 1.0 C 47.2 -0.1 44.0 -1.0 40.2 -2.0 C 40.2 0.1 40.2 1.9 40.2 4.0 C 44.0 3.0 47.2 2.0 51.0 1.0 C 51.0 1.0 51.0 1.0 51.0 1.0 Z M 51.0 1.0 " fill="none" stroke="#676767" stroke-width="1.00" transform="matrix(0.00, -2.20, -2.21, 0.00, 663.2, 440.8)"></path></g></g></g></g><g><clipPath id="clip0x7fde3bc98860"><path d="M 298.0 562.0 L 726.0 562.0 L 726.0 75.0 L 298.0 75.0 Z M 298.2 562.3 "></path></clipPath><g clip-path="url(#clip0x7fde3bc98860)"><g><clipPath id="clip0x7fde3bc99190"><path d="M 556.1 441.9 C 556.1 437.0 560.1 433.1 564.9 433.1 C 569.8 433.1 573.8 437.0 573.8 441.9 C 573.8 446.8 569.8 450.7 564.9 450.7 C 560.1 450.7 556.1 446.8 556.1 441.9 Z M 556.1 441.9 "></path></clipPath><g clip-path="url(#clip0x7fde3bc99190)"><g><clipPath id="clip0x7fde3bc998a0"><path d="M 298.0 75.0 L 726.0 75.0 L 726.0 562.0 L 298.0 562.0 Z M 298.0 75.0 "></path></clipPath><g clip-path="url(#clip0x7fde3bc998a0)"><path d="M 584.8 461.7 L 584.8 422.1 L 545.1 422.1 L 545.1 461.7 Z M 584.8 461.7 " fill="#686868"></path></g></g></g></g></g></g></g></svg>