<?xml version="1.0" encoding="UTF-8" standalone="no"?><svg xmlns="http://www.w3.org/2000/svg" xmlns:xlink="http://www.w3.org/1999/xlink" clip-rule="evenodd" stroke-miterlimit="10" viewBox="0 0 1024 768"><desc>SVG generated by Keynote</desc><defs></defs><g transform="matrix(1.00, 0.00, -0.00, -1.00, 0.0, 768.0)"><g><clipPath id="clip0x7fde3bf3d720"><path d="M 0.0 768.0 L 1024.0 768.0 L 1024.0 0.0 L 0.0 0.0 Z M 0.0 768.0 "></path></clipPath><g clip-path="url(#clip0x7fde3bf3d720)"><image xlink:href="../../9A547B16-7CB2-4235-A9D6-7078228DA1F4/assets/574DCE55A4CF432400CBDDDE1DFDFC9B.jpeg" width="2048.00" height="1536.00" transform="matrix(0.50, 0.00, -0.00, -0.50, 0.0, 768.0)"></image></g></g><text xml:space="preserve" font-family="GillSans-Light,Gill Sans" font-size="72.0" fill="#525252" transform="matrix(1.00, 0.00, -0.00, -1.00, 255.2, 628.2)">S</text><text xml:space="preserve" font-family="GillSans-Light,Gill Sans" font-size="72.0" fill="#525252" transform="matrix(1.00, 0.00, -0.00, -1.00, 289.0, 628.2)">P</text><text xml:space="preserve" font-family="GillSans-Light,Gill Sans" font-size="72.0" fill="#525252" transform="matrix(1.00, 0.00, -0.00, -1.00, 325.7, 628.2)">E</text><text xml:space="preserve" font-family="GillSans-Light,Gill Sans" font-size="72.0" fill="#525252" transform="matrix(1.00, 0.00, -0.00, -1.00, 361.0, 628.2)">C</text><text xml:space="preserve" font-family="GillSans-Light,Gill Sans" font-size="72.0" fill="#525252" transform="matrix(1.00, 0.00, -0.00, -1.00, 409.7, 628.2)">I</text><text xml:space="preserve" font-family="GillSans-Light,Gill Sans" font-size="72.0" fill="#525252" transform="matrix(1.00, 0.00, -0.00, -1.00, 424.7, 628.2)">F</text><text xml:space="preserve" font-family="GillSans-Light,Gill Sans" font-size="72.0" fill="#525252" transform="matrix(1.00, 0.00, -0.00, -1.00, 456.2, 628.2)">I</text><text xml:space="preserve" font-family="GillSans-Light,Gill Sans" font-size="72.0" fill="#525252" transform="matrix(1.00, 0.00, -0.00, -1.00, 471.2, 628.2)">C</text><text xml:space="preserve" font-family="GillSans-Light,Gill Sans" font-size="72.0" fill="#525252" transform="matrix(1.00, 0.00, -0.00, -1.00, 523.1, 628.2)">A</text><text xml:space="preserve" font-family="GillSans-Light,Gill Sans" font-size="72.0" fill="#525252" transform="matrix(1.00, 0.00, -0.00, -1.00, 564.0, 628.2)">T</text><text xml:space="preserve" font-family="GillSans-Light,Gill Sans" font-size="72.0" fill="#525252" transform="matrix(1.00, 0.00, -0.00, -1.00, 605.3, 628.2)">I</text><text xml:space="preserve" font-family="GillSans-Light,Gill Sans" font-size="72.0" fill="#525252" transform="matrix(1.00, 0.00, -0.00, -1.00, 620.2, 628.2)">O</text><text xml:space="preserve" font-family="GillSans-Light,Gill Sans" font-size="72.0" fill="#525252" transform="matrix(1.00, 0.00, -0.00, -1.00, 679.5, 628.2)">N</text><text xml:space="preserve" font-family="GillSans-Light,Gill Sans" font-size="72.0" fill="#525252" transform="matrix(1.00, 0.00, -0.00, -1.00, 735.0, 628.2)">S</text><text xml:space="preserve" font-family="GillSans-Light,Gill Sans" font-size="31.2" fill="#525252" transform="matrix(1.00, 0.00, -0.00, -1.00, 32.0, 375.4)">•</text><text xml:space="preserve" font-family="GillSans-Light,Gill Sans" font-size="38.0" fill="#525252" transform="matrix(1.00, 0.00, -0.00, -1.00, 66.0, 373.1)">A</text><text xml:space="preserve" font-family="GillSans-Light,Gill Sans" font-size="38.0" fill="#525252" transform="matrix(1.00, 0.00, -0.00, -1.00, 91.3, 373.1)">n</text><text xml:space="preserve" font-family="GillSans-Light,Gill Sans" font-size="38.0" fill="#525252" transform="matrix(1.00, 0.00, -0.00, -1.00, 110.0, 373.1)">d</text><text xml:space="preserve" font-family="GillSans-Light,Gill Sans" font-size="38.0" fill="#525252" transform="matrix(1.00, 0.00, -0.00, -1.00, 129.3, 373.1)">r</text><text xml:space="preserve" font-family="GillSans-Light,Gill Sans" font-size="38.0" fill="#525252" transform="matrix(1.00, 0.00, -0.00, -1.00, 142.0, 373.1)">o</text><text xml:space="preserve" font-family="GillSans-Light,Gill Sans" font-size="38.0" fill="#525252" transform="matrix(1.00, 0.00, -0.00, -1.00, 162.6, 373.1)">i</text><text xml:space="preserve" font-family="GillSans-Light,Gill Sans" font-size="38.0" fill="#525252" transform="matrix(1.00, 0.00, -0.00, -1.00, 169.7, 373.1)">d</text><text xml:space="preserve" font-family="GillSans-Light,Gill Sans" font-size="38.0" fill="#525252" transform="matrix(1.00, 0.00, -0.00, -1.00, 189.1, 373.1)"> </text><text xml:space="preserve" font-family="GillSans-Light,Gill Sans" font-size="38.0" fill="#525252" transform="matrix(1.00, 0.00, -0.00, -1.00, 199.7, 373.1)">(</text><text xml:space="preserve" font-family="GillSans-Light,Gill Sans" font-size="38.0" fill="#525252" transform="matrix(1.00, 0.00, -0.00, -1.00, 212.3, 373.1)">T</text><text xml:space="preserve" font-family="GillSans-Light,Gill Sans" font-size="38.0" fill="#525252" transform="matrix(1.00, 0.00, -0.00, -1.00, 229.2, 373.1)">a</text><text xml:space="preserve" font-family="GillSans-Light,Gill Sans" font-size="38.0" fill="#525252" transform="matrix(1.00, 0.00, -0.00, -1.00, 245.4, 373.1)">r</text><text xml:space="preserve" font-family="GillSans-Light,Gill Sans" font-size="38.0" fill="#525252" transform="matrix(1.00, 0.00, -0.00, -1.00, 259.0, 373.1)">g</text><text xml:space="preserve" font-family="GillSans-Light,Gill Sans" font-size="38.0" fill="#525252" transform="matrix(1.00, 0.00, -0.00, -1.00, 275.2, 373.1)">e</text><text xml:space="preserve" font-family="GillSans-Light,Gill Sans" font-size="38.0" fill="#525252" transform="matrix(1.00, 0.00, -0.00, -1.00, 293.4, 373.1)">t</text><text xml:space="preserve" font-family="GillSans-Light,Gill Sans" font-size="38.0" fill="#525252" transform="matrix(1.00, 0.00, -0.00, -1.00, 304.8, 373.1)"> </text><text xml:space="preserve" font-family="GillSans-Light,Gill Sans" font-size="38.0" fill="#525252" transform="matrix(1.00, 0.00, -0.00, -1.00, 313.1, 373.1)">A</text><text xml:space="preserve" font-family="GillSans-Light,Gill Sans" font-size="38.0" fill="#525252" transform="matrix(1.00, 0.00, -0.00, -1.00, 338.5, 373.1)">P</text><text xml:space="preserve" font-family="GillSans-Light,Gill Sans" font-size="38.0" fill="#525252" transform="matrix(1.00, 0.00, -0.00, -1.00, 357.8, 373.1)">I</text><text xml:space="preserve" font-family="GillSans-Light,Gill Sans" font-size="38.0" fill="#525252" transform="matrix(1.00, 0.00, -0.00, -1.00, 365.7, 373.1)">:</text><text xml:space="preserve" font-family="GillSans-Light,Gill Sans" font-size="38.0" fill="#525252" transform="matrix(1.00, 0.00, -0.00, -1.00, 369.4, 373.1)"> </text><text xml:space="preserve" font-family="GillSans-Light,Gill Sans" font-size="38.0" fill="#525252" transform="matrix(1.00, 0.00, -0.00, -1.00, 379.9, 373.1)">1</text><text xml:space="preserve" font-family="GillSans-Light,Gill Sans" font-size="38.0" fill="#525252" transform="matrix(1.00, 0.00, -0.00, -1.00, 398.9, 373.1)">9</text><text xml:space="preserve" font-family="GillSans-Light,Gill Sans" font-size="38.0" fill="#525252" transform="matrix(1.00, 0.00, -0.00, -1.00, 417.9, 373.1)">)</text><text xml:space="preserve" font-family="GillSans-Light,Gill Sans" font-size="31.2" fill="#525252" transform="matrix(1.00, 0.00, -0.00, -1.00, 32.0, 294.4)">•</text><text xml:space="preserve" font-family="GillSans-Light,Gill Sans" font-size="38.0" fill="#525252" transform="matrix(1.00, 0.00, -0.00, -1.00, 66.0, 292.1)">i</text><text xml:space="preserve" font-family="GillSans-Light,Gill Sans" font-size="38.0" fill="#525252" transform="matrix(1.00, 0.00, -0.00, -1.00, 73.1, 292.1)">O</text><text xml:space="preserve" font-family="GillSans-Light,Gill Sans" font-size="38.0" fill="#525252" transform="matrix(1.00, 0.00, -0.00, -1.00, 104.4, 292.1)">S</text><text xml:space="preserve" font-family="GillSans-Light,Gill Sans" font-size="38.0" fill="#525252" transform="matrix(1.00, 0.00, -0.00, -1.00, 122.3, 292.1)"> </text><text xml:space="preserve" font-family="GillSans-Light,Gill Sans" font-size="38.0" fill="#525252" transform="matrix(1.00, 0.00, -0.00, -1.00, 132.8, 292.1)">(</text><text xml:space="preserve" font-family="GillSans-Light,Gill Sans" font-size="38.0" fill="#525252" transform="matrix(1.00, 0.00, -0.00, -1.00, 145.5, 292.1)">M</text><text xml:space="preserve" font-family="GillSans-Light,Gill Sans" font-size="38.0" fill="#525252" transform="matrix(1.00, 0.00, -0.00, -1.00, 175.1, 292.1)">i</text><text xml:space="preserve" font-family="GillSans-Light,Gill Sans" font-size="38.0" fill="#525252" transform="matrix(1.00, 0.00, -0.00, -1.00, 182.3, 292.1)">n</text><text xml:space="preserve" font-family="GillSans-Light,Gill Sans" font-size="38.0" fill="#525252" transform="matrix(1.00, 0.00, -0.00, -1.00, 200.9, 292.1)">i</text><text xml:space="preserve" font-family="GillSans-Light,Gill Sans" font-size="38.0" fill="#525252" transform="matrix(1.00, 0.00, -0.00, -1.00, 208.1, 292.1)">m</text><text xml:space="preserve" font-family="GillSans-Light,Gill Sans" font-size="38.0" fill="#525252" transform="matrix(1.00, 0.00, -0.00, -1.00, 236.8, 292.1)">u</text><text xml:space="preserve" font-family="GillSans-Light,Gill Sans" font-size="38.0" fill="#525252" transform="matrix(1.00, 0.00, -0.00, -1.00, 255.4, 292.1)">m</text><text xml:space="preserve" font-family="GillSans-Light,Gill Sans" font-size="38.0" fill="#525252" transform="matrix(1.00, 0.00, -0.00, -1.00, 284.7, 292.1)"> </text><text xml:space="preserve" font-family="GillSans-Light,Gill Sans" font-size="38.0" fill="#525252" transform="matrix(1.00, 0.00, -0.00, -1.00, 295.3, 292.1)">8</text><text xml:space="preserve" font-family="GillSans-Light,Gill Sans" font-size="38.0" fill="#525252" transform="matrix(1.00, 0.00, -0.00, -1.00, 314.3, 292.1)">.</text><text xml:space="preserve" font-family="GillSans-Light,Gill Sans" font-size="38.0" fill="#525252" transform="matrix(1.00, 0.00, -0.00, -1.00, 321.0, 292.1)">0</text><text xml:space="preserve" font-family="GillSans-Light,Gill Sans" font-size="38.0" fill="#525252" transform="matrix(1.00, 0.00, -0.00, -1.00, 340.0, 292.1)">)</text><text xml:space="preserve" font-family="GillSans-Light,Gill Sans" font-size="31.2" fill="#525252" transform="matrix(1.00, 0.00, -0.00, -1.00, 32.0, 213.4)">•</text><text xml:space="preserve" font-family="GillSans-Light,Gill Sans" font-size="38.0" fill="#525252" transform="matrix(1.00, 0.00, -0.00, -1.00, 66.0, 211.1)">C</text><text xml:space="preserve" font-family="GillSans-Light,Gill Sans" font-size="38.0" fill="#525252" transform="matrix(1.00, 0.00, -0.00, -1.00, 91.7, 211.1)">o</text><text xml:space="preserve" font-family="GillSans-Light,Gill Sans" font-size="38.0" fill="#525252" transform="matrix(1.00, 0.00, -0.00, -1.00, 112.3, 211.1)">r</text><text xml:space="preserve" font-family="GillSans-Light,Gill Sans" font-size="38.0" fill="#525252" transform="matrix(1.00, 0.00, -0.00, -1.00, 125.0, 211.1)">d</text><text xml:space="preserve" font-family="GillSans-Light,Gill Sans" font-size="38.0" fill="#525252" transform="matrix(1.00, 0.00, -0.00, -1.00, 144.3, 211.1)">o</text><text xml:space="preserve" font-family="GillSans-Light,Gill Sans" font-size="38.0" fill="#525252" transform="matrix(1.00, 0.00, -0.00, -1.00, 164.2, 211.1)">v</text><text xml:space="preserve" font-family="GillSans-Light,Gill Sans" font-size="38.0" fill="#525252" transform="matrix(1.00, 0.00, -0.00, -1.00, 180.4, 211.1)">a</text><text xml:space="preserve" font-family="GillSans-Light,Gill Sans" font-size="38.0" fill="#525252" transform="matrix(1.00, 0.00, -0.00, -1.00, 196.6, 211.1)"> </text><text xml:space="preserve" font-family="GillSans-Light,Gill Sans" font-size="38.0" fill="#525252" transform="matrix(1.00, 0.00, -0.00, -1.00, 207.1, 211.1)">4</text><text xml:space="preserve" font-family="GillSans-Light,Gill Sans" font-size="38.0" fill="#525252" transform="matrix(1.00, 0.00, -0.00, -1.00, 226.1, 211.1)">.</text><text xml:space="preserve" font-family="GillSans-Light,Gill Sans" font-size="38.0" fill="#525252" transform="matrix(1.00, 0.00, -0.00, -1.00, 232.8, 211.1)">1</text><text xml:space="preserve" font-family="GillSans-Light,Gill Sans" font-size="38.0" fill="#525252" transform="matrix(1.00, 0.00, -0.00, -1.00, 251.8, 211.1)">.</text><text xml:space="preserve" font-family="GillSans-Light,Gill Sans" font-size="38.0" fill="#525252" transform="matrix(1.00, 0.00, -0.00, -1.00, 258.5, 211.1)">0</text><g><clipPath id="clip0x7fde3bd6ad40"><path d="M 667.7 345.8 C 658.3 331.5 648.5 317.4 633.1 317.1 C 617.9 316.8 613.0 326.4 595.7 326.4 C 578.4 326.4 572.9 317.4 558.6 316.8 C 543.7 316.2 532.4 332.1 522.8 346.3 C 503.4 375.3 488.5 428.1 508.5 463.8 C 518.4 481.6 536.1 492.8 555.3 493.1 C 570.0 493.4 583.8 482.9 592.7 482.9 C 601.7 482.9 618.4 495.5 636.1 493.6 C 643.5 493.3 664.2 490.6 677.5 470.5 C 676.4 469.8 652.8 455.7 653.0 426.1 C 653.3 390.8 683.1 379.1 683.4 378.9 C 683.2 378.1 678.7 362.2 667.7 345.8 Z M 601.5 536.0 C 610.7 545.5 626.2 552.5 639.0 553.0 C 640.6 539.8 634.6 526.6 625.7 517.1 C 616.8 507.6 602.2 500.2 587.9 501.2 C 586.0 514.1 593.2 527.6 601.5 536.0 Z M 601.5 536.0 "></path></clipPath><g clip-path="url(#clip0x7fde3bd6ad40)"><g><clipPath id="clip0x7fde3bd710a0"><path d="M 499.0 57.0 L 909.0 57.0 L 909.0 553.0 L 499.0 553.0 Z M 499.0 57.0 "></path></clipPath><g clip-path="url(#clip0x7fde3bd710a0)"><path d="M 481.9 570.1 L 700.5 570.1 L 700.5 299.7 L 481.9 299.7 Z M 481.9 570.1 " fill="#CCD0D1"></path></g></g></g></g><g><clipPath id="clip0x7fde3bd722a0"><path d="M 722.4 478.9 C 714.1 478.9 707.4 473.2 707.4 466.0 L 707.4 410.9 C 707.4 403.7 714.1 398.0 722.4 398.0 C 730.6 398.0 737.3 403.7 737.3 410.9 L 737.3 466.0 C 737.3 473.2 730.6 478.9 722.4 478.9 L 722.4 478.9 Z M 835.2 532.9 L 848.3 545.8 C 849.9 547.3 849.9 549.9 848.3 551.5 C 846.7 553.1 844.1 553.1 842.5 551.5 L 826.4 535.7 C 820.7 537.1 814.6 537.8 808.3 537.8 C 802.1 537.8 796.1 537.1 790.4 535.7 L 774.4 551.5 C 772.8 553.1 770.2 553.1 768.6 551.5 C 766.9 549.9 766.9 547.3 768.6 545.8 L 781.5 533.0 C 759.9 524.8 744.8 507.0 744.8 486.3 C 744.8 486.1 871.8 486.3 871.8 486.3 C 871.8 506.9 856.8 524.7 835.2 532.9 L 835.2 532.9 Z M 789.6 501.0 C 785.5 501.0 782.2 504.3 782.2 508.4 C 782.2 512.5 785.5 515.8 789.6 515.8 C 793.8 515.8 797.1 512.5 797.1 508.4 C 797.1 504.3 793.8 501.0 789.6 501.0 L 789.6 501.0 Z M 827.0 501.0 C 822.8 501.0 819.5 504.3 819.5 508.4 C 819.5 512.5 822.8 515.8 827.0 515.8 C 831.1 515.8 834.4 512.5 834.4 508.4 C 834.4 504.3 831.1 501.0 827.0 501.0 L 827.0 501.0 Z M 894.1 478.9 C 885.8 478.9 879.2 473.2 879.2 466.0 L 879.2 410.9 C 879.2 403.7 885.8 398.0 894.1 398.0 C 902.3 398.0 909.0 403.7 909.0 410.9 L 909.0 466.0 C 909.0 473.2 902.3 478.9 894.1 478.9 L 894.1 478.9 Z M 744.8 390.7 C 744.8 378.5 754.8 368.6 767.2 368.6 L 767.2 329.9 C 767.2 322.8 773.8 317.0 782.1 317.0 C 790.3 317.0 797.0 322.8 797.0 329.9 L 797.0 368.6 L 819.4 368.6 L 819.4 329.9 C 819.4 322.8 826.1 317.0 834.4 317.0 C 842.6 317.0 849.3 322.8 849.3 329.9 L 849.3 368.6 L 849.4 368.6 C 861.7 368.6 871.8 378.5 871.8 390.7 L 871.8 479.0 L 744.8 479.0 L 744.8 390.7 L 744.8 390.7 Z M 744.8 390.7 "></path></clipPath><g clip-path="url(#clip0x7fde3bd722a0)"><g><clipPath id="clip0x7fde3bd729f0"><path d="M 499.0 57.0 L 909.0 57.0 L 909.0 553.0 L 499.0 553.0 Z M 499.0 57.0 "></path></clipPath><g clip-path="url(#clip0x7fde3bd729f0)"><path d="M 690.3 569.8 L 926.1 569.8 L 926.1 299.9 L 690.3 299.9 Z M 690.3 569.8 " fill="#3DB39D"></path></g></g></g></g><g><clipPath id="clip0x7fde3bd737d0"><path d="M 591.3 292.9 L 813.3 292.9 L 791.1 79.0 L 709.7 56.9 L 694.9 56.9 L 613.5 79.0 L 591.3 292.9 "></path></clipPath><g clip-path="url(#clip0x7fde3bd737d0)"><g><clipPath id="clip0x7fde3bd73ef0"><path d="M 499.0 57.0 L 909.0 57.0 L 909.0 553.0 L 499.0 553.0 Z M 499.0 57.0 "></path></clipPath><g clip-path="url(#clip0x7fde3bd73ef0)"><path d="M 574.2 310.0 L 830.4 310.0 L 830.4 39.8 L 574.2 39.8 Z M 574.2 310.0 " fill="#D99666"></path></g></g></g></g><g><clipPath id="clip0x7fde3bd74c70"><path d="M 702.3 270.8 L 783.7 270.8 L 768.9 101.2 L 702.3 79.0 L 702.3 270.8 "></path></clipPath><g clip-path="url(#clip0x7fde3bd74c70)"><g><clipPath id="clip0x7fde3bd75400"><path d="M 499.0 57.0 L 909.0 57.0 L 909.0 553.0 L 499.0 553.0 Z M 499.0 57.0 "></path></clipPath><g clip-path="url(#clip0x7fde3bd75400)"><path d="M 685.2 287.9 L 800.8 287.9 L 800.8 61.9 L 685.2 61.9 Z M 685.2 287.9 " fill="#F3B458"></path></g></g></g></g><g><clipPath id="clip0x7fde3bd762c0"><path d="M 725.8 139.8 L 702.3 132.4 L 702.3 108.5 L 749.1 123.2 L 749.7 123.2 L 749.7 123.4 L 749.8 123.4 L 749.8 124.5 L 754.0 174.9 L 728.8 174.9 L 725.8 139.8 Z M 671.0 140.9 L 702.3 132.6 L 702.3 108.5 L 646.5 123.2 L 646.5 124.7 L 643.0 160.2 L 669.1 160.2 L 671.0 140.9 L 671.0 140.9 Z M 640.4 197.0 L 638.0 226.6 L 665.2 226.6 L 667.6 197.0 L 756.4 197.0 L 754.1 174.9 L 642.6 174.9 L 640.4 197.0 L 640.4 197.0 Z M 635.4 248.7 L 764.0 248.7 L 761.6 226.6 L 638.0 226.6 L 635.4 248.7 Z M 635.4 248.7 "></path></clipPath><g clip-path="url(#clip0x7fde3bd762c0)"><g><clipPath id="clip0x7fde3bd769f0"><path d="M 499.0 57.0 L 909.0 57.0 L 909.0 553.0 L 499.0 553.0 Z M 499.0 57.0 "></path></clipPath><g clip-path="url(#clip0x7fde3bd769f0)"><g><g><clipPath id="clip0x7fde3bd783a0"><path d="M 635.0 108.3 L 764.0 108.3 L 764.0 249.0 L 635.0 249.0 Z M 635.0 108.3 "></path></clipPath><g clip-path="url(#clip0x7fde3bd783a0)"><path d="M 618.4 265.8 L 781.1 265.8 L 781.1 91.4 L 618.4 91.4 Z M 618.4 265.8 " fill="#FFFFFF"></path></g></g><g><clipPath id="clip0x7fde3bd791d0"><path d="M 628.3 256.0 L 702.3 256.0 L 702.3 93.8 L 628.3 93.8 L 628.3 256.0 Z M 628.3 256.0 "></path></clipPath><g clip-path="url(#clip0x7fde3bd791d0)"><g><clipPath id="clip0x7fde3bd79930"><path d="M 635.0 108.3 L 764.0 108.3 L 764.0 249.0 L 635.0 249.0 Z M 635.0 108.3 "></path></clipPath><g clip-path="url(#clip0x7fde3bd79930)"><path d="M 611.2 273.1 L 719.4 273.1 L 719.4 76.7 L 611.2 76.7 Z M 611.2 273.1 " fill="#000000" fill-opacity="0.08"></path></g></g></g></g></g></g></g></g></g></g></svg>