<?xml version="1.0" encoding="UTF-8" standalone="no"?><svg xmlns="http://www.w3.org/2000/svg" xmlns:xlink="http://www.w3.org/1999/xlink" clip-rule="evenodd" stroke-miterlimit="10" viewBox="0 0 1024 768"><desc>SVG generated by Keynote</desc><defs></defs><g transform="matrix(1.00, 0.00, -0.00, -1.00, 0.0, 768.0)"><g><clipPath id="clip0x7fde3dfaf540"><path d="M 0.0 768.0 L 1024.0 768.0 L 1024.0 0.0 L 0.0 0.0 Z M 0.0 768.0 "></path></clipPath><g clip-path="url(#clip0x7fde3dfaf540)"><image xlink:href="../../9A547B16-7CB2-4235-A9D6-7078228DA1F4/assets/574DCE55A4CF432400CBDDDE1DFDFC9B.jpeg" width="2048.00" height="1536.00" transform="matrix(0.50, 0.00, -0.00, -0.50, 0.0, 768.0)"></image></g></g><text xml:space="preserve" font-family="GillSans-Light,Gill Sans" font-size="72.0" fill="#525252" transform="matrix(1.00, 0.00, -0.00, -1.00, 221.3, 628.2)">D</text><text xml:space="preserve" font-family="GillSans-Light,Gill Sans" font-size="72.0" fill="#525252" transform="matrix(1.00, 0.00, -0.00, -1.00, 274.6, 628.2)">J</text><text xml:space="preserve" font-family="GillSans-Light,Gill Sans" font-size="72.0" fill="#525252" transform="matrix(1.00, 0.00, -0.00, -1.00, 289.5, 628.2)">A</text><text xml:space="preserve" font-family="GillSans-Light,Gill Sans" font-size="72.0" fill="#525252" transform="matrix(1.00, 0.00, -0.00, -1.00, 337.6, 628.2)">N</text><text xml:space="preserve" font-family="GillSans-Light,Gill Sans" font-size="72.0" fill="#525252" transform="matrix(1.00, 0.00, -0.00, -1.00, 393.1, 628.2)">G</text><text xml:space="preserve" font-family="GillSans-Light,Gill Sans" font-size="72.0" fill="#525252" transform="matrix(1.00, 0.00, -0.00, -1.00, 444.9, 628.2)">O</text><text xml:space="preserve" font-family="GillSans-Light,Gill Sans" font-size="72.0" fill="#525252" transform="matrix(1.00, 0.00, -0.00, -1.00, 504.2, 628.2)">:</text><text xml:space="preserve" font-family="GillSans-Light,Gill Sans" font-size="72.0" fill="#525252" transform="matrix(1.00, 0.00, -0.00, -1.00, 511.1, 628.2)"> </text><text xml:space="preserve" font-family="GillSans-Light,Gill Sans" font-size="72.0" fill="#525252" transform="matrix(1.00, 0.00, -0.00, -1.00, 531.1, 628.2)">M</text><text xml:space="preserve" font-family="GillSans-Light,Gill Sans" font-size="72.0" fill="#525252" transform="matrix(1.00, 0.00, -0.00, -1.00, 587.3, 628.2)">O</text><text xml:space="preserve" font-family="GillSans-Light,Gill Sans" font-size="72.0" fill="#525252" transform="matrix(1.00, 0.00, -0.00, -1.00, 646.6, 628.2)">D</text><text xml:space="preserve" font-family="GillSans-Light,Gill Sans" font-size="72.0" fill="#525252" transform="matrix(1.00, 0.00, -0.00, -1.00, 699.9, 628.2)">E</text><text xml:space="preserve" font-family="GillSans-Light,Gill Sans" font-size="72.0" fill="#525252" transform="matrix(1.00, 0.00, -0.00, -1.00, 735.2, 628.2)">L</text><text xml:space="preserve" font-family="GillSans-Light,Gill Sans" font-size="72.0" fill="#525252" transform="matrix(1.00, 0.00, -0.00, -1.00, 769.0, 628.2)">S</text><g><clipPath id="clip0x7fde3e0bec60"><path d="M 192.0 51.0 L 832.0 51.0 L 832.0 589.0 L 192.0 589.0 Z M 192.0 51.0 "></path></clipPath><g clip-path="url(#clip0x7fde3e0bec60)"><path d="M 192.0 589.0 L 832.0 589.0 L 832.0 51.0 L 192.0 51.0 Z M 192.0 589.0 " fill="#FEFFFF" fill-opacity="0.00"></path></g></g><g><clipPath id="clip0x7fde3e0bfdf0"><path d="M 192.0 51.0 L 832.0 51.0 L 832.0 589.0 L 192.0 589.0 Z M 192.0 51.0 "></path></clipPath><g clip-path="url(#clip0x7fde3e0bfdf0)"><image xlink:href="../../0948B797-BB2C-4DDA-B601-301DDE692B2E/assets/C83EB69342A01A3DCD7AE7C948271B6F.png" width="696.00" height="585.00" transform="matrix(0.92, 0.00, -0.00, -0.92, 192.0, 589.0)"></image></g></g><image xlink:href="../../0948B797-BB2C-4DDA-B601-301DDE692B2E/assets/5BABA8A4AA38C5B3B6C7995EF02BAF68.png" width="654.00" height="557.00" transform="matrix(1.00, 0.00, -0.00, 1.00, 185.0, 36.0)"></image></g></svg>