<?xml version="1.0" encoding="UTF-8" standalone="no"?><svg xmlns="http://www.w3.org/2000/svg" xmlns:xlink="http://www.w3.org/1999/xlink" clip-rule="evenodd" stroke-miterlimit="10" viewBox="0 0 1024 768"><desc>SVG generated by Keynote</desc><defs></defs><g transform="matrix(1.00, 0.00, -0.00, -1.00, 0.0, 768.0)"><g><clipPath id="clip0x7fde3e359550"><path d="M 0.0 768.0 L 1024.0 768.0 L 1024.0 0.0 L 0.0 0.0 Z M 0.0 768.0 "></path></clipPath><g clip-path="url(#clip0x7fde3e359550)"><image xlink:href="../../9A547B16-7CB2-4235-A9D6-7078228DA1F4/assets/574DCE55A4CF432400CBDDDE1DFDFC9B.jpeg" width="2048.00" height="1536.00" transform="matrix(0.50, 0.00, -0.00, -0.50, 0.0, 768.0)"></image></g></g><text xml:space="preserve" font-family="GillSans-Light,Gill Sans" font-size="72.0" fill="#525252" transform="matrix(1.00, 0.00, -0.00, -1.00, 345.9, 628.2)">A</text><text xml:space="preserve" font-family="GillSans-Light,Gill Sans" font-size="72.0" fill="#525252" transform="matrix(1.00, 0.00, -0.00, -1.00, 393.9, 628.2)">P</text><text xml:space="preserve" font-family="GillSans-Light,Gill Sans" font-size="72.0" fill="#525252" transform="matrix(1.00, 0.00, -0.00, -1.00, 430.6, 628.2)">I</text><text xml:space="preserve" font-family="GillSans-Light,Gill Sans" font-size="72.0" fill="#525252" transform="matrix(1.00, 0.00, -0.00, -1.00, 445.6, 628.2)">:</text><text xml:space="preserve" font-family="GillSans-Light,Gill Sans" font-size="72.0" fill="#525252" transform="matrix(1.00, 0.00, -0.00, -1.00, 452.6, 628.2)"> </text><text xml:space="preserve" font-family="GillSans-Light,Gill Sans" font-size="72.0" fill="#525252" transform="matrix(1.00, 0.00, -0.00, -1.00, 472.5, 628.2)">S</text><text xml:space="preserve" font-family="GillSans-Light,Gill Sans" font-size="72.0" fill="#525252" transform="matrix(1.00, 0.00, -0.00, -1.00, 506.3, 628.2)">T</text><text xml:space="preserve" font-family="GillSans-Light,Gill Sans" font-size="72.0" fill="#525252" transform="matrix(1.00, 0.00, -0.00, -1.00, 542.2, 628.2)">O</text><text xml:space="preserve" font-family="GillSans-Light,Gill Sans" font-size="72.0" fill="#525252" transform="matrix(1.00, 0.00, -0.00, -1.00, 601.5, 628.2)">R</text><text xml:space="preserve" font-family="GillSans-Light,Gill Sans" font-size="72.0" fill="#525252" transform="matrix(1.00, 0.00, -0.00, -1.00, 642.8, 628.2)">E</text><text xml:space="preserve" font-family="GillSans-Light,Gill Sans" font-size="31.2" fill="#525252" transform="matrix(1.00, 0.00, -0.00, -1.00, 32.0, 480.4)">•</text><text xml:space="preserve" font-family="GillSans-Light,Gill Sans" font-size="38.0" fill="#525252" transform="matrix(1.00, 0.00, -0.00, -1.00, 66.0, 478.1)">P</text><text xml:space="preserve" font-family="GillSans-Light,Gill Sans" font-size="38.0" fill="#525252" transform="matrix(1.00, 0.00, -0.00, -1.00, 85.4, 478.1)">O</text><text xml:space="preserve" font-family="GillSans-Light,Gill Sans" font-size="38.0" fill="#525252" transform="matrix(1.00, 0.00, -0.00, -1.00, 116.7, 478.1)">S</text><text xml:space="preserve" font-family="GillSans-Light,Gill Sans" font-size="38.0" fill="#525252" transform="matrix(1.00, 0.00, -0.00, -1.00, 134.5, 478.1)">T</text><text xml:space="preserve" font-family="GillSans-Light,Gill Sans" font-size="38.0" fill="#525252" transform="matrix(1.00, 0.00, -0.00, -1.00, 155.3, 478.1)">:</text><text xml:space="preserve" font-family="GillSans-Light,Gill Sans" font-size="38.0" fill="#525252" transform="matrix(1.00, 0.00, -0.00, -1.00, 159.0, 478.1)"> </text><text xml:space="preserve" font-family="GillSans-Light,Gill Sans" font-size="38.0" fill="#525252" transform="matrix(1.00, 0.00, -0.00, -1.00, 169.6, 478.1)">I</text><text xml:space="preserve" font-family="GillSans-Light,Gill Sans" font-size="38.0" fill="#525252" transform="matrix(1.00, 0.00, -0.00, -1.00, 177.5, 478.1)">n</text><text xml:space="preserve" font-family="GillSans-Light,Gill Sans" font-size="38.0" fill="#525252" transform="matrix(1.00, 0.00, -0.00, -1.00, 195.5, 478.1)">v</text><text xml:space="preserve" font-family="GillSans-Light,Gill Sans" font-size="38.0" fill="#525252" transform="matrix(1.00, 0.00, -0.00, -1.00, 211.2, 478.1)">e</text><text xml:space="preserve" font-family="GillSans-Light,Gill Sans" font-size="38.0" fill="#525252" transform="matrix(1.00, 0.00, -0.00, -1.00, 229.4, 478.1)">n</text><text xml:space="preserve" font-family="GillSans-Light,Gill Sans" font-size="38.0" fill="#525252" transform="matrix(1.00, 0.00, -0.00, -1.00, 248.0, 478.1)">t</text><text xml:space="preserve" font-family="GillSans-Light,Gill Sans" font-size="38.0" fill="#525252" transform="matrix(1.00, 0.00, -0.00, -1.00, 259.4, 478.1)">o</text><text xml:space="preserve" font-family="GillSans-Light,Gill Sans" font-size="38.0" fill="#525252" transform="matrix(1.00, 0.00, -0.00, -1.00, 280.0, 478.1)">r</text><text xml:space="preserve" font-family="GillSans-Light,Gill Sans" font-size="38.0" fill="#525252" transform="matrix(1.00, 0.00, -0.00, -1.00, 295.4, 478.1)">y</text><text xml:space="preserve" font-family="GillSans-Light,Gill Sans" font-size="38.0" fill="#525252" transform="matrix(1.00, 0.00, -0.00, -1.00, 311.2, 478.1)"> </text><text xml:space="preserve" font-family="GillSans-Light,Gill Sans" font-size="38.0" fill="#525252" transform="matrix(1.00, 0.00, -0.00, -1.00, 321.7, 478.1)">a</text><text xml:space="preserve" font-family="GillSans-Light,Gill Sans" font-size="38.0" fill="#525252" transform="matrix(1.00, 0.00, -0.00, -1.00, 338.0, 478.1)">c</text><text xml:space="preserve" font-family="GillSans-Light,Gill Sans" font-size="38.0" fill="#525252" transform="matrix(1.00, 0.00, -0.00, -1.00, 353.8, 478.1)">t</text><text xml:space="preserve" font-family="GillSans-Light,Gill Sans" font-size="38.0" fill="#525252" transform="matrix(1.00, 0.00, -0.00, -1.00, 365.3, 478.1)">i</text><text xml:space="preserve" font-family="GillSans-Light,Gill Sans" font-size="38.0" fill="#525252" transform="matrix(1.00, 0.00, -0.00, -1.00, 372.4, 478.1)">v</text><text xml:space="preserve" font-family="GillSans-Light,Gill Sans" font-size="38.0" fill="#525252" transform="matrix(1.00, 0.00, -0.00, -1.00, 388.0, 478.1)">e</text><text xml:space="preserve" font-family="GillSans-Light,Gill Sans" font-size="38.0" fill="#525252" transform="matrix(1.00, 0.00, -0.00, -1.00, 406.2, 478.1)">/</text><text xml:space="preserve" font-family="GillSans-Light,Gill Sans" font-size="38.0" fill="#525252" transform="matrix(1.00, 0.00, -0.00, -1.00, 66.0, 435.1)">i</text><text xml:space="preserve" font-family="GillSans-Light,Gill Sans" font-size="38.0" fill="#525252" transform="matrix(1.00, 0.00, -0.00, -1.00, 73.1, 435.1)">n</text><text xml:space="preserve" font-family="GillSans-Light,Gill Sans" font-size="38.0" fill="#525252" transform="matrix(1.00, 0.00, -0.00, -1.00, 91.8, 435.1)">a</text><text xml:space="preserve" font-family="GillSans-Light,Gill Sans" font-size="38.0" fill="#525252" transform="matrix(1.00, 0.00, -0.00, -1.00, 108.0, 435.1)">c</text><text xml:space="preserve" font-family="GillSans-Light,Gill Sans" font-size="38.0" fill="#525252" transform="matrix(1.00, 0.00, -0.00, -1.00, 123.8, 435.1)">t</text><text xml:space="preserve" font-family="GillSans-Light,Gill Sans" font-size="38.0" fill="#525252" transform="matrix(1.00, 0.00, -0.00, -1.00, 135.3, 435.1)">i</text><text xml:space="preserve" font-family="GillSans-Light,Gill Sans" font-size="38.0" fill="#525252" transform="matrix(1.00, 0.00, -0.00, -1.00, 142.4, 435.1)">v</text><text xml:space="preserve" font-family="GillSans-Light,Gill Sans" font-size="38.0" fill="#525252" transform="matrix(1.00, 0.00, -0.00, -1.00, 158.1, 435.1)">e</text><text xml:space="preserve" font-family="GillSans-Light,Gill Sans" font-size="38.0" fill="#525252" transform="matrix(1.00, 0.00, -0.00, -1.00, 177.4, 435.1)">,</text><text xml:space="preserve" font-family="GillSans-Light,Gill Sans" font-size="38.0" fill="#525252" transform="matrix(1.00, 0.00, -0.00, -1.00, 181.1, 435.1)"> </text><text xml:space="preserve" font-family="GillSans-Light,Gill Sans" font-size="38.0" fill="#525252" transform="matrix(1.00, 0.00, -0.00, -1.00, 191.6, 435.1)">O</text><text xml:space="preserve" font-family="GillSans-Light,Gill Sans" font-size="38.0" fill="#525252" transform="matrix(1.00, 0.00, -0.00, -1.00, 222.9, 435.1)">r</text><text xml:space="preserve" font-family="GillSans-Light,Gill Sans" font-size="38.0" fill="#525252" transform="matrix(1.00, 0.00, -0.00, -1.00, 235.6, 435.1)">d</text><text xml:space="preserve" font-family="GillSans-Light,Gill Sans" font-size="38.0" fill="#525252" transform="matrix(1.00, 0.00, -0.00, -1.00, 254.9, 435.1)">e</text><text xml:space="preserve" font-family="GillSans-Light,Gill Sans" font-size="38.0" fill="#525252" transform="matrix(1.00, 0.00, -0.00, -1.00, 273.1, 435.1)">r</text><text xml:space="preserve" font-family="GillSans-Light,Gill Sans" font-size="38.0" fill="#525252" transform="matrix(1.00, 0.00, -0.00, -1.00, 285.8, 435.1)"> </text><text xml:space="preserve" font-family="GillSans-Light,Gill Sans" font-size="38.0" fill="#525252" transform="matrix(1.00, 0.00, -0.00, -1.00, 296.3, 435.1)">c</text><text xml:space="preserve" font-family="GillSans-Light,Gill Sans" font-size="38.0" fill="#525252" transform="matrix(1.00, 0.00, -0.00, -1.00, 312.2, 435.1)">o</text><text xml:space="preserve" font-family="GillSans-Light,Gill Sans" font-size="38.0" fill="#525252" transform="matrix(1.00, 0.00, -0.00, -1.00, 332.8, 435.1)">m</text><text xml:space="preserve" font-family="GillSans-Light,Gill Sans" font-size="38.0" fill="#525252" transform="matrix(1.00, 0.00, -0.00, -1.00, 362.1, 435.1)">p</text><text xml:space="preserve" font-family="GillSans-Light,Gill Sans" font-size="38.0" fill="#525252" transform="matrix(1.00, 0.00, -0.00, -1.00, 381.4, 435.1)">l</text><text xml:space="preserve" font-family="GillSans-Light,Gill Sans" font-size="38.0" fill="#525252" transform="matrix(1.00, 0.00, -0.00, -1.00, 388.6, 435.1)">e</text><text xml:space="preserve" font-family="GillSans-Light,Gill Sans" font-size="38.0" fill="#525252" transform="matrix(1.00, 0.00, -0.00, -1.00, 406.8, 435.1)">t</text><text xml:space="preserve" font-family="GillSans-Light,Gill Sans" font-size="38.0" fill="#525252" transform="matrix(1.00, 0.00, -0.00, -1.00, 418.2, 435.1)">i</text><text xml:space="preserve" font-family="GillSans-Light,Gill Sans" font-size="38.0" fill="#525252" transform="matrix(1.00, 0.00, -0.00, -1.00, 425.4, 435.1)">o</text><text xml:space="preserve" font-family="GillSans-Light,Gill Sans" font-size="38.0" fill="#525252" transform="matrix(1.00, 0.00, -0.00, -1.00, 446.0, 435.1)">n</text><text xml:space="preserve" font-family="GillSans-Light,Gill Sans" font-size="38.0" fill="#525252" transform="matrix(1.00, 0.00, -0.00, -1.00, 464.6, 435.1)">,</text><text xml:space="preserve" font-family="GillSans-Light,Gill Sans" font-size="38.0" fill="#525252" transform="matrix(1.00, 0.00, -0.00, -1.00, 468.3, 435.1)"> </text><text xml:space="preserve" font-family="GillSans-Light,Gill Sans" font-size="38.0" fill="#525252" transform="matrix(1.00, 0.00, -0.00, -1.00, 66.0, 392.1)">L</text><text xml:space="preserve" font-family="GillSans-Light,Gill Sans" font-size="38.0" fill="#525252" transform="matrix(1.00, 0.00, -0.00, -1.00, 83.8, 392.1)">o</text><text xml:space="preserve" font-family="GillSans-Light,Gill Sans" font-size="38.0" fill="#525252" transform="matrix(1.00, 0.00, -0.00, -1.00, 104.4, 392.1)">g</text><text xml:space="preserve" font-family="GillSans-Light,Gill Sans" font-size="38.0" fill="#525252" transform="matrix(1.00, 0.00, -0.00, -1.00, 120.6, 392.1)">i</text><text xml:space="preserve" font-family="GillSans-Light,Gill Sans" font-size="38.0" fill="#525252" transform="matrix(1.00, 0.00, -0.00, -1.00, 127.8, 392.1)">n</text><text xml:space="preserve" font-family="GillSans-Light,Gill Sans" font-size="38.0" fill="#525252" transform="matrix(1.00, 0.00, -0.00, -1.00, 146.4, 392.1)"> </text><text xml:space="preserve" font-family="GillSans-Light,Gill Sans" font-size="38.0" fill="#525252" transform="matrix(1.00, 0.00, -0.00, -1.00, 157.0, 392.1)">a</text><text xml:space="preserve" font-family="GillSans-Light,Gill Sans" font-size="38.0" fill="#525252" transform="matrix(1.00, 0.00, -0.00, -1.00, 173.2, 392.1)">c</text><text xml:space="preserve" font-family="GillSans-Light,Gill Sans" font-size="38.0" fill="#525252" transform="matrix(1.00, 0.00, -0.00, -1.00, 189.0, 392.1)">t</text><text xml:space="preserve" font-family="GillSans-Light,Gill Sans" font-size="38.0" fill="#525252" transform="matrix(1.00, 0.00, -0.00, -1.00, 200.5, 392.1)">i</text><text xml:space="preserve" font-family="GillSans-Light,Gill Sans" font-size="38.0" fill="#525252" transform="matrix(1.00, 0.00, -0.00, -1.00, 207.6, 392.1)">o</text><text xml:space="preserve" font-family="GillSans-Light,Gill Sans" font-size="38.0" fill="#525252" transform="matrix(1.00, 0.00, -0.00, -1.00, 228.2, 392.1)">n</text><text xml:space="preserve" font-family="GillSans-Light,Gill Sans" font-size="38.0" fill="#525252" transform="matrix(1.00, 0.00, -0.00, -1.00, 246.9, 392.1)">,</text><text xml:space="preserve" font-family="GillSans-Light,Gill Sans" font-size="38.0" fill="#525252" transform="matrix(1.00, 0.00, -0.00, -1.00, 250.5, 392.1)"> </text><text xml:space="preserve" font-family="GillSans-Light,Gill Sans" font-size="38.0" fill="#525252" transform="matrix(1.00, 0.00, -0.00, -1.00, 261.1, 392.1)">L</text><text xml:space="preserve" font-family="GillSans-Light,Gill Sans" font-size="38.0" fill="#525252" transform="matrix(1.00, 0.00, -0.00, -1.00, 278.9, 392.1)">o</text><text xml:space="preserve" font-family="GillSans-Light,Gill Sans" font-size="38.0" fill="#525252" transform="matrix(1.00, 0.00, -0.00, -1.00, 299.5, 392.1)">g</text><text xml:space="preserve" font-family="GillSans-Light,Gill Sans" font-size="38.0" fill="#525252" transform="matrix(1.00, 0.00, -0.00, -1.00, 315.7, 392.1)">o</text><text xml:space="preserve" font-family="GillSans-Light,Gill Sans" font-size="38.0" fill="#525252" transform="matrix(1.00, 0.00, -0.00, -1.00, 336.3, 392.1)">u</text><text xml:space="preserve" font-family="GillSans-Light,Gill Sans" font-size="38.0" fill="#525252" transform="matrix(1.00, 0.00, -0.00, -1.00, 355.0, 392.1)">t</text><text xml:space="preserve" font-family="GillSans-Light,Gill Sans" font-size="38.0" fill="#525252" transform="matrix(1.00, 0.00, -0.00, -1.00, 366.4, 392.1)"> </text><text xml:space="preserve" font-family="GillSans-Light,Gill Sans" font-size="38.0" fill="#525252" transform="matrix(1.00, 0.00, -0.00, -1.00, 377.0, 392.1)">a</text><text xml:space="preserve" font-family="GillSans-Light,Gill Sans" font-size="38.0" fill="#525252" transform="matrix(1.00, 0.00, -0.00, -1.00, 393.2, 392.1)">c</text><text xml:space="preserve" font-family="GillSans-Light,Gill Sans" font-size="38.0" fill="#525252" transform="matrix(1.00, 0.00, -0.00, -1.00, 409.0, 392.1)">t</text><text xml:space="preserve" font-family="GillSans-Light,Gill Sans" font-size="38.0" fill="#525252" transform="matrix(1.00, 0.00, -0.00, -1.00, 420.5, 392.1)">i</text><text xml:space="preserve" font-family="GillSans-Light,Gill Sans" font-size="38.0" fill="#525252" transform="matrix(1.00, 0.00, -0.00, -1.00, 427.6, 392.1)">o</text><text xml:space="preserve" font-family="GillSans-Light,Gill Sans" font-size="38.0" fill="#525252" transform="matrix(1.00, 0.00, -0.00, -1.00, 448.2, 392.1)">n</text><text xml:space="preserve" font-family="GillSans-Light,Gill Sans" font-size="38.0" fill="#525252" transform="matrix(1.00, 0.00, -0.00, -1.00, 466.9, 392.1)">.</text><text xml:space="preserve" font-family="GillSans-Light,Gill Sans" font-size="31.2" fill="#525252" transform="matrix(1.00, 0.00, -0.00, -1.00, 32.0, 313.4)">•</text><text xml:space="preserve" font-family="GillSans-Light,Gill Sans" font-size="38.0" fill="#525252" transform="matrix(1.00, 0.00, -0.00, -1.00, 66.0, 311.1)">J</text><text xml:space="preserve" font-family="GillSans-Light,Gill Sans" font-size="38.0" fill="#525252" transform="matrix(1.00, 0.00, -0.00, -1.00, 73.9, 311.1)">S</text><text xml:space="preserve" font-family="GillSans-Light,Gill Sans" font-size="38.0" fill="#525252" transform="matrix(1.00, 0.00, -0.00, -1.00, 91.7, 311.1)">O</text><text xml:space="preserve" font-family="GillSans-Light,Gill Sans" font-size="38.0" fill="#525252" transform="matrix(1.00, 0.00, -0.00, -1.00, 123.0, 311.1)">N</text><text xml:space="preserve" font-family="GillSans-Light,Gill Sans" font-size="38.0" fill="#525252" transform="matrix(1.00, 0.00, -0.00, -1.00, 152.3, 311.1)"> </text><text xml:space="preserve" font-family="GillSans-Light,Gill Sans" font-size="38.0" fill="#525252" transform="matrix(1.00, 0.00, -0.00, -1.00, 162.9, 311.1)">r</text><text xml:space="preserve" font-family="GillSans-Light,Gill Sans" font-size="38.0" fill="#525252" transform="matrix(1.00, 0.00, -0.00, -1.00, 175.5, 311.1)">e</text><text xml:space="preserve" font-family="GillSans-Light,Gill Sans" font-size="38.0" fill="#525252" transform="matrix(1.00, 0.00, -0.00, -1.00, 193.7, 311.1)">s</text><text xml:space="preserve" font-family="GillSans-Light,Gill Sans" font-size="38.0" fill="#525252" transform="matrix(1.00, 0.00, -0.00, -1.00, 207.2, 311.1)">p</text><text xml:space="preserve" font-family="GillSans-Light,Gill Sans" font-size="38.0" fill="#525252" transform="matrix(1.00, 0.00, -0.00, -1.00, 226.6, 311.1)">o</text><text xml:space="preserve" font-family="GillSans-Light,Gill Sans" font-size="38.0" fill="#525252" transform="matrix(1.00, 0.00, -0.00, -1.00, 247.1, 311.1)">n</text><text xml:space="preserve" font-family="GillSans-Light,Gill Sans" font-size="38.0" fill="#525252" transform="matrix(1.00, 0.00, -0.00, -1.00, 265.8, 311.1)">s</text><text xml:space="preserve" font-family="GillSans-Light,Gill Sans" font-size="38.0" fill="#525252" transform="matrix(1.00, 0.00, -0.00, -1.00, 279.2, 311.1)">e</text><text xml:space="preserve" font-family="GillSans-Light,Gill Sans" font-size="38.0" fill="#525252" transform="matrix(1.00, 0.00, -0.00, -1.00, 298.6, 311.1)">.</text><text xml:space="preserve" font-family="GillSans-Light,Gill Sans" font-size="31.2" fill="#525252" transform="matrix(1.00, 0.00, -0.00, -1.00, 32.0, 232.4)">•</text><text xml:space="preserve" font-family="GillSans-Light,Gill Sans" font-size="38.0" fill="#525252" transform="matrix(1.00, 0.00, -0.00, -1.00, 66.0, 230.1)">L</text><text xml:space="preserve" font-family="GillSans-Light,Gill Sans" font-size="38.0" fill="#525252" transform="matrix(1.00, 0.00, -0.00, -1.00, 83.8, 230.1)">o</text><text xml:space="preserve" font-family="GillSans-Light,Gill Sans" font-size="38.0" fill="#525252" transform="matrix(1.00, 0.00, -0.00, -1.00, 104.4, 230.1)">g</text><text xml:space="preserve" font-family="GillSans-Light,Gill Sans" font-size="38.0" fill="#525252" transform="matrix(1.00, 0.00, -0.00, -1.00, 120.6, 230.1)">i</text><text xml:space="preserve" font-family="GillSans-Light,Gill Sans" font-size="38.0" fill="#525252" transform="matrix(1.00, 0.00, -0.00, -1.00, 127.8, 230.1)">c</text><text xml:space="preserve" font-family="GillSans-Light,Gill Sans" font-size="38.0" fill="#525252" transform="matrix(1.00, 0.00, -0.00, -1.00, 143.6, 230.1)"> </text><text xml:space="preserve" font-family="GillSans-Light,Gill Sans" font-size="38.0" fill="#525252" transform="matrix(1.00, 0.00, -0.00, -1.00, 154.2, 230.1)">v</text><text xml:space="preserve" font-family="GillSans-Light,Gill Sans" font-size="38.0" fill="#525252" transform="matrix(1.00, 0.00, -0.00, -1.00, 170.4, 230.1)">a</text><text xml:space="preserve" font-family="GillSans-Light,Gill Sans" font-size="38.0" fill="#525252" transform="matrix(1.00, 0.00, -0.00, -1.00, 186.6, 230.1)">r</text><text xml:space="preserve" font-family="GillSans-Light,Gill Sans" font-size="38.0" fill="#525252" transform="matrix(1.00, 0.00, -0.00, -1.00, 200.2, 230.1)">i</text><text xml:space="preserve" font-family="GillSans-Light,Gill Sans" font-size="38.0" fill="#525252" transform="matrix(1.00, 0.00, -0.00, -1.00, 207.3, 230.1)">a</text><text xml:space="preserve" font-family="GillSans-Light,Gill Sans" font-size="38.0" fill="#525252" transform="matrix(1.00, 0.00, -0.00, -1.00, 223.6, 230.1)">t</text><text xml:space="preserve" font-family="GillSans-Light,Gill Sans" font-size="38.0" fill="#525252" transform="matrix(1.00, 0.00, -0.00, -1.00, 235.0, 230.1)">i</text><text xml:space="preserve" font-family="GillSans-Light,Gill Sans" font-size="38.0" fill="#525252" transform="matrix(1.00, 0.00, -0.00, -1.00, 242.2, 230.1)">o</text><text xml:space="preserve" font-family="GillSans-Light,Gill Sans" font-size="38.0" fill="#525252" transform="matrix(1.00, 0.00, -0.00, -1.00, 262.8, 230.1)">n</text><text xml:space="preserve" font-family="GillSans-Light,Gill Sans" font-size="38.0" fill="#525252" transform="matrix(1.00, 0.00, -0.00, -1.00, 281.4, 230.1)"> </text><text xml:space="preserve" font-family="GillSans-Light,Gill Sans" font-size="38.0" fill="#525252" transform="matrix(1.00, 0.00, -0.00, -1.00, 291.9, 230.1)">d</text><text xml:space="preserve" font-family="GillSans-Light,Gill Sans" font-size="38.0" fill="#525252" transform="matrix(1.00, 0.00, -0.00, -1.00, 311.3, 230.1)">e</text><text xml:space="preserve" font-family="GillSans-Light,Gill Sans" font-size="38.0" fill="#525252" transform="matrix(1.00, 0.00, -0.00, -1.00, 329.5, 230.1)">p</text><text xml:space="preserve" font-family="GillSans-Light,Gill Sans" font-size="38.0" fill="#525252" transform="matrix(1.00, 0.00, -0.00, -1.00, 348.9, 230.1)">e</text><text xml:space="preserve" font-family="GillSans-Light,Gill Sans" font-size="38.0" fill="#525252" transform="matrix(1.00, 0.00, -0.00, -1.00, 367.1, 230.1)">n</text><text xml:space="preserve" font-family="GillSans-Light,Gill Sans" font-size="38.0" fill="#525252" transform="matrix(1.00, 0.00, -0.00, -1.00, 385.7, 230.1)">d</text><text xml:space="preserve" font-family="GillSans-Light,Gill Sans" font-size="38.0" fill="#525252" transform="matrix(1.00, 0.00, -0.00, -1.00, 405.1, 230.1)">s</text><text xml:space="preserve" font-family="GillSans-Light,Gill Sans" font-size="38.0" fill="#525252" transform="matrix(1.00, 0.00, -0.00, -1.00, 418.5, 230.1)"> </text><text xml:space="preserve" font-family="GillSans-Light,Gill Sans" font-size="38.0" fill="#525252" transform="matrix(1.00, 0.00, -0.00, -1.00, 429.1, 230.1)">o</text><text xml:space="preserve" font-family="GillSans-Light,Gill Sans" font-size="38.0" fill="#525252" transform="matrix(1.00, 0.00, -0.00, -1.00, 449.7, 230.1)">n</text><text xml:space="preserve" font-family="GillSans-Light,Gill Sans" font-size="38.0" fill="#525252" transform="matrix(1.00, 0.00, -0.00, -1.00, 468.3, 230.1)"> </text><text xml:space="preserve" font-family="GillSans-Light,Gill Sans" font-size="38.0" fill="#525252" transform="matrix(1.00, 0.00, -0.00, -1.00, 66.0, 187.1)">f</text><text xml:space="preserve" font-family="GillSans-Light,Gill Sans" font-size="38.0" fill="#525252" transform="matrix(1.00, 0.00, -0.00, -1.00, 74.8, 187.1)">o</text><text xml:space="preserve" font-family="GillSans-Light,Gill Sans" font-size="38.0" fill="#525252" transform="matrix(1.00, 0.00, -0.00, -1.00, 95.4, 187.1)">r</text><text xml:space="preserve" font-family="GillSans-Light,Gill Sans" font-size="38.0" fill="#525252" transform="matrix(1.00, 0.00, -0.00, -1.00, 109.0, 187.1)">m</text><text xml:space="preserve" font-family="GillSans-Light,Gill Sans" font-size="38.0" fill="#525252" transform="matrix(1.00, 0.00, -0.00, -1.00, 138.3, 187.1)"> </text><text xml:space="preserve" font-family="GillSans-Light,Gill Sans" font-size="38.0" fill="#525252" transform="matrix(1.00, 0.00, -0.00, -1.00, 148.8, 187.1)">d</text><text xml:space="preserve" font-family="GillSans-Light,Gill Sans" font-size="38.0" fill="#525252" transform="matrix(1.00, 0.00, -0.00, -1.00, 168.2, 187.1)">a</text><text xml:space="preserve" font-family="GillSans-Light,Gill Sans" font-size="38.0" fill="#525252" transform="matrix(1.00, 0.00, -0.00, -1.00, 184.4, 187.1)">t</text><text xml:space="preserve" font-family="GillSans-Light,Gill Sans" font-size="38.0" fill="#525252" transform="matrix(1.00, 0.00, -0.00, -1.00, 195.8, 187.1)">a</text><text xml:space="preserve" font-family="GillSans-Light,Gill Sans" font-size="38.0" fill="#525252" transform="matrix(1.00, 0.00, -0.00, -1.00, 212.1, 187.1)"> </text><text xml:space="preserve" font-family="GillSans-Light,Gill Sans" font-size="38.0" fill="#525252" transform="matrix(1.00, 0.00, -0.00, -1.00, 222.6, 187.1)">p</text><text xml:space="preserve" font-family="GillSans-Light,Gill Sans" font-size="38.0" fill="#525252" transform="matrix(1.00, 0.00, -0.00, -1.00, 242.0, 187.1)">a</text><text xml:space="preserve" font-family="GillSans-Light,Gill Sans" font-size="38.0" fill="#525252" transform="matrix(1.00, 0.00, -0.00, -1.00, 258.2, 187.1)">s</text><text xml:space="preserve" font-family="GillSans-Light,Gill Sans" font-size="38.0" fill="#525252" transform="matrix(1.00, 0.00, -0.00, -1.00, 271.6, 187.1)">s</text><text xml:space="preserve" font-family="GillSans-Light,Gill Sans" font-size="38.0" fill="#525252" transform="matrix(1.00, 0.00, -0.00, -1.00, 285.1, 187.1)">e</text><text xml:space="preserve" font-family="GillSans-Light,Gill Sans" font-size="38.0" fill="#525252" transform="matrix(1.00, 0.00, -0.00, -1.00, 303.3, 187.1)">d</text><text xml:space="preserve" font-family="GillSans-Light,Gill Sans" font-size="38.0" fill="#525252" transform="matrix(1.00, 0.00, -0.00, -1.00, 322.6, 187.1)"> </text><text xml:space="preserve" font-family="GillSans-Light,Gill Sans" font-size="38.0" fill="#525252" transform="matrix(1.00, 0.00, -0.00, -1.00, 333.2, 187.1)">i</text><text xml:space="preserve" font-family="GillSans-Light,Gill Sans" font-size="38.0" fill="#525252" transform="matrix(1.00, 0.00, -0.00, -1.00, 340.3, 187.1)">n</text><text xml:space="preserve" font-family="GillSans-Light,Gill Sans" font-size="38.0" fill="#525252" transform="matrix(1.00, 0.00, -0.00, -1.00, 359.0, 187.1)"> </text><text xml:space="preserve" font-family="GillSans-Light,Gill Sans" font-size="38.0" fill="#525252" transform="matrix(1.00, 0.00, -0.00, -1.00, 369.5, 187.1)">P</text><text xml:space="preserve" font-family="GillSans-Light,Gill Sans" font-size="38.0" fill="#525252" transform="matrix(1.00, 0.00, -0.00, -1.00, 388.9, 187.1)">O</text><text xml:space="preserve" font-family="GillSans-Light,Gill Sans" font-size="38.0" fill="#525252" transform="matrix(1.00, 0.00, -0.00, -1.00, 420.2, 187.1)">S</text><text xml:space="preserve" font-family="GillSans-Light,Gill Sans" font-size="38.0" fill="#525252" transform="matrix(1.00, 0.00, -0.00, -1.00, 438.0, 187.1)">T</text><text xml:space="preserve" font-family="GillSans-Light,Gill Sans" font-size="31.2" fill="#525252" transform="matrix(1.00, 0.00, -0.00, -1.00, 32.0, 108.4)">•</text><text xml:space="preserve" font-family="GillSans-Light,Gill Sans" font-size="38.0" fill="#525252" transform="matrix(1.00, 0.00, -0.00, -1.00, 66.0, 106.1)">I</text><text xml:space="preserve" font-family="GillSans-Light,Gill Sans" font-size="38.0" fill="#525252" transform="matrix(1.00, 0.00, -0.00, -1.00, 73.9, 106.1)">n</text><text xml:space="preserve" font-family="GillSans-Light,Gill Sans" font-size="38.0" fill="#525252" transform="matrix(1.00, 0.00, -0.00, -1.00, 92.5, 106.1)">t</text><text xml:space="preserve" font-family="GillSans-Light,Gill Sans" font-size="38.0" fill="#525252" transform="matrix(1.00, 0.00, -0.00, -1.00, 104.0, 106.1)">e</text><text xml:space="preserve" font-family="GillSans-Light,Gill Sans" font-size="38.0" fill="#525252" transform="matrix(1.00, 0.00, -0.00, -1.00, 122.2, 106.1)">n</text><text xml:space="preserve" font-family="GillSans-Light,Gill Sans" font-size="38.0" fill="#525252" transform="matrix(1.00, 0.00, -0.00, -1.00, 140.8, 106.1)">d</text><text xml:space="preserve" font-family="GillSans-Light,Gill Sans" font-size="38.0" fill="#525252" transform="matrix(1.00, 0.00, -0.00, -1.00, 160.2, 106.1)">e</text><text xml:space="preserve" font-family="GillSans-Light,Gill Sans" font-size="38.0" fill="#525252" transform="matrix(1.00, 0.00, -0.00, -1.00, 178.4, 106.1)">d</text><text xml:space="preserve" font-family="GillSans-Light,Gill Sans" font-size="38.0" fill="#525252" transform="matrix(1.00, 0.00, -0.00, -1.00, 197.8, 106.1)"> </text><text xml:space="preserve" font-family="GillSans-Light,Gill Sans" font-size="38.0" fill="#525252" transform="matrix(1.00, 0.00, -0.00, -1.00, 208.3, 106.1)">f</text><text xml:space="preserve" font-family="GillSans-Light,Gill Sans" font-size="38.0" fill="#525252" transform="matrix(1.00, 0.00, -0.00, -1.00, 217.1, 106.1)">o</text><text xml:space="preserve" font-family="GillSans-Light,Gill Sans" font-size="38.0" fill="#525252" transform="matrix(1.00, 0.00, -0.00, -1.00, 237.7, 106.1)">r</text><text xml:space="preserve" font-family="GillSans-Light,Gill Sans" font-size="38.0" fill="#525252" transform="matrix(1.00, 0.00, -0.00, -1.00, 250.3, 106.1)"> </text><text xml:space="preserve" font-family="GillSans-Light,Gill Sans" font-size="38.0" fill="#525252" transform="matrix(1.00, 0.00, -0.00, -1.00, 260.9, 106.1)">i</text><text xml:space="preserve" font-family="GillSans-Light,Gill Sans" font-size="38.0" fill="#525252" transform="matrix(1.00, 0.00, -0.00, -1.00, 268.0, 106.1)">n</text><text xml:space="preserve" font-family="GillSans-Light,Gill Sans" font-size="38.0" fill="#525252" transform="matrix(1.00, 0.00, -0.00, -1.00, 286.7, 106.1)">t</text><text xml:space="preserve" font-family="GillSans-Light,Gill Sans" font-size="38.0" fill="#525252" transform="matrix(1.00, 0.00, -0.00, -1.00, 298.1, 106.1)">e</text><text xml:space="preserve" font-family="GillSans-Light,Gill Sans" font-size="38.0" fill="#525252" transform="matrix(1.00, 0.00, -0.00, -1.00, 316.3, 106.1)">r</text><text xml:space="preserve" font-family="GillSans-Light,Gill Sans" font-size="38.0" fill="#525252" transform="matrix(1.00, 0.00, -0.00, -1.00, 329.9, 106.1)">n</text><text xml:space="preserve" font-family="GillSans-Light,Gill Sans" font-size="38.0" fill="#525252" transform="matrix(1.00, 0.00, -0.00, -1.00, 348.6, 106.1)">a</text><text xml:space="preserve" font-family="GillSans-Light,Gill Sans" font-size="38.0" fill="#525252" transform="matrix(1.00, 0.00, -0.00, -1.00, 364.8, 106.1)">l</text><text xml:space="preserve" font-family="GillSans-Light,Gill Sans" font-size="38.0" fill="#525252" transform="matrix(1.00, 0.00, -0.00, -1.00, 371.9, 106.1)"> </text><text xml:space="preserve" font-family="GillSans-Light,Gill Sans" font-size="38.0" fill="#525252" transform="matrix(1.00, 0.00, -0.00, -1.00, 382.5, 106.1)">c</text><text xml:space="preserve" font-family="GillSans-Light,Gill Sans" font-size="38.0" fill="#525252" transform="matrix(1.00, 0.00, -0.00, -1.00, 398.3, 106.1)">a</text><text xml:space="preserve" font-family="GillSans-Light,Gill Sans" font-size="38.0" fill="#525252" transform="matrix(1.00, 0.00, -0.00, -1.00, 414.5, 106.1)">l</text><text xml:space="preserve" font-family="GillSans-Light,Gill Sans" font-size="38.0" fill="#525252" transform="matrix(1.00, 0.00, -0.00, -1.00, 421.7, 106.1)">l</text><text xml:space="preserve" font-family="GillSans-Light,Gill Sans" font-size="38.0" fill="#525252" transform="matrix(1.00, 0.00, -0.00, -1.00, 428.8, 106.1)">s</text><image xlink:href="968E3CF480CCDE9C4CC325C53FA1EC0B.png" width="879.00" height="996.00" transform="matrix(0.63, 0.00, -0.00, -0.62, 474.0, 616.0)"></image><path d="M 700.6 514.0 C 701.4 513.9 704.8 513.7 704.8 513.6 C 703.6 513.8 700.8 513.9 700.6 514.0 C 700.6 514.0 700.6 514.0 700.6 514.0 Z M 693.5 514.4 C 694.8 514.4 697.6 514.2 698.5 514.1 C 697.0 514.2 694.0 514.4 693.5 514.4 C 693.5 514.4 693.5 514.4 693.5 514.4 Z M 704.2 513.6 C 706.1 513.4 709.4 513.2 710.2 513.1 C 708.4 513.2 705.1 513.5 704.2 513.6 C 704.2 513.6 704.2 513.6 704.2 513.6 Z M 605.8 511.9 C 606.5 512.0 609.5 512.5 609.5 512.4 C 608.4 512.3 606.0 511.9 605.8 511.9 C 605.8 511.9 605.8 511.9 605.8 511.9 Z M 623.4 513.9 C 624.6 514.0 627.3 514.2 628.2 514.3 C 626.7 514.2 623.8 513.9 623.4 513.9 C 623.4 513.9 623.4 513.9 623.4 513.9 Z M 634.4 514.8 C 637.1 514.9 639.9 515.1 639.4 515.0 C 638.6 515.0 634.7 514.7 634.4 514.8 C 634.4 514.8 634.4 514.8 634.4 514.8 Z M 701.9 511.6 C 699.1 511.8 697.1 511.9 695.1 512.0 C 685.6 512.6 700.0 511.8 701.9 511.6 C 701.9 511.6 701.9 511.6 701.9 511.6 Z M 654.9 515.5 C 652.9 515.4 651.3 515.4 650.4 515.4 C 652.2 515.4 654.8 515.5 654.9 515.5 C 654.9 515.5 654.9 515.5 654.9 515.5 Z M 672.1 515.5 C 672.5 515.5 682.7 515.3 688.3 515.1 C 683.6 515.3 671.7 515.5 672.1 515.5 C 672.1 515.5 672.1 515.5 672.1 515.5 Z M 678.7 512.6 C 672.2 512.8 661.6 512.8 656.9 512.8 C 652.1 512.7 665.4 513.0 677.5 512.8 C 689.6 512.5 679.6 512.6 684.5 512.4 C 689.4 512.3 679.8 512.6 674.9 512.7 C 670.0 512.8 678.2 512.6 678.7 512.6 C 678.7 512.6 678.7 512.6 678.7 512.6 Z M 679.0 512.4 C 681.4 512.4 683.4 512.3 684.8 512.2 C 682.4 512.3 680.0 512.4 679.0 512.4 C 679.0 512.4 679.0 512.4 679.0 512.4 Z M 733.8 508.9 C 735.2 509.2 744.2 507.9 750.3 506.0 C 751.8 505.5 753.1 505.0 754.3 504.5 C 758.5 502.4 760.9 499.4 759.5 496.4 C 758.1 493.3 754.2 491.3 748.0 489.2 C 745.5 488.4 742.7 487.7 739.4 486.9 C 738.1 486.6 736.8 486.4 735.4 486.1 C 734.0 485.8 732.2 485.5 731.5 485.4 C 730.1 485.1 728.7 484.9 727.3 484.7 C 724.4 484.2 721.4 483.8 718.3 483.5 C 716.2 483.2 714.1 483.0 711.9 482.8 C 704.1 481.9 696.1 481.5 687.8 481.1 C 683.6 481.0 679.3 480.8 674.9 480.7 C 672.7 480.6 663.2 480.6 659.8 480.7 C 663.0 480.5 647.5 480.9 648.2 480.9 C 646.5 481.0 644.7 481.1 642.9 481.2 C 641.2 481.3 643.4 481.2 645.7 481.1 C 643.7 481.2 641.7 481.3 639.7 481.4 C 637.6 481.5 635.5 481.6 633.4 481.8 C 626.5 482.2 619.3 482.9 613.5 483.7 C 611.6 483.9 609.2 484.2 606.6 484.6 C 605.4 484.8 604.0 485.0 602.7 485.2 C 602.0 485.3 601.4 485.4 600.0 485.7 C 598.6 485.9 597.2 486.2 595.8 486.5 C 585.2 488.7 578.1 491.3 575.0 494.4 C 573.4 495.9 572.8 497.9 573.3 499.6 C 573.7 501.2 574.8 502.3 575.8 503.0 C 577.8 504.6 579.1 505.1 577.6 504.2 C 574.2 502.2 574.3 501.4 574.5 501.6 C 574.6 501.8 575.5 502.7 576.3 503.2 C 577.2 503.9 578.6 504.7 580.6 505.6 C 580.5 505.6 580.4 505.6 580.1 505.4 C 581.9 506.3 584.6 507.3 588.2 508.3 C 589.9 508.8 592.0 509.3 594.2 509.8 C 595.3 510.0 596.5 510.3 597.7 510.5 C 598.9 510.7 600.8 511.1 601.5 511.2 C 601.0 511.1 599.5 510.8 598.5 510.6 C 597.6 510.5 596.8 510.3 596.4 510.2 C 601.2 511.2 597.3 510.3 600.7 510.9 C 601.9 511.1 602.2 511.2 602.7 511.3 C 603.2 511.3 603.6 511.4 604.0 511.5 C 604.8 511.6 605.3 511.7 605.6 511.7 C 606.0 511.8 605.2 511.7 602.6 511.2 C 607.5 512.0 610.9 512.4 616.3 512.9 C 618.4 513.2 617.2 513.0 616.6 513.0 C 620.2 513.4 629.0 514.2 629.8 514.2 C 630.2 514.3 624.2 513.8 618.9 513.3 C 613.6 512.7 609.1 512.1 611.1 512.4 C 612.7 512.6 616.1 513.0 617.5 513.2 C 614.5 512.9 611.0 512.4 609.2 512.2 C 611.1 512.5 613.9 512.8 615.5 513.0 C 613.6 512.8 612.2 512.6 611.7 512.6 C 614.5 513.0 616.6 513.2 620.1 513.6 C 621.7 513.7 618.8 513.4 622.1 513.7 C 622.7 513.7 619.9 513.5 620.1 513.5 C 622.8 513.7 628.3 514.2 629.6 514.3 C 631.0 514.4 626.3 514.0 626.2 514.0 C 636.8 514.9 649.9 515.3 653.9 515.4 C 658.0 515.5 654.2 515.4 652.5 515.4 C 657.2 515.5 660.8 515.5 666.5 515.5 C 670.1 515.5 668.7 515.5 667.3 515.5 C 668.2 515.5 669.1 515.5 669.7 515.5 C 670.1 515.5 671.1 515.4 671.8 515.4 C 669.6 515.4 665.4 515.5 663.6 515.4 C 666.9 515.4 674.9 515.4 677.7 515.3 C 673.2 515.3 668.2 515.4 663.1 515.3 C 673.1 515.4 683.4 515.2 691.3 514.8 C 689.9 514.8 689.2 514.8 688.1 514.8 C 691.1 514.8 695.5 514.6 698.1 514.3 C 699.5 514.2 702.4 514.0 705.1 513.8 C 700.3 514.2 696.9 514.3 693.4 514.6 C 693.4 514.5 693.8 514.5 694.4 514.5 C 686.4 514.8 681.8 515.1 675.9 515.2 C 675.5 515.2 675.0 515.2 674.6 515.2 C 672.7 515.2 679.3 515.1 680.0 515.1 C 671.4 515.3 661.9 515.2 657.7 515.1 C 667.9 515.3 677.0 515.1 684.7 514.8 C 682.7 514.8 675.0 515.1 671.3 515.1 C 688.1 514.9 689.6 514.5 691.0 514.5 C 689.7 514.5 688.4 514.6 687.1 514.6 C 687.4 514.6 687.8 514.6 688.1 514.5 C 695.3 514.2 703.5 513.6 703.1 513.7 C 702.8 513.7 696.4 514.1 689.5 514.4 C 690.2 514.4 690.9 514.3 691.7 514.3 C 699.8 513.9 708.6 513.1 715.9 512.3 C 714.7 512.4 715.4 512.3 716.9 512.1 C 714.6 512.4 711.3 512.7 708.7 512.9 C 709.6 512.8 711.1 512.7 711.6 512.6 C 710.4 512.7 708.4 512.9 707.7 512.9 C 711.3 512.6 715.1 512.2 718.7 511.7 C 719.4 511.6 717.1 511.9 717.3 511.9 C 720.8 511.5 725.3 510.8 727.6 510.4 C 725.0 510.8 719.5 511.6 717.8 511.7 C 718.9 511.6 720.0 511.4 721.2 511.3 C 723.4 511.0 724.5 510.8 722.0 511.1 C 720.6 511.3 720.6 511.3 721.0 511.2 C 722.5 511.0 727.8 510.3 727.6 510.2 C 726.3 510.4 721.0 511.1 719.6 511.3 C 720.6 511.1 723.4 510.8 723.7 510.7 C 717.8 511.5 717.9 511.4 716.3 511.6 C 717.0 511.5 718.7 511.3 718.7 511.4 C 714.9 511.8 711.0 512.2 706.9 512.6 C 706.9 512.6 706.9 512.6 706.9 512.6 C 706.9 512.6 706.9 512.6 706.9 512.6 C 706.9 512.6 706.9 512.6 706.9 512.6 C 707.2 512.5 707.1 512.5 706.7 512.5 C 708.5 512.3 710.3 512.1 713.5 511.8 C 712.6 511.8 709.7 512.1 706.9 512.4 C 706.9 512.4 707.0 512.4 707.0 512.4 C 711.5 512.0 718.1 511.2 722.3 510.7 C 720.4 510.9 713.1 511.7 707.8 512.2 C 708.0 512.2 708.2 512.2 708.3 512.1 C 701.7 512.7 693.6 513.2 685.6 513.5 C 689.5 513.3 693.9 513.1 698.7 512.8 C 700.9 512.7 702.9 512.5 705.0 512.3 C 711.0 511.8 727.2 509.8 728.9 509.5 C 730.7 509.2 714.7 511.3 714.6 511.3 C 714.5 511.3 722.3 510.4 718.7 510.8 C 716.8 511.1 712.5 511.5 709.3 511.8 C 709.2 511.8 709.1 511.8 709.0 511.7 C 711.8 511.5 715.0 511.1 715.1 511.2 C 716.4 511.0 719.2 510.8 719.6 510.7 C 719.1 510.7 718.5 510.8 718.5 510.8 C 719.1 510.7 720.0 510.6 720.1 510.6 C 717.0 510.9 712.5 511.4 708.8 511.7 C 708.5 511.7 708.2 511.7 707.9 511.8 C 708.0 511.7 710.8 511.5 713.2 511.2 C 715.7 510.9 710.5 511.5 706.2 511.8 C 705.5 511.9 704.8 511.9 704.1 511.9 C 705.6 511.8 707.3 511.7 709.3 511.5 C 711.7 511.2 711.6 511.2 713.9 510.9 C 709.7 511.4 704.4 511.8 700.1 512.1 C 698.5 512.2 696.9 512.3 695.2 512.3 C 698.9 512.1 702.2 511.8 704.1 511.6 C 705.7 511.5 707.3 511.4 707.9 511.3 C 706.5 511.4 710.2 511.1 709.6 511.1 C 707.6 511.3 703.5 511.6 701.9 511.8 C 698.6 512.0 694.9 512.2 691.6 512.4 C 691.2 512.4 690.8 512.4 690.3 512.5 C 693.1 512.3 695.8 512.2 698.7 511.9 C 697.4 512.0 689.2 512.4 683.1 512.7 C 670.7 513.0 657.7 513.2 645.4 512.7 C 644.8 512.7 644.1 512.7 643.3 512.6 C 642.5 512.6 641.6 512.5 640.7 512.4 C 643.6 512.6 646.2 512.7 648.4 512.7 C 639.6 512.4 661.1 513.0 662.5 512.9 C 648.0 512.7 621.7 511.2 608.2 509.2 C 611.4 509.7 612.5 509.8 609.0 509.3 C 608.0 509.2 607.1 509.0 606.1 508.9 C 619.7 510.9 636.6 512.2 650.0 512.5 C 642.0 512.3 630.5 511.6 627.4 511.2 C 629.5 511.4 632.8 511.6 633.2 511.6 C 629.3 511.3 616.9 510.2 613.4 509.8 C 630.2 511.8 657.3 512.8 671.9 512.6 C 660.9 512.7 647.8 512.4 635.8 511.7 C 623.9 511.0 613.2 509.8 605.7 508.6 C 608.3 509.1 608.3 509.1 607.0 508.9 C 604.6 508.6 602.7 508.3 598.2 507.4 C 593.8 506.6 589.9 505.6 586.8 504.7 C 585.5 504.2 585.7 504.4 589.1 505.3 C 591.9 506.1 593.8 506.5 594.9 506.7 C 593.8 506.4 587.4 504.8 584.6 503.8 C 583.2 503.3 582.4 503.0 582.6 503.1 C 582.9 503.2 584.0 503.8 588.1 505.0 C 590.2 505.6 592.7 506.2 595.6 506.8 C 597.1 507.1 598.7 507.4 600.4 507.7 C 602.1 508.0 602.8 508.2 603.6 508.3 C 606.9 508.8 610.3 509.3 613.0 509.6 C 618.4 510.3 620.7 510.5 614.4 509.8 C 608.0 509.0 604.0 508.3 602.2 508.0 C 601.3 507.8 599.9 507.5 600.4 507.6 C 601.0 507.7 602.4 508.0 604.0 508.2 C 607.2 508.7 614.2 509.7 619.9 510.2 C 625.5 510.8 629.6 511.1 625.6 510.7 C 621.7 510.4 615.7 509.8 609.9 509.0 C 608.5 508.8 607.1 508.6 605.7 508.4 C 605.1 508.3 604.4 508.2 603.7 508.0 C 603.1 507.9 602.9 507.9 601.6 507.7 C 596.4 506.7 592.2 505.8 589.2 505.0 C 583.2 503.3 585.5 503.9 586.7 504.3 C 587.3 504.5 587.7 504.7 587.0 504.5 C 586.3 504.3 584.2 503.7 581.4 502.5 C 578.6 501.2 578.0 500.5 577.7 500.2 C 577.3 499.9 577.4 500.0 577.5 500.1 C 577.8 500.3 578.9 501.1 578.3 500.6 C 576.3 499.2 574.8 498.3 578.8 495.7 C 581.6 493.9 589.3 491.4 594.2 490.4 C 594.1 490.4 588.3 491.8 585.0 492.9 C 581.7 494.1 579.9 494.9 582.7 493.8 C 586.0 492.4 591.0 491.0 596.8 489.9 C 598.2 489.6 599.7 489.3 601.2 489.0 C 602.7 488.7 603.0 488.7 603.7 488.6 C 605.1 488.4 606.4 488.2 607.6 488.0 C 612.2 487.3 614.6 487.0 611.4 487.4 C 620.0 486.3 627.1 485.7 633.2 485.3 C 642.6 484.7 654.2 484.4 655.5 484.4 C 657.0 484.4 684.3 484.3 694.2 485.1 C 694.9 485.1 712.0 486.4 713.5 486.5 C 721.2 487.3 724.2 487.8 727.1 488.3 C 727.9 488.4 728.6 488.5 729.4 488.6 C 730.2 488.8 730.7 488.8 732.6 489.2 C 736.6 489.9 741.1 490.8 745.8 492.2 C 753.5 494.5 755.1 496.2 755.9 497.0 C 756.8 497.9 756.6 498.1 756.7 498.2 C 756.8 499.2 754.9 500.8 753.1 501.7 C 751.4 502.6 750.1 503.3 746.2 504.7 C 743.8 505.5 739.3 506.5 737.7 507.0 C 734.4 508.0 732.6 508.7 733.8 508.9 C 733.8 508.9 733.8 508.9 733.8 508.9 Z M 705.0 512.8 C 707.5 512.6 711.9 512.2 714.5 512.0 C 711.6 512.3 708.0 512.6 704.1 512.9 C 704.4 512.9 704.7 512.8 705.0 512.8 C 705.0 512.8 705.0 512.8 705.0 512.8 Z M 685.0 513.1 C 686.8 513.0 688.9 513.0 690.9 512.9 C 692.8 512.8 694.7 512.7 697.5 512.5 C 697.2 512.5 692.6 512.7 689.0 512.9 C 689.0 512.9 689.0 512.9 689.0 512.8 C 690.8 512.7 692.8 512.6 695.3 512.5 C 696.1 512.4 696.9 512.4 697.8 512.4 C 697.9 512.4 696.6 512.5 696.1 512.5 C 696.7 512.5 698.9 512.4 701.6 512.2 C 701.9 512.2 702.3 512.2 702.6 512.2 C 703.0 512.2 700.9 512.4 703.2 512.2 C 701.6 512.4 697.4 512.6 694.7 512.8 C 697.7 512.5 686.2 513.1 683.3 513.2 C 683.9 513.1 684.5 513.1 685.0 513.1 Z M 662.5 515.3 C 660.9 515.3 659.3 515.3 657.6 515.3 C 660.0 515.3 661.8 515.3 663.5 515.3 C 663.1 515.3 662.8 515.3 662.5 515.3 Z M 601.9 485.5 C 601.0 485.7 598.3 486.2 596.1 486.6 C 593.9 487.1 591.7 487.6 589.7 488.1 C 585.6 489.2 582.1 490.4 579.6 491.6 C 574.6 494.0 573.6 496.7 573.5 497.1 C 573.1 498.2 573.3 499.4 573.8 500.5 C 572.9 498.8 573.3 496.7 574.6 495.1 C 575.9 493.5 578.0 492.2 580.7 491.1 C 583.4 489.9 586.8 488.8 590.6 487.8 C 592.5 487.4 594.4 486.9 596.5 486.5 C 598.5 486.1 601.0 485.7 601.9 485.5 C 601.9 485.5 601.9 485.5 601.9 485.5 Z M 576.3 498.4 C 576.3 498.6 576.2 498.5 576.3 498.2 C 576.4 497.3 578.1 495.8 579.2 495.1 C 580.4 494.4 580.1 494.4 578.5 495.5 C 577.1 496.4 576.2 497.7 576.2 498.3 C 576.1 498.9 576.5 499.4 576.3 499.0 C 575.8 497.9 576.1 497.0 578.6 495.4 C 580.5 494.2 583.4 493.0 587.5 491.8 C 578.8 494.4 576.2 497.2 576.3 498.4 C 576.3 498.4 576.3 498.4 576.3 498.4 Z M 592.9 490.5 C 589.1 491.4 585.3 492.5 582.5 493.6 C 584.9 492.6 588.1 491.6 592.1 490.6 C 592.3 490.6 592.6 490.5 592.9 490.5 Z M 598.1 489.4 C 589.3 491.1 583.1 493.1 590.2 491.2 C 591.8 490.8 593.6 490.3 595.5 489.9 C 596.3 489.8 597.2 489.6 598.1 489.4 Z M 602.8 488.6 C 602.8 488.6 602.0 488.7 599.0 489.2 C 600.5 488.9 602.2 488.7 603.2 488.5 C 604.2 488.3 605.3 488.1 606.3 488.0 C 608.2 487.7 609.8 487.5 609.6 487.5 C 607.4 487.9 605.1 488.2 602.8 488.6 C 602.8 488.6 602.8 488.6 602.8 488.6 Z M 607.0 484.6 C 604.9 484.9 603.1 485.2 606.4 484.7 C 607.7 484.5 609.0 484.3 610.3 484.1 C 609.2 484.3 608.1 484.4 607.0 484.6 Z M 658.6 512.7 C 657.5 512.7 653.4 512.6 650.9 512.5 C 650.7 512.7 660.2 512.8 658.6 512.7 C 658.6 512.7 658.6 512.7 658.6 512.7 Z M 674.3 512.6 C 673.3 512.6 669.1 512.7 666.6 512.7 C 666.4 512.8 675.9 512.7 674.3 512.6 C 674.3 512.6 674.3 512.6 674.3 512.6 Z M 694.2 485.1 C 694.2 485.1 694.2 485.1 694.2 485.1 C 694.2 485.1 694.2 485.1 694.2 485.1 C 694.2 485.1 694.2 485.1 694.2 485.1 Z M 694.2 485.1 " fill="#EA3C43"></path><path d="M 717.5 356.4 C 718.5 356.4 722.5 356.1 722.5 356.1 C 721.0 356.2 717.8 356.4 717.5 356.4 C 717.5 356.4 717.5 356.4 717.5 356.4 Z M 709.3 356.9 C 710.8 356.8 714.1 356.6 715.1 356.6 C 713.4 356.7 709.9 356.8 709.3 356.9 C 709.3 356.9 709.3 356.9 709.3 356.9 Z M 721.8 356.0 C 723.9 355.9 727.8 355.6 728.7 355.5 C 726.7 355.7 722.8 355.9 721.8 356.0 C 721.8 356.0 721.8 356.0 721.8 356.0 Z M 606.6 354.5 C 607.4 354.6 610.9 355.1 610.9 355.0 C 609.6 354.9 606.8 354.5 606.6 354.5 C 606.6 354.5 606.6 354.5 606.6 354.5 Z M 627.3 356.4 C 628.7 356.6 631.8 356.8 632.8 356.8 C 631.1 356.7 627.8 356.4 627.3 356.4 C 627.3 356.4 627.3 356.4 627.3 356.4 Z M 640.2 357.3 C 643.3 357.4 646.7 357.6 646.0 357.5 C 645.0 357.5 640.5 357.2 640.2 357.3 C 640.2 357.3 640.2 357.3 640.2 357.3 Z M 719.1 354.0 C 715.9 354.2 713.5 354.3 711.2 354.4 C 700.0 355.0 717.0 354.2 719.1 354.0 C 719.1 354.0 719.1 354.0 719.1 354.0 Z M 664.2 357.9 C 661.8 357.9 660.0 357.9 658.9 357.9 C 661.0 357.9 664.0 358.0 664.2 357.9 C 664.2 357.9 664.2 357.9 664.2 357.9 Z M 684.3 358.0 C 684.8 358.0 696.7 357.8 703.2 357.5 C 697.7 357.7 683.7 357.9 684.3 358.0 C 684.3 358.0 684.3 358.0 684.3 358.0 Z M 692.1 355.1 C 684.4 355.3 672.0 355.3 666.4 355.2 C 660.9 355.2 676.4 355.5 690.6 355.2 C 704.7 354.9 693.1 355.1 698.8 354.9 C 704.5 354.7 693.3 355.0 687.5 355.1 C 681.8 355.2 691.4 355.1 692.1 355.1 C 692.1 355.1 692.1 355.1 692.1 355.1 Z M 692.4 354.9 C 695.2 354.8 697.6 354.8 699.1 354.7 C 696.3 354.7 693.5 354.8 692.4 354.9 C 692.4 354.9 692.4 354.9 692.4 354.9 Z M 756.5 351.3 C 758.1 351.6 768.9 350.3 776.0 348.4 C 777.8 347.9 779.3 347.4 780.7 346.8 C 783.2 345.8 784.9 344.7 786.0 343.3 C 787.1 341.9 787.2 339.9 786.2 338.4 C 784.3 335.4 779.5 333.4 771.7 331.3 C 768.7 330.5 765.1 329.8 761.0 329.0 C 757.9 328.5 754.2 327.9 752.6 327.7 C 750.9 327.4 749.3 327.2 747.6 327.0 C 744.2 326.6 740.6 326.2 737.0 325.8 C 734.5 325.6 732.1 325.3 729.5 325.1 C 720.3 324.3 711.0 323.9 701.3 323.6 C 696.4 323.4 691.4 323.2 686.2 323.1 C 683.6 323.0 672.4 323.0 668.5 323.1 C 672.3 323.0 654.2 323.4 655.0 323.3 C 653.0 323.5 650.9 323.5 648.8 323.6 C 646.8 323.7 649.4 323.6 652.0 323.6 C 649.7 323.7 647.4 323.8 645.0 323.9 C 642.6 324.0 640.1 324.1 637.7 324.2 C 629.6 324.7 621.3 325.4 614.5 326.1 C 612.2 326.4 609.4 326.7 606.5 327.0 C 605.0 327.2 603.4 327.4 601.9 327.7 C 601.1 327.8 600.3 327.9 598.6 328.1 C 596.9 328.4 595.3 328.7 593.7 328.9 C 581.0 331.2 572.7 333.8 569.1 337.0 C 567.4 338.5 566.8 340.8 567.5 342.5 C 568.2 344.1 569.6 345.1 570.9 345.9 C 573.4 347.4 574.9 347.9 573.1 347.0 C 568.8 345.0 568.9 344.3 569.1 344.5 C 569.3 344.6 570.4 345.5 571.4 346.1 C 572.5 346.7 574.3 347.5 576.8 348.4 C 576.7 348.4 576.5 348.4 576.2 348.2 C 578.5 349.1 581.8 350.1 586.2 351.1 C 588.5 351.6 591.0 352.1 593.8 352.6 C 596.5 353.1 600.0 353.6 601.4 353.8 C 600.9 353.7 600.3 353.6 599.1 353.4 C 598.0 353.3 597.0 353.1 596.5 353.0 C 599.5 353.5 599.9 353.5 599.9 353.5 C 600.0 353.5 600.1 353.5 601.0 353.6 C 606.4 354.4 609.0 354.7 602.7 353.8 C 608.5 354.6 612.5 354.9 618.9 355.5 C 621.3 355.7 620.0 355.6 619.3 355.5 C 623.5 356.0 633.8 356.7 634.7 356.8 C 635.2 356.8 628.2 356.4 622.0 355.8 C 615.8 355.3 610.4 354.7 612.8 355.0 C 614.7 355.2 618.7 355.6 620.3 355.7 C 616.8 355.4 612.7 355.0 610.6 354.8 C 612.9 355.1 616.1 355.4 618.0 355.6 C 615.7 355.4 614.2 355.2 613.5 355.2 C 616.8 355.5 619.3 355.8 623.4 356.1 C 625.2 356.2 621.8 355.9 625.7 356.2 C 626.4 356.3 623.2 356.0 623.4 356.0 C 626.5 356.3 633.0 356.7 634.6 356.8 C 636.2 356.9 630.6 356.6 630.5 356.5 C 643.0 357.4 658.3 357.8 663.0 357.9 C 667.8 358.0 663.3 357.9 661.3 357.8 C 666.9 357.9 671.1 358.0 677.7 358.0 C 681.9 358.0 680.2 357.9 678.6 357.9 C 679.8 357.9 680.8 357.9 681.4 357.9 C 681.9 357.9 683.1 357.9 683.9 357.9 C 681.3 357.9 676.5 357.9 674.4 357.9 C 678.2 357.9 687.5 357.8 690.9 357.7 C 685.5 357.8 679.8 357.8 673.7 357.8 C 685.5 357.8 697.5 357.7 706.6 357.2 C 705.0 357.3 704.3 357.3 702.9 357.3 C 706.4 357.2 711.6 357.0 714.6 356.8 C 716.3 356.7 719.6 356.4 722.9 356.2 C 717.2 356.6 713.2 356.8 709.1 357.0 C 709.2 357.0 709.6 356.9 710.3 356.9 C 701.0 357.3 695.6 357.5 688.7 357.7 C 688.2 357.7 687.7 357.7 687.2 357.7 C 685.0 357.7 692.7 357.5 693.5 357.5 C 683.4 357.7 672.4 357.7 667.4 357.6 C 679.4 357.7 690.0 357.6 698.9 357.3 C 696.6 357.3 687.6 357.5 683.3 357.5 C 703.0 357.3 704.7 357.0 706.3 356.9 C 704.8 356.9 703.4 357.0 701.8 357.0 C 702.2 357.0 702.6 357.0 703.0 357.0 C 711.4 356.7 721.0 356.1 720.5 356.1 C 720.1 356.1 712.7 356.6 704.6 356.9 C 705.4 356.8 706.3 356.8 707.1 356.7 C 716.6 356.3 727.0 355.5 735.5 354.7 C 734.1 354.8 734.8 354.8 736.6 354.6 C 733.9 354.8 730.0 355.1 727.0 355.3 C 728.1 355.2 729.9 355.1 730.5 355.0 C 729.0 355.1 726.6 355.3 725.9 355.3 C 730.1 355.0 734.5 354.6 738.7 354.2 C 739.6 354.0 736.9 354.4 737.1 354.3 C 741.1 353.9 746.5 353.3 749.2 352.9 C 746.1 353.3 739.7 354.0 737.6 354.2 C 739.0 354.0 740.3 353.9 741.6 353.7 C 744.3 353.4 745.5 353.3 742.6 353.6 C 741.0 353.7 741.0 353.7 741.4 353.7 C 743.2 353.5 749.3 352.7 749.1 352.7 C 747.6 352.9 741.4 353.6 739.8 353.7 C 741.0 353.5 744.2 353.2 744.5 353.1 C 737.7 353.9 737.8 353.8 736.0 354.0 C 736.8 354.0 738.8 353.8 738.7 353.8 C 734.3 354.2 729.8 354.6 724.9 355.0 C 724.9 355.0 724.9 355.0 724.9 355.0 C 724.9 355.0 724.9 355.0 724.9 355.0 C 724.9 355.0 724.9 355.0 724.9 355.0 C 725.3 354.9 725.2 354.9 724.7 354.9 C 726.8 354.7 728.9 354.6 732.7 354.3 C 731.6 354.3 728.2 354.6 725.0 354.8 C 725.0 354.8 725.0 354.8 725.0 354.8 C 730.3 354.4 738.0 353.7 742.9 353.1 C 740.7 353.3 732.2 354.2 726.0 354.6 C 726.2 354.6 726.4 354.6 726.6 354.6 C 718.9 355.2 709.4 355.6 700.1 355.9 C 704.6 355.7 709.8 355.6 715.4 355.2 C 718.0 355.1 720.3 354.9 722.8 354.7 C 726.2 354.5 733.0 354.0 738.9 353.4 C 744.7 352.8 749.6 352.1 750.6 352.0 C 752.8 351.6 734.1 353.8 734.0 353.8 C 733.9 353.8 743.0 352.8 738.7 353.3 C 736.5 353.5 731.5 354.0 727.8 354.3 C 727.7 354.2 727.6 354.2 727.4 354.2 C 730.7 353.9 734.4 353.6 734.6 353.6 C 736.1 353.5 739.3 353.2 739.8 353.1 C 739.3 353.1 738.5 353.2 738.5 353.2 C 739.2 353.1 740.3 353.0 740.4 353.0 C 736.7 353.4 731.5 353.8 727.2 354.2 C 726.9 354.2 726.5 354.2 726.1 354.2 C 726.2 354.2 729.5 353.9 732.3 353.6 C 735.3 353.4 729.2 353.9 724.1 354.3 C 723.3 354.3 722.5 354.3 721.7 354.4 C 723.5 354.2 725.5 354.1 727.8 353.9 C 730.6 353.7 730.5 353.6 733.2 353.4 C 728.2 353.8 722.1 354.2 717.0 354.6 C 715.1 354.6 713.2 354.7 711.3 354.7 C 715.6 354.5 719.5 354.2 721.8 354.1 C 723.6 353.9 725.5 353.8 726.2 353.7 C 724.5 353.8 728.9 353.5 728.2 353.5 C 725.8 353.7 721.0 354.0 719.2 354.2 C 715.3 354.5 711.0 354.7 707.1 354.8 C 706.6 354.9 706.1 354.9 705.6 354.9 C 708.9 354.8 712.0 354.6 715.4 354.4 C 713.9 354.4 704.3 354.9 697.1 355.1 C 682.6 355.4 667.4 355.7 653.0 355.2 C 652.4 355.2 651.5 355.2 650.6 355.1 C 649.5 355.1 648.5 355.0 647.4 354.9 C 650.9 355.1 654.0 355.2 656.5 355.2 C 646.2 354.9 671.3 355.5 673.0 355.4 C 664.5 355.3 652.4 355.1 640.5 354.4 C 628.6 353.8 617.2 352.8 609.2 351.8 C 613.1 352.3 614.4 352.4 610.2 351.9 C 609.1 351.8 608.0 351.6 606.8 351.5 C 622.8 353.4 642.7 354.7 658.4 355.0 C 649.1 354.8 635.5 354.1 631.8 353.7 C 634.4 353.9 638.2 354.1 638.7 354.2 C 634.1 353.8 619.5 352.8 615.4 352.3 C 635.2 354.3 667.0 355.3 684.0 355.0 C 671.1 355.2 655.8 354.9 641.8 354.2 C 627.7 353.5 615.1 352.3 606.3 351.2 C 609.4 351.6 609.4 351.6 607.8 351.5 C 606.4 351.3 605.0 351.1 603.7 351.0 C 602.3 350.8 601.3 350.6 598.5 350.2 C 592.9 349.3 588.1 348.4 584.1 347.4 C 582.5 347.0 582.8 347.1 587.0 348.1 C 590.5 348.8 593.0 349.3 594.4 349.5 C 592.9 349.2 584.9 347.6 581.3 346.6 C 579.5 346.1 578.5 345.7 578.8 345.8 C 579.2 345.9 580.6 346.5 585.8 347.7 C 588.4 348.3 591.6 349.0 595.3 349.6 C 596.2 349.7 597.1 349.9 598.1 350.1 C 599.1 350.2 600.5 350.4 601.0 350.5 C 601.9 350.6 602.9 350.8 603.9 350.9 C 607.8 351.4 611.8 351.9 614.9 352.2 C 621.3 352.8 624.0 353.1 616.5 352.3 C 601.4 350.8 596.7 349.8 604.2 350.8 C 608.0 351.3 616.3 352.2 623.0 352.8 C 629.7 353.3 634.4 353.6 629.8 353.3 C 625.1 352.9 618.0 352.3 611.3 351.6 C 607.9 351.2 604.6 350.7 601.7 350.3 C 600.2 350.1 596.4 349.5 593.9 349.1 C 591.3 348.6 589.0 348.2 587.2 347.7 C 579.6 346.1 582.5 346.7 584.0 347.1 C 584.7 347.3 585.3 347.5 584.4 347.3 C 583.5 347.0 580.8 346.5 577.2 345.2 C 573.6 343.9 572.8 343.2 572.3 342.8 C 571.8 342.5 571.9 342.5 572.1 342.7 C 572.5 342.9 573.9 343.7 573.1 343.3 C 571.7 342.5 570.6 341.4 570.6 340.9 C 570.5 340.5 570.7 339.7 573.1 338.3 C 574.7 337.4 577.5 336.3 581.0 335.3 C 584.4 334.3 588.5 333.4 591.5 332.9 C 591.3 332.9 584.4 334.3 580.5 335.5 C 576.5 336.7 574.4 337.5 577.7 336.4 C 581.7 335.0 587.6 333.5 594.6 332.3 C 596.3 332.0 598.1 331.7 599.9 331.5 C 601.8 331.2 602.1 331.2 602.9 331.0 C 604.5 330.8 606.0 330.6 607.4 330.5 C 612.8 329.8 615.6 329.5 611.9 329.9 C 621.9 328.7 630.2 328.2 637.3 327.7 C 648.4 327.2 661.9 326.8 663.4 326.8 C 665.2 326.8 697.2 326.8 708.8 327.5 C 709.7 327.5 729.8 328.7 731.4 328.8 C 740.6 329.6 744.1 330.1 747.6 330.6 C 749.3 330.8 751.0 331.1 753.3 331.4 C 753.8 331.4 755.4 331.7 756.7 331.9 C 758.0 332.1 759.4 332.3 760.8 332.6 C 763.5 333.1 766.5 333.7 769.4 334.4 C 779.2 336.7 781.5 338.4 782.6 339.4 C 783.8 340.3 783.7 340.5 783.7 340.7 C 783.9 341.5 781.8 343.0 779.7 344.0 C 777.7 344.9 776.1 345.6 771.4 347.0 C 768.6 347.8 763.2 349.0 761.2 349.5 C 757.2 350.5 755.1 351.1 756.5 351.3 C 756.5 351.3 756.5 351.3 756.5 351.3 Z M 722.8 355.2 C 725.7 355.1 730.8 354.6 733.8 354.4 C 730.4 354.8 726.2 355.1 721.7 355.3 C 722.1 355.3 722.4 355.3 722.8 355.2 C 722.8 355.2 722.8 355.2 722.8 355.2 Z M 699.4 355.5 C 701.5 355.5 704.0 355.4 706.3 355.3 C 708.5 355.2 710.7 355.1 714.0 354.9 C 713.7 354.9 708.3 355.2 704.0 355.3 C 704.0 355.3 704.0 355.3 704.0 355.3 C 706.1 355.2 708.5 355.1 711.4 354.9 C 712.4 354.9 713.3 354.8 714.3 354.8 C 714.4 354.8 712.9 354.9 712.3 354.9 C 713.0 354.9 715.6 354.8 718.8 354.7 C 719.2 354.6 719.5 354.6 719.9 354.6 C 720.4 354.6 718.0 354.8 720.7 354.6 C 718.8 354.8 713.8 355.0 710.7 355.2 C 714.2 354.9 700.8 355.6 697.4 355.6 C 698.1 355.6 698.7 355.6 699.4 355.5 Z M 673.0 357.8 C 671.1 357.8 669.3 357.7 667.4 357.7 C 670.1 357.8 672.2 357.8 674.2 357.8 C 673.8 357.8 673.4 357.8 673.0 357.8 Z M 601.0 327.9 C 599.9 328.1 596.7 328.6 594.0 329.1 C 591.4 329.5 588.8 330.1 586.3 330.6 C 581.4 331.7 577.3 332.9 574.4 334.1 C 568.6 336.6 567.6 339.4 567.5 339.8 C 567.2 341.0 567.5 342.3 568.3 343.4 C 567.0 341.7 567.2 339.3 568.7 337.7 C 570.1 336.1 572.5 334.8 575.7 333.6 C 578.9 332.4 582.9 331.3 587.4 330.3 C 589.7 329.8 592.0 329.4 594.4 329.0 C 596.8 328.6 599.9 328.1 601.0 327.9 C 601.0 327.9 601.0 327.9 601.0 327.9 Z M 570.4 340.9 C 570.4 341.1 570.3 341.0 570.3 340.7 C 570.3 340.0 572.3 338.4 573.6 337.7 C 575.0 337.0 574.7 337.0 572.8 338.1 C 571.2 339.1 570.2 340.3 570.2 340.8 C 570.2 341.3 570.7 341.9 570.5 341.5 C 569.7 340.4 570.0 339.7 572.9 338.0 C 575.1 336.8 578.6 335.5 583.5 334.3 C 578.2 335.7 574.6 337.1 572.6 338.4 C 570.5 339.6 570.3 340.4 570.4 340.9 C 570.4 340.9 570.4 340.9 570.4 340.9 Z M 590.0 333.0 C 585.4 333.9 580.9 335.0 577.5 336.2 C 580.4 335.2 584.2 334.1 588.9 333.2 C 589.3 333.1 589.6 333.0 590.0 333.0 Z M 596.2 331.9 C 590.9 332.8 586.6 333.7 584.6 334.2 C 582.7 334.7 582.5 334.7 586.7 333.7 C 588.7 333.3 590.7 332.8 593.0 332.4 C 594.1 332.2 595.1 332.1 596.2 331.9 Z M 601.8 331.1 C 601.8 331.0 600.9 331.1 597.3 331.7 C 598.2 331.6 599.3 331.4 600.4 331.2 C 601.6 331.0 601.7 331.0 602.3 330.9 C 603.5 330.8 604.7 330.6 605.9 330.5 C 608.1 330.2 610.0 330.0 609.8 330.0 C 607.3 330.3 604.5 330.7 601.8 331.1 C 601.8 331.1 601.8 331.1 601.8 331.1 Z M 606.9 327.1 C 604.4 327.4 602.3 327.6 606.2 327.1 C 607.7 326.9 609.2 326.7 610.7 326.6 C 609.5 326.7 608.2 326.9 606.9 327.1 Z M 668.5 355.1 C 667.2 355.1 662.3 355.0 659.5 355.0 C 659.2 355.1 670.3 355.2 668.5 355.1 C 668.5 355.1 668.5 355.1 668.5 355.1 Z M 686.9 355.1 C 685.7 355.1 680.7 355.1 677.9 355.1 C 677.6 355.3 688.7 355.1 686.9 355.1 C 686.9 355.1 686.9 355.1 686.9 355.1 Z M 708.9 327.5 C 708.8 327.5 708.8 327.5 708.8 327.5 C 708.8 327.5 708.8 327.5 708.9 327.5 C 708.9 327.5 708.9 327.5 708.9 327.5 Z M 708.9 327.5 " fill="#EA3C43"></path><path d="M 808.8 256.4 C 810.4 256.3 817.1 256.1 817.2 256.0 C 814.7 256.1 809.3 256.3 808.8 256.4 C 808.8 256.4 808.8 256.4 808.8 256.4 Z M 794.9 256.9 C 797.5 256.9 803.0 256.6 804.7 256.5 C 801.8 256.7 795.9 256.8 794.9 256.9 C 794.9 256.9 794.9 256.9 794.9 256.9 Z M 816.0 255.9 C 819.6 255.8 826.1 255.5 827.7 255.3 C 824.2 255.5 817.6 255.8 816.0 255.9 C 816.0 255.9 816.0 255.9 816.0 255.9 Z M 621.2 254.3 C 622.6 254.4 628.6 254.9 628.6 254.8 C 626.4 254.7 621.6 254.3 621.2 254.3 C 621.2 254.3 621.2 254.3 621.2 254.3 Z M 656.3 256.4 C 658.8 256.6 664.1 256.8 665.8 256.9 C 662.9 256.8 657.2 256.4 656.3 256.4 C 656.3 256.4 656.3 256.4 656.3 256.4 Z M 678.3 257.4 C 683.6 257.6 689.2 257.7 688.2 257.7 C 686.5 257.7 678.9 257.4 678.3 257.4 C 678.3 257.4 678.3 257.4 678.3 257.4 Z M 811.6 254.0 C 806.1 254.2 802.1 254.3 798.3 254.5 C 779.4 255.1 807.9 254.2 811.6 254.0 C 811.6 254.0 811.6 254.0 811.6 254.0 Z M 718.8 258.1 C 714.9 258.1 711.7 258.1 709.9 258.1 C 713.5 258.1 718.6 258.2 718.8 258.1 C 718.8 258.1 718.8 258.1 718.8 258.1 Z M 752.7 258.2 C 753.6 258.2 773.6 257.9 784.5 257.6 C 775.3 257.8 751.8 258.1 752.7 258.2 C 752.7 258.2 752.7 258.2 752.7 258.2 Z M 765.9 255.2 C 753.0 255.5 732.0 255.5 722.6 255.4 C 713.2 255.4 739.5 255.7 763.4 255.4 C 787.3 255.0 767.6 255.2 777.3 255.0 C 786.9 254.8 768.0 255.2 758.3 255.3 C 748.6 255.4 764.7 255.2 765.9 255.2 C 765.9 255.2 765.9 255.2 765.9 255.2 Z M 766.5 255.0 C 771.2 255.0 775.2 254.9 777.8 254.8 C 773.0 254.9 768.4 254.9 766.5 255.0 C 766.5 255.0 766.5 255.0 766.5 255.0 Z M 874.8 250.6 C 877.6 250.9 896.4 249.2 908.4 246.8 C 911.4 246.2 914.0 245.6 916.3 244.9 C 920.3 243.6 923.0 242.4 924.6 240.7 C 926.1 239.0 925.7 236.3 923.8 234.7 C 920.0 231.5 911.2 229.0 896.7 226.7 C 890.9 225.7 884.4 224.8 876.6 223.9 C 873.7 223.6 870.4 223.3 869.0 223.1 C 867.7 223.0 866.3 222.9 864.9 222.7 C 862.1 222.5 859.3 222.2 856.4 222.0 C 850.6 221.5 844.6 221.0 838.3 220.6 C 834.2 220.3 830.0 220.1 825.6 219.9 C 810.1 219.0 794.4 218.5 777.9 218.1 C 769.6 217.9 761.1 217.8 752.4 217.6 C 748.0 217.6 729.2 217.6 722.6 217.7 C 729.0 217.5 698.4 218.0 699.8 218.0 C 696.4 218.1 692.9 218.2 689.4 218.3 C 686.0 218.4 690.4 218.3 694.8 218.2 C 690.9 218.3 687.0 218.4 683.0 218.6 C 678.9 218.7 674.8 218.8 670.6 219.0 C 657.0 219.5 643.0 220.3 631.7 221.2 C 627.8 221.5 623.1 221.8 618.1 222.3 C 615.6 222.5 613.0 222.7 610.4 223.0 C 609.8 223.0 609.1 223.1 608.4 223.2 C 607.8 223.2 606.3 223.4 604.8 223.5 C 601.9 223.8 599.0 224.2 596.2 224.5 C 574.0 227.2 560.0 230.4 554.7 234.1 C 552.0 235.9 551.5 239.1 553.1 240.9 C 554.6 242.7 557.1 243.7 559.4 244.6 C 564.0 246.3 566.9 246.9 563.4 245.9 C 559.5 244.7 557.9 243.9 557.0 243.5 C 556.1 243.0 555.9 242.9 556.1 243.0 C 556.4 243.2 558.5 244.1 560.3 244.8 C 562.4 245.5 565.6 246.5 570.4 247.5 C 570.3 247.5 569.9 247.5 569.2 247.3 C 573.6 248.3 579.7 249.5 588.0 250.7 C 592.2 251.3 596.9 251.9 602.0 252.4 C 604.6 252.7 607.6 253.0 608.8 253.1 C 610.0 253.2 611.2 253.4 612.4 253.5 C 610.6 253.3 609.0 253.1 607.1 252.9 C 608.5 253.0 608.6 253.0 608.9 253.1 C 609.3 253.1 609.6 253.1 609.7 253.2 C 610.1 253.2 610.2 253.2 610.2 253.2 C 610.3 253.2 610.1 253.1 611.7 253.3 C 620.8 254.1 625.3 254.5 614.6 253.5 C 624.5 254.4 631.3 254.8 642.2 255.4 C 646.3 255.7 644.0 255.5 642.8 255.5 C 650.0 255.9 667.4 256.8 669.0 256.9 C 669.9 256.9 657.9 256.4 647.4 255.8 C 636.8 255.2 627.7 254.5 631.7 254.8 C 635.0 255.1 641.8 255.5 644.5 255.7 C 638.6 255.4 631.6 254.9 628.0 254.6 C 631.9 254.9 637.5 255.3 640.6 255.5 C 636.7 255.3 634.1 255.1 633.0 255.0 C 638.5 255.4 642.8 255.7 649.8 256.1 C 652.9 256.2 647.1 255.9 653.7 256.3 C 654.9 256.3 649.4 256.0 649.8 256.0 C 655.1 256.3 666.0 256.8 668.8 256.9 C 671.4 257.0 662.1 256.6 661.9 256.6 C 683.1 257.5 708.9 258.0 716.9 258.1 C 725.0 258.2 717.4 258.1 714.0 258.0 C 723.3 258.1 730.4 258.2 741.6 258.2 C 748.8 258.2 745.9 258.1 743.2 258.1 C 745.1 258.1 746.8 258.1 747.9 258.1 C 748.7 258.1 750.7 258.1 752.1 258.1 C 747.7 258.1 739.6 258.1 736.0 258.1 C 742.6 258.1 758.2 258.0 763.8 257.9 C 754.8 258.0 745.1 258.0 735.0 258.0 C 754.8 258.0 775.0 257.8 790.4 257.3 C 787.7 257.3 786.5 257.3 784.2 257.4 C 790.1 257.3 798.8 257.0 803.9 256.8 C 806.7 256.6 812.3 256.4 817.8 256.1 C 808.2 256.6 801.6 256.8 794.6 257.0 C 794.7 257.0 795.4 257.0 796.6 256.9 C 781.0 257.4 771.7 257.7 760.3 257.8 C 759.4 257.8 758.5 257.9 757.6 257.9 C 753.9 257.8 766.9 257.7 768.2 257.6 C 751.3 257.9 732.6 257.9 724.2 257.8 C 744.5 257.9 762.5 257.8 777.5 257.4 C 773.6 257.4 758.4 257.7 751.1 257.7 C 784.3 257.4 787.2 257.1 789.9 257.0 C 787.4 257.0 784.9 257.1 782.3 257.1 C 783.0 257.1 783.6 257.1 784.2 257.1 C 798.5 256.7 814.6 256.0 813.8 256.0 C 813.1 256.0 800.7 256.6 787.0 257.0 C 788.4 256.9 789.8 256.8 791.3 256.8 C 807.2 256.3 824.7 255.4 839.1 254.5 C 836.7 254.6 837.9 254.5 840.9 254.3 C 836.4 254.6 829.9 255.0 824.8 255.2 C 826.6 255.1 829.6 254.9 830.6 254.8 C 828.1 255.0 824.2 255.2 822.9 255.2 C 830.0 254.8 837.5 254.4 844.5 253.9 C 846.0 253.7 841.5 254.1 841.8 254.0 C 848.6 253.5 857.6 252.8 862.2 252.4 C 856.9 252.8 846.2 253.7 842.7 253.9 C 845.0 253.7 847.2 253.5 849.4 253.3 C 853.9 253.0 856.0 252.8 851.0 253.2 C 848.3 253.4 848.4 253.4 849.1 253.3 C 852.1 253.1 862.4 252.2 862.1 252.1 C 859.6 252.4 849.1 253.2 846.4 253.4 C 848.4 253.2 853.9 252.8 854.4 252.7 C 842.8 253.6 843.0 253.5 839.9 253.8 C 841.3 253.7 844.7 253.4 844.6 253.5 C 837.2 254.0 829.5 254.5 821.3 254.9 C 821.3 254.9 821.3 254.9 821.3 254.9 C 821.3 254.9 821.3 254.9 821.3 254.9 C 821.3 254.9 821.3 254.9 821.3 254.9 C 822.0 254.8 821.7 254.8 821.0 254.8 C 824.5 254.6 828.1 254.4 834.3 254.0 C 832.7 254.1 826.9 254.4 821.4 254.7 C 821.4 254.7 821.5 254.7 821.5 254.7 C 830.4 254.2 843.5 253.4 851.7 252.7 C 847.9 253.0 833.6 254.0 823.2 254.5 C 823.5 254.5 823.9 254.5 824.2 254.4 C 811.2 255.1 795.2 255.7 779.4 256.1 C 787.0 255.8 795.8 255.6 805.3 255.2 C 809.6 255.0 813.6 254.8 817.7 254.6 C 823.6 254.4 835.0 253.8 844.9 253.1 C 854.8 252.4 863.1 251.6 864.7 251.4 C 866.6 251.2 860.1 251.8 852.6 252.4 C 845.2 253.0 836.7 253.5 836.6 253.5 C 836.4 253.5 851.8 252.4 844.6 253.0 C 840.9 253.2 832.5 253.8 826.2 254.1 C 826.0 254.1 825.8 254.1 825.6 254.0 C 831.0 253.7 837.3 253.3 837.6 253.4 C 840.2 253.2 845.6 252.9 846.4 252.8 C 845.5 252.8 844.2 252.9 844.2 252.9 C 845.5 252.8 847.3 252.7 847.5 252.6 C 841.3 253.1 832.4 253.6 825.2 254.0 C 824.6 254.0 824.0 254.0 823.4 254.1 C 823.5 254.0 829.1 253.7 833.9 253.4 C 838.8 253.1 828.5 253.7 820.0 254.2 C 818.7 254.2 817.3 254.2 815.9 254.3 C 818.9 254.2 822.3 254.0 826.3 253.8 C 830.9 253.5 830.8 253.5 835.3 253.1 C 827.0 253.6 816.5 254.2 807.9 254.5 C 804.8 254.6 801.7 254.7 798.4 254.8 C 805.6 254.5 812.2 254.2 816.0 254.0 C 819.2 253.8 822.4 253.7 823.5 253.6 C 820.6 253.7 828.0 253.3 826.9 253.3 C 822.9 253.6 814.7 254.0 811.7 254.2 C 805.2 254.5 797.8 254.7 791.3 254.9 C 790.4 254.9 789.6 254.9 788.7 255.0 C 794.3 254.8 799.6 254.6 805.4 254.4 C 802.8 254.4 786.5 255.0 774.5 255.2 C 749.9 255.7 724.3 255.9 699.8 255.4 C 698.8 255.4 697.3 255.3 695.8 255.3 C 694.0 255.2 692.2 255.2 690.4 255.1 C 696.2 255.3 701.5 255.4 705.8 255.4 C 688.4 255.0 730.9 255.7 733.7 255.6 C 719.4 255.5 698.8 255.3 678.6 254.6 C 658.5 253.9 639.1 252.7 625.4 251.6 C 632.0 252.1 634.1 252.3 627.0 251.7 C 625.1 251.6 623.2 251.4 621.2 251.2 C 648.6 253.5 682.4 254.9 708.9 255.2 C 693.2 254.9 670.1 254.2 663.9 253.8 C 668.2 254.0 674.7 254.3 675.6 254.3 C 667.8 253.9 642.8 252.7 635.9 252.2 C 669.8 254.5 723.5 255.5 752.3 255.2 C 730.5 255.4 704.6 255.1 680.8 254.3 C 656.9 253.5 635.5 252.2 620.3 251.0 C 625.6 251.4 625.7 251.4 622.8 251.2 C 618.1 250.9 613.5 250.4 609.0 250.0 C 607.9 249.9 605.1 249.6 602.7 249.4 C 600.2 249.1 597.9 248.8 595.6 248.5 C 591.1 248.0 586.9 247.4 583.1 246.8 C 580.0 246.3 580.6 246.5 588.7 247.6 C 595.3 248.5 599.9 249.0 602.5 249.3 C 601.1 249.1 596.4 248.6 591.4 247.9 C 586.3 247.2 581.2 246.4 577.8 245.8 C 574.3 245.2 572.4 244.8 573.0 244.9 C 573.7 245.0 576.4 245.7 586.3 247.2 C 591.2 247.9 597.2 248.7 604.2 249.4 C 605.9 249.6 607.9 249.8 608.7 249.9 C 609.5 250.0 610.3 250.0 611.1 250.1 C 612.8 250.3 614.5 250.4 616.1 250.6 C 622.8 251.2 629.7 251.7 635.1 252.1 C 646.0 252.8 650.6 253.1 637.8 252.2 C 624.9 251.3 616.7 250.6 613.1 250.2 C 609.5 249.9 610.3 249.9 616.7 250.5 C 623.2 251.1 637.4 252.1 648.8 252.8 C 660.2 253.4 668.3 253.7 660.3 253.3 C 652.4 252.9 640.4 252.3 628.8 251.4 C 623.1 250.9 617.4 250.5 612.3 250.0 C 611.0 249.8 609.8 249.7 608.6 249.6 C 607.4 249.5 603.9 249.1 601.5 248.8 C 596.6 248.3 592.4 247.8 588.8 247.3 C 581.7 246.3 580.0 245.9 579.8 245.9 C 579.6 245.9 581.4 246.2 582.8 246.5 C 584.2 246.7 585.3 246.9 583.6 246.7 C 581.9 246.4 576.9 245.7 569.9 244.1 C 562.8 242.5 560.9 241.6 559.9 241.2 C 558.8 240.8 558.9 240.8 559.4 241.0 C 560.3 241.3 563.3 242.4 561.5 241.7 C 558.7 240.8 555.8 239.0 555.4 238.4 C 555.3 238.0 555.2 238.2 555.7 237.6 C 556.2 237.1 557.4 236.2 559.5 235.4 C 562.3 234.2 567.2 232.8 573.2 231.5 C 579.3 230.3 586.5 229.2 591.8 228.6 C 591.4 228.6 579.3 230.3 572.4 231.8 C 565.4 233.2 561.7 234.3 567.4 232.9 C 574.5 231.2 584.9 229.4 597.1 227.9 C 600.2 227.6 603.4 227.2 606.6 226.9 C 609.8 226.5 610.3 226.5 611.6 226.4 C 614.3 226.1 616.9 225.9 619.2 225.7 C 628.5 224.9 633.2 224.5 626.9 225.0 C 643.9 223.7 657.9 223.0 669.9 222.5 C 688.5 221.8 711.5 221.4 714.0 221.4 C 717.0 221.4 771.1 221.3 790.8 222.1 C 791.5 222.1 800.7 222.3 809.8 222.7 C 818.9 223.1 827.9 223.5 829.3 223.6 C 844.8 224.5 850.9 225.0 856.9 225.6 C 859.9 225.8 862.8 226.1 866.6 226.5 C 867.6 226.6 868.6 226.7 869.6 226.8 C 870.2 226.8 871.9 227.0 873.1 227.1 C 874.4 227.3 875.7 227.4 877.0 227.5 C 882.2 228.1 887.7 228.8 893.3 229.7 C 912.0 232.5 916.8 234.7 919.6 236.0 C 922.3 237.3 922.3 237.8 922.4 238.0 C 922.6 238.3 922.5 238.1 922.3 238.4 C 922.1 238.7 921.6 239.2 920.9 239.7 C 919.5 240.5 917.6 241.3 915.8 241.9 C 912.3 243.1 909.5 244.0 901.2 245.6 C 896.3 246.6 886.8 248.0 883.3 248.6 C 876.3 249.7 872.3 250.4 874.8 250.6 C 874.8 250.6 874.8 250.6 874.8 250.6 Z M 817.7 255.1 C 822.6 254.9 831.3 254.4 836.2 254.2 C 830.6 254.6 823.4 254.9 815.9 255.3 C 816.5 255.2 817.1 255.2 817.7 255.1 C 817.7 255.1 817.7 255.1 817.7 255.1 Z M 778.3 255.6 C 781.8 255.6 786.0 255.5 789.9 255.4 C 793.6 255.3 797.4 255.2 802.8 254.9 C 802.4 254.9 793.3 255.2 786.1 255.4 C 786.1 255.4 786.1 255.4 786.1 255.4 C 789.6 255.3 793.7 255.1 798.5 255.0 C 800.2 254.9 801.8 254.8 803.5 254.8 C 803.6 254.8 801.0 254.9 800.1 255.0 C 801.3 255.0 805.6 254.8 811.0 254.6 C 811.6 254.6 812.3 254.6 812.9 254.5 C 813.7 254.6 809.6 254.8 814.2 254.5 C 811.0 254.7 802.6 255.0 797.3 255.2 C 803.2 254.9 780.6 255.7 774.9 255.7 C 776.0 255.7 777.1 255.7 778.3 255.6 Z M 733.7 258.0 C 730.6 258.0 727.4 258.0 724.2 257.9 C 728.8 258.0 732.4 258.0 735.7 258.0 C 735.0 258.0 734.4 258.0 733.7 258.0 Z M 608.8 223.3 C 607.0 223.5 601.3 224.1 596.7 224.6 C 592.1 225.2 587.6 225.8 583.4 226.5 C 574.9 227.8 567.8 229.3 563.0 230.7 C 553.3 233.6 552.3 237.0 552.3 237.5 C 551.9 239.2 552.9 240.7 554.4 241.8 C 552.0 240.0 551.7 236.8 553.9 234.9 C 556.1 233.0 559.9 231.5 565.2 230.1 C 570.6 228.6 577.5 227.3 585.3 226.2 C 589.1 225.6 593.2 225.0 597.4 224.5 C 601.6 224.0 607.0 223.5 608.8 223.3 C 608.8 223.3 608.8 223.3 608.8 223.3 Z M 555.2 238.4 C 555.3 238.6 555.2 238.4 555.2 238.2 C 555.1 237.9 555.5 237.3 556.7 236.5 C 557.8 235.7 559.4 235.1 560.6 234.6 C 562.9 233.7 562.4 233.8 559.1 235.2 C 557.7 235.8 556.3 236.6 555.7 237.2 C 555.0 237.8 555.0 238.1 555.1 238.3 C 555.2 238.8 556.6 239.9 555.8 239.3 C 554.8 238.4 554.8 238.3 555.2 237.8 C 555.5 237.2 556.8 236.1 559.3 235.0 C 563.1 233.5 569.2 231.9 577.7 230.5 C 568.5 232.1 562.3 233.8 558.7 235.4 C 557.0 236.3 555.9 237.1 555.5 237.6 C 555.0 238.1 555.1 238.1 555.2 238.4 C 555.2 238.4 555.2 238.4 555.2 238.4 Z M 589.0 228.7 C 581.0 229.8 573.1 231.2 567.2 232.7 C 572.3 231.4 578.8 230.2 587.2 229.0 C 587.8 228.9 588.4 228.8 589.0 228.7 Z M 600.0 227.4 C 590.7 228.5 583.1 229.7 579.7 230.2 C 576.2 230.8 575.9 230.8 583.4 229.6 C 586.7 229.1 590.4 228.6 594.4 228.1 C 596.2 227.8 598.1 227.6 600.0 227.4 Z M 609.9 226.4 C 609.8 226.4 609.4 226.4 608.7 226.5 C 607.9 226.6 605.1 226.8 601.9 227.2 C 603.5 227.0 605.4 226.8 607.4 226.6 C 609.5 226.4 609.7 226.4 610.7 226.3 C 612.7 226.1 614.8 225.9 616.7 225.7 C 620.5 225.4 623.7 225.1 623.4 225.2 C 619.0 225.5 614.4 225.9 609.9 226.4 C 609.9 226.4 609.9 226.4 609.9 226.4 Z M 618.9 222.3 C 614.7 222.6 611.2 222.9 617.7 222.3 C 620.2 222.1 622.7 221.9 625.3 221.7 C 623.2 221.9 621.0 222.1 618.9 222.3 Z M 726.1 255.3 C 723.9 255.3 715.6 255.3 710.9 255.2 C 710.3 255.3 729.1 255.4 726.1 255.3 C 726.1 255.3 726.1 255.3 726.1 255.3 Z M 757.2 255.2 C 755.1 255.3 746.8 255.3 741.9 255.3 C 741.4 255.5 760.2 255.3 757.2 255.2 C 757.2 255.2 757.2 255.2 757.2 255.2 Z M 790.9 222.1 C 790.8 222.1 790.8 222.1 790.8 222.1 C 790.8 222.1 790.8 222.1 790.9 222.1 C 790.9 222.1 790.9 222.1 790.9 222.1 Z M 790.9 222.1 " fill="#EA3C43"></path></g></svg>