<?xml version="1.0" encoding="UTF-8" standalone="no"?><svg xmlns="http://www.w3.org/2000/svg" xmlns:xlink="http://www.w3.org/1999/xlink" clip-rule="evenodd" stroke-miterlimit="10" viewBox="0 0 1024 768"><desc>SVG generated by Keynote</desc><defs></defs><g transform="matrix(1.00, 0.00, -0.00, -1.00, 0.0, 768.0)"><g><clipPath id="clip0x7fde3f4a4e90"><path d="M 0.0 768.0 L 1024.0 768.0 L 1024.0 0.0 L 0.0 0.0 Z M 0.0 768.0 "></path></clipPath><g clip-path="url(#clip0x7fde3f4a4e90)"><image xlink:href="../../9A547B16-7CB2-4235-A9D6-7078228DA1F4/assets/574DCE55A4CF432400CBDDDE1DFDFC9B.jpeg" width="2048.00" height="1536.00" transform="matrix(0.50, 0.00, -0.00, -0.50, 0.0, 768.0)"></image></g></g><text xml:space="preserve" font-family="GillSans-Light,Gill Sans" font-size="38.0" fill="#525252" transform="matrix(1.00, 0.00, -0.00, -1.00, 430.2, 323.4)">Q</text><text xml:space="preserve" font-family="GillSans-Light,Gill Sans" font-size="38.0" fill="#525252" transform="matrix(1.00, 0.00, -0.00, -1.00, 461.5, 323.4)">u</text><text xml:space="preserve" font-family="GillSans-Light,Gill Sans" font-size="38.0" fill="#525252" transform="matrix(1.00, 0.00, -0.00, -1.00, 480.2, 323.4)">e</text><text xml:space="preserve" font-family="GillSans-Light,Gill Sans" font-size="38.0" fill="#525252" transform="matrix(1.00, 0.00, -0.00, -1.00, 498.4, 323.4)">s</text><text xml:space="preserve" font-family="GillSans-Light,Gill Sans" font-size="38.0" fill="#525252" transform="matrix(1.00, 0.00, -0.00, -1.00, 511.8, 323.4)">t</text><text xml:space="preserve" font-family="GillSans-Light,Gill Sans" font-size="38.0" fill="#525252" transform="matrix(1.00, 0.00, -0.00, -1.00, 523.3, 323.4)">i</text><text xml:space="preserve" font-family="GillSans-Light,Gill Sans" font-size="38.0" fill="#525252" transform="matrix(1.00, 0.00, -0.00, -1.00, 530.4, 323.4)">o</text><text xml:space="preserve" font-family="GillSans-Light,Gill Sans" font-size="38.0" fill="#525252" transform="matrix(1.00, 0.00, -0.00, -1.00, 551.0, 323.4)">n</text><text xml:space="preserve" font-family="GillSans-Light,Gill Sans" font-size="38.0" fill="#525252" transform="matrix(1.00, 0.00, -0.00, -1.00, 569.7, 323.4)">s</text><text xml:space="preserve" font-family="GillSans-Light,Gill Sans" font-size="38.0" fill="#525252" transform="matrix(1.00, 0.00, -0.00, -1.00, 583.1, 323.4)">?</text><g><clipPath id="clip0x7fde3e7e3b90"><path d="M 539.1 376.5 C 539.1 373.5 536.7 371.0 533.7 371.0 L 479.4 371.0 C 476.4 371.0 474.0 373.5 474.0 376.5 L 539.1 376.5 "></path></clipPath><g clip-path="url(#clip0x7fde3e7e3b90)"><g><clipPath id="clip0x7fde3e7e43b0"><path d="M 474.0 371.0 L 550.0 371.0 L 550.0 459.0 L 474.0 459.0 Z M 474.0 371.0 "></path></clipPath><g clip-path="url(#clip0x7fde3e7e43b0)"><path d="M 468.5 382.1 L 544.7 382.1 L 544.7 365.4 L 468.5 365.4 Z M 468.5 382.1 " fill="#CCD0D1"></path></g></g></g></g><g><clipPath id="clip0x7fde3e7e55e0"><path d="M 550.2 408.0 C 549.3 416.5 541.9 417.7 536.5 417.8 L 536.5 423.3 L 476.5 423.3 L 476.5 406.8 C 476.5 391.0 485.8 378.0 501.2 376.6 C 502.1 376.6 505.8 376.5 506.7 376.5 C 507.6 376.5 511.3 376.6 512.2 376.6 C 522.3 377.6 529.5 383.5 533.4 392.0 C 544.1 395.2 550.4 398.8 550.2 408.0 L 550.2 408.0 Z M 535.2 396.8 C 536.0 399.9 536.5 403.3 536.5 406.8 L 536.5 412.4 C 540.6 412.5 544.4 412.1 545.4 408.1 C 546.5 403.5 542.0 399.6 535.2 396.8 L 535.2 396.8 Z M 535.2 396.8 "></path></clipPath><g clip-path="url(#clip0x7fde3e7e55e0)"><g><clipPath id="clip0x7fde3e7e5fe0"><path d="M 474.0 371.0 L 550.0 371.0 L 550.0 459.0 L 474.0 459.0 Z M 474.0 371.0 "></path></clipPath><g clip-path="url(#clip0x7fde3e7e5fe0)"><path d="M 471.0 428.8 L 555.7 428.8 L 555.7 370.9 L 471.0 370.9 Z M 471.0 428.8 " fill="#CCD0D1"></path></g></g></g></g><g><clipPath id="clip0x7fde3e7e6a40"><path d="M 510.4 379.3 C 509.5 379.3 505.8 379.3 504.9 379.4 C 489.1 380.7 479.5 393.7 479.5 409.5 L 479.5 423.3 L 474.0 423.3 L 474.0 406.8 C 474.0 391.0 483.6 378.0 499.4 376.6 C 500.3 376.6 506.7 376.5 507.6 376.5 C 508.6 376.5 512.3 376.6 513.2 376.6 C 516.8 377.0 520.0 377.9 522.9 379.3 C 516.4 379.3 510.8 379.3 510.4 379.3 "></path></clipPath><g clip-path="url(#clip0x7fde3e7e6a40)"><g><clipPath id="clip0x7fde3e7e7920"><path d="M 474.0 371.0 L 550.0 371.0 L 550.0 459.0 L 474.0 459.0 Z M 474.0 371.0 "></path></clipPath><g clip-path="url(#clip0x7fde3e7e7920)"><path d="M 468.5 428.8 L 528.4 428.8 L 528.4 370.9 L 468.5 370.9 Z M 468.5 428.8 " fill="#C1C4C7"></path></g></g></g></g><g><clipPath id="clip0x7fde3e7e86a0"><path d="M 495.7 423.3 L 498.4 423.3 L 498.4 409.5 L 495.7 409.5 L 495.7 423.3 Z M 495.7 423.3 "></path></clipPath><g clip-path="url(#clip0x7fde3e7e86a0)"><g><clipPath id="clip0x7fde3e7e8e30"><path d="M 474.0 371.0 L 550.0 371.0 L 550.0 459.0 L 474.0 459.0 Z M 474.0 371.0 "></path></clipPath><g clip-path="url(#clip0x7fde3e7e8e30)"><path d="M 490.2 428.8 L 503.9 428.8 L 503.9 403.9 L 490.2 403.9 Z M 490.2 428.8 " fill="#FF8F00"></path></g></g></g></g><g><clipPath id="clip0x7fde3e7e9bb0"><path d="M 490.3 404.0 L 492.9 409.5 L 500.9 409.5 L 503.9 404.0 L 503.9 393.0 L 490.3 393.0 L 490.3 404.0 "></path></clipPath><g clip-path="url(#clip0x7fde3e7e9bb0)"><g><clipPath id="clip0x7fde3e7ea300"><path d="M 474.0 371.0 L 550.0 371.0 L 550.0 459.0 L 474.0 459.0 Z M 474.0 371.0 "></path></clipPath><g clip-path="url(#clip0x7fde3e7ea300)"><path d="M 484.8 415.1 L 509.4 415.1 L 509.4 387.4 L 484.8 387.4 Z M 484.8 415.1 " fill="#FF8F00"></path></g></g></g></g><g><clipPath id="clip0x7fde3e7eb3e0"><path d="M 504.3 434.3 C 503.7 434.3 503.2 434.5 502.8 434.8 C 501.9 435.5 501.9 436.7 502.8 437.4 C 505.4 439.7 505.8 442.7 503.7 445.4 C 500.1 450.2 500.3 454.8 504.3 458.4 C 505.1 459.2 506.5 459.2 507.3 458.5 C 508.2 457.8 508.2 456.6 507.4 455.9 C 506.4 455.0 503.5 452.4 507.3 447.4 C 510.4 443.2 509.8 438.3 505.8 434.8 C 505.3 434.4 504.8 434.3 504.3 434.3 "></path></clipPath><g clip-path="url(#clip0x7fde3e7eb3e0)"><g><clipPath id="clip0x7fde3e7ebb30"><path d="M 474.0 371.0 L 550.0 371.0 L 550.0 459.0 L 474.0 459.0 Z M 474.0 371.0 "></path></clipPath><g clip-path="url(#clip0x7fde3e7ebb30)"><path d="M 495.6 464.6 L 514.8 464.6 L 514.8 428.7 L 495.6 428.7 Z M 495.6 464.6 " fill="#CED3D4"></path></g></g></g></g><g><clipPath id="clip0x7fde3e7ecbd0"><path d="M 490.7 434.3 C 490.2 434.3 489.6 434.5 489.2 434.8 C 488.4 435.5 488.4 436.7 489.2 437.4 C 491.9 439.7 492.2 442.7 490.1 445.4 C 486.5 450.2 486.7 454.8 490.7 458.4 C 491.6 459.2 492.9 459.2 493.7 458.5 C 494.6 457.8 494.6 456.6 493.8 455.9 C 492.8 455.0 489.9 452.4 493.7 447.4 C 496.8 443.2 496.3 438.3 492.2 434.8 C 491.8 434.4 491.2 434.3 490.7 434.3 "></path></clipPath><g clip-path="url(#clip0x7fde3e7ecbd0)"><g><clipPath id="clip0x7fde3e7ed240"><path d="M 474.0 371.0 L 550.0 371.0 L 550.0 459.0 L 474.0 459.0 Z M 474.0 371.0 "></path></clipPath><g clip-path="url(#clip0x7fde3e7ed240)"><path d="M 482.1 464.6 L 501.2 464.6 L 501.2 428.7 L 482.1 428.7 Z M 482.1 464.6 " fill="#CED3D4"></path></g></g></g></g><g><clipPath id="clip0x7fde3e7ee320"><path d="M 517.8 434.3 C 517.3 434.3 516.7 434.5 516.3 434.8 C 515.5 435.5 515.5 436.7 516.4 437.4 C 519.0 439.7 519.3 442.7 517.3 445.4 C 513.7 450.2 513.9 454.8 517.9 458.4 C 518.7 459.2 520.0 459.2 520.9 458.5 C 521.7 457.8 521.7 456.6 520.9 455.9 C 520.0 455.0 517.1 452.4 520.8 447.4 C 524.0 443.2 523.4 438.3 519.3 434.8 C 518.9 434.4 518.4 434.3 517.8 434.3 "></path></clipPath><g clip-path="url(#clip0x7fde3e7ee320)"><g><clipPath id="clip0x7fde3e7ee990"><path d="M 474.0 371.0 L 550.0 371.0 L 550.0 459.0 L 474.0 459.0 Z M 474.0 371.0 "></path></clipPath><g clip-path="url(#clip0x7fde3e7ee990)"><path d="M 509.2 464.6 L 528.4 464.6 L 528.4 428.7 L 509.2 428.7 Z M 509.2 464.6 " fill="#CED3D4"></path></g></g></g></g></g></svg>