<?xml version="1.0" encoding="UTF-8" standalone="no"?><svg xmlns="http://www.w3.org/2000/svg" xmlns:xlink="http://www.w3.org/1999/xlink" clip-rule="evenodd" stroke-miterlimit="10" viewBox="0 0 1024 768"><desc>SVG generated by Keynote</desc><defs></defs><g transform="matrix(1.00, 0.00, -0.00, -1.00, 0.0, 768.0)"><g><clipPath id="clip0x7fde3be5ff40"><path d="M 0.0 768.0 L 1024.0 768.0 L 1024.0 0.0 L 0.0 0.0 Z M 0.0 768.0 "></path></clipPath><g clip-path="url(#clip0x7fde3be5ff40)"><image xlink:href="../../9A547B16-7CB2-4235-A9D6-7078228DA1F4/assets/574DCE55A4CF432400CBDDDE1DFDFC9B.jpeg" width="2048.00" height="1536.00" transform="matrix(0.50, 0.00, -0.00, -0.50, 0.0, 768.0)"></image></g></g><text xml:space="preserve" font-family="GillSans-Light,Gill Sans" font-size="72.0" fill="#525252" transform="matrix(1.00, 0.00, -0.00, -1.00, 170.7, 628.2)">S</text><text xml:space="preserve" font-family="GillSans-Light,Gill Sans" font-size="72.0" fill="#525252" transform="matrix(1.00, 0.00, -0.00, -1.00, 204.5, 628.2)">T</text><text xml:space="preserve" font-family="GillSans-Light,Gill Sans" font-size="72.0" fill="#525252" transform="matrix(1.00, 0.00, -0.00, -1.00, 240.4, 628.2)">O</text><text xml:space="preserve" font-family="GillSans-Light,Gill Sans" font-size="72.0" fill="#525252" transform="matrix(1.00, 0.00, -0.00, -1.00, 299.6, 628.2)">R</text><text xml:space="preserve" font-family="GillSans-Light,Gill Sans" font-size="72.0" fill="#525252" transform="matrix(1.00, 0.00, -0.00, -1.00, 340.9, 628.2)">E</text><text xml:space="preserve" font-family="GillSans-Light,Gill Sans" font-size="72.0" fill="#525252" transform="matrix(1.00, 0.00, -0.00, -1.00, 376.2, 628.2)">:</text><text xml:space="preserve" font-family="GillSans-Light,Gill Sans" font-size="72.0" fill="#525252" transform="matrix(1.00, 0.00, -0.00, -1.00, 383.2, 628.2)"> </text><text xml:space="preserve" font-family="GillSans-Light,Gill Sans" font-size="72.0" fill="#525252" transform="matrix(1.00, 0.00, -0.00, -1.00, 403.2, 628.2)">B</text><text xml:space="preserve" font-family="GillSans-Light,Gill Sans" font-size="72.0" fill="#525252" transform="matrix(1.00, 0.00, -0.00, -1.00, 441.4, 628.2)">E</text><text xml:space="preserve" font-family="GillSans-Light,Gill Sans" font-size="72.0" fill="#525252" transform="matrix(1.00, 0.00, -0.00, -1.00, 476.7, 628.2)">F</text><text xml:space="preserve" font-family="GillSans-Light,Gill Sans" font-size="72.0" fill="#525252" transform="matrix(1.00, 0.00, -0.00, -1.00, 508.2, 628.2)">O</text><text xml:space="preserve" font-family="GillSans-Light,Gill Sans" font-size="72.0" fill="#525252" transform="matrix(1.00, 0.00, -0.00, -1.00, 567.5, 628.2)">R</text><text xml:space="preserve" font-family="GillSans-Light,Gill Sans" font-size="72.0" fill="#525252" transform="matrix(1.00, 0.00, -0.00, -1.00, 608.8, 628.2)">E</text><text xml:space="preserve" font-family="GillSans-Light,Gill Sans" font-size="72.0" fill="#525252" transform="matrix(1.00, 0.00, -0.00, -1.00, 644.1, 628.2)"> </text><text xml:space="preserve" font-family="GillSans-Light,Gill Sans" font-size="72.0" fill="#525252" transform="matrix(1.00, 0.00, -0.00, -1.00, 664.1, 628.2)">S</text><text xml:space="preserve" font-family="GillSans-Light,Gill Sans" font-size="72.0" fill="#525252" transform="matrix(1.00, 0.00, -0.00, -1.00, 697.9, 628.2)">C</text><text xml:space="preserve" font-family="GillSans-Light,Gill Sans" font-size="72.0" fill="#525252" transform="matrix(1.00, 0.00, -0.00, -1.00, 749.8, 628.2)">A</text><text xml:space="preserve" font-family="GillSans-Light,Gill Sans" font-size="72.0" fill="#525252" transform="matrix(1.00, 0.00, -0.00, -1.00, 797.9, 628.2)">N</text><text xml:space="preserve" font-family="GillSans-Light,Gill Sans" font-size="26.5" fill="#525252" transform="matrix(1.00, 0.00, -0.00, -1.00, 32.0, 519.8)">•</text><text xml:space="preserve" font-family="GillSans-Light,Gill Sans" font-size="32.3" fill="#525252" transform="matrix(1.00, 0.00, -0.00, -1.00, 60.9, 517.7)">U</text><text xml:space="preserve" font-family="GillSans-Light,Gill Sans" font-size="32.3" fill="#525252" transform="matrix(1.00, 0.00, -0.00, -1.00, 83.5, 517.7)">s</text><text xml:space="preserve" font-family="GillSans-Light,Gill Sans" font-size="32.3" fill="#525252" transform="matrix(1.00, 0.00, -0.00, -1.00, 94.9, 517.7)">e</text><text xml:space="preserve" font-family="GillSans-Light,Gill Sans" font-size="32.3" fill="#525252" transform="matrix(1.00, 0.00, -0.00, -1.00, 110.4, 517.7)">r</text><text xml:space="preserve" font-family="GillSans-Light,Gill Sans" font-size="32.3" fill="#525252" transform="matrix(1.00, 0.00, -0.00, -1.00, 121.1, 517.7)"> </text><text xml:space="preserve" font-family="GillSans-Light,Gill Sans" font-size="32.3" fill="#525252" transform="matrix(1.00, 0.00, -0.00, -1.00, 130.1, 517.7)">m</text><text xml:space="preserve" font-family="GillSans-Light,Gill Sans" font-size="32.3" fill="#525252" transform="matrix(1.00, 0.00, -0.00, -1.00, 154.5, 517.7)">u</text><text xml:space="preserve" font-family="GillSans-Light,Gill Sans" font-size="32.3" fill="#525252" transform="matrix(1.00, 0.00, -0.00, -1.00, 170.3, 517.7)">s</text><text xml:space="preserve" font-family="GillSans-Light,Gill Sans" font-size="32.3" fill="#525252" transform="matrix(1.00, 0.00, -0.00, -1.00, 181.8, 517.7)">t</text><text xml:space="preserve" font-family="GillSans-Light,Gill Sans" font-size="32.3" fill="#525252" transform="matrix(1.00, 0.00, -0.00, -1.00, 191.5, 517.7)"> </text><text xml:space="preserve" font-family="GillSans-Light,Gill Sans" font-size="32.3" fill="#525252" transform="matrix(1.00, 0.00, -0.00, -1.00, 200.5, 517.7)">v</text><text xml:space="preserve" font-family="GillSans-Light,Gill Sans" font-size="32.3" fill="#525252" transform="matrix(1.00, 0.00, -0.00, -1.00, 213.8, 517.7)">e</text><text xml:space="preserve" font-family="GillSans-Light,Gill Sans" font-size="32.3" fill="#525252" transform="matrix(1.00, 0.00, -0.00, -1.00, 229.2, 517.7)">r</text><text xml:space="preserve" font-family="GillSans-Light,Gill Sans" font-size="32.3" fill="#525252" transform="matrix(1.00, 0.00, -0.00, -1.00, 240.8, 517.7)">i</text><text xml:space="preserve" font-family="GillSans-Light,Gill Sans" font-size="32.3" fill="#525252" transform="matrix(1.00, 0.00, -0.00, -1.00, 246.9, 517.7)">f</text><text xml:space="preserve" font-family="GillSans-Light,Gill Sans" font-size="32.3" fill="#525252" transform="matrix(1.00, 0.00, -0.00, -1.00, 254.6, 517.7)">y</text><text xml:space="preserve" font-family="GillSans-Light,Gill Sans" font-size="32.3" fill="#525252" transform="matrix(1.00, 0.00, -0.00, -1.00, 268.1, 517.7)"> </text><text xml:space="preserve" font-family="GillSans-Light,Gill Sans" font-size="32.3" fill="#525252" transform="matrix(1.00, 0.00, -0.00, -1.00, 277.1, 517.7)">p</text><text xml:space="preserve" font-family="GillSans-Light,Gill Sans" font-size="32.3" fill="#525252" transform="matrix(1.00, 0.00, -0.00, -1.00, 293.5, 517.7)">r</text><text xml:space="preserve" font-family="GillSans-Light,Gill Sans" font-size="32.3" fill="#525252" transform="matrix(1.00, 0.00, -0.00, -1.00, 304.3, 517.7)">e</text><text xml:space="preserve" font-family="GillSans-Light,Gill Sans" font-size="32.3" fill="#525252" transform="matrix(1.00, 0.00, -0.00, -1.00, 319.8, 517.7)">s</text><text xml:space="preserve" font-family="GillSans-Light,Gill Sans" font-size="32.3" fill="#525252" transform="matrix(1.00, 0.00, -0.00, -1.00, 331.2, 517.7)">e</text><text xml:space="preserve" font-family="GillSans-Light,Gill Sans" font-size="32.3" fill="#525252" transform="matrix(1.00, 0.00, -0.00, -1.00, 346.7, 517.7)">n</text><text xml:space="preserve" font-family="GillSans-Light,Gill Sans" font-size="32.3" fill="#525252" transform="matrix(1.00, 0.00, -0.00, -1.00, 362.5, 517.7)">c</text><text xml:space="preserve" font-family="GillSans-Light,Gill Sans" font-size="32.3" fill="#525252" transform="matrix(1.00, 0.00, -0.00, -1.00, 376.0, 517.7)">e</text><text xml:space="preserve" font-family="GillSans-Light,Gill Sans" font-size="32.3" fill="#525252" transform="matrix(1.00, 0.00, -0.00, -1.00, 391.5, 517.7)"> </text><text xml:space="preserve" font-family="GillSans-Light,Gill Sans" font-size="32.3" fill="#525252" transform="matrix(1.00, 0.00, -0.00, -1.00, 400.4, 517.7)">i</text><text xml:space="preserve" font-family="GillSans-Light,Gill Sans" font-size="32.3" fill="#525252" transform="matrix(1.00, 0.00, -0.00, -1.00, 406.5, 517.7)">n</text><text xml:space="preserve" font-family="GillSans-Light,Gill Sans" font-size="32.3" fill="#525252" transform="matrix(1.00, 0.00, -0.00, -1.00, 422.3, 517.7)"> </text><text xml:space="preserve" font-family="GillSans-Light,Gill Sans" font-size="32.3" fill="#525252" transform="matrix(1.00, 0.00, -0.00, -1.00, 60.9, 480.7)">s</text><text xml:space="preserve" font-family="GillSans-Light,Gill Sans" font-size="32.3" fill="#525252" transform="matrix(1.00, 0.00, -0.00, -1.00, 72.3, 480.7)">t</text><text xml:space="preserve" font-family="GillSans-Light,Gill Sans" font-size="32.3" fill="#525252" transform="matrix(1.00, 0.00, -0.00, -1.00, 82.1, 480.7)">o</text><text xml:space="preserve" font-family="GillSans-Light,Gill Sans" font-size="32.3" fill="#525252" transform="matrix(1.00, 0.00, -0.00, -1.00, 99.6, 480.7)">r</text><text xml:space="preserve" font-family="GillSans-Light,Gill Sans" font-size="32.3" fill="#525252" transform="matrix(1.00, 0.00, -0.00, -1.00, 110.3, 480.7)">e</text><text xml:space="preserve" font-family="GillSans-Light,Gill Sans" font-size="32.3" fill="#525252" transform="matrix(1.00, 0.00, -0.00, -1.00, 126.8, 480.7)">.</text><text xml:space="preserve" font-family="GillSans-Light,Gill Sans" font-size="26.5" fill="#525252" transform="matrix(1.00, 0.00, -0.00, -1.00, 32.0, 413.5)">•</text><text xml:space="preserve" font-family="GillSans-Light,Gill Sans" font-size="32.3" fill="#525252" transform="matrix(1.00, 0.00, -0.00, -1.00, 60.9, 411.4)">L</text><text xml:space="preserve" font-family="GillSans-Light,Gill Sans" font-size="32.3" fill="#525252" transform="matrix(1.00, 0.00, -0.00, -1.00, 76.1, 411.4)">o</text><text xml:space="preserve" font-family="GillSans-Light,Gill Sans" font-size="32.3" fill="#525252" transform="matrix(1.00, 0.00, -0.00, -1.00, 93.6, 411.4)">g</text><text xml:space="preserve" font-family="GillSans-Light,Gill Sans" font-size="32.3" fill="#525252" transform="matrix(1.00, 0.00, -0.00, -1.00, 107.3, 411.4)">i</text><text xml:space="preserve" font-family="GillSans-Light,Gill Sans" font-size="32.3" fill="#525252" transform="matrix(1.00, 0.00, -0.00, -1.00, 113.4, 411.4)">c</text><text xml:space="preserve" font-family="GillSans-Light,Gill Sans" font-size="32.3" fill="#525252" transform="matrix(1.00, 0.00, -0.00, -1.00, 126.9, 411.4)">:</text><text xml:space="preserve" font-family="GillSans-Light,Gill Sans" font-size="32.3" fill="#525252" transform="matrix(1.00, 0.00, -0.00, -1.00, 130.0, 411.4)"> </text><text xml:space="preserve" font-family="GillSans-Light,Gill Sans" font-size="32.3" fill="#525252" transform="matrix(1.00, 0.00, -0.00, -1.00, 139.0, 411.4)">I</text><text xml:space="preserve" font-family="GillSans-Light,Gill Sans" font-size="32.3" fill="#525252" transform="matrix(1.00, 0.00, -0.00, -1.00, 145.7, 411.4)">f</text><text xml:space="preserve" font-family="GillSans-Light,Gill Sans" font-size="32.3" fill="#525252" transform="matrix(1.00, 0.00, -0.00, -1.00, 153.5, 411.4)"> </text><text xml:space="preserve" font-family="GillSans-Light,Gill Sans" font-size="32.3" fill="#525252" transform="matrix(1.00, 0.00, -0.00, -1.00, 162.4, 411.4)">n</text><text xml:space="preserve" font-family="GillSans-Light,Gill Sans" font-size="32.3" fill="#525252" transform="matrix(1.00, 0.00, -0.00, -1.00, 178.3, 411.4)">o</text><text xml:space="preserve" font-family="GillSans-Light,Gill Sans" font-size="32.3" fill="#525252" transform="matrix(1.00, 0.00, -0.00, -1.00, 195.8, 411.4)"> </text><text xml:space="preserve" font-family="GillSans-Light,Gill Sans" font-size="32.3" fill="#525252" transform="matrix(1.00, 0.00, -0.00, -1.00, 204.7, 411.4)">s</text><text xml:space="preserve" font-family="GillSans-Light,Gill Sans" font-size="32.3" fill="#525252" transform="matrix(1.00, 0.00, -0.00, -1.00, 216.2, 411.4)">t</text><text xml:space="preserve" font-family="GillSans-Light,Gill Sans" font-size="32.3" fill="#525252" transform="matrix(1.00, 0.00, -0.00, -1.00, 225.9, 411.4)">o</text><text xml:space="preserve" font-family="GillSans-Light,Gill Sans" font-size="32.3" fill="#525252" transform="matrix(1.00, 0.00, -0.00, -1.00, 243.4, 411.4)">r</text><text xml:space="preserve" font-family="GillSans-Light,Gill Sans" font-size="32.3" fill="#525252" transform="matrix(1.00, 0.00, -0.00, -1.00, 254.2, 411.4)">e</text><text xml:space="preserve" font-family="GillSans-Light,Gill Sans" font-size="32.3" fill="#525252" transform="matrix(1.00, 0.00, -0.00, -1.00, 269.6, 411.4)"> </text><text xml:space="preserve" font-family="GillSans-Light,Gill Sans" font-size="32.3" fill="#525252" transform="matrix(1.00, 0.00, -0.00, -1.00, 278.6, 411.4)">I</text><text xml:space="preserve" font-family="GillSans-Light,Gill Sans" font-size="32.3" fill="#525252" transform="matrix(1.00, 0.00, -0.00, -1.00, 285.3, 411.4)">D</text><text xml:space="preserve" font-family="GillSans-Light,Gill Sans" font-size="32.3" fill="#525252" transform="matrix(1.00, 0.00, -0.00, -1.00, 307.3, 411.4)">,</text><text xml:space="preserve" font-family="GillSans-Light,Gill Sans" font-size="32.3" fill="#525252" transform="matrix(1.00, 0.00, -0.00, -1.00, 310.4, 411.4)"> </text><text xml:space="preserve" font-family="GillSans-Light,Gill Sans" font-size="32.3" fill="#525252" transform="matrix(1.00, 0.00, -0.00, -1.00, 319.4, 411.4)">p</text><text xml:space="preserve" font-family="GillSans-Light,Gill Sans" font-size="32.3" fill="#525252" transform="matrix(1.00, 0.00, -0.00, -1.00, 335.9, 411.4)">r</text><text xml:space="preserve" font-family="GillSans-Light,Gill Sans" font-size="32.3" fill="#525252" transform="matrix(1.00, 0.00, -0.00, -1.00, 346.6, 411.4)">o</text><text xml:space="preserve" font-family="GillSans-Light,Gill Sans" font-size="32.3" fill="#525252" transform="matrix(1.00, 0.00, -0.00, -1.00, 364.1, 411.4)">m</text><text xml:space="preserve" font-family="GillSans-Light,Gill Sans" font-size="32.3" fill="#525252" transform="matrix(1.00, 0.00, -0.00, -1.00, 389.0, 411.4)">p</text><text xml:space="preserve" font-family="GillSans-Light,Gill Sans" font-size="32.3" fill="#525252" transform="matrix(1.00, 0.00, -0.00, -1.00, 405.5, 411.4)">t</text><text xml:space="preserve" font-family="GillSans-Light,Gill Sans" font-size="32.3" fill="#525252" transform="matrix(1.00, 0.00, -0.00, -1.00, 415.2, 411.4)"> </text><text xml:space="preserve" font-family="GillSans-Light,Gill Sans" font-size="32.3" fill="#525252" transform="matrix(1.00, 0.00, -0.00, -1.00, 424.2, 411.4)">s</text><text xml:space="preserve" font-family="GillSans-Light,Gill Sans" font-size="32.3" fill="#525252" transform="matrix(1.00, 0.00, -0.00, -1.00, 435.6, 411.4)">c</text><text xml:space="preserve" font-family="GillSans-Light,Gill Sans" font-size="32.3" fill="#525252" transform="matrix(1.00, 0.00, -0.00, -1.00, 449.1, 411.4)">a</text><text xml:space="preserve" font-family="GillSans-Light,Gill Sans" font-size="32.3" fill="#525252" transform="matrix(1.00, 0.00, -0.00, -1.00, 462.9, 411.4)">n</text><text xml:space="preserve" font-family="GillSans-Light,Gill Sans" font-size="32.3" fill="#525252" transform="matrix(1.00, 0.00, -0.00, -1.00, 478.7, 411.4)">.</text><image xlink:href="../../D31AEFA4-4373-4DBB-913F-BD083F7C32AA/assets/3EA3EA3334EADA10B1A1772AD681BA71.png" width="308.00" height="532.00" transform="matrix(1.00, 0.00, -0.00, -1.00, 607.1, 565.0)" opacity="0.60"></image><image xlink:href="../../D31AEFA4-4373-4DBB-913F-BD083F7C32AA/assets/B8BF99C8346A41C26FAF16244C390D4A.png" width="640.00" height="1136.00" transform="matrix(0.45, 0.00, -0.00, -0.45, 617.0, 561.0)"></image><image xlink:href="../../D31AEFA4-4373-4DBB-913F-BD083F7C32AA/assets/5F1C2218D2B216EE81269132392C3D42.png" width="469.00" height="341.00" transform="matrix(1.00, 0.00, -0.00, -1.00, 63.5, 376.2)" opacity="0.60"></image><image xlink:href="../../D31AEFA4-4373-4DBB-913F-BD083F7C32AA/assets/1D46E888F65E4DA268CFCF9B74148762.png" width="496.00" height="354.00" transform="matrix(0.91, 0.00, -0.00, -0.90, 74.0, 372.0)"></image></g></svg>