<?xml version="1.0" encoding="UTF-8" standalone="no"?>
<svg width="1999px" height="5867px" viewBox="0 0 1999 5867" version="1.1" xmlns="http://www.w3.org/2000/svg" xmlns:xlink="http://www.w3.org/1999/xlink" xmlns:sketch="http://www.bohemiancoding.com/sketch/ns">
    <!-- Generator: Sketch 3.2.2 (9983) - http://www.bohemiancoding.com/sketch -->
    <title>chai_app_mockup</title>
    <desc>Created with Sketch.</desc>
    <defs></defs>
    <g id="Page-1" stroke="none" stroke-width="1" fill="none" fill-rule="evenodd" sketch:type="MSPage">
        <g id="Register" sketch:type="MSLayerGroup" transform="translate(1122.000000, 58.000000)">
            <rect id="Rectangle-path" fill="#AFAFAF" sketch:type="MSShapeGroup" x="0" y="80" width="637.263158" height="1131"></rect>
            <rect id="Rectangle-path" stroke="#AFAFAF" fill="#FFFFFF" sketch:type="MSShapeGroup" x="2" y="621" width="637.263158" height="589.72067"></rect>
            <path d="M594.684211,1000.98324 L45.2105263,1000.98324 C42.8947368,1000.98324 41,999.087709 41,996.77095 L41,668.212291 C41,665.895531 42.8947368,664 45.2105263,664 L594.684211,664 C597,664 598.894737,665.895531 598.894737,668.212291 L598.894737,996.77095 C598.894737,999.087709 597,1000.98324 594.684211,1000.98324 Z" id="Shape" stroke="#AFAFAF" fill="#FFFFFF" sketch:type="MSShapeGroup"></path>
            <path d="M597.052632,1165.03352 C597.052632,1167.35028 595.157895,1169.24581 592.842105,1169.24581 L48.2105263,1169.24581 C45.8947368,1169.24581 44,1167.35028 44,1165.03352 L44,1089.21229 C44,1086.89553 45.8947368,1085 48.2105263,1085 L592.842105,1085 C595.157895,1085 597.052632,1086.89553 597.052632,1089.21229 L597.052632,1165.03352 L597.052632,1165.03352 Z" id="Shape" stroke="#A6A8AB" fill="#FFFFFF" sketch:type="MSShapeGroup"></path>
            <text id="FINISH" fill="#AFAFAF" sketch:type="MSTextLayer" font-family="Helvetica" font-size="25.0631673" font-weight="normal">
                <tspan x="278" y="1133" fill="#000000">FINISH</tspan>
            </text>
            <path d="M41,748 L598.894737,748" id="Shape" stroke="#E6E7E8" sketch:type="MSShapeGroup"></path>
            <path d="M41,832 L598.894737,832" id="Shape" stroke="#E6E7E8" sketch:type="MSShapeGroup"></path>
            <path d="M41,916 L598.894737,916" id="Shape" stroke="#E6E7E8" sketch:type="MSShapeGroup"></path>
            <text id="Email" fill="#AFAFAF" sketch:type="MSTextLayer" font-family="Helvetica" font-size="27.7684" font-weight="normal">
                <tspan x="70" y="713" fill="#000000">Email</tspan>
            </text>
            <text id="First-Name" fill="#AFAFAF" sketch:type="MSTextLayer" font-family="Helvetica" font-size="27.7684" font-weight="normal">
                <tspan x="70" y="797" fill="#000000">First Name</tspan>
            </text>
            <text id="Last-Name" fill="#AFAFAF" sketch:type="MSTextLayer" font-family="Helvetica" font-size="27.7684" font-weight="normal">
                <tspan x="70" y="881" fill="#000000">Last Name</tspan>
            </text>
            <text id="Password" fill="#AFAFAF" sketch:type="MSTextLayer" font-family="Helvetica" font-size="27.7684" font-weight="normal">
                <tspan x="70" y="966" fill="#000000">Password</tspan>
            </text>
            <path d="M1,1043 L638.263158,1043" id="Shape" stroke="#E6E7E8" sketch:type="MSShapeGroup"></path>
            <g id="chai_logo-2" transform="translate(209.921053, 159.106145)" sketch:type="MSShapeGroup">
                <g id="Page-1">
                    <g id="Cup">
                        <g id="InnerQR" transform="translate(21.669903, 127.285714)" fill="#FFFFFF">
                            <path d="M37.2374705,125.714286 L37.2374705,109.417989 L13.9640514,109.417989 L13.9640514,128.042328 L16.2913933,128.042328 L16.2913933,137.354497 L48.87418,137.354497 L48.87418,181.587302 L60.5108894,181.587302 L60.5108894,132.698413 L60.5108894,125.714286 L37.2374705,125.714286 L37.2374705,125.714286 Z M30.2554447,72.1693123 L37.2374705,72.1693123 L37.2374705,58.2010581 L2.3273419,58.2010581 L2.3273419,69.8412698 L2.3273419,79.1534391 L23.273419,79.1534391 L23.273419,86.1375662 L37.2374705,86.1375662 L37.2374705,72.1693123 L30.2554447,72.1693123 L30.2554447,72.1693123 Z M160.586592,13.968254 L160.586592,2.32804233 L148.949882,2.32804233 L148.949882,48.8888888 L160.586592,48.8888888 L160.586592,30.2645503 L172.223301,30.2645503 L172.223301,13.968254 L160.586592,13.968254 L160.586592,13.968254 Z M48.87418,37.2486772 L0,37.2486772 L0,48.8888888 L60.5108894,48.8888888 L60.5108894,40.7407407 L60.5108894,2.32804233 L48.87418,2.32804233 L48.87418,37.2486772 L48.87418,37.2486772 Z M60.5108894,135.026455 L74.474941,135.026455 L74.474941,148.994709 L60.5108894,148.994709 L60.5108894,135.026455 L60.5108894,135.026455 Z M74.474941,148.994709 L88.4389924,148.994709 L88.4389924,179.259259 L74.474941,179.259259 L74.474941,148.994709 L74.474941,148.994709 Z M88.4389924,130.37037 L148.949882,130.37037 L148.949882,142.010582 L88.4389924,142.010582 L88.4389924,130.37037 L88.4389924,130.37037 Z M88.4389924,142.010582 L104.730386,142.010582 L104.730386,165.291005 L88.4389924,165.291005 L88.4389924,142.010582 L88.4389924,142.010582 Z M116.367095,165.291005 L134.98583,165.291005 L134.98583,188.571429 L116.367095,188.571429 L116.367095,165.291005 L116.367095,165.291005 Z M116.367095,142.010582 L151.277224,142.010582 L151.277224,153.650794 L116.367095,153.650794 L116.367095,142.010582 L116.367095,142.010582 Z M60.5108894,13.968254 L74.474941,13.968254 L74.474941,44.2328042 L60.5108894,44.2328042 L60.5108894,13.968254 L60.5108894,13.968254 Z M74.474941,0 L88.4389924,0 L88.4389924,13.968254 L74.474941,13.968254 L74.474941,0 L74.474941,0 Z M11.6367095,2.32804233 L37.2374705,2.32804233 L37.2374705,27.936508 L11.6367095,27.936508 L11.6367095,2.32804233 L11.6367095,2.32804233 Z M109.38507,104.761905 L134.98583,104.761905 L134.98583,130.37037 L109.38507,130.37037 L109.38507,104.761905 L109.38507,104.761905 Z M111.712412,2.32804233 L137.313172,2.32804233 L137.313172,27.936508 L111.712412,27.936508 L111.712412,2.32804233 L111.712412,2.32804233 Z M100.075702,37.2486772 L148.949882,37.2486772 L148.949882,48.8888888 L100.075702,48.8888888 L100.075702,37.2486772 L100.075702,37.2486772 Z M60.5108894,58.2010581 L74.474941,58.2010581 L74.474941,72.1693123 L60.5108894,72.1693123 L60.5108894,58.2010581 L60.5108894,58.2010581 Z M74.474941,72.1693123 L88.4389924,72.1693123 L88.4389924,86.1375662 L74.474941,86.1375662 L74.474941,72.1693123 L74.474941,72.1693123 Z M74.474941,44.2328042 L88.4389924,44.2328042 L88.4389924,58.2010581 L74.474941,58.2010581 L74.474941,44.2328042 L74.474941,44.2328042 Z M37.2374705,48.8888888 L60.5108894,48.8888888 L60.5108894,58.2010581 L37.2374705,58.2010581 L37.2374705,48.8888888 L37.2374705,48.8888888 Z M37.2374705,86.1375662 L74.474941,86.1375662 L74.474941,109.417989 L37.2374705,109.417989 L37.2374705,86.1375662 L37.2374705,86.1375662 Z M74.474941,109.417989 L88.4389924,109.417989 L88.4389924,123.386243 L74.474941,123.386243 L74.474941,109.417989 L74.474941,109.417989 Z M141.967856,81.4814814 L158.25925,81.4814814 L158.25925,107.089947 L141.967856,107.089947 L141.967856,81.4814814 L141.967856,81.4814814 Z M88.4389924,86.1375662 L104.730386,86.1375662 L104.730386,130.37037 L88.4389924,130.37037 L88.4389924,86.1375662 L88.4389924,86.1375662 Z M88.4389924,58.2010581 L130.331147,58.2010581 L130.331147,74.4973546 L88.4389924,74.4973546 L88.4389924,58.2010581 L88.4389924,58.2010581 Z M130.331147,62.8571429 L146.62254,62.8571429 L146.62254,79.1534391 L130.331147,79.1534391 L130.331147,62.8571429 L130.331147,62.8571429 Z M141.967856,48.8888888 L160.586592,48.8888888 L160.586592,62.8571429 L141.967856,62.8571429 L141.967856,48.8888888 L141.967856,48.8888888 Z M111.712412,74.4973546 L130.331147,74.4973546 L130.331147,93.121693 L111.712412,93.121693 L111.712412,74.4973546 L111.712412,74.4973546 Z M88.4389924,2.32804233 L100.075702,2.32804233 L100.075702,48.8888888 L88.4389924,48.8888888 L88.4389924,2.32804233 L88.4389924,2.32804233 Z M11.6367095,146.666667 L37.2374705,146.666667 L37.2374705,172.275132 L11.6367095,172.275132 L11.6367095,146.666667 L11.6367095,146.666667 Z" id="Rectangle-3"></path>
                        </g>
                        <g id="Group">
                            <g>
                                <g id="path-1-link" stroke="#FFFFFF" stroke-width="4" fill="#AFAFAF">
                                    <path d="M224.82894,217.98783 C221.476012,238.154353 205.641849,253.249152 186.013583,256.178232 L179.692751,294.168013 C177.117895,309.712203 163.818482,320.995184 148.088596,320.995184 L60.6798447,320.995184 C44.9419379,320.995184 31.6505456,309.712203 29.067668,294.159987 L0.391308738,121.689274 C-0.00173786408,119.362059 0.656013592,116.986695 2.1880932,115.181097 C3.7041301,113.383524 5.95011068,112.348314 8.30839029,112.348314 L232.930513,112.348314 C235.280771,112.348314 237.526751,113.383524 239.042788,115.181097 C240.574868,116.986695 241.224598,119.362059 240.839573,121.689274 L224.82894,217.98783 L224.82894,217.98783 Z M17.7655728,128.398074 L44.8938097,291.535851 C46.1852485,299.303935 52.8189126,304.945427 60.6798447,304.945427 L148.088596,304.945427 C155.941507,304.945427 162.575171,299.303935 163.86661,291.535851 L191.002868,128.398074 L17.7655728,128.398074 L17.7655728,128.398074 Z M207.262163,128.398074 L188.853144,239.077214 C199.192676,235.578366 207.117779,226.694824 209.002798,215.355669 L223.465309,128.398074 L207.262163,128.398074 L207.262163,128.398074 Z M136.674202,56.1741574 C132.23839,56.1741574 128.652843,52.5790113 128.652843,48.1492777 L128.652843,8.02487961 C128.652843,3.59514606 132.23839,0 136.674202,0 C141.101992,0 144.695561,3.59514606 144.695561,8.02487961 L144.695561,48.1492777 C144.695561,52.5790113 141.101992,56.1741574 136.674202,56.1741574 L136.674202,56.1741574 L136.674202,56.1741574 Z M104.588765,80.2487961 C100.152953,80.2487961 96.5674058,76.65365 96.5674058,72.2239164 L96.5674058,8.02487961 C96.5674058,3.59514606 100.152953,0 104.588765,0 C109.016555,0 112.610124,3.59514606 112.610124,8.02487961 L112.610124,72.2239164 C112.610124,76.65365 109.016555,80.2487961 104.588765,80.2487961 L104.588765,80.2487961 L104.588765,80.2487961 Z M72.5033282,80.2487961 C68.0675165,80.2487961 64.4819689,76.65365 64.4819689,72.2239164 L64.4819689,32.0995184 C64.4819689,27.6697848 68.0675165,24.0746387 72.5033282,24.0746387 C76.9311184,24.0746387 80.5246874,27.6697848 80.5246874,32.0995184 L80.5246874,72.2239164 C80.5246874,76.65365 76.9311184,80.2487961 72.5033282,80.2487961 L72.5033282,80.2487961 L72.5033282,80.2487961 Z M12.6158602,322.142742 C63.4712777,352.741608 146.219619,352.741608 197.075037,322.142742 C200.861118,319.847628 205.802276,321.083459 208.080342,324.879227 C210.366429,328.68302 209.139161,333.610294 205.345058,335.897385 C177.639283,352.565061 141.238355,360.902911 104.845449,360.902911 C68.4525417,360.902911 32.0516136,352.565061 4.33781748,335.897385 C0.551735922,333.610294 -0.675532039,328.68302 1.61055534,324.879227 C3.88862136,321.075433 8.82977864,319.855652 12.6158602,322.142742 L12.6158602,322.142742 L12.6158602,322.142742 Z" id="path-1"></path>
                                </g>
                                <path d="M224.82894,217.98783 C221.476012,238.154353 205.641849,253.249152 186.013583,256.178232 L179.692751,294.168013 C177.117895,309.712203 163.818482,320.995184 148.088596,320.995184 L60.6798447,320.995184 C44.9419379,320.995184 31.6505456,309.712203 29.067668,294.159987 L0.391308738,121.689274 C-0.00173786408,119.362059 0.656013592,116.986695 2.1880932,115.181097 C3.7041301,113.383524 5.95011068,112.348314 8.30839029,112.348314 L232.930513,112.348314 C235.280771,112.348314 237.526751,113.383524 239.042788,115.181097 C240.574868,116.986695 241.224598,119.362059 240.839573,121.689274 L224.82894,217.98783 L224.82894,217.98783 Z M17.7655728,128.398074 L44.8938097,291.535851 C46.1852485,299.303935 52.8189126,304.945427 60.6798447,304.945427 L148.088596,304.945427 C155.941507,304.945427 162.575171,299.303935 163.86661,291.535851 L191.002868,128.398074 L17.7655728,128.398074 L17.7655728,128.398074 Z M207.262163,128.398074 L188.853144,239.077214 C199.192676,235.578366 207.117779,226.694824 209.002798,215.355669 L223.465309,128.398074 L207.262163,128.398074 L207.262163,128.398074 Z M136.674202,56.1741574 C132.23839,56.1741574 128.652843,52.5790113 128.652843,48.1492777 L128.652843,8.02487961 C128.652843,3.59514606 132.23839,0 136.674202,0 C141.101992,0 144.695561,3.59514606 144.695561,8.02487961 L144.695561,48.1492777 C144.695561,52.5790113 141.101992,56.1741574 136.674202,56.1741574 L136.674202,56.1741574 L136.674202,56.1741574 Z M104.588765,80.2487961 C100.152953,80.2487961 96.5674058,76.65365 96.5674058,72.2239164 L96.5674058,8.02487961 C96.5674058,3.59514606 100.152953,0 104.588765,0 C109.016555,0 112.610124,3.59514606 112.610124,8.02487961 L112.610124,72.2239164 C112.610124,76.65365 109.016555,80.2487961 104.588765,80.2487961 L104.588765,80.2487961 L104.588765,80.2487961 Z M72.5033282,80.2487961 C68.0675165,80.2487961 64.4819689,76.65365 64.4819689,72.2239164 L64.4819689,32.0995184 C64.4819689,27.6697848 68.0675165,24.0746387 72.5033282,24.0746387 C76.9311184,24.0746387 80.5246874,27.6697848 80.5246874,32.0995184 L80.5246874,72.2239164 C80.5246874,76.65365 76.9311184,80.2487961 72.5033282,80.2487961 L72.5033282,80.2487961 L72.5033282,80.2487961 Z M12.6158602,322.142742 C63.4712777,352.741608 146.219619,352.741608 197.075037,322.142742 C200.861118,319.847628 205.802276,321.083459 208.080342,324.879227 C210.366429,328.68302 209.139161,333.610294 205.345058,335.897385 C177.639283,352.565061 141.238355,360.902911 104.845449,360.902911 C68.4525417,360.902911 32.0516136,352.565061 4.33781748,335.897385 C0.551735922,333.610294 -0.675532039,328.68302 1.61055534,324.879227 C3.88862136,321.075433 8.82977864,319.855652 12.6158602,322.142742 L12.6158602,322.142742 L12.6158602,322.142742 Z" id="path-1"></path>
                            </g>
                        </g>
                    </g>
                </g>
            </g>
            <text fill="#AFAFAF" sketch:type="MSTextLayer" font-family="Helvetica" font-size="48" font-weight="normal">
                <tspan x="5" y="47.1061453" fill="#000000">Register</tspan>
            </text>
        </g>
        <g id="Home/Login" sketch:type="MSLayerGroup" transform="translate(210.000000, 60.000000)">
            <g id="base">
                <rect id="Rectangle-path" fill="#AFAFAF" sketch:type="MSShapeGroup" x="0" y="74" width="639.366337" height="1134"></rect>
                <rect id="Rectangle-path" stroke="#AFAFAF" fill="#FFFFFF" sketch:type="MSShapeGroup" x="0" y="617" width="639.366337" height="591.284916"></rect>
                <path d="M599.735974,823.715084 C599.735974,826.037989 597.834983,827.938547 595.511551,827.938547 L44.2244224,827.938547 C41.9009901,827.938547 40,826.037989 40,823.715084 L40,663.223464 C40,660.900559 41.9009901,659 44.2244224,659 L595.511551,659 C597.834983,659 599.735974,660.900559 599.735974,663.223464 L599.735974,823.715084 L599.735974,823.715084 Z" id="Shape" stroke="#AFAFAF" fill="#FFFFFF" sketch:type="MSShapeGroup"></path>
                <path d="M596.877888,1161.24581 C596.877888,1163.56872 594.976898,1165.46927 592.653465,1165.46927 L46.2244224,1165.46927 C43.9009901,1165.46927 42,1163.56872 42,1161.24581 L42,1085.22346 C42,1082.90056 43.9009901,1081 46.2244224,1081 L592.653465,1081 C594.976898,1081 596.877888,1082.90056 596.877888,1085.22346 L596.877888,1161.24581 L596.877888,1161.24581 Z" id="Shape" stroke="#AFAFAF" stroke-width="2" sketch:type="MSShapeGroup"></path>
                <path d="M596.877888,950.24581 C596.877888,952.568715 594.976898,954.469274 592.653465,954.469274 L46.2244224,954.469274 C43.9009901,954.469274 42,952.568715 42,950.24581 L42,874.223464 C42,871.900559 43.9009901,870 46.2244224,870 L592.653465,870 C594.976898,870 596.877888,871.900559 596.877888,874.223464 L596.877888,950.24581 L596.877888,950.24581 Z" id="Shape" stroke="#AFAFAF" fill="#FFFFFF" sketch:type="MSShapeGroup"></path>
                <text id="SIGN-IN" fill="#AFAFAF" sketch:type="MSTextLayer" font-family="Helvetica" font-size="24" font-weight="normal">
                    <tspan x="271" y="917" fill="#000000">SIGN IN</tspan>
                </text>
                <text id="Home/Login" fill="#AFAFAF" sketch:type="MSTextLayer" font-family="Helvetica" font-size="48" font-weight="normal">
                    <tspan x="0" y="47" fill="#000000">Home/Login</tspan>
                </text>
                <text id="CREATE-ACCOUNT" fill="#A6A8AB" sketch:type="MSTextLayer" font-family="Helvetica" font-size="25.0631673" font-weight="normal">
                    <tspan x="198" y="1129" fill="#000000">CREATE ACCOUNT</tspan>
                </text>
                <path d="M40,743 L599.735974,743" id="Shape" stroke="#AFAFAF" sketch:type="MSShapeGroup"></path>
                <text id="Email-Address" fill="#AFAFAF" sketch:type="MSTextLayer" font-family="Helvetica" font-size="27.7684" font-weight="normal">
                    <tspan x="69" y="708" fill="#000000">Email Address</tspan>
                </text>
                <text id="Password" fill="#AFAFAF" sketch:type="MSTextLayer" font-family="Helvetica" font-size="27.7684" font-weight="normal">
                    <tspan x="69" y="793" fill="#000000">Password</tspan>
                </text>
                <path d="M0,1039 L639.366337,1039" id="Shape" stroke="#E6E7E8" sketch:type="MSShapeGroup"></path>
            </g>
            <g id="chai_logo" transform="translate(210.000000, 157.469274)" sketch:type="MSShapeGroup">
                <g id="Page-1">
                    <g id="Cup">
                        <g id="InnerQR" transform="translate(21.669903, 127.285714)" fill="#FFFFFF">
                            <path d="M37.2374705,125.714286 L37.2374705,109.417989 L13.9640514,109.417989 L13.9640514,128.042328 L16.2913933,128.042328 L16.2913933,137.354497 L48.87418,137.354497 L48.87418,181.587302 L60.5108894,181.587302 L60.5108894,132.698413 L60.5108894,125.714286 L37.2374705,125.714286 L37.2374705,125.714286 Z M30.2554447,72.1693123 L37.2374705,72.1693123 L37.2374705,58.2010581 L2.3273419,58.2010581 L2.3273419,69.8412698 L2.3273419,79.1534391 L23.273419,79.1534391 L23.273419,86.1375662 L37.2374705,86.1375662 L37.2374705,72.1693123 L30.2554447,72.1693123 L30.2554447,72.1693123 Z M160.586592,13.968254 L160.586592,2.32804233 L148.949882,2.32804233 L148.949882,48.8888888 L160.586592,48.8888888 L160.586592,30.2645503 L172.223301,30.2645503 L172.223301,13.968254 L160.586592,13.968254 L160.586592,13.968254 Z M48.87418,37.2486772 L0,37.2486772 L0,48.8888888 L60.5108894,48.8888888 L60.5108894,40.7407407 L60.5108894,2.32804233 L48.87418,2.32804233 L48.87418,37.2486772 L48.87418,37.2486772 Z M60.5108894,135.026455 L74.474941,135.026455 L74.474941,148.994709 L60.5108894,148.994709 L60.5108894,135.026455 L60.5108894,135.026455 Z M74.474941,148.994709 L88.4389924,148.994709 L88.4389924,179.259259 L74.474941,179.259259 L74.474941,148.994709 L74.474941,148.994709 Z M88.4389924,130.37037 L148.949882,130.37037 L148.949882,142.010582 L88.4389924,142.010582 L88.4389924,130.37037 L88.4389924,130.37037 Z M88.4389924,142.010582 L104.730386,142.010582 L104.730386,165.291005 L88.4389924,165.291005 L88.4389924,142.010582 L88.4389924,142.010582 Z M116.367095,165.291005 L134.98583,165.291005 L134.98583,188.571429 L116.367095,188.571429 L116.367095,165.291005 L116.367095,165.291005 Z M116.367095,142.010582 L151.277224,142.010582 L151.277224,153.650794 L116.367095,153.650794 L116.367095,142.010582 L116.367095,142.010582 Z M60.5108894,13.968254 L74.474941,13.968254 L74.474941,44.2328042 L60.5108894,44.2328042 L60.5108894,13.968254 L60.5108894,13.968254 Z M74.474941,0 L88.4389924,0 L88.4389924,13.968254 L74.474941,13.968254 L74.474941,0 L74.474941,0 Z M11.6367095,2.32804233 L37.2374705,2.32804233 L37.2374705,27.936508 L11.6367095,27.936508 L11.6367095,2.32804233 L11.6367095,2.32804233 Z M109.38507,104.761905 L134.98583,104.761905 L134.98583,130.37037 L109.38507,130.37037 L109.38507,104.761905 L109.38507,104.761905 Z M111.712412,2.32804233 L137.313172,2.32804233 L137.313172,27.936508 L111.712412,27.936508 L111.712412,2.32804233 L111.712412,2.32804233 Z M100.075702,37.2486772 L148.949882,37.2486772 L148.949882,48.8888888 L100.075702,48.8888888 L100.075702,37.2486772 L100.075702,37.2486772 Z M60.5108894,58.2010581 L74.474941,58.2010581 L74.474941,72.1693123 L60.5108894,72.1693123 L60.5108894,58.2010581 L60.5108894,58.2010581 Z M74.474941,72.1693123 L88.4389924,72.1693123 L88.4389924,86.1375662 L74.474941,86.1375662 L74.474941,72.1693123 L74.474941,72.1693123 Z M74.474941,44.2328042 L88.4389924,44.2328042 L88.4389924,58.2010581 L74.474941,58.2010581 L74.474941,44.2328042 L74.474941,44.2328042 Z M37.2374705,48.8888888 L60.5108894,48.8888888 L60.5108894,58.2010581 L37.2374705,58.2010581 L37.2374705,48.8888888 L37.2374705,48.8888888 Z M37.2374705,86.1375662 L74.474941,86.1375662 L74.474941,109.417989 L37.2374705,109.417989 L37.2374705,86.1375662 L37.2374705,86.1375662 Z M74.474941,109.417989 L88.4389924,109.417989 L88.4389924,123.386243 L74.474941,123.386243 L74.474941,109.417989 L74.474941,109.417989 Z M141.967856,81.4814814 L158.25925,81.4814814 L158.25925,107.089947 L141.967856,107.089947 L141.967856,81.4814814 L141.967856,81.4814814 Z M88.4389924,86.1375662 L104.730386,86.1375662 L104.730386,130.37037 L88.4389924,130.37037 L88.4389924,86.1375662 L88.4389924,86.1375662 Z M88.4389924,58.2010581 L130.331147,58.2010581 L130.331147,74.4973546 L88.4389924,74.4973546 L88.4389924,58.2010581 L88.4389924,58.2010581 Z M130.331147,62.8571429 L146.62254,62.8571429 L146.62254,79.1534391 L130.331147,79.1534391 L130.331147,62.8571429 L130.331147,62.8571429 Z M141.967856,48.8888888 L160.586592,48.8888888 L160.586592,62.8571429 L141.967856,62.8571429 L141.967856,48.8888888 L141.967856,48.8888888 Z M111.712412,74.4973546 L130.331147,74.4973546 L130.331147,93.121693 L111.712412,93.121693 L111.712412,74.4973546 L111.712412,74.4973546 Z M88.4389924,2.32804233 L100.075702,2.32804233 L100.075702,48.8888888 L88.4389924,48.8888888 L88.4389924,2.32804233 L88.4389924,2.32804233 Z M11.6367095,146.666667 L37.2374705,146.666667 L37.2374705,172.275132 L11.6367095,172.275132 L11.6367095,146.666667 L11.6367095,146.666667 Z" id="Rectangle-3"></path>
                        </g>
                        <g id="Group">
                            <g>
                                <g id="path-1-link" stroke="#FFFFFF" stroke-width="4" fill="#AFAFAF">
                                    <path d="M224.82894,217.98783 C221.476012,238.154353 205.641849,253.249152 186.013583,256.178232 L179.692751,294.168013 C177.117895,309.712203 163.818482,320.995184 148.088596,320.995184 L60.6798447,320.995184 C44.9419379,320.995184 31.6505456,309.712203 29.067668,294.159987 L0.391308738,121.689274 C-0.00173786408,119.362059 0.656013592,116.986695 2.1880932,115.181097 C3.7041301,113.383524 5.95011068,112.348314 8.30839029,112.348314 L232.930513,112.348314 C235.280771,112.348314 237.526751,113.383524 239.042788,115.181097 C240.574868,116.986695 241.224598,119.362059 240.839573,121.689274 L224.82894,217.98783 L224.82894,217.98783 Z M17.7655728,128.398074 L44.8938097,291.535851 C46.1852485,299.303935 52.8189126,304.945427 60.6798447,304.945427 L148.088596,304.945427 C155.941507,304.945427 162.575171,299.303935 163.86661,291.535851 L191.002868,128.398074 L17.7655728,128.398074 L17.7655728,128.398074 Z M207.262163,128.398074 L188.853144,239.077214 C199.192676,235.578366 207.117779,226.694824 209.002798,215.355669 L223.465309,128.398074 L207.262163,128.398074 L207.262163,128.398074 Z M136.674202,56.1741574 C132.23839,56.1741574 128.652843,52.5790113 128.652843,48.1492777 L128.652843,8.02487961 C128.652843,3.59514606 132.23839,0 136.674202,0 C141.101992,0 144.695561,3.59514606 144.695561,8.02487961 L144.695561,48.1492777 C144.695561,52.5790113 141.101992,56.1741574 136.674202,56.1741574 L136.674202,56.1741574 L136.674202,56.1741574 Z M104.588765,80.2487961 C100.152953,80.2487961 96.5674058,76.65365 96.5674058,72.2239164 L96.5674058,8.02487961 C96.5674058,3.59514606 100.152953,0 104.588765,0 C109.016555,0 112.610124,3.59514606 112.610124,8.02487961 L112.610124,72.2239164 C112.610124,76.65365 109.016555,80.2487961 104.588765,80.2487961 L104.588765,80.2487961 L104.588765,80.2487961 Z M72.5033282,80.2487961 C68.0675165,80.2487961 64.4819689,76.65365 64.4819689,72.2239164 L64.4819689,32.0995184 C64.4819689,27.6697848 68.0675165,24.0746387 72.5033282,24.0746387 C76.9311184,24.0746387 80.5246874,27.6697848 80.5246874,32.0995184 L80.5246874,72.2239164 C80.5246874,76.65365 76.9311184,80.2487961 72.5033282,80.2487961 L72.5033282,80.2487961 L72.5033282,80.2487961 Z M12.6158602,322.142742 C63.4712777,352.741608 146.219619,352.741608 197.075037,322.142742 C200.861118,319.847628 205.802276,321.083459 208.080342,324.879227 C210.366429,328.68302 209.139161,333.610294 205.345058,335.897385 C177.639283,352.565061 141.238355,360.902911 104.845449,360.902911 C68.4525417,360.902911 32.0516136,352.565061 4.33781748,335.897385 C0.551735922,333.610294 -0.675532039,328.68302 1.61055534,324.879227 C3.88862136,321.075433 8.82977864,319.855652 12.6158602,322.142742 L12.6158602,322.142742 L12.6158602,322.142742 Z" id="path-1"></path>
                                </g>
                                <path d="M224.82894,217.98783 C221.476012,238.154353 205.641849,253.249152 186.013583,256.178232 L179.692751,294.168013 C177.117895,309.712203 163.818482,320.995184 148.088596,320.995184 L60.6798447,320.995184 C44.9419379,320.995184 31.6505456,309.712203 29.067668,294.159987 L0.391308738,121.689274 C-0.00173786408,119.362059 0.656013592,116.986695 2.1880932,115.181097 C3.7041301,113.383524 5.95011068,112.348314 8.30839029,112.348314 L232.930513,112.348314 C235.280771,112.348314 237.526751,113.383524 239.042788,115.181097 C240.574868,116.986695 241.224598,119.362059 240.839573,121.689274 L224.82894,217.98783 L224.82894,217.98783 Z M17.7655728,128.398074 L44.8938097,291.535851 C46.1852485,299.303935 52.8189126,304.945427 60.6798447,304.945427 L148.088596,304.945427 C155.941507,304.945427 162.575171,299.303935 163.86661,291.535851 L191.002868,128.398074 L17.7655728,128.398074 L17.7655728,128.398074 Z M207.262163,128.398074 L188.853144,239.077214 C199.192676,235.578366 207.117779,226.694824 209.002798,215.355669 L223.465309,128.398074 L207.262163,128.398074 L207.262163,128.398074 Z M136.674202,56.1741574 C132.23839,56.1741574 128.652843,52.5790113 128.652843,48.1492777 L128.652843,8.02487961 C128.652843,3.59514606 132.23839,0 136.674202,0 C141.101992,0 144.695561,3.59514606 144.695561,8.02487961 L144.695561,48.1492777 C144.695561,52.5790113 141.101992,56.1741574 136.674202,56.1741574 L136.674202,56.1741574 L136.674202,56.1741574 Z M104.588765,80.2487961 C100.152953,80.2487961 96.5674058,76.65365 96.5674058,72.2239164 L96.5674058,8.02487961 C96.5674058,3.59514606 100.152953,0 104.588765,0 C109.016555,0 112.610124,3.59514606 112.610124,8.02487961 L112.610124,72.2239164 C112.610124,76.65365 109.016555,80.2487961 104.588765,80.2487961 L104.588765,80.2487961 L104.588765,80.2487961 Z M72.5033282,80.2487961 C68.0675165,80.2487961 64.4819689,76.65365 64.4819689,72.2239164 L64.4819689,32.0995184 C64.4819689,27.6697848 68.0675165,24.0746387 72.5033282,24.0746387 C76.9311184,24.0746387 80.5246874,27.6697848 80.5246874,32.0995184 L80.5246874,72.2239164 C80.5246874,76.65365 76.9311184,80.2487961 72.5033282,80.2487961 L72.5033282,80.2487961 L72.5033282,80.2487961 Z M12.6158602,322.142742 C63.4712777,352.741608 146.219619,352.741608 197.075037,322.142742 C200.861118,319.847628 205.802276,321.083459 208.080342,324.879227 C210.366429,328.68302 209.139161,333.610294 205.345058,335.897385 C177.639283,352.565061 141.238355,360.902911 104.845449,360.902911 C68.4525417,360.902911 32.0516136,352.565061 4.33781748,335.897385 C0.551735922,333.610294 -0.675532039,328.68302 1.61055534,324.879227 C3.88862136,321.075433 8.82977864,319.855652 12.6158602,322.142742 L12.6158602,322.142742 L12.6158602,322.142742 Z" id="path-1"></path>
                            </g>
                        </g>
                    </g>
                </g>
            </g>
            <g id="arrow-1-2a-2b" transform="translate(75.000000, 1209.000000)" sketch:type="MSShapeGroup">
                <path d="M968.529161,72.1511299 L968.529161,203.507062 C968.529161,215.548023 953.828094,225.399718 935.860124,225.399718 L0.218918919,225.399718" id="Shape" stroke="#BCBEC0" stroke-width="2"></path>
                <path d="M953.174714,73.4646893 L968.529161,45.8799435 L984.210298,73.6836158 L953.174714,73.4646893 Z" id="Shape" fill="#BCBEC0"></path>
                <path d="M99.9443787,883.28241 L3.21890382,883.28241 C1.68931753,883.28241 0.437837838,868.855299 0.437837838,851.222163 L0.437837838,0.343220339" id="Shape" stroke="#BCBEC0" stroke-width="2"></path>
                <path d="M100.218919,871.053672 L127.802703,881.34322 L100,891.851695 L100.218919,871.053672 Z" id="Shape" fill="#BCBEC0"></path>
            </g>
        </g>
        <g id="Store" sketch:type="MSLayerGroup" transform="translate(463.000000, 1632.000000)">
            <g id="arrow-1-2a-2b-2" transform="translate(88.886747, 1210.000000)" sketch:type="MSShapeGroup">
                <path d="M968.529161,72.1511299 L968.529161,203.507062 C968.529161,215.548023 953.828094,225.399718 935.860124,225.399718 L0.218918919,225.399718" id="Shape" stroke="#BCBEC0" stroke-width="2"></path>
                <path d="M953.174714,73.4646893 L968.529161,45.8799435 L984.210298,73.6836158 L953.174714,73.4646893 Z" id="Shape" fill="#BCBEC0"></path>
                <path d="M99.9443787,883.28241 L3.21890382,883.28241 C1.68931753,883.28241 0.437837838,868.855299 0.437837838,851.222163 L0.437837838,0.343220339" id="Shape" stroke="#BCBEC0" stroke-width="2"></path>
                <path d="M100.218919,871.053672 L127.802703,881.34322 L100,891.851695 L100.218919,871.053672 Z" id="Shape" fill="#BCBEC0"></path>
            </g>
            <path d="M0,1405 L638.912741,1405" id="Shape" stroke="#F1F1F2" sketch:type="MSShapeGroup"></path>
            <rect id="Rectangle-path" stroke="#AFAFAF" opacity="0.75" fill="#FFFFFF" sketch:type="MSShapeGroup" x="2" y="201" width="637.894737" height="1005.32839"></rect>
            <rect id="Rectangle-path" stroke="#AFAFAF" fill="#FFFFFF" sketch:type="MSShapeGroup" x="0" y="197" width="309.473684" height="1011.65121"></rect>
            <rect id="Rectangle-path" opacity="0.25" fill="#E6E7E8" sketch:type="MSShapeGroup" x="2" y="201" width="307.368421" height="84.3042672"></rect>
            <rect id="Rectangle-path" stroke="#AFAFAF" fill="#FFFFFF" sketch:type="MSShapeGroup" x="2" y="75" width="637.894737" height="126.456401"></rect>
            <text fill="#929497" sketch:type="MSTextLayer" font-family="Helvetica" font-size="26.8125" font-weight="normal">
                <tspan x="286" y="166" fill="#000000">Store</tspan>
            </text>
            <text id="Scan" fill="#929497" sketch:type="MSTextLayer" font-family="Helvetica" font-size="26.8125" font-weight="260">
                <tspan x="555.526316" y="164.2282" fill="#000000">Scan</tspan>
            </text>
            <path d="M2,201 L639.894737,201" id="Shape" stroke="#E6E7E8" sketch:type="MSShapeGroup"></path>
            <path d="M2,285 L309.368421,285" id="Shape" stroke="#E6E7E8" sketch:type="MSShapeGroup"></path>
            <path d="M2,369 L309.368421,369" id="Shape" stroke="#E6E7E8" sketch:type="MSShapeGroup"></path>
            <rect id="Rectangle-path" stroke="#D0D2D3" fill="#FFFFFF" sketch:type="MSShapeGroup" x="331" y="223" width="286.315789" height="354.077922"></rect>
            <rect id="Rectangle-path" opacity="0.25" fill="#E6E7E8" sketch:type="MSShapeGroup" x="331" y="223" width="286.315789" height="223.406308"></rect>
            <path d="M617.315789,446 L331,446" id="Shape" stroke="#E6E7E8" sketch:type="MSShapeGroup"></path>
            <text id="Product" fill="#929497" sketch:type="MSTextLayer" font-family="Helvetica" font-size="26.8125" font-weight="normal">
                <tspan x="424" y="499" fill="#000000">Product</tspan>
            </text>
            <text id="$4.75" fill="#BBBDBF" sketch:type="MSTextLayer" font-family="Helvetica" font-size="26.8125" font-weight="normal">
                <tspan x="431" y="540" fill="#000000">$4.75</tspan>
            </text>
            <rect id="Rectangle-path" stroke="#D0D2D3" fill="#FFFFFF" sketch:type="MSShapeGroup" x="331" y="600" width="286.315789" height="354.077922"></rect>
            <rect id="Rectangle-path" opacity="0.25" fill="#E6E7E8" sketch:type="MSShapeGroup" x="331" y="600" width="286.315789" height="223.406308"></rect>
            <path d="M617.315789,823 L331,823" id="Shape" stroke="#E6E7E8" sketch:type="MSShapeGroup"></path>
            <text id="Product" fill="#929497" sketch:type="MSTextLayer" font-family="Helvetica" font-size="26.8125" font-weight="normal">
                <tspan x="424" y="876" fill="#000000">Product</tspan>
            </text>
            <text id="$4.75" fill="#BBBDBF" sketch:type="MSTextLayer" font-family="Helvetica" font-size="26.8125" font-weight="normal">
                <tspan x="431" y="916" fill="#000000">$4.75</tspan>
            </text>
            <rect id="Rectangle-path" stroke="#D0D2D3" fill="#FFFFFF" sketch:type="MSShapeGroup" x="331" y="975" width="286.315789" height="233.944341"></rect>
            <rect id="Rectangle-path" opacity="0.25" fill="#E6E7E8" sketch:type="MSShapeGroup" x="331" y="975" width="286.315789" height="233.944341"></rect>
            <path d="M617.315789,1208 L331,1208" id="Shape" stroke="#E6E7E8" sketch:type="MSShapeGroup"></path>
            <text id="Favorites" fill="#929497" sketch:type="MSTextLayer" font-family="Helvetica" font-size="26.8125" font-weight="normal">
                <tspan x="95" y="250" fill="#000000">Favorites</tspan>
            </text>
            <text id="Coffee" fill="#929497" sketch:type="MSTextLayer" font-family="Helvetica" font-size="26.8125" font-weight="normal">
                <tspan x="95" y="335" fill="#000000">Coffee</tspan>
            </text>
            <path d="M2,454 L309.368421,454" id="Shape" stroke="#E6E7E8" sketch:type="MSShapeGroup"></path>
            <text id="Cold-Drinks" fill="#929497" sketch:type="MSTextLayer" font-family="Helvetica" font-size="26.8125" font-weight="normal">
                <tspan x="95" y="424" fill="#000000">Cold Drinks</tspan>
            </text>
            <path d="M2,538 L309.368421,538" id="Shape" stroke="#E6E7E8" sketch:type="MSShapeGroup"></path>
            <text id="Snacks" fill="#929497" sketch:type="MSTextLayer" font-family="Helvetica" font-size="26.8125" font-weight="normal">
                <tspan x="95" y="503" fill="#000000">Snacks</tspan>
            </text>
            <path d="M2,622 L309.368421,622" id="Shape" stroke="#E6E7E8" sketch:type="MSShapeGroup"></path>
            <text id="Breakfast" fill="#929497" sketch:type="MSTextLayer" font-family="Helvetica" font-size="26.8125" font-weight="normal">
                <tspan x="95" y="591" fill="#000000">Breakfast</tspan>
            </text>
            <path d="M2,707 L309.368421,707" id="Shape-2" stroke="#E6E7E8" sketch:type="MSShapeGroup"></path>
            <text id="Meals" fill="#929497" sketch:type="MSTextLayer" font-family="Helvetica" font-size="26.8125" font-weight="normal">
                <tspan x="95" y="672" fill="#000000">Meals</tspan>
            </text>
            <g id="Group" transform="translate(19.000000, 143.000000)" stroke="#A6A8AB" stroke-width="2" sketch:type="MSShapeGroup">
                <path d="M13.3069307,0.211359404 L0.633663366,12.8929236" id="Shape"></path>
                <path d="M0.633663366,12.8929236 L30.2046205,12.8929236" id="Shape"></path>
                <path d="M0.633663366,12.8929236 L13.3069307,25.5744879" id="Shape"></path>
            </g>
            <text fill="#AFAFAF" sketch:type="MSTextLayer" font-family="Helvetica" font-size="48" font-weight="normal">
                <tspan x="3" y="47.1076067" fill="#000000">Store</tspan>
            </text>
        </g>
        <g id="QR-Scanner" sketch:type="MSLayerGroup" transform="translate(1357.000000, 1632.000000)">
            <rect id="Rectangle-path" fill="#F1F1F2" sketch:type="MSShapeGroup" x="0" y="77" width="639.366337" height="1136.84618"></rect>
            <rect id="Rectangle-path" stroke="#929497" opacity="0.5" fill="#FFFFFF" sketch:type="MSShapeGroup" x="0" y="77" width="639.366337" height="190.213483"></rect>
            <rect id="Rectangle-path" stroke="#929497" opacity="0.5" fill="#FFFFFF" sketch:type="MSShapeGroup" x="0" y="908" width="639.366337" height="304.527304"></rect>
            <ellipse id="Oval" stroke="#D0D2D3" fill="#F1F1F2" sketch:type="MSShapeGroup" cx="317.336346" cy="1106.37054" rx="62.3363465" ry="62.3705407"></ellipse>
            <ellipse id="Oval" stroke="#D0D2D3" fill="#F1F1F2" sketch:type="MSShapeGroup" cx="317.668046" cy="1105.69639" rx="51.6680456" ry="51.6963877"></ellipse>
            <path d="M638.278792,267 L2.10167531,267 L5.68434189e-14,267 L5.68434189e-14,269.099532 L5.68434189e-14,904.62793 L5.68434189e-14,906.727462 L2.10167531,906.727462 L638.278792,906.727462 L640.380467,906.727462 L640.380467,904.62793 L640.380467,269.099532 L640.380467,267 L638.278792,267 Z" id="Shape" stroke="#AFAFAF" stroke-width="2" fill="#AFAFAF" sketch:type="MSShapeGroup"></path>
            <text fill="#AFAFAF" sketch:type="MSTextLayer" font-family="Helvetica" font-size="48" font-weight="normal">
                <tspan x="0" y="47" fill="#000000">QR Scanner</tspan>
            </text>
            <g id="Group-2" transform="translate(18.000000, 140.000000)" stroke="#A6A8AB" stroke-width="2" sketch:type="MSShapeGroup">
                <path d="M13.3069307,0.211359404 L0.633663366,12.8929236" id="Shape"></path>
                <path d="M0.633663366,12.8929236 L30.2046205,12.8929236" id="Shape"></path>
                <path d="M0.633663366,12.8929236 L13.3069307,25.5744879" id="Shape"></path>
            </g>
            <text fill="#929497" sketch:type="MSTextLayer" font-family="Helvetica" font-size="26.8125" font-weight="normal">
                <tspan x="242.254711" y="159.373916" fill="#000000">QR Scanner</tspan>
            </text>
            <g id="arrow" transform="translate(85.000000, 1214.000000)" sketch:type="MSShapeGroup">
                <path d="M237.883799,879.277091 L35.8100559,879.277091 C32.6145251,879.277091 30,864.909818 30,847.349818 L30,0" id="Shape-4" stroke="#BCBEC0" stroke-width="2" transform="translate(134.000000, 439.000000) scale(-1, 1) translate(-134.000000, -439.000000) "></path>
                <path d="M0.230769231,867 L29.3076923,878.28 L-2.09965378e-12,889.8 L0.230769231,867 Z" id="Shape-3" fill="#BCBEC0" transform="translate(15.000000, 879.000000) scale(-1, 1) translate(-15.000000, -879.000000) "></path>
            </g>
        </g>
        <g id="Product" sketch:type="MSLayerGroup" transform="translate(741.000000, 2162.000000)">
            <rect id="Rectangle-path" stroke="#AFAFAF" opacity="0.75" fill="#FFFFFF" sketch:type="MSShapeGroup" x="0" y="1292" width="638.943894" height="1008.18436"></rect>
            <rect id="Rectangle-path" stroke="#AFAFAF" fill="#FFFFFF" sketch:type="MSShapeGroup" x="0" y="1165" width="639.366337" height="126.815642"></rect>
            <text fill="#929497" sketch:type="MSTextLayer" font-family="Helvetica" font-size="26.8125" font-weight="normal">
                <tspan x="265.623762" y="1261.82829" fill="#000000">Product</tspan>
            </text>
            <path d="M0,1291 L639.366337,1291" id="Shape" stroke="#F1F1F2" sketch:type="MSShapeGroup"></path>
            <g id="Group" transform="translate(21.000000, 1366.000000)" sketch:type="MSShapeGroup">
                <rect id="Rectangle-path" fill="#F1F1F2" x="2.11221122" y="0" width="595.009901" height="468.583799"></rect>
                <g id="Shape" fill="#D0D2D3">
                    <path d="M595.432343,1.26815642 L595.432343,467.738361 L2.53465347,467.738361 L2.53465347,1.26815642 L595.432343,1.26815642 L595.432343,1.26815642 Z M597.544554,-0.845437616 L0.422442244,-0.845437616 L0.422442244,469.851955 L597.544554,469.851955 L597.544554,-0.845437616 L597.544554,-0.845437616 L597.544554,-0.845437616 Z"></path>
                </g>
            </g>
            <text id="Product-Name" fill="#929497" sketch:type="MSTextLayer" font-family="Helvetica" font-size="26.8125" font-weight="normal">
                <tspan x="22" y="1337" fill="#000000">Product Name</tspan>
            </text>
            <rect id="Rectangle-path" sketch:type="MSShapeGroup" x="42" y="1867" width="554.455446" height="94.2662942"></rect>
            <g id="Group" transform="translate(43.000000, 1866.000000)" font-size="22.8461538" font-family="Helvetica" fill="#BBBDBF" sketch:type="MSTextLayer" font-weight="normal">
                <text id="This-is-a-product-de">
                    <tspan x="0" y="23" fill="#000000">This is a product description.</tspan>
                </text>
            </g>
            <g id="Group" transform="translate(585.000000, 1231.000000)" stroke="#A6A8AB" stroke-width="2" sketch:type="MSShapeGroup">
                <path d="M16.6864686,0.634078212 L6.33663366,0.634078212 L0.422442244,8.03165736 L4.22442244,33.3947858 L16.6864686,33.3947858" id="Shape"></path>
                <path d="M9.5049505,15.2178771 C9.5049505,19.867784 12.8844884,23.038175 16.8976898,23.038175" id="Shape"></path>
                <path d="M0.422442244,8.03165736 L16.6864686,8.03165736" id="Shape"></path>
                <path d="M16.6864686,0.634078212 L27.2475248,0.634078212 L33.1617162,8.03165736 L29.359736,33.3947858 L16.6864686,33.3947858" id="Shape"></path>
                <path d="M24.0792079,15.2178771 C24.0792079,19.867784 20.69967,23.038175 16.6864686,23.038175" id="Shape"></path>
                <path d="M33.1617162,8.03165736 L16.6864686,8.03165736" id="Shape"></path>
            </g>
            <path d="M22,1983 L619.122112,1983" id="Shape" stroke="#F1F1F2" sketch:type="MSShapeGroup"></path>
            <text id="Option-1" fill="#A6A8AB" sketch:type="MSTextLayer" font-family="Helvetica" font-size="26.8125" font-weight="normal">
                <tspan x="43" y="2028" fill="#000000">Option 1</tspan>
            </text>
            <text id="$4.75--4" fill="#A6A8AB" sketch:type="MSTextLayer" font-family="Helvetica" font-size="26.8125" font-weight="normal">
                <tspan x="527.409241" y="2250" fill="#000000">$4.75 </tspan>
            </text>
            <g id="radiobutton_selected" transform="translate(564.000000, 2154.000000)" sketch:type="MSShapeGroup">
                <circle id="Oval" stroke="#BBBDBF" stroke-width="2" fill="#F1F1F2" cx="15" cy="15" r="15"></circle>
                <circle id="Oval" fill="#BBBDBF" cx="15.1" cy="15.1" r="8.1"></circle>
            </g>
            <path d="M22,2057 L619.122112,2057" id="Shape" stroke="#F1F1F2" sketch:type="MSShapeGroup"></path>
            <text id="Option-2" fill="#A6A8AB" sketch:type="MSTextLayer" font-family="Helvetica" font-size="26.8125" font-weight="normal">
                <tspan x="43" y="2102" fill="#000000">Option 2</tspan>
            </text>
            <path d="M22,2131 L619.122112,2131" id="Shape" stroke="#F1F1F2" sketch:type="MSShapeGroup"></path>
            <text id="Option-3" fill="#A6A8AB" sketch:type="MSTextLayer" font-family="Helvetica" font-size="26.8125" font-weight="normal">
                <tspan x="43" y="2176" fill="#000000">Option 3</tspan>
            </text>
            <path d="M22,2205 L619.122112,2205" id="Shape" stroke="#F1F1F2" sketch:type="MSShapeGroup"></path>
            <text id="Total" fill="#A6A8AB" sketch:type="MSTextLayer" font-family="Helvetica" font-size="26.8125" font-weight="normal">
                <tspan x="43" y="2250" fill="#000000">Total</tspan>
            </text>
            <path d="M79.6633663,1365 L22,1422.91248 L22,1487.16574 L144.085809,1365 L79.6633663,1365 Z" id="Shape" fill="#A6A8AB" sketch:type="MSShapeGroup"></path>
            <text id="SALE" fill="#FFFFFF" sketch:type="MSTextLayer" transform="translate(69.626769, 1409.000000) rotate(-45.000000) translate(-69.626769, -1409.000000) " font-family="Helvetica" font-size="22.8461538" font-weight="normal">
                <tspan x="39" y="1418" fill="#000000">SALE</tspan>
            </text>
            <g id="Group-3" transform="translate(22.000000, 1236.000000)" stroke="#A6A8AB" stroke-width="2" sketch:type="MSShapeGroup">
                <path d="M13.3069307,0.211359404 L0.633663366,12.8929236" id="Shape"></path>
                <path d="M0.633663366,12.8929236 L30.2046205,12.8929236" id="Shape"></path>
                <path d="M0.633663366,12.8929236 L13.3069307,25.5744879" id="Shape"></path>
            </g>
            <g id="radiobutton" transform="translate(563.000000, 2078.000000)" stroke="#BBBDBF" stroke-width="2" fill="#F1F1F2" sketch:type="MSShapeGroup">
                <circle id="Oval" cx="15" cy="15" r="15"></circle>
            </g>
            <g id="radiobutton" transform="translate(563.000000, 2003.000000)" stroke="#BBBDBF" stroke-width="2" fill="#F1F1F2" sketch:type="MSShapeGroup">
                <circle id="Oval" cx="15" cy="15" r="15"></circle>
            </g>
            <g id="arrow-start-1" transform="translate(513.000000, 12.000000) scale(-1, 1) translate(-513.000000, -12.000000) translate(409.000000, 0.000000)" sketch:type="MSShapeGroup">
                <path d="M173.989189,12 L1.12432432,12" id="Shape" stroke="#BCBEC0" stroke-width="2"></path>
                <path d="M172.302703,0.48 L207.718919,11.76 L172.021622,23.28 L172.302703,0.48 Z" id="Shape" fill="#BCBEC0"></path>
            </g>
            <text fill="#AFAFAF" sketch:type="MSTextLayer" font-family="Helvetica" font-size="48" font-weight="normal">
                <tspan x="0" y="1129" fill="#000000">Product</tspan>
            </text>
        </g>
        <g id="Payment" sketch:type="MSLayerGroup" transform="translate(210.000000, 4463.000000)">
            <rect id="Rectangle-path" stroke="#A6A8AB" opacity="0.75" fill="#FFFFFF" sketch:type="MSShapeGroup" x="1" y="281" width="639.366337" height="1009.0298"></rect>
            <rect id="Rectangle-path" stroke="#A6A8AB" fill="#FFFFFF" sketch:type="MSShapeGroup" x="1" y="154" width="639.366337" height="126.815642"></rect>
            <text fill="#929497" sketch:type="MSTextLayer" font-family="Helvetica" font-size="26.8125" font-weight="normal">
                <tspan x="263" y="245" fill="#000000">Payment</tspan>
            </text>
            <g id="Group" transform="translate(22.000000, 224.000000)" stroke="#A6A8AB" stroke-width="2" sketch:type="MSShapeGroup">
                <path d="M13.3069307,0.211359404 L0.633663366,12.8929236" id="Shape"></path>
                <path d="M0.633663366,12.8929236 L30.2046205,12.8929236" id="Shape"></path>
                <path d="M0.633663366,12.8929236 L13.3069307,25.5744879" id="Shape"></path>
            </g>
            <path d="M0,280 L639.577558,280" id="Shape" stroke="#E6E7E8" sketch:type="MSShapeGroup"></path>
            <g id="Group" transform="translate(28.000000, 321.000000)" sketch:type="MSShapeGroup">
                <path d="M6.75907591,86.8687151 C3.8019802,86.8687151 1.47854785,84.5437616 1.47854785,81.58473 L1.47854785,5.49534451 C1.47854785,2.53631285 3.8019802,0.211359404 6.75907591,0.211359404 L574.943894,0.211359404 C577.90099,0.211359404 580.224422,2.53631285 580.224422,5.49534451 L580.224422,81.58473 C580.224422,84.5437616 577.90099,86.8687151 574.943894,86.8687151 L6.75907591,86.8687151 L6.75907591,86.8687151 Z" id="Shape" fill="#FFFFFF"></path>
                <path d="M575.155116,1.26815642 C577.478548,1.26815642 579.379538,3.17039106 579.379538,5.49534451 L579.379538,81.58473 C579.379538,83.9096834 577.478548,85.8119181 575.155116,85.8119181 L6.97029703,85.8119181 C4.64686469,85.8119181 2.74587459,83.9096834 2.74587459,81.58473 L2.74587459,5.49534451 C2.74587459,3.17039106 4.64686469,1.26815642 6.97029703,1.26815642 L575.155116,1.26815642 L575.155116,1.26815642 Z M575.155116,-0.845437616 L6.97029703,-0.845437616 C3.37953795,-0.845437616 0.633663366,1.90223464 0.633663366,5.49534451 L0.633663366,81.58473 C0.633663366,85.1778399 3.37953795,87.9255121 6.97029703,87.9255121 L575.155116,87.9255121 C578.745875,87.9255121 581.491749,85.1778399 581.491749,81.58473 L581.491749,5.49534451 C581.491749,2.11359404 578.534653,-0.845437616 575.155116,-0.845437616 L575.155116,-0.845437616 L575.155116,-0.845437616 Z" id="Shape" fill="#D0D2D3"></path>
            </g>
            <text id="Full-Name" fill="#A6A8AB" sketch:type="MSTextLayer" font-family="Helvetica" font-size="27.4128938" font-weight="normal">
                <tspan x="57" y="373" fill="#000000">Full Name</tspan>
            </text>
            <g id="Group" transform="translate(28.000000, 448.000000)" sketch:type="MSShapeGroup">
                <path d="M6.75907591,86.8687151 C3.8019802,86.8687151 1.47854785,84.5437616 1.47854785,81.58473 L1.47854785,5.49534451 C1.47854785,2.53631285 3.8019802,0.211359404 6.75907591,0.211359404 L574.943894,0.211359404 C577.90099,0.211359404 580.224422,2.53631285 580.224422,5.49534451 L580.224422,81.58473 C580.224422,84.5437616 577.90099,86.8687151 574.943894,86.8687151 L6.75907591,86.8687151 L6.75907591,86.8687151 Z" id="Shape" fill="#FFFFFF"></path>
                <path d="M575.155116,1.26815642 C577.478548,1.26815642 579.379538,3.17039106 579.379538,5.49534451 L579.379538,81.58473 C579.379538,83.9096834 577.478548,85.8119181 575.155116,85.8119181 L6.97029703,85.8119181 C4.64686469,85.8119181 2.74587459,83.9096834 2.74587459,81.58473 L2.74587459,5.49534451 C2.74587459,3.17039106 4.64686469,1.26815642 6.97029703,1.26815642 L575.155116,1.26815642 L575.155116,1.26815642 Z M575.155116,-0.845437616 L6.97029703,-0.845437616 C3.37953795,-0.845437616 0.633663366,1.90223464 0.633663366,5.49534451 L0.633663366,81.58473 C0.633663366,85.1778399 3.37953795,87.9255121 6.97029703,87.9255121 L575.155116,87.9255121 C578.745875,87.9255121 581.491749,85.1778399 581.491749,81.58473 L581.491749,5.49534451 C581.491749,2.11359404 578.534653,-0.845437616 575.155116,-0.845437616 L575.155116,-0.845437616 L575.155116,-0.845437616 Z" id="Shape" fill="#D0D2D3"></path>
            </g>
            <text id="Card-Number" fill="#A6A8AB" sketch:type="MSTextLayer" font-family="Helvetica" font-size="27.4128938" font-weight="normal">
                <tspan x="57" y="500" fill="#000000">Card Number</tspan>
            </text>
            <text id="Expiration" fill="#A6A8AB" sketch:type="MSTextLayer" font-family="Helvetica" font-size="27.4128938" font-weight="normal">
                <tspan x="31" y="584" fill="#000000">Expiration</tspan>
            </text>
            <g id="Group" transform="translate(28.000000, 744.000000)" sketch:type="MSShapeGroup">
                <path d="M6.75907591,87.5027933 C3.8019802,87.5027933 1.47854785,85.1778399 1.47854785,82.2188082 L1.47854785,6.12942272 C1.47854785,3.17039106 3.8019802,0.845437616 6.75907591,0.845437616 L575.366337,0.845437616 C578.323432,0.845437616 580.646865,3.17039106 580.646865,6.12942272 L580.646865,82.2188082 C580.646865,85.1778399 578.323432,87.5027933 575.366337,87.5027933 L6.75907591,87.5027933 L6.75907591,87.5027933 Z" id="Shape" fill="#FFFFFF"></path>
                <path d="M575.366337,1.90223464 C577.689769,1.90223464 579.590759,3.80446927 579.590759,6.12942272 L579.590759,82.2188082 C579.590759,84.5437616 577.689769,86.4459963 575.366337,86.4459963 L6.75907591,86.4459963 C4.43564356,86.4459963 2.53465347,84.5437616 2.53465347,82.2188082 L2.53465347,6.12942272 C2.53465347,3.80446927 4.43564356,1.90223464 6.75907591,1.90223464 L575.366337,1.90223464 L575.366337,1.90223464 Z M575.366337,-0.211359404 L6.75907591,-0.211359404 C3.16831683,-0.211359404 0.422442244,2.53631285 0.422442244,6.12942272 L0.422442244,82.2188082 C0.422442244,85.8119181 3.16831683,88.5595903 6.75907591,88.5595903 L575.366337,88.5595903 C578.957096,88.5595903 581.70297,85.8119181 581.70297,82.2188082 L581.70297,6.12942272 C581.70297,2.53631285 578.957096,-0.211359404 575.366337,-0.211359404 L575.366337,-0.211359404 L575.366337,-0.211359404 Z" id="Shape" fill="#D0D2D3"></path>
            </g>
            <text id="CVC" fill="#A6A8AB" sketch:type="MSTextLayer" font-family="Helvetica" font-size="27.4128938" font-weight="normal">
                <tspan x="57" y="795" fill="#000000">CVC</tspan>
            </text>
            <g id="Group" transform="translate(28.000000, 617.000000)" sketch:type="MSShapeGroup">
                <path d="M6.75907591,86.8687151 C3.8019802,86.8687151 1.47854785,84.5437616 1.47854785,81.58473 L1.47854785,5.49534451 C1.47854785,2.53631285 3.8019802,0.211359404 6.75907591,0.211359404 L272.89769,0.211359404 C275.854785,0.211359404 278.178218,2.53631285 278.178218,5.49534451 L278.178218,81.58473 C278.178218,84.5437616 275.854785,86.8687151 272.89769,86.8687151 L6.75907591,86.8687151 L6.75907591,86.8687151 Z" id="Shape" fill="#FFFFFF"></path>
                <path d="M272.89769,1.26815642 C275.221122,1.26815642 277.122112,3.17039106 277.122112,5.49534451 L277.122112,81.58473 C277.122112,83.9096834 275.221122,85.8119181 272.89769,85.8119181 L6.75907591,85.8119181 C4.43564356,85.8119181 2.53465347,83.9096834 2.53465347,81.58473 L2.53465347,5.49534451 C2.53465347,3.17039106 4.43564356,1.26815642 6.75907591,1.26815642 L272.89769,1.26815642 L272.89769,1.26815642 Z M272.89769,-0.845437616 L6.75907591,-0.845437616 C3.16831683,-0.845437616 0.422442244,1.90223464 0.422442244,5.49534451 L0.422442244,81.58473 C0.422442244,85.1778399 3.16831683,87.9255121 6.75907591,87.9255121 L272.89769,87.9255121 C276.488449,87.9255121 279.234323,85.1778399 279.234323,81.58473 L279.234323,5.49534451 C279.234323,2.11359404 276.488449,-0.845437616 272.89769,-0.845437616 L272.89769,-0.845437616 L272.89769,-0.845437616 Z" id="Shape" fill="#D0D2D3"></path>
            </g>
            <g id="Group" transform="translate(219.000000, 617.000000)" sketch:type="MSShapeGroup">
                <path d="M1.47854785,86.8687151 L1.47854785,0.211359404 L82.7986799,0.211359404 C85.7557756,0.211359404 88.0792079,2.53631285 88.0792079,5.49534451 L88.0792079,81.58473 C88.0792079,84.5437616 85.7557756,86.8687151 82.7986799,86.8687151 L1.47854785,86.8687151 L1.47854785,86.8687151 Z" id="Shape" fill="#F1F1F2"></path>
                <path d="M82.7986799,1.26815642 C85.1221122,1.26815642 87.0231023,3.17039106 87.0231023,5.49534451 L87.0231023,81.58473 C87.0231023,83.9096834 85.1221122,85.8119181 82.7986799,85.8119181 L2.53465347,85.8119181 L2.53465347,1.26815642 L82.7986799,1.26815642 L82.7986799,1.26815642 Z M82.7986799,-0.845437616 L2.53465347,-0.845437616 L0.422442244,-0.845437616 L0.422442244,1.26815642 L0.422442244,85.8119181 L0.422442244,87.9255121 L2.53465347,87.9255121 L82.7986799,87.9255121 C86.3894389,87.9255121 89.1353135,85.1778399 89.1353135,81.58473 L89.1353135,5.49534451 C89.1353135,2.11359404 86.3894389,-0.845437616 82.7986799,-0.845437616 L82.7986799,-0.845437616 L82.7986799,-0.845437616 Z" id="Shape" fill="#D0D2D3"></path>
            </g>
            <path d="M250,656 L263.306931,669.315642 L276.613861,656" id="Shape" stroke="#BBBDBF" stroke-width="2" sketch:type="MSShapeGroup"></path>
            <g id="Group" transform="translate(333.000000, 617.000000)" sketch:type="MSShapeGroup">
                <path d="M6.97029703,86.8687151 C4.01320132,86.8687151 1.68976898,84.5437616 1.68976898,81.58473 L1.68976898,5.49534451 C1.68976898,2.53631285 4.01320132,0.211359404 6.97029703,0.211359404 L270.9967,0.211359404 C273.953795,0.211359404 276.277228,2.53631285 276.277228,5.49534451 L276.277228,81.58473 C276.277228,84.5437616 273.953795,86.8687151 270.9967,86.8687151 L6.97029703,86.8687151 L6.97029703,86.8687151 Z" id="Shape" fill="#FFFFFF"></path>
                <path d="M270.9967,1.26815642 C273.320132,1.26815642 275.221122,3.17039106 275.221122,5.49534451 L275.221122,81.58473 C275.221122,83.9096834 273.320132,85.8119181 270.9967,85.8119181 L6.97029703,85.8119181 C4.64686469,85.8119181 2.74587459,83.9096834 2.74587459,81.58473 L2.74587459,5.49534451 C2.74587459,3.17039106 4.64686469,1.26815642 6.97029703,1.26815642 L270.9967,1.26815642 L270.9967,1.26815642 Z M270.9967,-0.845437616 L6.97029703,-0.845437616 C3.37953795,-0.845437616 0.633663366,1.90223464 0.633663366,5.49534451 L0.633663366,81.58473 C0.633663366,85.1778399 3.37953795,87.9255121 6.97029703,87.9255121 L270.9967,87.9255121 C274.587459,87.9255121 277.333333,85.1778399 277.333333,81.58473 L277.333333,5.49534451 C277.333333,2.11359404 274.376238,-0.845437616 270.9967,-0.845437616 L270.9967,-0.845437616 L270.9967,-0.845437616 Z" id="Shape" fill="#D0D2D3"></path>
            </g>
            <g id="Group" transform="translate(521.000000, 617.000000)" sketch:type="MSShapeGroup">
                <path d="M1.68976898,86.8687151 L1.68976898,0.211359404 L83.009901,0.211359404 C85.9669967,0.211359404 88.290429,2.53631285 88.290429,5.49534451 L88.290429,81.58473 C88.290429,84.5437616 85.9669967,86.8687151 83.009901,86.8687151 L1.68976898,86.8687151 L1.68976898,86.8687151 Z" id="Shape" fill="#F1F1F2"></path>
                <path d="M83.009901,1.26815642 C85.3333333,1.26815642 87.2343234,3.17039106 87.2343234,5.49534451 L87.2343234,81.58473 C87.2343234,83.9096834 85.3333333,85.8119181 83.009901,85.8119181 L2.74587459,85.8119181 L2.74587459,1.26815642 L83.009901,1.26815642 L83.009901,1.26815642 Z M83.009901,-0.845437616 L2.74587459,-0.845437616 L0.633663366,-0.845437616 L0.633663366,1.26815642 L0.633663366,85.8119181 L0.633663366,87.9255121 L2.74587459,87.9255121 L83.009901,87.9255121 C86.6006601,87.9255121 89.3465347,85.1778399 89.3465347,81.58473 L89.3465347,5.49534451 C89.3465347,2.11359404 86.3894389,-0.845437616 83.009901,-0.845437616 L83.009901,-0.845437616 L83.009901,-0.845437616 Z" id="Shape" fill="#D0D2D3"></path>
            </g>
            <path d="M552,656 L565.09571,669.315642 L578.40264,656" id="Shape" stroke="#BBBDBF" stroke-width="2" sketch:type="MSShapeGroup"></path>
            <g id="Group" transform="translate(28.000000, 871.000000)" sketch:type="MSShapeGroup">
                <path d="M6.75907591,87.5027933 C3.8019802,87.5027933 1.47854785,85.1778399 1.47854785,82.2188082 L1.47854785,6.12942272 C1.47854785,3.17039106 3.8019802,0.845437616 6.75907591,0.845437616 L574.943894,0.845437616 C577.90099,0.845437616 580.224422,3.17039106 580.224422,6.12942272 L580.224422,82.2188082 C580.224422,85.1778399 577.90099,87.5027933 574.943894,87.5027933 L6.75907591,87.5027933 L6.75907591,87.5027933 Z" id="Shape" fill="#FFFFFF"></path>
                <path d="M575.155116,1.90223464 C577.478548,1.90223464 579.379538,3.80446927 579.379538,6.12942272 L579.379538,82.2188082 C579.379538,84.5437616 577.478548,86.4459963 575.155116,86.4459963 L6.97029703,86.4459963 C4.64686469,86.4459963 2.74587459,84.5437616 2.74587459,82.2188082 L2.74587459,6.12942272 C2.74587459,3.80446927 4.64686469,1.90223464 6.97029703,1.90223464 L575.155116,1.90223464 L575.155116,1.90223464 Z M575.155116,-0.211359404 L6.97029703,-0.211359404 C3.37953795,-0.211359404 0.633663366,2.53631285 0.633663366,6.12942272 L0.633663366,82.2188082 C0.633663366,85.8119181 3.37953795,88.5595903 6.97029703,88.5595903 L575.155116,88.5595903 C578.745875,88.5595903 581.491749,85.8119181 581.491749,82.2188082 L581.491749,6.12942272 C581.491749,2.53631285 578.534653,-0.211359404 575.155116,-0.211359404 L575.155116,-0.211359404 L575.155116,-0.211359404 Z" id="Shape" fill="#D0D2D3"></path>
            </g>
            <text id="Credit" fill="#A6A8AB" sketch:type="MSTextLayer" font-family="Helvetica" font-size="27.4128938" font-weight="normal">
                <tspan x="135" y="923" fill="#000000">Credit</tspan>
            </text>
            <text id="Debit" fill="#A6A8AB" sketch:type="MSTextLayer" font-family="Helvetica" font-size="27.4128938" font-weight="normal">
                <tspan x="428" y="923" fill="#000000">Debit</tspan>
            </text>
            <path d="M320,872 L320,956.543762" id="Shape" stroke="#E6E7E8" sketch:type="MSShapeGroup"></path>
            <rect id="Rectangle-path" fill="#FFFFFF" sketch:type="MSShapeGroup" x="1" y="1204" width="639.366337" height="84.5437616"></rect>
            <text id="PURCHASE" fill="#BBBDBF" sketch:type="MSTextLayer" font-family="Helvetica" font-size="25.8986062" font-weight="normal">
                <tspan x="244" y="1253" fill="#000000">PURCHASE</tspan>
            </text>
            <path d="M0,1204 L639.577558,1204" id="Shape" stroke="#D0D2D3" sketch:type="MSShapeGroup"></path>
            <text id="Month" fill="#A6A8AB" sketch:type="MSTextLayer" font-family="Helvetica" font-size="27.4128938" font-weight="normal">
                <tspan x="84" y="668" fill="#000000">Month</tspan>
            </text>
            <text id="Year" fill="#A6A8AB" sketch:type="MSTextLayer" font-family="Helvetica" font-size="27.4128938" font-weight="normal">
                <tspan x="397" y="668" fill="#000000">Year</tspan>
            </text>
            <g id="arrow-2" transform="translate(694.000000, 0.000000)" sketch:type="MSShapeGroup">
                <path d="M152.931285,453.658909 L33.4357542,453.658909 C31.5460894,453.658909 30,446.246182 30,437.186182 L30,0" id="Shape-4" stroke="#BCBEC0" stroke-width="2" transform="translate(91.500000, 226.500000) scale(-1, 1) translate(-91.500000, -226.500000) "></path>
                <path d="M0.230769231,441 L29.3076923,452.28 L-2.09965378e-12,463.8 L0.230769231,441 Z" id="Shape-3" fill="#BCBEC0" transform="translate(15.000000, 453.000000) scale(-1, 1) translate(-15.000000, -453.000000) "></path>
            </g>
            <g id="Paypal-Card" transform="translate(235.000000, 1043.000000)" sketch:type="MSShapeGroup">
                <path d="M173.520852,101.311776 C173.520852,109.271987 167.015456,115.784887 159.064416,115.784887 L14.5000478,115.784887 C6.54900756,115.784887 0.0436110089,109.271987 0.0436110089,101.311776 L0.0436110089,14.4731109 C0.0436110089,6.51289989 6.54900756,0 14.5000478,0 L159.064416,0 C167.015456,0 173.520852,6.51289989 173.520852,14.4731109 L173.520852,101.311776 L173.520852,101.311776 Z" id="Shape" fill="#FFFFFF"></path>
                <path d="M173.520852,79.6021098 L173.520852,101.311776 C173.520852,103.303276 173.113181,105.202148 172.378794,106.930238 C171.641516,108.658327 170.583304,110.221423 169.273551,111.532687 C167.963798,112.843951 166.405394,113.903382 164.676404,114.641511 C162.944523,115.376745 161.05073,115.784887 159.064416,115.784887 L94.1347754,115.784887 L29.2051353,115.784887 L173.520852,79.6021098 L173.520852,79.6021098 Z" id="Shape" fill="#5F5F5F"></path>
                <path d="M173.520852,14.4731109 L173.520852,57.8924435 L173.520852,101.311776 C173.520852,105.291882 171.895949,108.910159 169.273551,111.532687 C166.651154,114.155215 163.039936,115.784887 159.064416,115.784887 L86.7822316,115.784887 L14.5000478,115.784887 C10.5245277,115.784887 6.91041848,114.158109 4.29091213,111.532687 L169.273551,4.25219997 C171.893058,6.87472766 173.520852,10.4930054 173.520852,14.4731109 Z" id="Shape" opacity="0.08" fill="#FFFFFF"></path>
                <path d="M159.064416,2.89462217 C165.442595,2.89462217 170.629565,8.08757435 170.629565,14.4731109 L170.629565,101.311776 C170.629565,107.697313 165.442595,112.890265 159.064416,112.890265 L14.5000478,112.890265 C8.12186788,112.890265 2.93489836,107.697313 2.93489836,101.311776 L2.93489836,14.4731109 C2.93489836,8.08757435 8.12186788,2.89462217 14.5000478,2.89462217 L159.064416,2.89462217 L159.064416,2.89462217 Z M159.064416,0 L14.5000478,0 C6.54900756,0 0.0436110089,6.51289989 0.0436110089,14.4731109 L0.0436110089,101.311776 C0.0436110089,109.271987 6.54900756,115.784887 14.5000478,115.784887 L159.064416,115.784887 C167.015456,115.784887 173.520852,109.271987 173.520852,101.311776 L173.520852,14.4731109 C173.520852,6.51289989 167.015456,0 159.064416,0 L159.064416,0 L159.064416,0 Z" id="Shape" fill="#AEAEAE"></path>
                <g id="paypal-seeklogo.com" transform="translate(15.235023, 35.321799)">
                    <g id="Group">
                        <path d="M22.34854,8.43146819 C27.5898849,8.43146819 29.5634528,11.0843943 29.2587996,14.9885723 C28.7563361,21.4244819 24.8646376,24.9834696 19.7029208,24.9834696 L17.0968637,24.9834696 C16.3895341,24.9834696 15.9135293,25.4511143 15.7210107,26.7217674 L14.6029411,34.1000213 C14.5303686,34.5792563 14.2783809,34.8606998 13.8993914,34.8947149 L7.77760137,34.8947149 C7.20155742,34.8947149 6.99669139,34.4540304 7.14738005,33.4995917 L10.8858701,9.83163064 C11.0358028,8.88298719 11.5546455,8.43146819 12.5855273,8.43146819 L22.34854,8.43146819 Z" id="Shape" fill="#AEAEAE"></path>
                        <path d="M54.9673441,7.99405915 C58.2618317,7.99405915 61.3005518,9.77997808 60.88452,14.233689 C60.3913801,19.513337 57.5456826,22.4535018 53.0701285,22.465596 L49.1658305,22.465596 C48.6028899,22.465596 48.3325071,22.9229102 48.1845903,23.8650026 L47.431147,28.6702029 C47.3175005,29.3956065 46.9458186,29.7538989 46.3944694,29.7538989 L42.7585384,29.7538989 C42.1784627,29.7538989 41.9763685,29.3832603 42.1056382,28.5548035 L45.1113479,9.29343611 C45.2590127,8.34630445 45.6216231,7.99405915 46.2636878,7.99405915 L54.9673441,7.99405915 L54.9673441,7.99405915 Z M49.0446244,18.304415 L52.0064882,18.304919 C53.8578421,18.235125 55.0893062,16.9528816 55.2130321,14.6393506 C55.2893844,13.2104643 54.3247754,12.1884994 52.7884062,12.1955544 L50.0001619,12.2081526 L49.0446244,18.304415 L49.0446244,18.304415 Z M70.7687389,28.2773915 C71.1008587,27.9760428 71.4397822,27.8183135 71.3906446,28.1909679 L71.2727143,29.0834234 C71.2112293,29.5485485 71.3964403,29.7972367 71.8306152,29.7972367 L75.0608459,29.7972367 C75.6041315,29.7972367 75.8697265,29.5770204 76.003784,28.7362174 L77.9944871,16.2433517 C78.0942743,15.61571 77.9425776,15.3078104 77.4655649,15.3078104 L73.9143017,15.3078104 C73.5937733,15.3078104 73.4388009,15.4877125 73.354889,15.9767741 L73.2230994,16.7457674 C73.1543067,17.1471456 72.9708597,17.2166876 72.800012,16.8127897 C72.1967534,15.3856672 70.6598802,14.7459313 68.5046291,14.7902769 C63.5218237,14.8925741 60.1628272,18.6748017 59.8034927,23.5228359 C59.5255502,27.273064 62.2137553,30.2180161 65.7551909,30.2177642 C68.3247098,30.2177642 69.4742779,29.4517944 70.7687389,28.2773915 L70.7687389,28.2773915 L70.7687389,28.2773915 Z M68.0656665,26.3581837 C65.9209989,26.3581837 64.4259556,24.6478539 64.7379165,22.5507598 C65.0501293,20.4536656 67.0536837,18.7433358 69.1983513,18.7433358 C71.3430189,18.7433358 72.8380621,20.4536656 72.5261013,22.5507598 C72.2141405,24.6478539 70.210586,26.3581837 68.0656665,26.3581837 L68.0656665,26.3581837 L68.0656665,26.3581837 Z M84.3198832,15.2677481 L81.05639,15.2677481 C80.380055,15.2677481 80.1051364,15.7626049 80.3200819,16.3920103 L84.3866599,28.3008241 L80.379299,33.9649688 C80.0449113,34.4376527 80.3026947,34.8700225 80.7746678,34.8700225 L84.4569645,34.8700225 C85.0065498,34.8700225 85.2746647,34.7299306 85.5513472,34.3328358 L98.0590103,16.3920103 C98.4442996,15.8392019 98.2626164,15.2609451 97.6311352,15.2604412 L94.1499246,15.2569137 C93.5524617,15.2561578 93.3123174,15.4927517 92.9696141,15.9901282 L87.7524601,23.5586147 L85.4314011,15.977026 C85.288524,15.5093814 84.9473326,15.2677481 84.3198832,15.2677481 L84.3198832,15.2677481 Z" id="Shape" fill="#5F5F5F"></path>
                        <path d="M111.076697,7.99405915 C114.371184,7.99405915 117.409904,9.77997808 116.994125,14.233689 C116.500985,19.513337 113.655287,22.4535018 109.179733,22.465596 L105.275435,22.465596 C104.712494,22.465596 104.44186,22.9229102 104.294447,23.8650026 L103.541003,28.6702029 C103.427357,29.3956065 103.055675,29.7538989 102.504326,29.7538989 L98.8683949,29.7538989 C98.2883192,29.7538989 98.086225,29.3832603 98.2152427,28.5548035 L101.220952,9.29343611 C101.368617,8.34630445 101.731228,7.99405915 102.373544,7.99405915 L111.076697,7.99405915 L111.076697,7.99405915 Z M105.153977,18.304415 L108.115841,18.304919 C109.967447,18.235125 111.198659,16.9528816 111.322385,14.6393506 C111.398737,13.2104643 110.433876,12.1884994 108.897759,12.1955544 L106.109514,12.2081526 L105.153977,18.304415 L105.153977,18.304415 Z M126.878091,28.2773915 C127.210211,27.9760428 127.549387,27.8183135 127.499997,28.1909679 L127.381815,29.0834234 C127.32033,29.5485485 127.505541,29.7972367 127.939716,29.7972367 L131.169946,29.7972367 C131.713232,29.7972367 131.978827,29.5770204 132.112885,28.7362174 L134.103588,16.2433517 C134.203627,15.61571 134.051678,15.3078104 133.574917,15.3078104 L130.023654,15.3078104 C129.703126,15.3078104 129.548153,15.4877125 129.464241,15.9767741 L129.332452,16.7457674 C129.263659,17.1471456 129.07996,17.2166876 128.909364,16.8127897 C128.306106,15.3856672 126.769485,14.7459313 124.613982,14.7902769 C119.631176,14.8925741 116.27218,18.6748017 115.912845,23.5228359 C115.634903,27.273064 118.323108,30.2180161 121.864543,30.2177642 C124.434314,30.2177642 125.583882,29.4517944 126.878091,28.2773915 L126.878091,28.2773915 L126.878091,28.2773915 Z M124.175019,26.3581837 C122.030351,26.3581837 120.535308,24.6478539 120.847269,22.5507598 C121.15923,20.4536656 123.163036,18.7433358 125.307704,18.7433358 C127.452371,18.7433358 128.947415,20.4536656 128.635202,22.5507598 C128.323493,24.6478539 126.319939,26.3581837 124.175019,26.3581837 L124.175019,26.3581837 L124.175019,26.3581837 Z M139.075054,29.8199134 L135.346643,29.8199134 C135.050558,29.8199134 134.844684,29.5878548 134.889537,29.3041437 L138.168402,8.5536706 C138.213256,8.26995944 138.492206,8.03790084 138.788544,8.03790084 L142.516702,8.03790084 C142.81304,8.03790084 143.018662,8.26995944 142.973808,8.5536706 L139.694943,29.3041437 C139.650342,29.5878548 139.371391,29.8199134 139.075054,29.8199134 L139.075054,29.8199134 Z" id="Shape" fill="#AEAEAE"></path>
                        <path d="M6.48188045,0.286236658 L16.2547207,0.286236658 C19.0071827,0.286236658 22.2716838,0.375683782 24.4556615,2.30144258 C25.9144184,3.58796939 26.6799572,5.63769434 26.5033138,7.8380936 C25.9040869,15.2997475 21.4403762,19.4790699 15.4546596,19.4790699 L10.6346383,19.4790699 C9.81416623,19.4790699 9.2703767,20.0225557 9.03905197,21.4947798 L7.69394145,30.0499563 C7.60675369,30.6050324 7.36610541,30.9320813 6.92689079,30.9716396 L0.906903851,30.9716396 C0.238884371,30.9716396 0.00125993866,30.4606572 0.176139425,29.3540325 L4.51108439,1.90963898 C4.68470394,0.810069255 5.28645065,0.286236658 6.48188045,0.286236658 L6.48188045,0.286236658 Z" id="Shape" fill="#5F5F5F"></path>
                        <path d="M9.17915714,20.6323079 L10.8858701,9.83137868 C11.0355508,8.88298719 11.5546455,8.43146819 12.5855273,8.43146819 L22.34854,8.43146819 C23.9647894,8.43146819 25.2703378,8.68368388 26.293912,9.14880893 C25.3129237,15.7893131 21.0175408,19.4793219 15.3921667,19.4793219 L10.5721453,19.4793219 C9.93789221,19.4790699 9.46390328,19.8033473 9.17915714,20.6323079 L9.17915714,20.6323079 Z" id="Shape" fill="#2E2E2E"></path>
                    </g>
                </g>
            </g>
            <text id="or" fill="#A6A8AB" sketch:type="MSTextLayer" font-family="Helvetica" font-size="27.4128938" font-weight="normal">
                <tspan x="303.577558" y="1013" fill="#000000">or</tspan>
            </text>
            <text fill="#AFAFAF" sketch:type="MSTextLayer" font-family="Helvetica" font-size="48" font-weight="normal">
                <tspan x="0" y="116" fill="#000000">Payment</tspan>
            </text>
        </g>
        <g id="Order-Status" sketch:type="MSLayerGroup" transform="translate(114.000000, 3832.000000)">
            <rect id="Rectangle-path" stroke="#929497" opacity="0.75" fill="#FFFFFF" sketch:type="MSShapeGroup" x="1243" y="912" width="639.366337" height="1009.0298"></rect>
            <g id="Group-4" transform="translate(1264.052632, 1125.000000)" sketch:type="MSShapeGroup">
                <rect id="Rectangle-path" fill="#FFFFFF" x="2.10526316" y="1" width="595.157895" height="261.221643"></rect>
                <path d="M595.157895,1.83191606 L595.157895,261.389727 L2.10526316,261.389727 L2.10526316,1.83191606 L595.157895,1.83191606 L595.157895,1.83191606 Z M597.263158,0.16808394 L595.157895,0.16808394 L2.10526316,0.16808394 L0,0.16808394 L0,1.83191606 L0,261.389727 L0,263.053559 L2.10526316,263.053559 L595.157895,263.053559 L597.263158,263.053559 L597.263158,261.389727 L597.263158,1.83191606 L597.263158,0.16808394 L597.263158,0.16808394 Z" id="Shape" fill="#A6A8AB"></path>
            </g>
            <rect id="Rectangle-path" stroke="#AFAFAF" fill="#FFFFFF" sketch:type="MSShapeGroup" x="1243" y="785" width="639.366337" height="126.815642"></rect>
            <text fill="#929497" sketch:type="MSTextLayer" font-family="Helvetica" font-size="26.8125" font-weight="normal">
                <tspan x="1475.37624" y="874.363128" fill="#000000">Order Status</tspan>
            </text>
            <g id="Group" transform="translate(1266.000000, 855.000000)" stroke="#A6A8AB" stroke-width="2" sketch:type="MSShapeGroup">
                <path d="M12.6732673,0.211359404 L0,12.8929236" id="Shape"></path>
                <path d="M0,12.8929236 L29.5709571,12.8929236" id="Shape"></path>
                <path d="M0,12.8929236 L12.6732673,25.5744879" id="Shape"></path>
            </g>
            <path d="M1243,911 L1882.57756,911" id="Shape" stroke="#E6E7E8" sketch:type="MSShapeGroup"></path>
            <g id="Group" transform="translate(1386.984975, 1427.885475)" sketch:type="MSShapeGroup">
                <path d="M4.01889401,84.3324022 C2.32672811,84.3324022 0.846082949,82.8528864 0.846082949,81.1620112 L0.846082949,5.0726257 C0.846082949,3.38175047 2.32672811,1.90223464 4.01889401,1.90223464 L454.558065,1.90223464 C456.25023,1.90223464 457.730876,3.38175047 457.730876,5.0726257 L457.730876,81.1620112 C457.730876,82.8528864 456.25023,84.3324022 454.558065,84.3324022 L4.01889401,84.3324022 L4.01889401,84.3324022 Z" id="Shape" fill="#FFFFFF"></path>
                <path d="M454.769585,2.95903166 C456.03871,2.95903166 456.884793,3.80446927 456.884793,5.0726257 L456.884793,81.1620112 C456.884793,82.4301676 456.03871,83.2756052 454.769585,83.2756052 L4.23041475,83.2756052 C2.96129032,83.2756052 2.11520737,82.4301676 2.11520737,81.1620112 L2.11520737,5.0726257 C2.11520737,3.80446927 2.96129032,2.95903166 4.23041475,2.95903166 L454.769585,2.95903166 L454.769585,2.95903166 Z M454.769585,0.845437616 L4.23041475,0.845437616 C1.90368664,0.845437616 0,2.74767225 0,5.0726257 L0,81.1620112 C0,83.4869646 1.90368664,85.3891993 4.23041475,85.3891993 L454.769585,85.3891993 C457.096313,85.3891993 459,83.4869646 459,81.1620112 L459,5.0726257 C459,2.74767225 457.096313,0.845437616 454.769585,0.845437616 L454.769585,0.845437616 L454.769585,0.845437616 Z" id="Shape" fill="#D0D2D3"></path>
            </g>
            <path d="M1396.94869,1513.42924 L1277.16887,1513.42924 C1275.75804,1513.42924 1274.77045,1511.527 1274.77045,1509.20205 L1274.77045,1433.11266 C1274.77045,1430.78771 1275.89912,1428.88547 1277.16887,1428.88547 L1396.94869,1428.88547 L1396.94869,1513.42924 L1396.94869,1513.42924 Z" id="Shape" fill="#BBBDBF" sketch:type="MSShapeGroup"></path>
            <g id="Queue" transform="translate(1352.984975, 1524.885475)">
                <text fill="#929497" sketch:type="MSTextLayer" font-family="Helvetica" font-size="26.5562408" font-weight="260">
                    <tspan x="0" y="53" fill="#000000">Queue</tspan>
                </text>
                <path d="M34,17.8924381 L43.87,0 L53.95,18.0344415 L34,17.8924381 Z" id="Shape-5" fill="#BCBEC0" sketch:type="MSShapeGroup"></path>
            </g>
            <text id="Order-Number:" fill="#929497" sketch:type="MSTextLayer" font-family="Helvetica" font-size="27.4128938" font-weight="260">
                <tspan x="1466" y="1229" fill="#000000">Order Number:</tspan>
            </text>
            <text id="#501" fill="#929497" sketch:type="MSTextLayer" font-family="Helvetica" font-size="64" font-weight="260">
                <tspan x="1490" y="1296.94274" fill="#000000">#501</tspan>
            </text>
            <g id="arrow-to-payment" transform="translate(736.000000, 1352.000000)" sketch:type="MSShapeGroup">
                <path d="M418.955075,9.5 L0.778378378,9.5" id="Shape" stroke="#BCBEC0" stroke-width="2"></path>
                <path d="M418.286486,0 L442.805405,8.93 L418.091892,18.05 L418.286486,0 Z" id="Shape" fill="#BCBEC0"></path>
            </g>
            <text fill="#AFAFAF" sketch:type="MSTextLayer" font-family="Helvetica" font-size="48" font-weight="normal">
                <tspan x="1243" y="748" fill="#000000">Order Status</tspan>
            </text>
            <g id="arrow-to-store" sketch:type="MSShapeGroup">
                <g id="arrow-3a-4a" transform="translate(787.500000, 1977.500000) scale(-1, 1) translate(-787.500000, -1977.500000) translate(0.000000, 1921.000000)" stroke="#BCBEC0" stroke-width="2">
                    <path d="M1575,36.3990385 L1575,101.591346 C1575,107.567308 1551.13636,112.456731 1521.9697,112.456731 L56.2121212,112.456731 C27.0454545,112.456731 3.18181818,107.567308 3.18181818,101.591346 L3.18181818,0.869230769" id="Shape"></path>
                </g>
                <g id="arrow-1-2a-2b" transform="translate(270.000000, 996.500000) scale(1, -1) translate(-270.000000, -996.500000) translate(0.000000, 13.000000)" stroke="#BCBEC0" stroke-width="2">
                    <path d="M539.692874,1969.53471 L15.3767244,1969.53471 C7.08535338,1969.53471 0.301504399,1937.36465 0.301504399,1898.04569 L0.301504399,0.727049464" id="Shape"></path>
                </g>
                <path d="M539.218919,0 L566.802703,10.289548 L539,20.7980226 L539.218919,0 Z" id="Shape-6" fill="#BCBEC0"></path>
            </g>
        </g>
    </g>
</svg>