<?xml version="1.0" encoding="UTF-8" standalone="no"?><svg xmlns="http://www.w3.org/2000/svg" xmlns:xlink="http://www.w3.org/1999/xlink" clip-rule="evenodd" stroke-miterlimit="10" viewBox="0 0 1024 768"><desc>SVG generated by Keynote</desc><defs></defs><g transform="matrix(1.00, 0.00, -0.00, -1.00, 0.0, 768.0)"><g><clipPath id="clip0x7fde53df2840"><path d="M 0.0 768.0 L 1024.0 768.0 L 1024.0 0.0 L 0.0 0.0 Z M 0.0 768.0 "></path></clipPath><g clip-path="url(#clip0x7fde53df2840)"><image xlink:href="../../9A547B16-7CB2-4235-A9D6-7078228DA1F4/assets/574DCE55A4CF432400CBDDDE1DFDFC9B.jpeg" width="2048.00" height="1536.00" transform="matrix(0.50, 0.00, -0.00, -0.50, 0.0, 768.0)"></image></g></g><text xml:space="preserve" font-family="GillSans-Light,Gill Sans" font-size="72.0" fill="#525252" transform="matrix(1.00, 0.00, -0.00, -1.00, 271.2, 628.2)">C</text><text xml:space="preserve" font-family="GillSans-Light,Gill Sans" font-size="72.0" fill="#525252" transform="matrix(1.00, 0.00, -0.00, -1.00, 319.9, 628.2)">O</text><text xml:space="preserve" font-family="GillSans-Light,Gill Sans" font-size="72.0" fill="#525252" transform="matrix(1.00, 0.00, -0.00, -1.00, 379.2, 628.2)">M</text><text xml:space="preserve" font-family="GillSans-Light,Gill Sans" font-size="72.0" fill="#525252" transform="matrix(1.00, 0.00, -0.00, -1.00, 435.4, 628.2)">P</text><text xml:space="preserve" font-family="GillSans-Light,Gill Sans" font-size="72.0" fill="#525252" transform="matrix(1.00, 0.00, -0.00, -1.00, 472.1, 628.2)">O</text><text xml:space="preserve" font-family="GillSans-Light,Gill Sans" font-size="72.0" fill="#525252" transform="matrix(1.00, 0.00, -0.00, -1.00, 531.4, 628.2)">N</text><text xml:space="preserve" font-family="GillSans-Light,Gill Sans" font-size="72.0" fill="#525252" transform="matrix(1.00, 0.00, -0.00, -1.00, 586.9, 628.2)">E</text><text xml:space="preserve" font-family="GillSans-Light,Gill Sans" font-size="72.0" fill="#525252" transform="matrix(1.00, 0.00, -0.00, -1.00, 622.2, 628.2)">N</text><text xml:space="preserve" font-family="GillSans-Light,Gill Sans" font-size="72.0" fill="#525252" transform="matrix(1.00, 0.00, -0.00, -1.00, 677.7, 628.2)">T</text><text xml:space="preserve" font-family="GillSans-Light,Gill Sans" font-size="72.0" fill="#525252" transform="matrix(1.00, 0.00, -0.00, -1.00, 719.0, 628.2)">S</text><g><clipPath id="clip0x7fde5a4d0e50"><path d="M 817.9 392.6 C 812.5 448.8 765.6 493.0 707.9 493.0 C 663.3 493.0 625.0 466.5 607.4 428.5 C 602.1 430.2 596.5 431.3 590.7 431.3 C 560.0 431.3 535.2 406.5 535.2 375.8 C 535.2 369.7 536.4 364.0 538.2 358.5 C 514.4 344.6 498.2 319.1 498.2 289.5 C 498.2 245.3 534.1 209.4 578.4 209.4 L 578.4 209.4 L 800.5 209.4 L 800.5 209.4 C 851.6 209.4 893.0 250.8 893.0 301.9 C 893.0 347.0 860.7 384.4 817.9 392.6 Z M 765.4 377.6 C 760.1 383.4 751.4 383.4 746.1 377.6 L 679.1 304.2 L 657.2 328.1 C 651.9 334.0 643.2 334.0 637.8 328.1 C 632.5 322.3 632.5 312.8 637.8 306.9 L 667.0 275.0 C 670.6 271.1 675.6 270.1 680.1 271.3 C 684.1 270.8 688.3 272.0 691.4 275.4 L 765.4 356.4 C 770.8 362.3 770.8 371.7 765.4 377.6 Z M 765.4 377.6 "></path></clipPath><g clip-path="url(#clip0x7fde5a4d0e50)"><g><clipPath id="clip0x7fde5a4d1ad0"><path d="M 202.0 117.0 L 893.0 117.0 L 893.0 493.0 L 202.0 493.0 Z M 202.0 117.0 "></path></clipPath><g clip-path="url(#clip0x7fde5a4d1ad0)"><path d="M 481.7 509.5 L 909.4 509.5 L 909.4 192.9 L 481.7 192.9 Z M 481.7 509.5 " fill="#51BAA7"></path></g></g></g></g><g><clipPath id="clip0x7fde5a4cb900"><path d="M 219.7 493.0 L 352.1 493.0 C 361.9 493.0 369.8 485.2 369.8 475.5 L 369.8 230.2 C 369.8 220.5 361.9 212.6 352.1 212.6 L 219.7 212.6 C 209.9 212.6 202.0 220.5 202.0 230.2 L 202.0 475.5 C 202.0 485.2 209.9 493.0 219.7 493.0 "></path></clipPath><g clip-path="url(#clip0x7fde5a4cb900)"><g><clipPath id="clip0x7fde5a4da3c0"><path d="M 202.0 117.0 L 893.0 117.0 L 893.0 493.0 L 202.0 493.0 Z M 202.0 117.0 "></path></clipPath><g clip-path="url(#clip0x7fde5a4da3c0)"><path d="M 185.5 509.5 L 386.3 509.5 L 386.3 196.1 L 185.5 196.1 Z M 185.5 509.5 " fill="#314D5A"></path></g></g></g></g><g><clipPath id="clip0x7fde5a4db180"><path d="M 285.9 247.7 C 293.2 247.7 299.2 241.8 299.2 234.6 C 299.2 227.3 293.2 221.4 285.9 221.4 C 278.6 221.4 272.7 227.3 272.7 234.6 C 272.7 241.8 278.6 247.7 285.9 247.7 "></path></clipPath><g clip-path="url(#clip0x7fde5a4db180)"><g><clipPath id="clip0x7fde5a4cbac0"><path d="M 202.0 117.0 L 893.0 117.0 L 893.0 493.0 L 202.0 493.0 Z M 202.0 117.0 "></path></clipPath><g clip-path="url(#clip0x7fde5a4cbac0)"><path d="M 256.2 264.2 L 315.6 264.2 L 315.6 204.9 L 256.2 204.9 Z M 256.2 264.2 " fill="#576E77"></path></g></g></g></g><g><clipPath id="clip0x7fde5a4d3010"><path d="M 219.7 457.9 L 352.1 457.9 L 352.1 256.4 L 219.7 256.4 L 219.7 457.9 Z M 219.7 457.9 "></path></clipPath><g clip-path="url(#clip0x7fde5a4d3010)"><g><clipPath id="clip0x7fde5a4d3780"><path d="M 202.0 117.0 L 893.0 117.0 L 893.0 493.0 L 202.0 493.0 Z M 202.0 117.0 "></path></clipPath><g clip-path="url(#clip0x7fde5a4d3780)"><path d="M 203.2 474.4 L 368.6 474.4 L 368.6 240.0 L 203.2 240.0 Z M 203.2 474.4 " fill="#FFFFFF"></path></g></g></g></g><g><clipPath id="clip0x7fde5a4d5120"><path d="M 287.6 156.6 C 298.5 156.6 307.3 147.7 307.3 136.8 C 307.3 125.9 298.5 117.0 287.6 117.0 C 276.6 117.0 267.8 125.9 267.8 136.8 C 267.8 147.7 276.6 156.6 287.6 156.6 Z M 287.6 152.9 C 296.4 152.9 303.6 145.7 303.6 136.8 C 303.6 127.9 296.4 120.7 287.6 120.7 C 278.7 120.7 271.5 127.9 271.5 136.8 C 271.5 145.7 278.7 152.9 287.6 152.9 Z M 286.4 130.0 C 286.4 128.8 287.2 128.1 288.2 128.1 C 289.1 128.1 290.0 128.8 290.0 130.0 L 290.0 143.7 C 290.0 144.7 289.5 145.5 288.5 145.5 L 285.4 145.5 C 284.4 145.5 283.9 144.5 283.9 143.6 C 283.9 142.8 284.3 141.8 285.4 141.8 L 286.4 141.8 L 286.4 130.0 Z M 286.4 130.0 "></path></clipPath><g clip-path="url(#clip0x7fde5a4d5120)"><g><clipPath id="clip0x7fde5a4d4db0"><path d="M 202.0 117.0 L 893.0 117.0 L 893.0 493.0 L 202.0 493.0 Z M 202.0 117.0 "></path></clipPath><g clip-path="url(#clip0x7fde5a4d4db0)"><path d="M 251.4 173.1 L 323.7 173.1 L 323.7 100.5 L 251.4 100.5 Z M 251.4 173.1 " fill="#2294BB"></path></g></g></g></g><g><clipPath id="clip0x7fde5a4d7d70"><path d="M 692.3 156.6 C 703.2 156.6 712.0 147.7 712.0 136.8 C 712.0 125.9 703.2 117.0 692.3 117.0 C 681.4 117.0 672.5 125.9 672.5 136.8 C 672.5 147.7 681.4 156.6 692.3 156.6 Z M 692.3 152.9 C 701.1 152.9 708.3 145.7 708.3 136.8 C 708.3 127.9 701.1 120.7 692.3 120.7 C 683.4 120.7 676.2 127.9 676.2 136.8 C 676.2 145.7 683.4 152.9 692.3 152.9 Z M 692.0 131.6 C 694.2 134.2 697.7 137.1 697.7 140.5 C 697.7 143.5 695.4 145.4 692.3 145.4 C 689.1 145.4 686.2 142.9 686.2 139.9 C 686.2 139.0 686.8 138.2 688.1 138.2 C 690.5 138.2 689.2 142.1 692.1 142.1 C 693.1 142.1 693.9 141.3 693.9 140.3 C 693.9 139.4 693.5 138.7 693.0 138.1 C 691.1 135.5 688.8 133.3 686.7 130.9 C 686.5 130.7 686.1 130.2 686.1 129.7 C 686.1 128.6 687.0 128.1 688.1 128.1 L 696.6 128.1 C 697.6 128.1 698.4 128.8 698.4 129.9 C 698.4 131.0 697.6 131.6 696.4 131.6 L 692.0 131.6 Z M 692.0 131.6 "></path></clipPath><g clip-path="url(#clip0x7fde5a4d7d70)"><g><clipPath id="clip0x7fde5a4d92b0"><path d="M 202.0 117.0 L 893.0 117.0 L 893.0 493.0 L 202.0 493.0 Z M 202.0 117.0 "></path></clipPath><g clip-path="url(#clip0x7fde5a4d92b0)"><path d="M 656.1 173.1 L 728.5 173.1 L 728.5 100.5 L 656.1 100.5 Z M 656.1 173.1 " fill="#2294BB"></path></g></g></g></g><g><clipPath id="clip0x7fde5a4f1e50"><path d="M 202.0 117.0 L 893.0 117.0 L 893.0 493.0 L 202.0 493.0 Z M 202.0 117.0 "></path></clipPath><g clip-path="url(#clip0x7fde5a4f1e50)"><image xlink:href="../../4447D558-3221-4E98-8B70-DB3EE62B9D44/assets/1625B6CBE4A1481085AAAD5AF9535161.png" width="192.00" height="192.00" transform="matrix(0.87, 0.00, -0.00, -0.88, 202.0, 436.9)"></image></g></g></g></svg>