<?xml version="1.0" encoding="UTF-8" standalone="no"?><svg xmlns="http://www.w3.org/2000/svg" xmlns:xlink="http://www.w3.org/1999/xlink" clip-rule="evenodd" stroke-miterlimit="10" viewBox="0 0 1024 768"><desc>SVG generated by Keynote</desc><defs></defs><g transform="matrix(1.00, 0.00, -0.00, -1.00, 0.0, 768.0)"><g><clipPath id="clip0x7fde5a57b4a0"><path d="M 0.0 768.0 L 1024.0 768.0 L 1024.0 0.0 L 0.0 0.0 Z M 0.0 768.0 "></path></clipPath><g clip-path="url(#clip0x7fde5a57b4a0)"><image xlink:href="574DCE55A4CF432400CBDDDE1DFDFC9B.jpeg" width="2048.00" height="1536.00" transform="matrix(0.50, 0.00, -0.00, -0.50, 0.0, 768.0)"></image></g></g><text xml:space="preserve" font-family="GillSans-Light,Gill Sans" font-size="72.0" fill="#525252" transform="matrix(1.00, 0.00, -0.00, -1.00, 430.2, 149.2)">C</text><text xml:space="preserve" font-family="GillSans-Light,Gill Sans" font-size="72.0" fill="#525252" transform="matrix(1.00, 0.00, -0.00, -1.00, 479.0, 149.2)">H</text><text xml:space="preserve" font-family="GillSans-Light,Gill Sans" font-size="72.0" fill="#525252" transform="matrix(1.00, 0.00, -0.00, -1.00, 530.8, 149.2)">A</text><text xml:space="preserve" font-family="GillSans-Light,Gill Sans" font-size="72.0" fill="#525252" transform="matrix(1.00, 0.00, -0.00, -1.00, 578.8, 149.2)">I</text><text xml:space="preserve" font-family="GillSans-SemiBold,Gill Sans" font-weight="bold" font-size="20.6" fill="#525252" transform="matrix(1.00, 0.00, -0.00, -1.00, 393.5, 100.2)">N</text><text xml:space="preserve" font-family="GillSans-SemiBold,Gill Sans" font-weight="bold" font-size="20.6" fill="#525252" transform="matrix(1.00, 0.00, -0.00, -1.00, 410.0, 100.2)">E</text><text xml:space="preserve" font-family="GillSans-SemiBold,Gill Sans" font-weight="bold" font-size="20.6" fill="#525252" transform="matrix(1.00, 0.00, -0.00, -1.00, 421.8, 100.2)">T</text><text xml:space="preserve" font-family="GillSans-SemiBold,Gill Sans" font-weight="bold" font-size="20.6" fill="#525252" transform="matrix(1.00, 0.00, -0.00, -1.00, 435.5, 100.2)">4</text><text xml:space="preserve" font-family="GillSans-SemiBold,Gill Sans" font-weight="bold" font-size="20.6" fill="#525252" transform="matrix(1.00, 0.00, -0.00, -1.00, 446.4, 100.2)">1</text><text xml:space="preserve" font-family="GillSans-SemiBold,Gill Sans" font-weight="bold" font-size="20.6" fill="#525252" transform="matrix(1.00, 0.00, -0.00, -1.00, 457.3, 100.2)">2</text><text xml:space="preserve" font-family="GillSans-SemiBold,Gill Sans" font-weight="bold" font-size="20.6" fill="#525252" transform="matrix(1.00, 0.00, -0.00, -1.00, 468.2, 100.2)"> </text><text xml:space="preserve" font-family="GillSans-SemiBold,Gill Sans" font-weight="bold" font-size="20.6" fill="#525252" transform="matrix(1.00, 0.00, -0.00, -1.00, 473.9, 100.2)">C</text><text xml:space="preserve" font-family="GillSans-SemiBold,Gill Sans" font-weight="bold" font-size="20.6" fill="#525252" transform="matrix(1.00, 0.00, -0.00, -1.00, 488.9, 100.2)">a</text><text xml:space="preserve" font-family="GillSans-SemiBold,Gill Sans" font-weight="bold" font-size="20.6" fill="#525252" transform="matrix(1.00, 0.00, -0.00, -1.00, 498.8, 100.2)">p</text><text xml:space="preserve" font-family="GillSans-SemiBold,Gill Sans" font-weight="bold" font-size="20.6" fill="#525252" transform="matrix(1.00, 0.00, -0.00, -1.00, 510.1, 100.2)">s</text><text xml:space="preserve" font-family="GillSans-SemiBold,Gill Sans" font-weight="bold" font-size="20.6" fill="#525252" transform="matrix(1.00, 0.00, -0.00, -1.00, 518.5, 100.2)">t</text><text xml:space="preserve" font-family="GillSans-SemiBold,Gill Sans" font-weight="bold" font-size="20.6" fill="#525252" transform="matrix(1.00, 0.00, -0.00, -1.00, 526.1, 100.2)">o</text><text xml:space="preserve" font-family="GillSans-SemiBold,Gill Sans" font-weight="bold" font-size="20.6" fill="#525252" transform="matrix(1.00, 0.00, -0.00, -1.00, 537.9, 100.2)">n</text><text xml:space="preserve" font-family="GillSans-SemiBold,Gill Sans" font-weight="bold" font-size="20.6" fill="#525252" transform="matrix(1.00, 0.00, -0.00, -1.00, 549.1, 100.2)">e</text><text xml:space="preserve" font-family="GillSans-SemiBold,Gill Sans" font-weight="bold" font-size="20.6" fill="#525252" transform="matrix(1.00, 0.00, -0.00, -1.00, 559.8, 100.2)"> </text><text xml:space="preserve" font-family="GillSans-SemiBold,Gill Sans" font-weight="bold" font-size="20.6" fill="#525252" transform="matrix(1.00, 0.00, -0.00, -1.00, 565.5, 100.2)">P</text><text xml:space="preserve" font-family="GillSans-SemiBold,Gill Sans" font-weight="bold" font-size="20.6" fill="#525252" transform="matrix(1.00, 0.00, -0.00, -1.00, 577.5, 100.2)">r</text><text xml:space="preserve" font-family="GillSans-SemiBold,Gill Sans" font-weight="bold" font-size="20.6" fill="#525252" transform="matrix(1.00, 0.00, -0.00, -1.00, 585.8, 100.2)">o</text><text xml:space="preserve" font-family="GillSans-SemiBold,Gill Sans" font-weight="bold" font-size="20.6" fill="#525252" transform="matrix(1.00, 0.00, -0.00, -1.00, 597.6, 100.2)">j</text><text xml:space="preserve" font-family="GillSans-SemiBold,Gill Sans" font-weight="bold" font-size="20.6" fill="#525252" transform="matrix(1.00, 0.00, -0.00, -1.00, 602.7, 100.2)">e</text><text xml:space="preserve" font-family="GillSans-SemiBold,Gill Sans" font-weight="bold" font-size="20.6" fill="#525252" transform="matrix(1.00, 0.00, -0.00, -1.00, 613.4, 100.2)">c</text><text xml:space="preserve" font-family="GillSans-SemiBold,Gill Sans" font-weight="bold" font-size="20.6" fill="#525252" transform="matrix(1.00, 0.00, -0.00, -1.00, 622.9, 100.2)">t</text><text xml:space="preserve" font-family="GillSans-SemiBold,Gill Sans" font-weight="bold" font-size="20.6" fill="#525252" transform="matrix(1.00, 0.00, -0.00, -1.00, 630.5, 100.2)"> </text><text xml:space="preserve" font-family="GillSans-Light,Gill Sans" font-size="16.3" fill="#525252" transform="matrix(1.00, 0.00, -0.00, -1.00, 479.8, 79.9)">D</text><text xml:space="preserve" font-family="GillSans-Light,Gill Sans" font-size="16.3" fill="#525252" transform="matrix(1.00, 0.00, -0.00, -1.00, 491.9, 79.9)">a</text><text xml:space="preserve" font-family="GillSans-Light,Gill Sans" font-size="16.3" fill="#525252" transform="matrix(1.00, 0.00, -0.00, -1.00, 498.9, 79.9)">n</text><text xml:space="preserve" font-family="GillSans-Light,Gill Sans" font-size="16.3" fill="#525252" transform="matrix(1.00, 0.00, -0.00, -1.00, 506.9, 79.9)">n</text><text xml:space="preserve" font-family="GillSans-Light,Gill Sans" font-size="16.3" fill="#525252" transform="matrix(1.00, 0.00, -0.00, -1.00, 514.7, 79.9)">y</text><text xml:space="preserve" font-family="GillSans-Light,Gill Sans" font-size="16.3" fill="#525252" transform="matrix(1.00, 0.00, -0.00, -1.00, 521.5, 79.9)"> </text><text xml:space="preserve" font-family="GillSans-Light,Gill Sans" font-size="16.3" fill="#525252" transform="matrix(1.00, 0.00, -0.00, -1.00, 523.6, 79.9)">Y</text><text xml:space="preserve" font-family="GillSans-Light,Gill Sans" font-size="16.3" fill="#525252" transform="matrix(1.00, 0.00, -0.00, -1.00, 533.1, 79.9)">i</text><text xml:space="preserve" font-family="GillSans-Light,Gill Sans" font-size="16.3" fill="#525252" transform="matrix(1.00, 0.00, -0.00, -1.00, 536.2, 79.9)">u</text><text xml:space="preserve" font-family="GillSans-Light,Gill Sans" font-size="16.3" fill="#525252" transform="matrix(1.00, 0.00, -0.00, -1.00, 465.8, 60.9)">M</text><text xml:space="preserve" font-family="GillSans-Light,Gill Sans" font-size="16.3" fill="#525252" transform="matrix(1.00, 0.00, -0.00, -1.00, 478.5, 60.9)">a</text><text xml:space="preserve" font-family="GillSans-Light,Gill Sans" font-size="16.3" fill="#525252" transform="matrix(1.00, 0.00, -0.00, -1.00, 485.5, 60.9)">r</text><text xml:space="preserve" font-family="GillSans-Light,Gill Sans" font-size="16.3" fill="#525252" transform="matrix(1.00, 0.00, -0.00, -1.00, 492.3, 60.9)">t</text><text xml:space="preserve" font-family="GillSans-Light,Gill Sans" font-size="16.3" fill="#525252" transform="matrix(1.00, 0.00, -0.00, -1.00, 497.2, 60.9)">h</text><text xml:space="preserve" font-family="GillSans-Light,Gill Sans" font-size="16.3" fill="#525252" transform="matrix(1.00, 0.00, -0.00, -1.00, 505.2, 60.9)">e</text><text xml:space="preserve" font-family="GillSans-Light,Gill Sans" font-size="16.3" fill="#525252" transform="matrix(1.00, 0.00, -0.00, -1.00, 513.0, 60.9)"> </text><text xml:space="preserve" font-family="GillSans-Light,Gill Sans" font-size="16.3" fill="#525252" transform="matrix(1.00, 0.00, -0.00, -1.00, 517.6, 60.9)">N</text><text xml:space="preserve" font-family="GillSans-Light,Gill Sans" font-size="16.3" fill="#525252" transform="matrix(1.00, 0.00, -0.00, -1.00, 530.2, 60.9)">s</text><text xml:space="preserve" font-family="GillSans-Light,Gill Sans" font-size="16.3" fill="#525252" transform="matrix(1.00, 0.00, -0.00, -1.00, 535.9, 60.9)">a</text><text xml:space="preserve" font-family="GillSans-Light,Gill Sans" font-size="16.3" fill="#525252" transform="matrix(1.00, 0.00, -0.00, -1.00, 542.9, 60.9)">b</text><text xml:space="preserve" font-family="GillSans-Light,Gill Sans" font-size="16.3" fill="#525252" transform="matrix(1.00, 0.00, -0.00, -1.00, 551.2, 60.9)">a</text><text xml:space="preserve" font-family="GillSans-Light,Gill Sans" font-size="16.3" fill="#525252" transform="matrix(1.00, 0.00, -0.00, -1.00, 459.7, 41.9)">K</text><text xml:space="preserve" font-family="GillSans-Light,Gill Sans" font-size="16.3" fill="#525252" transform="matrix(1.00, 0.00, -0.00, -1.00, 468.3, 41.9)">e</text><text xml:space="preserve" font-family="GillSans-Light,Gill Sans" font-size="16.3" fill="#525252" transform="matrix(1.00, 0.00, -0.00, -1.00, 476.2, 41.9)">n</text><text xml:space="preserve" font-family="GillSans-Light,Gill Sans" font-size="16.3" fill="#525252" transform="matrix(1.00, 0.00, -0.00, -1.00, 484.2, 41.9)">n</text><text xml:space="preserve" font-family="GillSans-Light,Gill Sans" font-size="16.3" fill="#525252" transform="matrix(1.00, 0.00, -0.00, -1.00, 492.2, 41.9)">e</text><text xml:space="preserve" font-family="GillSans-Light,Gill Sans" font-size="16.3" fill="#525252" transform="matrix(1.00, 0.00, -0.00, -1.00, 500.0, 41.9)">t</text><text xml:space="preserve" font-family="GillSans-Light,Gill Sans" font-size="16.3" fill="#525252" transform="matrix(1.00, 0.00, -0.00, -1.00, 504.9, 41.9)">h</text><text xml:space="preserve" font-family="GillSans-Light,Gill Sans" font-size="16.3" fill="#525252" transform="matrix(1.00, 0.00, -0.00, -1.00, 513.0, 41.9)"> </text><text xml:space="preserve" font-family="GillSans-Light,Gill Sans" font-size="16.3" fill="#525252" transform="matrix(1.00, 0.00, -0.00, -1.00, 517.5, 41.9)">S</text><text xml:space="preserve" font-family="GillSans-Light,Gill Sans" font-size="16.3" fill="#525252" transform="matrix(1.00, 0.00, -0.00, -1.00, 525.2, 41.9)">u</text><text xml:space="preserve" font-family="GillSans-Light,Gill Sans" font-size="16.3" fill="#525252" transform="matrix(1.00, 0.00, -0.00, -1.00, 533.2, 41.9)">l</text><text xml:space="preserve" font-family="GillSans-Light,Gill Sans" font-size="16.3" fill="#525252" transform="matrix(1.00, 0.00, -0.00, -1.00, 536.2, 41.9)">l</text><text xml:space="preserve" font-family="GillSans-Light,Gill Sans" font-size="16.3" fill="#525252" transform="matrix(1.00, 0.00, -0.00, -1.00, 539.3, 41.9)">i</text><text xml:space="preserve" font-family="GillSans-Light,Gill Sans" font-size="16.3" fill="#525252" transform="matrix(1.00, 0.00, -0.00, -1.00, 542.4, 41.9)">v</text><text xml:space="preserve" font-family="GillSans-Light,Gill Sans" font-size="16.3" fill="#525252" transform="matrix(1.00, 0.00, -0.00, -1.00, 549.4, 41.9)">a</text><text xml:space="preserve" font-family="GillSans-Light,Gill Sans" font-size="16.3" fill="#525252" transform="matrix(1.00, 0.00, -0.00, -1.00, 556.3, 41.9)">n</text><image xlink:href="680EAEA20496D9CB9E67570E2B46D2B1.png" width="1794.00" height="1794.00" transform="matrix(0.35, 0.00, -0.00, -0.35, 197.0, 803.0)"></image><g><clipPath id="clip0x7fde563d2fb0"><path d="M 372.2 42.0 C 366.0 42.0 361.0 37.0 361.0 30.8 C 361.0 24.6 366.0 19.6 372.2 19.6 C 378.4 19.6 383.4 24.6 383.4 30.8 C 383.4 37.0 378.4 42.0 372.2 42.0 L 372.2 42.0 Z M 375.4 22.2 C 375.3 23.1 375.2 24.2 375.2 24.6 C 375.2 25.0 375.2 25.8 374.3 26.4 C 377.6 26.7 379.1 28.5 379.2 30.8 C 379.3 32.2 378.8 33.4 377.8 34.3 C 377.9 35.3 377.8 36.5 377.7 37.1 C 377.0 37.3 375.3 36.4 374.8 36.0 C 373.8 36.4 371.4 36.5 369.9 36.0 C 368.8 36.7 367.6 37.2 367.0 37.1 C 366.3 35.7 366.7 34.5 366.9 34.3 C 366.1 33.6 365.0 32.7 365.3 30.9 C 365.8 28.2 367.7 26.7 370.7 26.4 C 370.1 26.2 369.9 25.8 369.9 25.5 C 367.8 24.7 367.3 26.1 367.0 26.4 C 366.1 27.5 365.4 27.2 365.3 27.2 C 365.3 27.1 365.2 27.1 365.2 27.0 C 365.3 26.8 365.7 26.6 365.8 26.6 C 366.4 26.1 366.6 25.2 366.8 25.0 C 367.7 23.5 369.8 24.1 369.8 24.1 C 369.8 24.0 369.8 22.9 369.8 22.0 C 365.9 23.1 363.1 26.6 363.1 30.8 C 363.1 35.8 367.2 39.9 372.2 39.9 C 377.2 39.9 381.3 35.8 381.3 30.8 C 381.3 26.9 378.8 23.5 375.4 22.2 L 375.4 22.2 Z M 375.4 22.2 "></path></clipPath><g clip-path="url(#clip0x7fde563d2fb0)"><g><clipPath id="clip0x7fde563c7790"><path d="M 361.0 20.0 L 663.0 20.0 L 663.0 42.0 L 361.0 42.0 Z M 361.0 20.0 "></path></clipPath><g clip-path="url(#clip0x7fde563c7790)"><path d="M 356.0 47.0 L 388.4 47.0 L 388.4 14.6 L 356.0 14.6 Z M 356.0 47.0 " fill="#2B414D"></path></g></g></g></g><g><clipPath id="clip0x7fde563c15a0"><path d="M 389.0 25.2 L 389.0 36.0 L 390.3 36.0 L 390.3 31.2 C 391.0 32.3 391.9 32.8 392.9 32.8 C 393.6 32.8 394.1 32.6 394.5 32.2 C 394.9 31.8 395.1 31.2 395.1 30.5 L 395.1 25.2 L 393.7 25.2 L 393.7 30.1 C 393.7 30.6 393.6 31.0 393.5 31.3 C 393.3 31.5 393.0 31.6 392.7 31.6 C 391.8 31.6 391.1 31.1 390.3 30.0 L 390.3 25.2 L 389.0 25.2 Z M 399.9 25.0 C 399.2 25.0 398.7 25.2 398.3 25.6 C 397.9 26.0 397.7 26.5 397.7 27.2 L 397.7 31.6 L 396.8 31.6 L 396.8 32.6 L 397.7 32.6 L 397.7 34.0 L 399.1 34.1 L 399.1 32.6 L 401.0 32.6 L 401.0 31.6 L 399.1 31.6 L 399.1 27.5 C 399.1 26.5 399.5 26.0 400.3 26.0 C 400.5 26.0 400.7 26.1 401.0 26.1 L 401.0 25.2 C 400.6 25.1 400.2 25.0 399.9 25.0 L 399.9 25.0 Z M 405.2 25.0 C 404.5 25.0 403.9 25.2 403.6 25.6 C 403.2 26.0 403.0 26.5 403.0 27.2 L 403.0 31.6 L 402.0 31.6 L 402.0 32.6 L 403.0 32.6 L 403.0 34.0 L 404.3 34.1 L 404.3 32.6 L 406.3 32.6 L 406.3 31.6 L 404.3 31.6 L 404.3 27.5 C 404.3 26.5 404.7 26.0 405.6 26.0 C 405.8 26.0 406.0 26.1 406.2 26.1 L 406.2 25.2 C 405.8 25.1 405.5 25.0 405.2 25.0 L 405.2 25.0 Z M 408.2 22.5 L 408.2 32.6 L 409.5 32.6 L 409.5 31.2 C 410.1 32.3 410.9 32.8 412.0 32.8 C 412.9 32.8 413.6 32.5 414.1 31.8 C 414.6 31.1 414.9 30.3 414.9 29.1 C 414.9 27.9 414.6 26.9 414.0 26.1 C 413.4 25.4 412.7 25.0 411.7 25.0 C 410.8 25.0 410.1 25.3 409.5 26.0 L 409.5 22.5 L 408.2 22.5 Z M 409.5 27.0 C 410.2 26.3 410.9 26.0 411.5 26.0 C 412.8 26.0 413.4 27.0 413.4 29.0 C 413.4 30.7 412.9 31.6 411.7 31.6 C 411.0 31.6 410.2 31.2 409.5 30.4 L 409.5 27.0 Z M 419.0 25.0 C 418.3 25.0 417.6 25.2 416.7 25.4 L 416.7 26.7 C 417.6 26.2 418.4 26.0 419.0 26.0 C 419.4 26.0 419.7 26.1 420.0 26.3 C 420.2 26.5 420.4 26.8 420.4 27.1 C 420.4 27.6 420.0 28.0 419.3 28.3 L 418.5 28.6 C 417.3 29.1 416.8 29.8 416.8 30.7 C 416.8 31.3 417.0 31.8 417.4 32.2 C 417.9 32.6 418.5 32.8 419.3 32.8 C 419.7 32.8 420.3 32.7 420.9 32.6 L 421.2 32.6 L 421.2 31.4 C 420.4 31.7 419.8 31.8 419.4 31.8 C 418.5 31.8 418.1 31.4 418.1 30.8 C 418.1 30.4 418.4 30.1 419.0 29.8 L 419.7 29.5 C 420.4 29.2 420.9 28.9 421.3 28.5 C 421.6 28.2 421.7 27.8 421.7 27.2 C 421.7 26.6 421.5 26.1 420.9 25.6 C 420.4 25.2 419.8 25.0 419.0 25.0 L 419.0 25.0 Z M 424.3 25.2 L 424.3 26.5 L 425.7 26.5 L 425.7 25.2 L 424.3 25.2 Z M 424.3 31.3 L 424.3 32.6 L 425.7 32.6 L 425.7 31.3 L 424.3 31.3 Z M 428.5 23.2 L 432.2 35.3 L 433.3 35.3 L 429.6 23.2 L 428.5 23.2 Z M 435.9 23.2 L 439.5 35.3 L 440.6 35.3 L 437.0 23.2 L 435.9 23.2 Z M 443.3 22.7 L 443.5 23.9 C 444.2 23.5 445.0 23.3 445.8 23.3 C 447.3 23.3 448.0 24.1 448.0 25.7 L 448.0 26.9 C 447.5 25.9 446.7 25.4 445.6 25.4 C 444.7 25.4 444.0 25.7 443.5 26.3 C 442.9 27.0 442.7 27.8 442.7 28.9 C 442.7 30.1 443.0 31.0 443.6 31.7 C 444.2 32.4 445.0 32.8 445.9 32.8 C 446.7 32.8 447.4 32.4 448.0 31.8 L 448.0 32.6 L 449.4 32.6 L 449.4 27.2 C 449.4 26.0 449.3 25.2 449.2 24.6 C 449.1 24.1 448.9 23.6 448.5 23.2 C 447.9 22.6 447.0 22.3 445.8 22.3 C 444.9 22.3 444.1 22.4 443.3 22.7 L 443.3 22.7 Z M 448.0 27.8 L 448.0 30.8 C 447.4 31.5 446.8 31.8 446.1 31.8 C 445.5 31.8 445.0 31.5 444.6 31.0 C 444.3 30.5 444.1 29.8 444.1 29.0 C 444.1 27.3 444.7 26.5 445.8 26.5 C 446.6 26.5 447.4 26.9 448.0 27.8 L 448.0 27.8 Z M 452.0 25.2 L 452.0 32.6 L 453.4 32.6 L 453.4 25.2 L 452.0 25.2 Z M 452.0 34.0 L 452.0 35.3 L 453.4 35.3 L 453.4 34.0 L 452.0 34.0 Z M 458.3 25.0 C 457.6 25.0 457.1 25.2 456.7 25.6 C 456.3 26.0 456.1 26.5 456.1 27.2 L 456.1 31.6 L 455.2 31.6 L 455.2 32.6 L 456.1 32.6 L 456.1 34.0 L 457.5 34.1 L 457.5 32.6 L 459.4 32.6 L 459.4 31.6 L 457.5 31.6 L 457.5 27.5 C 457.5 26.5 457.9 26.0 458.7 26.0 C 458.9 26.0 459.1 26.1 459.4 26.1 L 459.4 25.2 C 459.0 25.1 458.6 25.0 458.3 25.0 L 458.3 25.0 Z M 461.3 25.2 L 461.3 36.0 L 462.7 36.0 L 462.7 31.2 C 463.4 32.3 464.2 32.8 465.3 32.8 C 465.9 32.8 466.4 32.6 466.8 32.2 C 467.2 31.8 467.4 31.2 467.4 30.5 L 467.4 25.2 L 466.0 25.2 L 466.0 30.1 C 466.0 30.6 466.0 31.0 465.8 31.3 C 465.6 31.5 465.4 31.6 465.0 31.6 C 464.2 31.6 463.4 31.1 462.7 30.0 L 462.7 25.2 L 461.3 25.2 Z M 474.7 25.2 L 474.7 26.6 C 473.9 25.5 473.1 25.0 472.0 25.0 C 471.4 25.0 470.9 25.2 470.5 25.6 C 470.1 26.0 469.9 26.6 469.9 27.3 L 469.9 32.6 L 471.3 32.6 L 471.3 27.7 C 471.3 27.2 471.4 26.8 471.5 26.5 C 471.7 26.3 471.9 26.2 472.3 26.2 C 473.1 26.2 473.9 26.7 474.7 27.8 L 474.7 32.6 L 476.0 32.6 L 476.0 25.2 L 474.7 25.2 Z M 478.7 25.1 L 478.7 36.0 L 480.1 36.0 L 480.1 31.2 C 480.6 32.3 481.4 32.8 482.5 32.8 C 483.4 32.8 484.1 32.5 484.6 31.8 C 485.2 31.1 485.4 30.3 485.4 29.1 C 485.4 27.9 485.1 26.9 484.5 26.1 C 484.0 25.4 483.2 25.0 482.2 25.0 C 481.4 25.0 480.6 25.3 480.1 26.0 L 479.9 25.1 L 478.7 25.1 Z M 480.1 27.0 C 480.7 26.3 481.4 26.0 482.0 26.0 C 483.3 26.0 484.0 27.0 484.0 29.0 C 484.0 30.7 483.4 31.6 482.3 31.6 C 481.5 31.6 480.8 31.2 480.1 30.4 L 480.1 27.0 Z M 487.5 25.2 L 487.5 26.9 L 489.2 26.9 L 489.2 25.2 L 487.5 25.2 Z M 494.9 25.0 C 493.9 25.0 493.0 25.4 492.4 26.1 C 491.7 26.9 491.4 27.8 491.4 28.9 C 491.4 30.1 491.7 31.1 492.4 31.8 C 493.0 32.4 493.9 32.8 495.1 32.8 C 495.7 32.8 496.3 32.7 497.0 32.5 L 497.0 31.4 C 496.3 31.6 495.7 31.7 495.2 31.7 C 494.5 31.7 493.9 31.5 493.5 31.0 C 493.1 30.4 492.9 29.8 492.9 28.9 C 492.9 28.1 493.1 27.4 493.5 26.9 C 494.0 26.4 494.5 26.1 495.2 26.1 C 495.8 26.1 496.5 26.3 497.1 26.6 L 497.1 25.4 C 496.3 25.1 495.5 25.0 494.9 25.0 L 494.9 25.0 Z M 502.1 25.0 C 501.0 25.0 500.1 25.4 499.5 26.1 C 498.9 26.8 498.6 27.7 498.6 28.9 C 498.6 30.1 498.9 31.0 499.5 31.7 C 500.1 32.4 501.0 32.8 502.1 32.8 C 503.2 32.8 504.1 32.4 504.7 31.7 C 505.3 31.0 505.6 30.1 505.6 28.9 C 505.6 27.7 505.3 26.7 504.7 26.0 C 504.0 25.4 503.2 25.0 502.1 25.0 L 502.1 25.0 Z M 502.1 26.0 C 503.5 26.0 504.2 27.0 504.2 28.9 C 504.2 30.8 503.5 31.8 502.1 31.8 C 500.7 31.8 500.0 30.8 500.0 28.9 C 500.0 27.0 500.7 26.0 502.1 26.0 L 502.1 26.0 Z M 507.8 25.2 L 507.8 32.6 L 509.1 32.6 L 509.1 31.2 C 509.8 32.3 510.6 32.8 511.6 32.8 C 512.6 32.8 513.3 32.3 513.7 31.2 C 514.3 32.3 515.1 32.8 516.2 32.8 C 516.8 32.8 517.3 32.6 517.7 32.2 C 518.0 31.8 518.2 31.3 518.2 30.6 L 518.2 25.2 L 516.9 25.2 L 516.9 30.4 C 516.9 31.2 516.5 31.6 515.9 31.6 C 515.2 31.6 514.4 31.2 513.7 30.2 L 513.7 25.2 L 512.3 25.2 L 512.3 30.4 C 512.3 31.2 512.0 31.7 511.3 31.7 C 510.6 31.7 509.9 31.2 509.1 30.2 L 509.1 25.2 L 507.8 25.2 Z M 520.8 23.2 L 524.5 35.3 L 525.5 35.3 L 521.9 23.2 L 520.8 23.2 Z M 533.0 25.2 L 533.0 26.6 C 532.4 25.5 531.6 25.0 530.5 25.0 C 529.6 25.0 528.9 25.3 528.4 26.0 C 527.9 26.6 527.6 27.5 527.6 28.7 C 527.6 29.9 527.9 30.9 528.5 31.6 C 529.1 32.4 529.8 32.8 530.8 32.8 C 531.7 32.8 532.4 32.4 533.0 31.8 L 533.0 36.0 L 534.3 36.0 L 534.3 25.2 L 533.0 25.2 Z M 533.0 30.8 C 532.3 31.5 531.6 31.8 531.0 31.8 C 529.7 31.8 529.0 30.8 529.0 28.8 C 529.0 27.1 529.6 26.2 530.8 26.2 C 531.5 26.2 532.2 26.6 533.0 27.4 L 533.0 30.8 Z M 540.8 26.1 C 540.0 25.4 539.3 25.0 538.5 25.0 C 537.9 25.0 537.4 25.2 537.0 25.6 C 536.6 26.0 536.4 26.5 536.4 27.0 C 536.4 27.9 536.7 28.5 537.4 28.9 C 538.1 29.4 539.1 29.6 540.3 29.6 L 540.6 29.6 L 540.6 30.5 C 540.6 31.3 540.2 31.8 539.3 31.8 C 538.6 31.8 537.8 31.5 537.0 31.1 L 537.0 32.2 C 537.9 32.6 538.8 32.8 539.6 32.8 C 540.4 32.8 541.0 32.6 541.4 32.2 C 541.8 31.8 542.0 31.3 542.0 30.5 L 542.0 27.1 C 542.0 26.3 542.2 25.9 542.7 25.9 C 542.8 25.9 542.9 26.0 543.0 26.0 L 543.1 25.2 C 542.8 25.1 542.4 25.0 542.0 25.0 C 541.4 25.0 541.0 25.4 540.8 26.1 L 540.8 26.1 Z M 540.6 26.9 L 540.6 28.8 L 540.2 28.8 C 539.5 28.8 538.9 28.7 538.4 28.4 C 537.9 28.1 537.7 27.7 537.7 27.3 C 537.7 26.9 537.8 26.7 538.1 26.4 C 538.3 26.2 538.6 26.1 538.9 26.1 C 539.5 26.1 540.0 26.4 540.6 26.9 L 540.6 26.9 Z M 544.8 25.2 L 544.8 32.6 L 546.1 32.6 L 546.1 31.2 C 546.8 32.3 547.7 32.8 548.7 32.8 C 549.4 32.8 549.9 32.6 550.3 32.2 C 550.6 31.8 550.8 31.2 550.8 30.5 L 550.8 25.2 L 549.5 25.2 L 549.5 30.1 C 549.5 30.6 549.4 31.0 549.2 31.3 C 549.1 31.5 548.8 31.6 548.4 31.6 C 547.6 31.6 546.8 31.1 546.1 30.0 L 546.1 25.2 L 544.8 25.2 Z M 553.5 25.2 L 553.5 32.6 L 554.8 32.6 L 554.8 31.2 C 555.5 32.3 556.4 32.8 557.4 32.8 C 558.1 32.8 558.6 32.6 559.0 32.2 C 559.3 31.8 559.5 31.2 559.5 30.5 L 559.5 25.2 L 558.2 25.2 L 558.2 30.1 C 558.2 30.6 558.1 31.0 557.9 31.3 C 557.8 31.5 557.5 31.6 557.1 31.6 C 556.3 31.6 555.5 31.1 554.8 30.0 L 554.8 25.2 L 553.5 25.2 Z M 562.6 22.5 L 563.8 25.2 L 560.9 32.6 L 562.4 32.6 L 564.5 27.0 L 566.8 32.6 L 568.0 32.6 L 564.0 22.5 L 562.6 22.5 Z M 569.9 22.5 L 571.1 25.2 L 568.2 32.6 L 569.7 32.6 L 571.8 27.0 L 574.1 32.6 L 575.4 32.6 L 571.3 22.5 L 569.9 22.5 Z M 576.8 25.2 L 576.8 32.6 L 578.1 32.6 L 578.1 25.2 L 576.8 25.2 Z M 576.8 34.0 L 576.8 35.3 L 578.1 35.3 L 578.1 34.0 L 576.8 34.0 Z M 585.5 25.2 L 585.5 26.6 C 584.8 25.5 583.9 25.0 582.9 25.0 C 582.2 25.0 581.7 25.2 581.3 25.6 C 581.0 26.0 580.8 26.6 580.8 27.3 L 580.8 32.6 L 582.1 32.6 L 582.1 27.7 C 582.1 27.2 582.2 26.8 582.4 26.5 C 582.5 26.3 582.8 26.2 583.2 26.2 C 584.0 26.2 584.8 26.7 585.5 27.8 L 585.5 32.6 L 586.8 32.6 L 586.8 25.2 L 585.5 25.2 Z M 589.5 23.2 L 593.2 35.3 L 594.2 35.3 L 590.6 23.2 L 589.5 23.2 Z M 600.8 25.2 L 600.8 28.0 L 596.3 28.0 L 596.3 29.1 L 600.8 35.3 L 602.1 35.3 L 602.1 29.1 L 603.5 29.1 L 603.5 28.0 L 602.1 28.0 L 602.1 25.2 L 600.8 25.2 Z M 597.6 29.1 L 600.9 29.1 L 600.9 33.7 L 597.6 29.1 Z M 606.5 25.2 L 606.5 26.2 L 608.5 26.2 L 608.5 34.2 L 606.5 33.7 L 606.5 34.7 L 609.9 35.6 L 609.9 26.2 L 611.9 26.2 L 611.9 25.2 L 606.5 25.2 Z M 617.7 24.9 C 616.6 24.9 615.8 25.4 615.1 26.4 C 614.5 27.4 614.2 28.7 614.2 30.3 C 614.2 31.8 614.5 33.1 615.1 34.1 C 615.8 35.1 616.7 35.6 617.7 35.6 C 618.8 35.6 619.6 35.1 620.3 34.1 C 620.9 33.1 621.3 31.9 621.3 30.3 C 621.3 28.6 620.9 27.4 620.3 26.4 C 619.6 25.4 618.8 24.9 617.7 24.9 L 617.7 24.9 Z M 617.7 25.9 C 619.1 25.9 619.8 27.4 619.8 30.3 C 619.8 33.1 619.1 34.5 617.7 34.5 C 616.3 34.5 615.6 33.1 615.6 30.3 C 615.6 27.4 616.3 25.9 617.7 25.9 L 617.7 25.9 Z M 626.4 25.0 C 625.4 25.0 624.6 25.4 623.9 26.1 C 623.2 26.9 622.9 27.8 622.9 28.9 C 622.9 30.1 623.2 31.1 623.9 31.8 C 624.5 32.4 625.5 32.8 626.6 32.8 C 627.2 32.8 627.9 32.7 628.6 32.5 L 628.6 31.4 C 627.8 31.6 627.2 31.7 626.7 31.7 C 626.0 31.7 625.5 31.5 625.0 31.0 C 624.6 30.4 624.4 29.8 624.4 28.9 C 624.4 28.1 624.6 27.4 625.1 26.9 C 625.5 26.4 626.1 26.1 626.7 26.1 C 627.4 26.1 628.0 26.3 628.7 26.6 L 628.7 25.4 C 627.8 25.1 627.0 25.0 626.4 25.0 L 626.4 25.0 Z M 633.6 25.0 C 632.5 25.0 631.7 25.4 631.0 26.1 C 630.4 26.8 630.1 27.7 630.1 28.9 C 630.1 30.1 630.4 31.0 631.0 31.7 C 631.7 32.4 632.5 32.8 633.6 32.8 C 634.7 32.8 635.6 32.4 636.2 31.7 C 636.9 31.0 637.2 30.1 637.2 28.9 C 637.2 27.7 636.9 26.7 636.2 26.0 C 635.6 25.4 634.7 25.0 633.6 25.0 L 633.6 25.0 Z M 633.6 26.0 C 635.0 26.0 635.7 27.0 635.7 28.9 C 635.7 30.8 635.0 31.8 633.6 31.8 C 632.2 31.8 631.5 30.8 631.5 28.9 C 631.5 27.0 632.2 26.0 633.6 26.0 L 633.6 26.0 Z M 639.5 25.2 L 639.5 31.6 L 638.5 31.6 L 638.5 32.6 L 639.5 32.6 L 639.5 33.5 C 639.5 35.3 640.3 36.2 642.0 36.2 C 642.4 36.2 642.9 36.1 643.5 35.9 L 643.5 34.9 C 642.9 35.1 642.4 35.1 642.0 35.1 C 641.6 35.1 641.3 35.0 641.1 34.8 C 641.0 34.6 640.9 34.2 640.9 33.6 L 640.9 32.6 L 644.3 32.6 L 644.3 33.5 C 644.3 35.3 645.1 36.2 646.7 36.2 C 647.1 36.2 647.6 36.1 648.2 35.9 L 648.2 34.9 C 647.6 35.1 647.1 35.1 646.8 35.1 C 646.3 35.1 646.0 35.0 645.9 34.8 C 645.7 34.6 645.6 34.2 645.6 33.6 L 645.6 32.6 L 647.5 32.6 L 647.5 31.6 L 645.6 31.6 L 645.6 25.2 L 644.3 25.2 L 644.3 31.6 L 640.9 31.6 L 640.9 25.2 L 639.5 25.2 Z M 654.6 25.4 C 653.7 25.1 652.9 25.0 652.3 25.0 C 651.2 25.0 650.3 25.4 649.6 26.1 C 648.9 26.8 648.6 27.8 648.6 28.9 C 648.6 30.1 648.9 31.0 649.5 31.7 C 650.1 32.4 650.9 32.8 651.8 32.8 C 652.7 32.8 653.4 32.5 653.9 31.8 C 654.4 31.2 654.6 30.3 654.6 29.1 L 654.6 28.7 L 649.9 28.7 C 650.1 26.9 651.0 26.0 652.5 26.0 C 653.1 26.0 653.8 26.2 654.6 26.5 L 654.6 25.4 Z M 650.0 29.7 L 653.3 29.7 C 653.3 31.1 652.8 31.8 651.7 31.8 C 650.7 31.8 650.1 31.1 650.0 29.7 L 650.0 29.7 Z M 662.4 25.4 C 661.5 25.1 660.7 25.0 660.1 25.0 C 659.0 25.0 658.1 25.4 657.4 26.1 C 656.7 26.8 656.4 27.8 656.4 28.9 C 656.4 30.1 656.7 31.0 657.3 31.7 C 657.9 32.4 658.7 32.8 659.6 32.8 C 660.5 32.8 661.2 32.5 661.7 31.8 C 662.2 31.2 662.4 30.3 662.4 29.1 L 662.4 28.7 L 657.8 28.7 C 658.0 26.9 658.8 26.0 660.3 26.0 C 660.9 26.0 661.6 26.2 662.4 26.5 L 662.4 25.4 Z M 657.8 29.7 L 661.1 29.7 C 661.1 31.1 660.6 31.8 659.5 31.8 C 658.5 31.8 657.9 31.1 657.8 29.7 L 657.8 29.7 Z M 657.8 29.7 "></path></clipPath><g clip-path="url(#clip0x7fde563c15a0)"><g><clipPath id="clip0x7fde563be000"><path d="M 361.0 20.0 L 663.0 20.0 L 663.0 42.0 L 361.0 42.0 Z M 361.0 20.0 "></path></clipPath><g clip-path="url(#clip0x7fde563be000)"><path d="M 384.0 41.2 L 667.4 41.2 L 667.4 17.3 L 384.0 17.3 Z M 384.0 41.2 " fill="#314D5A"></path></g></g></g></g></g></svg>