<?xml version="1.0" encoding="UTF-8" standalone="no"?>
<svg width="111px" height="162px" viewBox="0 0 111 162" version="1.1" xmlns="http://www.w3.org/2000/svg" xmlns:xlink="http://www.w3.org/1999/xlink" xmlns:sketch="http://www.bohemiancoding.com/sketch/ns">
    <!-- Generator: Sketch 3.2.2 (9983) - http://www.bohemiancoding.com/sketch -->
    <title>chai_logo</title>
    <desc>Created with Sketch.</desc>
    <defs>
        <path d="M96.1456,92.4796854 C94.7244,101.03518 88.0128,107.439034 79.693,108.681674 L77.0138,124.798551 C75.9224,131.393056 70.2852,136.179775 63.6178,136.179775 L26.568,136.179775 C19.8972,136.179775 14.2634,131.393056 13.1686,124.795146 L1.0136,51.6257528 C0.847,50.6384494 1.1258,49.6307191 1.7752,48.8647079 C2.4178,48.1021011 3.3698,47.6629213 4.3694,47.6629213 L99.5796,47.6629213 C100.5758,47.6629213 101.5278,48.1021011 102.1704,48.8647079 C102.8198,49.6307191 103.0952,50.6384494 102.932,51.6257528 L96.1456,92.4796854 Z M8.378,54.4719101 L19.8768,123.681876 C20.4242,126.977427 23.236,129.370787 26.568,129.370787 L63.6178,129.370787 C66.9464,129.370787 69.7582,126.977427 70.3056,123.681876 L81.8078,54.4719101 L8.378,54.4719101 Z M88.6996,54.4719101 L80.8966,101.426697 C85.2792,99.9423371 88.6384,96.1735618 89.4374,91.3630112 L95.5676,54.4719101 L88.6996,54.4719101 L88.6996,54.4719101 Z M58.7796,23.8314607 C56.8994,23.8314607 55.3796,22.3062472 55.3796,20.4269663 L55.3796,3.40449438 C55.3796,1.52521348 56.8994,0 58.7796,0 C60.6564,0 62.1796,1.52521348 62.1796,3.40449438 L62.1796,20.4269663 C62.1796,22.3062472 60.6564,23.8314607 58.7796,23.8314607 L58.7796,23.8314607 Z M45.1796,34.0449438 C43.2994,34.0449438 41.7796,32.5197303 41.7796,30.6404494 L41.7796,3.40449438 C41.7796,1.52521348 43.2994,0 45.1796,0 C47.0564,0 48.5796,1.52521348 48.5796,3.40449438 L48.5796,30.6404494 C48.5796,32.5197303 47.0564,34.0449438 45.1796,34.0449438 L45.1796,34.0449438 Z M31.5796,34.0449438 C29.6994,34.0449438 28.1796,32.5197303 28.1796,30.6404494 L28.1796,13.6179775 C28.1796,11.7386966 29.6994,10.2134831 31.5796,10.2134831 C33.4564,10.2134831 34.9796,11.7386966 34.9796,13.6179775 L34.9796,30.6404494 C34.9796,32.5197303 33.4564,34.0449438 31.5796,34.0449438 L31.5796,34.0449438 Z M6.1952,136.666618 C27.7512,149.647955 62.8256,149.647955 84.3816,136.666618 C85.9864,135.692933 88.0808,136.217225 89.0464,137.827551 C90.0154,139.441281 89.4952,141.53164 87.887,142.501921 C76.1434,149.573056 60.7142,153.110326 45.2884,153.110326 C29.8626,153.110326 14.4334,149.573056 2.6864,142.501921 C1.0816,141.53164 0.5614,139.441281 1.5304,137.827551 C2.496,136.21382 4.5904,135.696337 6.1952,136.666618 L6.1952,136.666618 Z" id="path-1"></path>
    </defs>
    <g id="Page-1" stroke="none" stroke-width="1" fill="none" fill-rule="evenodd" sketch:type="MSPage">
        <g id="Cup" sketch:type="MSLayerGroup" transform="translate(4.000000, 4.000000)">
            <g id="InnerQR" transform="translate(13.000000, 56.000000)" fill="#231F20" sketch:type="MSShapeGroup">
                <path d="M15.7837838,53.3333333 L15.7837838,46.4197531 L5.91891892,46.4197531 L5.91891892,54.3209877 L6.90540541,54.3209877 L6.90540541,58.2716049 L20.7162162,58.2716049 L20.7162162,77.037037 L25.6486486,77.037037 L25.6486486,56.2962963 L25.6486486,53.3333333 L15.7837838,53.3333333 Z M12.8243243,30.617284 L15.7837838,30.617284 L15.7837838,24.691358 L0.986486486,24.691358 L0.986486486,29.6296296 L0.986486486,33.5802469 L9.86486486,33.5802469 L9.86486486,36.5432099 L15.7837838,36.5432099 L15.7837838,30.617284 L12.8243243,30.617284 L12.8243243,30.617284 L12.8243243,30.617284 Z M68.0675676,5.92592593 L68.0675676,0.987654321 L63.1351351,0.987654321 L63.1351351,20.7407407 L68.0675676,20.7407407 L68.0675676,12.8395062 L73,12.8395062 L73,5.92592593 L68.0675676,5.92592593 L68.0675676,5.92592593 Z M20.7162162,15.8024691 L0,15.8024691 L0,20.7407407 L25.6486486,20.7407407 L25.6486486,17.2839506 L25.6486486,0.987654321 L20.7162162,0.987654321 L20.7162162,15.8024691 L20.7162162,15.8024691 Z M25.6486486,57.2839506 L31.5675676,57.2839506 L31.5675676,63.2098765 L25.6486486,63.2098765 L25.6486486,57.2839506 Z M31.5675676,63.2098765 L37.4864865,63.2098765 L37.4864865,76.0493827 L31.5675676,76.0493827 L31.5675676,63.2098765 Z M37.4864865,55.308642 L63.1351351,55.308642 L63.1351351,60.2469136 L37.4864865,60.2469136 L37.4864865,55.308642 Z M37.4864865,60.2469136 L44.3918919,60.2469136 L44.3918919,70.1234568 L37.4864865,70.1234568 L37.4864865,60.2469136 Z M49.3243243,70.1234568 L57.2162162,70.1234568 L57.2162162,80 L49.3243243,80 L49.3243243,70.1234568 Z M49.3243243,60.2469136 L64.1216216,60.2469136 L64.1216216,65.1851852 L49.3243243,65.1851852 L49.3243243,60.2469136 Z M25.6486486,5.92592593 L31.5675676,5.92592593 L31.5675676,18.7654321 L25.6486486,18.7654321 L25.6486486,5.92592593 Z M31.5675676,0 L37.4864865,0 L37.4864865,5.92592593 L31.5675676,5.92592593 L31.5675676,0 Z M4.93243243,0.987654321 L15.7837838,0.987654321 L15.7837838,11.8518519 L4.93243243,11.8518519 L4.93243243,0.987654321 Z M46.3648649,44.4444444 L57.2162162,44.4444444 L57.2162162,55.308642 L46.3648649,55.308642 L46.3648649,44.4444444 Z M47.3513514,0.987654321 L58.2027027,0.987654321 L58.2027027,11.8518519 L47.3513514,11.8518519 L47.3513514,0.987654321 Z M42.4189189,15.8024691 L63.1351351,15.8024691 L63.1351351,20.7407407 L42.4189189,20.7407407 L42.4189189,15.8024691 Z M25.6486486,24.691358 L31.5675676,24.691358 L31.5675676,30.617284 L25.6486486,30.617284 L25.6486486,24.691358 Z M31.5675676,30.617284 L37.4864865,30.617284 L37.4864865,36.5432099 L31.5675676,36.5432099 L31.5675676,30.617284 Z M31.5675676,18.7654321 L37.4864865,18.7654321 L37.4864865,24.691358 L31.5675676,24.691358 L31.5675676,18.7654321 Z M15.7837838,20.7407407 L25.6486486,20.7407407 L25.6486486,24.691358 L15.7837838,24.691358 L15.7837838,20.7407407 Z M15.7837838,36.5432099 L31.5675676,36.5432099 L31.5675676,46.4197531 L15.7837838,46.4197531 L15.7837838,36.5432099 Z M31.5675676,46.4197531 L37.4864865,46.4197531 L37.4864865,52.345679 L31.5675676,52.345679 L31.5675676,46.4197531 Z M60.1756757,34.5679012 L67.0810811,34.5679012 L67.0810811,45.4320988 L60.1756757,45.4320988 L60.1756757,34.5679012 Z M37.4864865,36.5432099 L44.3918919,36.5432099 L44.3918919,55.308642 L37.4864865,55.308642 L37.4864865,36.5432099 Z M37.4864865,24.691358 L55.2432432,24.691358 L55.2432432,31.6049383 L37.4864865,31.6049383 L37.4864865,24.691358 Z M55.2432432,26.6666667 L62.1486486,26.6666667 L62.1486486,33.5802469 L55.2432432,33.5802469 L55.2432432,26.6666667 Z M60.1756757,20.7407407 L68.0675676,20.7407407 L68.0675676,26.6666667 L60.1756757,26.6666667 L60.1756757,20.7407407 Z M47.3513514,31.6049383 L55.2432432,31.6049383 L55.2432432,39.5061728 L47.3513514,39.5061728 L47.3513514,31.6049383 Z M37.4864865,0.987654321 L42.4189189,0.987654321 L42.4189189,20.7407407 L37.4864865,20.7407407 L37.4864865,0.987654321 Z M4.93243243,62.2222222 L15.7837838,62.2222222 L15.7837838,73.0864198 L4.93243243,73.0864198 L4.93243243,62.2222222 Z" id="Rectangle-3"></path>
            </g>
            <g>
                <g>
                    <use stroke="#FFFFFF" stroke-width="4" fill="#231F1F" fill-rule="evenodd" sketch:type="MSShapeGroup" xlink:href="#path-1"></use>
                    <use stroke="none" fill="none" xlink:href="#path-1"></use>
                </g>
            </g>
        </g>
    </g>
</svg>