<?xml version="1.0" encoding="UTF-8" standalone="no"?>
<svg width="111px" height="162px" viewBox="0 0 111 162" version="1.1" xmlns="http://www.w3.org/2000/svg" xmlns:xlink="http://www.w3.org/1999/xlink" xmlns:sketch="http://www.bohemiancoding.com/sketch/ns">
    <!-- Generator: Sketch 3.2.2 (9983) - http://www.bohemiancoding.com/sketch -->
    <title>chai_logo</title>
    <desc>Created with Sketch.</desc>
    <defs>
        <path d="M96.1456,92.4796854 C94.7244,101.03518 88.0128,107.439034 79.693,108.681674 L77.0138,124.798551 C75.9224,131.393056 70.2852,136.179775 63.6178,136.179775 L26.568,136.179775 C19.8972,136.179775 14.2634,131.393056 13.1686,124.795146 L1.0136,51.6257528 C0.847,50.6384494 1.1258,49.6307191 1.7752,48.8647079 C2.4178,48.1021011 3.3698,47.6629213 4.3694,47.6629213 L99.5796,47.6629213 C100.5758,47.6629213 101.5278,48.1021011 102.1704,48.8647079 C102.8198,49.6307191 103.0952,50.6384494 102.932,51.6257528 L96.1456,92.4796854 Z M8.378,54.4719101 L19.8768,123.681876 C20.4242,126.977427 23.236,129.370787 26.568,129.370787 L63.6178,129.370787 C66.9464,129.370787 69.7582,126.977427 70.3056,123.681876 L81.8078,54.4719101 L8.378,54.4719101 Z M88.6996,54.4719101 L80.8966,101.426697 C85.2792,99.9423371 88.6384,96.1735618 89.4374,91.3630112 L95.5676,54.4719101 L88.6996,54.4719101 L88.6996,54.4719101 Z M58.7796,23.8314607 C56.8994,23.8314607 55.3796,22.3062472 55.3796,20.4269663 L55.3796,3.40449438 C55.3796,1.52521348 56.8994,0 58.7796,0 C60.6564,0 62.1796,1.52521348 62.1796,3.40449438 L62.1796,20.4269663 C62.1796,22.3062472 60.6564,23.8314607 58.7796,23.8314607 L58.7796,23.8314607 Z M45.1796,34.0449438 C43.2994,34.0449438 41.7796,32.5197303 41.7796,30.6404494 L41.7796,3.40449438 C41.7796,1.52521348 43.2994,0 45.1796,0 C47.0564,0 48.5796,1.52521348 48.5796,3.40449438 L48.5796,30.6404494 C48.5796,32.5197303 47.0564,34.0449438 45.1796,34.0449438 L45.1796,34.0449438 Z M31.5796,34.0449438 C29.6994,34.0449438 28.1796,32.5197303 28.1796,30.6404494 L28.1796,13.6179775 C28.1796,11.7386966 29.6994,10.2134831 31.5796,10.2134831 C33.4564,10.2134831 34.9796,11.7386966 34.9796,13.6179775 L34.9796,30.6404494 C34.9796,32.5197303 33.4564,34.0449438 31.5796,34.0449438 L31.5796,34.0449438 Z M6.1952,136.666618 C27.7512,149.647955 62.8256,149.647955 84.3816,136.666618 C85.9864,135.692933 88.0808,136.217225 89.0464,137.827551 C90.0154,139.441281 89.4952,141.53164 87.887,142.501921 C76.1434,149.573056 60.7142,153.110326 45.2884,153.110326 C29.8626,153.110326 14.4334,149.573056 2.6864,142.501921 C1.0816,141.53164 0.5614,139.441281 1.5304,137.827551 C2.496,136.21382 4.5904,135.696337 6.1952,136.666618 L6.1952,136.666618 Z" id="path-1"></path>
    </defs>
    <g id="Page-1" stroke="none" stroke-width="1" fill="none" fill-rule="evenodd" sketch:type="MSPage">
        <g id="Cup" sketch:type="MSLayerGroup" transform="translate(4.000000, 4.000000)">
            <g id="InnerQR" transform="translate(13.000000, 57.000000)" fill="#231F20" sketch:type="MSShapeGroup">
                <path d="M16,54 L16,47 L6,47 L6,55 L7,55 L7,59 L21,59 L21,78 L26,78 L26,57 L26,54 L16,54 Z M13,31 L16,31 L16,25 L1,25 L1,30 L1,34 L10,34 L10,37 L16,37 L16,31 L13,31 L13,31 Z M69,6 L69,1 L64,1 L64,21 L69,21 L69,13 L74,13 L74,6 L69,6 L69,6 Z M21,16 L0,16 L0,21 L26,21 L26,17.5 L26,1 L21,1 L21,16 Z M26,58 L32,58 L32,64 L26,64 L26,58 Z M32,64 L38,64 L38,77 L32,77 L32,64 Z M38,56 L64,56 L64,61 L38,61 L38,56 Z M38,61 L45,61 L45,71 L38,71 L38,61 Z M50,71 L58,71 L58,81 L50,81 L50,71 Z M50,61 L65,61 L65,66 L50,66 L50,61 Z M26,6 L32,6 L32,19 L26,19 L26,6 Z M32,0 L38,0 L38,6 L32,6 L32,0 Z M5,1 L16,1 L16,12 L5,12 L5,1 Z M47,45 L58,45 L58,56 L47,56 L47,45 Z M48,1 L59,1 L59,12 L48,12 L48,1 Z M43,16 L64,16 L64,21 L43,21 L43,16 Z M26,25 L32,25 L32,31 L26,31 L26,25 Z M32,31 L38,31 L38,37 L32,37 L32,31 Z M32,19 L38,19 L38,25 L32,25 L32,19 Z M16,21 L26,21 L26,25 L16,25 L16,21 Z M16,37 L32,37 L32,47 L16,47 L16,37 Z M32,47 L38,47 L38,53 L32,53 L32,47 Z M61,35 L68,35 L68,46 L61,46 L61,35 Z M38,37 L45,37 L45,56 L38,56 L38,37 Z M38,25 L56,25 L56,32 L38,32 L38,25 Z M56,27 L63,27 L63,34 L56,34 L56,27 Z M61,21 L69,21 L69,27 L61,27 L61,21 Z M48,32 L56,32 L56,40 L48,40 L48,32 Z M38,1 L43,1 L43,21 L38,21 L38,1 Z M5,63 L16,63 L16,74 L5,74 L5,63 Z" id="Rectangle-3"></path>
            </g>
            <g>
                <g>
                    <use stroke="#FFFFFF" stroke-width="4" fill="#231F1F" fill-rule="evenodd" sketch:type="MSShapeGroup" xlink:href="#path-1"></use>
                    <use stroke="none" fill="none" xlink:href="#path-1"></use>
                </g>
            </g>
        </g>
    </g>
</svg>